<?xml version="1.0" standalone="no"?>
<!DOCTYPE svg PUBLIC "-//W3C//DTD SVG 1.1//EN" "http://www.w3.org/Graphics/SVG/1.1/DTD/svg11.dtd" >
<svg xmlns="http://www.w3.org/2000/svg">
<metadata></metadata>
<defs>
<font id="pf_dintext_proitalic" horiz-adv-x="3723" >
<font-face units-per-em="2048" ascent="1536" descent="-512" />
<missing-glyph horiz-adv-x="458" />
<glyph unicode="fj" horiz-adv-x="978" d="M20 -305l228 1173h-125l29 148h124l33 164q18 96 54 159.5t85.5 100.5t108.5 52t125 15q213 0 299 -131l-115 -114q-27 41 -74 64.5t-128 23.5q-88 0 -128 -41t-57 -125l-33 -168h486l-215 -1153q-25 -123 -96.5 -200t-208.5 -77h-101l31 154h12.5h20.5h18t10 2 q55 2 94.5 36t51.5 97l186 993h-317l-228 -1173h-170z" />
<glyph unicode="ffj" horiz-adv-x="1488" d="M23 -305l227 1173h-125l29 148h125l24 123q18 96 57 159.5t91.5 100.5t114 51t126.5 14q63 0 130 -11t108 -36q61 51 121.5 70.5t140.5 19.5q104 0 182 -31.5t125 -99.5l-125 -114q-33 41 -77 64.5t-126 23.5q-78 0 -129 -41t-67 -125l-33 -168h488l-218 -1153 q-12 -61 -34.5 -112.5t-59.5 -87.5t-92 -56.5t-133 -20.5h-86l31 154h12h20.5h18.5t10 2q55 2 94 36t51 97l193 993h-324l-227 -1173h-170l227 1173h-323l-227 -1173h-170zM449 1016h323l33 164q8 49 24 92q-29 16 -64.5 26.5t-86.5 10.5q-172 0 -205 -166z" />
<glyph unicode="ff" horiz-adv-x="1064" d="M25 -305l225 1173h-125l29 148h125l24 123q18 96 57 159.5t91.5 100.5t115 52t131.5 15q59 0 120 -10t102 -33q43 37 86 55.5t102 18.5h149l-30 -156h-113q-66 0 -94.5 -38.5t-38.5 -92.5l-39 -194h213l-29 -148h-213l-227 -1173h-170l227 1173h-323l-227 -1173h-168z M449 1016h323l43 215q2 10 4 21.5t6 21.5q-53 35 -153 35q-88 0 -135.5 -41t-63.5 -125z" />
<glyph unicode="fi" horiz-adv-x="978" d="M29 -305l227 1173h-125l29 148h125l30 164q20 102 57.5 165.5t87.5 99.5t109.5 49t122.5 13q104 0 189.5 -32.5t130.5 -98.5l-138 -114q-27 41 -73.5 64.5t-128.5 23.5q-72 0 -120 -41t-65 -125l-32 -168h493l-196 -1016h-170l168 868h-324l-227 -1173h-170z" />
<glyph unicode="fl" horiz-adv-x="1013" d="M29 -305l227 1173h-125l29 148h125l30 164q18 96 57.5 159.5t91.5 100.5t115.5 52t133.5 15q41 0 120.5 -10t200.5 -49l-231 -1182q-10 -47 7 -79.5t77 -32.5h47l-31 -154h-69q-53 0 -96.5 15.5t-71 47t-36.5 79.5t3 114l211 1071q-29 10 -66 16.5t-86 6.5 q-174 0 -205 -166l-32 -168h219l-29 -148h-219l-227 -1173h-170z" />
<glyph unicode="ffi" horiz-adv-x="1488" d="M29 -305l227 1173h-125l29 148h125l24 123q18 96 56 159.5t90.5 100.5t116 52t133.5 15q63 0 126.5 -12t104.5 -37q59 51 117.5 70.5t138.5 19.5q104 0 189 -32.5t130 -98.5l-137 -114q-27 41 -74 64.5t-129 23.5q-78 0 -126 -41t-64 -125l-33 -168h494l-197 -1016h-170 l168 868h-323l-228 -1173h-170l228 1173h-324l-227 -1173h-170zM455 1016h323l31 164q6 25 11 47t16 45q-29 16 -65 26.5t-87 10.5q-174 0 -205 -166z" />
<glyph unicode="ffl" horiz-adv-x="1509" d="M29 -305l227 1173h-125l29 148h125l24 123q18 96 58.5 159.5t94.5 100.5t119.5 52t135.5 15q63 0 120.5 -12t98.5 -37q59 51 124.5 70.5t147.5 19.5q41 0 121 -10t201 -49l-232 -1182q-10 -47 7.5 -79.5t76.5 -32.5h48l-31 -154h-70q-53 0 -96 15.5t-70.5 47t-37 79.5 t2.5 114l211 1071q-29 10 -65.5 16.5t-87.5 6.5q-172 0 -205 -166l-33 -168h215l-28 -148h-215l-228 -1173h-170l228 1173h-324l-227 -1173h-170zM455 1016h323l31 164q6 25 11 47t16 45q-29 16 -65 26.5t-87 10.5q-174 0 -205 -166z" />
<glyph unicode="ft" horiz-adv-x="1048" d="M29 -303l227 1171h-125l29 148h125l41 215q51 266 295 266h141l-31 -156h-104q-66 0 -95.5 -38.5t-39.5 -92.5l-37 -194h323l49 252h168l-49 -252h156l-29 -146h-155l-115 -591q-4 -25 -5 -47.5t7 -40t25.5 -28.5t48.5 -11h88l-29 -152h-121q-104 0 -158.5 60.5 t-31.5 177.5l123 632l-324 -2l-227 -1171h-170z" />
<glyph unicode=" "  horiz-adv-x="458" />
<glyph unicode="&#x09;" horiz-adv-x="458" />
<glyph unicode="&#xa0;" horiz-adv-x="458" />
<glyph unicode="!" horiz-adv-x="493" d="M76 0l39 201h184l-39 -201h-184zM172 362l188 1063h162l-227 -1063h-123z" />
<glyph unicode="&#x22;" horiz-adv-x="632" d="M240 1012l79 413h132l-80 -413h-131zM487 1012l80 413h131l-80 -413h-131z" />
<glyph unicode="#" horiz-adv-x="1024" d="M33 442l24 117h205l103 311h-189l23 117h204l144 434h125l-144 -434h232l143 434h125l-143 -434h202l-22 -117h-219l-103 -311h203l-24 -117h-220l-143 -442h-125l144 442h-232l-143 -442h-125l143 442h-188zM387 559h231l103 311h-232z" />
<glyph unicode="$" horiz-adv-x="1024" d="M33 152q29 31 54.5 63.5t51.5 63.5q57 -53 124 -88t149 -46l98 498q-47 20 -100.5 50t-97.5 71t-72.5 96t-28.5 131q0 90 36 166t96 132.5t142 89t174 36.5l33 166h103l-35 -172q82 -10 160.5 -38t132.5 -73q-25 -33 -48.5 -67.5t-46.5 -67.5q-47 35 -105 58.5t-122 33.5 l-94 -477q57 -25 114.5 -52.5t103.5 -67.5t73.5 -97t27.5 -141v-16.5t-2 -18.5q-6 -90 -47 -161.5t-105.5 -122t-146.5 -79t-172 -32.5l-43 -228h-102l45 230q-96 10 -186.5 49t-163.5 111zM393 997q0 -33 14.5 -59.5t36 -49t48 -40t51.5 -29.5l86 441q-43 -6 -85 -26 t-76 -52.5t-54.5 -79t-20.5 -105.5zM514 145q55 6 102.5 27t83 53.5t56 76.5t20.5 99q0 41 -16.5 73t-42 56.5t-56 43t-57.5 30.5z" />
<glyph unicode="%" horiz-adv-x="1613" d="M127 758q0 31 6 55q18 94 36.5 187.5t35.5 187.5q18 102 94 173t203 71q96 0 163.5 -53.5t69.5 -141.5q0 -14 -2 -28.5t-4 -26.5q-10 -57 -19.5 -105.5t-17.5 -92.5t-17 -87t-18 -88q-10 -51 -33.5 -96t-59.5 -78t-86 -52.5t-116 -19.5q-98 0 -165.5 52.5t-69.5 142.5z M174 -35l1161 1495h148l-1164 -1495h-145zM264 780q0 -43 27.5 -69.5t77.5 -26.5q66 0 104.5 41t52.5 96q16 88 34 178.5t34 180.5q4 21 4 37q0 43 -28.5 69.5t-77.5 26.5q-66 0 -104 -41t-50 -96l-70 -365q-4 -20 -4 -31zM913 186q0 31 7 56q18 94 36.5 187t34.5 187 q18 102 94 173t203 71q96 0 164 -53t70 -141q0 -14 -2 -28.5t-4 -27.5q-10 -57 -19.5 -105t-18 -92t-17.5 -87t-17 -88q-10 -51 -34 -96.5t-59.5 -78t-85.5 -52t-116 -19.5q-98 0 -166 52t-70 142zM1051 209q0 -43 27.5 -69.5t76.5 -26.5q66 0 104.5 41t53.5 96 q16 88 33.5 178t33.5 180q4 21 4 37q0 43 -28.5 69.5t-77.5 26.5q-66 0 -104.5 -41t-49.5 -96l-69 -364q-4 -20 -4 -31z" />
<glyph unicode="&#x26;" horiz-adv-x="1110" d="M80 291q0 150 85 268.5t249 218.5q-29 68 -58.5 142.5t-29.5 171.5q0 72 26.5 135t74.5 110t116.5 75t152.5 28q88 0 164 -33t123 -109l-129 -96q-29 45 -76 64.5t-106 19.5q-86 0 -132 -55t-46 -133q0 -80 47 -193q16 -41 50 -108.5t70.5 -142t70.5 -143.5t50 -108 q41 55 65.5 111.5t43.5 110.5l145 -13q-29 -86 -72.5 -179t-109.5 -177l131 -256h-192l-70 133q-88 -78 -177 -111.5t-181 -33.5q-145 0 -215 84t-70 219zM242 307q0 -74 40 -122t128 -48q66 0 136.5 37t117.5 82q-47 98 -93.5 196.5t-93.5 196.5q-236 -158 -235 -342z" />
<glyph unicode="'" horiz-adv-x="493" d="M289 1012l80 413h129l-80 -413h-129z" />
<glyph unicode="(" horiz-adv-x="581" d="M123 430q0 156 45 304.5t122 283.5t178 255t212 222l80 -57q-96 -104 -180 -225t-145.5 -253.5t-96.5 -273.5t-35 -287q0 -150 36 -298t107 -281l-98 -66q-104 147 -164.5 320.5t-60.5 355.5z" />
<glyph unicode=")" horiz-adv-x="581" d="M-117 -180q96 102 180 223t145.5 254t97.5 274.5t36 284.5q0 150 -37 299.5t-108 282.5l102 57q104 -147 162.5 -315t58.5 -349q0 -160 -46 -309t-123 -285.5t-180 -258t-216 -224.5z" />
<glyph unicode="*" horiz-adv-x="739" d="M199 1151l63 133l209 -96l29 246h139l-70 -246q59 23 123 47.5t123 48.5l14 -135l-245 -59l123 -185q-33 -23 -65 -44t-67 -44l-86 213q-41 -53 -85 -107.5t-85 -107.5q-23 23 -49 44.5t-49 43.5l197 187q-53 14 -109.5 30.5t-109.5 30.5z" />
<glyph unicode="+" horiz-adv-x="1024" d="M80 537l26 131h388l75 389h131l-75 -389h385l-27 -131h-385l-76 -394h-131l76 394h-387z" />
<glyph unicode="," horiz-adv-x="516" d="M4 -231l111 231h-58l43 227h211l-43 -223l-159 -235h-105z" />
<glyph unicode="-" horiz-adv-x="802" d="M115 471l30 154h590l-30 -154h-590z" />
<glyph unicode="." horiz-adv-x="497" d="M61 0l43 227h211l-43 -227h-211z" />
<glyph unicode="/" horiz-adv-x="649" d="M-100 -86l817 1571h133l-819 -1571h-131z" />
<glyph unicode="0" horiz-adv-x="1024" d="M51 297q0 51 8 92l127 647q16 84 53 158t93.5 128t133.5 85t171 31q70 0 131 -21.5t106.5 -62.5t72 -98.5t26.5 -127.5q0 -51 -8 -92l-127 -647q-16 -84 -51 -157.5t-90.5 -128t-132.5 -85t-175 -30.5q-70 0 -131 21.5t-107.5 61.5t-73 97t-26.5 129zM219 336 q0 -86 49 -137.5t135 -51.5q55 0 101.5 20.5t81.5 54.5t57.5 80t32.5 99l121 623q4 16 6 33t2 33q0 86 -51.5 138t-137.5 52q-55 0 -101 -20.5t-80 -55.5t-55.5 -82t-31.5 -98l-121 -623q-4 -16 -6 -32.5t-2 -32.5z" />
<glyph unicode="1" horiz-adv-x="1024" d="M291 0l244 1249l-209 -135l36 178l203 133h168l-278 -1425h-164z" />
<glyph unicode="2" horiz-adv-x="1024" d="M10 0l31 168l684 698q119 123 119 234q0 72 -48 123t-149 51q-90 0 -159.5 -61.5t-104.5 -159.5l-174 32q57 166 181 257.5t276 91.5q76 0 142 -19.5t113.5 -59.5t75 -98.5t27.5 -138.5q2 -98 -43 -174t-117 -149l-616 -629h583l-30 -166h-791z" />
<glyph unicode="3" horiz-adv-x="1024" d="M37 295l170 24q4 -92 56 -135t134 -43q63 0 119.5 23.5t98.5 67.5t67 105.5t25 137.5q0 98 -51.5 148.5t-143.5 50.5h-102l28 147h84q59 0 111.5 21.5t92.5 58.5t63.5 87t23.5 110q0 80 -51 129t-135 49q-35 0 -73 -11.5t-73 -34t-63.5 -57t-46.5 -81.5l-162 28 q20 74 63 133.5t100.5 99.5t125 61.5t139.5 21.5q88 0 154.5 -23.5t109.5 -64.5t64.5 -96.5t21.5 -118.5q0 -47 -11 -98.5t-40 -101.5t-76 -97.5t-117 -85.5q78 -49 107 -116t29 -136q0 -115 -41 -209t-108.5 -162t-158 -104.5t-188.5 -36.5q-66 0 -127 15t-110.5 51 t-79 95.5t-29.5 147.5z" />
<glyph unicode="4" horiz-adv-x="1024" d="M33 217l33 164l686 1044h178l-688 -1050h428l82 420h163l-81 -420h116l-30 -158h-117l-43 -217h-162l41 217h-606z" />
<glyph unicode="5" horiz-adv-x="1024" d="M37 295l170 24q4 -92 56 -135t134 -43q94 0 157.5 42t101.5 109.5t53.5 151.5t15.5 168q0 80 -40 135.5t-150 55.5q-66 0 -123.5 -34t-104.5 -93h-166l148 749h743l-33 -165h-585l-76 -392q70 53 136.5 74t131.5 21q143 0 219 -81t76 -216q0 -129 -25.5 -252t-85 -218.5 t-160 -152.5t-247.5 -57q-66 0 -127 15t-110.5 51t-79 95.5t-29.5 147.5z" />
<glyph unicode="6" horiz-adv-x="1024" d="M94 319q0 86 28 173.5t75 156.5l544 776h187l-434 -620l4 -2q31 12 67.5 18t69.5 6q70 0 124 -24.5t89 -66.5t53.5 -99t18.5 -125q0 -111 -35 -206t-99.5 -165.5t-155.5 -111.5t-204 -41q-72 0 -133.5 24.5t-105.5 68.5t-68.5 104.5t-24.5 133.5zM270 340 q0 -88 46 -142.5t139 -54.5q66 0 119 31t90.5 80t58 110.5t20.5 120.5q0 90 -46 143.5t-138 53.5q-68 0 -122 -29.5t-91 -79t-56.5 -111t-19.5 -122.5z" />
<glyph unicode="7" horiz-adv-x="1024" d="M39 0l731 1260h-434l-41 -213h-166l74 378h780l-33 -174l-727 -1251h-184z" />
<glyph unicode="8" horiz-adv-x="1024" d="M35 324q0 63 18.5 128.5t54 122t86 100.5t113.5 66q-59 41 -90 98.5t-31 129.5q0 96 39 182t104.5 149.5t151.5 100.5t183 37q70 0 129 -23.5t102 -66.5t67.5 -102.5t24.5 -129.5q0 -121 -64.5 -225.5t-174.5 -155.5q39 -16 65.5 -44.5t42.5 -64.5t23.5 -76t7.5 -79 q0 -106 -40 -195.5t-109.5 -153t-161 -99t-195.5 -35.5q-74 0 -137.5 23.5t-109.5 67.5t-72.5 106.5t-26.5 138.5zM201 360q0 -92 59 -152.5t152 -60.5q61 0 117.5 26t99.5 69t68.5 99.5t25.5 117.5q0 92 -60.5 148.5t-150.5 56.5q-59 0 -115.5 -25t-99.5 -67t-69.5 -97 t-26.5 -115zM352 985q0 -84 53.5 -131t135.5 -47q59 0 110 23.5t88 62.5t58.5 91.5t21.5 111.5q0 86 -50 138t-136 52q-61 0 -112.5 -25.5t-88.5 -66.5t-58.5 -96.5t-21.5 -112.5z" />
<glyph unicode="9" horiz-adv-x="1024" d="M94 0l443 633l-7 2q-53 -23 -122 -23q-72 0 -127.5 23.5t-93 64.5t-58 97.5t-20.5 124.5q0 111 32.5 205t95 162.5t153.5 108.5t206 40q78 0 141.5 -24.5t107.5 -69t68.5 -104.5t24.5 -134q0 -86 -29.5 -173t-77.5 -157l-546 -776h-191zM281 940q0 -90 45 -143.5 t137 -53.5q68 0 122 30t91 79t56.5 110.5t19.5 122.5q0 88 -46.5 142.5t-138.5 54.5q-66 0 -119 -30.5t-89.5 -80t-57 -111t-20.5 -120.5z" />
<glyph unicode=":" horiz-adv-x="487" d="M49 0l43 227h211l-43 -227h-211zM162 584l43 227h211l-43 -227h-211z" />
<glyph unicode=";" horiz-adv-x="487" d="M2 -231l111 231h-58l43 227h211l-43 -223l-160 -235h-104zM168 584l43 227h211l-43 -227h-211z" />
<glyph unicode="&#x3c;" horiz-adv-x="1024" d="M111 543l24 123l914 415l-29 -153l-731 -332l604 -330l-29 -137z" />
<glyph unicode="=" horiz-adv-x="1024" d="M43 338l27 137h903l-27 -137h-903zM119 731l26 137h904l-27 -137h-903z" />
<glyph unicode="&#x3e;" horiz-adv-x="1024" d="M33 129l28 152l732 329l-605 332l29 139l754 -415l-25 -123z" />
<glyph unicode="?" horiz-adv-x="1017" d="M195 1053q66 203 184.5 292t306.5 89q82 0 150.5 -24t118 -65.5t77 -99t27.5 -127.5q0 -78 -22.5 -136t-57.5 -106.5t-79 -87t-89 -75.5q-63 -53 -115.5 -109.5t-66.5 -124.5l-21 -102h-178l21 106q14 72 54 132.5t99 113.5q37 43 84 83t88 81t68.5 87t27.5 99 q0 31 -10 64t-34.5 60.5t-64.5 45t-97 17.5q-72 0 -124.5 -27t-87 -65.5t-53 -84t-24.5 -79.5zM352 0l39 201h184l-38 -201h-185z" />
<glyph unicode="@" horiz-adv-x="1693" d="M143 545q0 190 69 354t188.5 285t282.5 190.5t351 69.5q137 0 253 -41t200 -115t130 -178t46 -229q0 -164 -42 -282t-108.5 -195.5t-146.5 -114.5t-154 -37q-78 0 -130 33.5t-62 91.5h-10q-35 -45 -97.5 -81t-146.5 -36q-121 0 -179.5 74t-58.5 182q0 86 21.5 184.5 t68 181.5t121 137t181.5 54q125 0 190 -98l6 2l17 88h131l-115 -573q-10 -49 12.5 -82t57.5 -33q37 0 88 21.5t99 77.5t82 151.5t34 242.5q0 111 -40 195t-106.5 140.5t-154.5 86t-187 29.5q-162 0 -299 -60.5t-236.5 -163t-155.5 -240.5t-56 -294q0 -242 135 -382t399 -140 q94 0 203 25.5t225 72.5l35 -127q-111 -41 -230.5 -66.5t-244.5 -25.5q-147 0 -270 42t-211 123t-136.5 196.5t-48.5 263.5zM668 541q0 -59 30.5 -104.5t114.5 -45.5q70 0 118 41t77.5 100.5t43 128t13.5 121.5q0 72 -30.5 117t-110.5 45q-74 0 -124 -46t-79 -109.5 t-41 -133t-12 -114.5z" />
<glyph unicode="A" horiz-adv-x="1200" d="M-74 0l789 1425h157l234 -1425h-184l-50 328h-579l-176 -328h-191zM373 483h481l-57 400l-41 323h-4l-162 -315z" />
<glyph unicode="B" horiz-adv-x="1200" d="M70 0l278 1425h488q80 0 149.5 -17t120.5 -56t81 -99.5t30 -148.5q0 -141 -75 -237.5t-210 -133.5l-2 -6q96 -33 147 -105.5t51 -172.5q0 -94 -37.5 -176.5t-100 -142.5t-146.5 -95t-176 -35h-598zM279 166h360q61 0 117.5 21.5t99.5 59.5t68.5 91t25.5 117 q0 96 -63.5 146t-153.5 50h-358zM403 807h330q59 0 114.5 18.5t97.5 54t67.5 86t25.5 113.5q0 49 -20.5 85t-53 59.5t-75.5 34t-86 10.5h-309z" />
<glyph unicode="C" horiz-adv-x="1112" d="M113 412q0 61 12 123l78 389q20 104 63 197t111.5 163t164 111t220.5 41q174 0 289.5 -83t160.5 -218l-172 -76q-10 39 -34.5 78t-59.5 68.5t-82 48t-104 18.5q-90 0 -155.5 -33t-112 -85t-74 -118.5t-39.5 -134.5l-74 -371q-4 -23 -6 -45t-2 -45q0 -57 11 -108t41 -89 t82 -60.5t132 -22.5q111 0 207 58t150 155l167 -82q-84 -152 -225 -227.5t-315 -75.5q-109 0 -191 33.5t-136 91t-80.5 134.5t-26.5 165z" />
<glyph unicode="D" horiz-adv-x="1241" d="M70 0l276 1425h459q90 0 170 -20.5t140.5 -65.5t95 -116.5t34.5 -171.5q0 -92 -16.5 -210t-41 -229.5t-54 -205t-54.5 -136.5q-49 -82 -106.5 -134t-122 -82.5t-135 -42t-144.5 -11.5h-501zM279 166h276q100 0 175 28.5t128 82t86 128t51 166.5l54 273q8 41 11 75.5 t3 65.5q0 76 -21.5 129t-59.5 85t-92 46.5t-122 14.5h-276z" />
<glyph unicode="E" horiz-adv-x="1089" d="M70 0l278 1425h862l-32 -165h-686l-89 -461h603l-31 -158h-602l-94 -475h747l-31 -166h-925z" />
<glyph unicode="F" horiz-adv-x="1052" d="M70 0l278 1425h873l-33 -165h-696l-91 -472h603l-31 -157h-602l-123 -631h-178z" />
<glyph unicode="G" horiz-adv-x="1200" d="M109 399q0 35 4 68t10 68l78 389q20 104 64 197t114 163t167 111t224 41q174 0 280.5 -78t157.5 -223l-176 -76q-18 88 -91 145.5t-167 57.5q-92 0 -161.5 -31t-118 -81t-78 -115.5t-41.5 -133.5l-72 -371q-4 -29 -7 -54t-3 -52q0 -55 13 -104.5t43 -86t76 -58t114 -21.5 q74 0 138 26.5t116.5 72.5t88.5 109.5t52 137.5l20 100h-295l31 164h477l-55 -277q-23 -109 -74 -199.5t-126.5 -157.5t-174 -104.5t-211.5 -37.5q-109 0 -186.5 31.5t-129.5 88t-76.5 131t-24.5 160.5z" />
<glyph unicode="H" horiz-adv-x="1275" d="M70 0l278 1425h176l-121 -626h617l123 626h176l-277 -1425h-176l123 641h-616l-125 -641h-178z" />
<glyph unicode="I" horiz-adv-x="483" d="M70 0l278 1425h176l-276 -1425h-178z" />
<glyph unicode="J" horiz-adv-x="937" d="M-6 135l125 119q41 -47 96 -74.5t107 -27.5q57 0 105 13t88 49t70.5 98.5t49.5 160.5l184 952h176l-192 -991q-25 -133 -69 -219t-104.5 -136t-137 -70.5t-168.5 -20.5q-104 0 -195.5 41t-134.5 106z" />
<glyph unicode="K" horiz-adv-x="1241" d="M70 0l278 1425h176l-147 -770l6 2l319 330l445 438h215l-553 -553l332 -872h-197l-272 733l-350 -344l-74 -389h-178z" />
<glyph unicode="L" horiz-adv-x="1089" d="M70 0l278 1425h176l-245 -1259h706l-31 -166h-884z" />
<glyph unicode="M" horiz-adv-x="1501" d="M70 0l278 1425h176l166 -665l74 -332h6l201 330l422 667h174l-279 -1425h-176l199 1012h-8l-160 -269l-344 -532h-156l-137 549l-55 252h-7l-196 -1012h-178z" />
<glyph unicode="N" horiz-adv-x="1351" d="M70 0l278 1425h174l340 -786l137 -336l7 -2l217 1124h174l-277 -1425h-172l-354 815l-125 311l-6 -2l-215 -1124h-178z" />
<glyph unicode="O" horiz-adv-x="1185" d="M94 410q0 49 9.5 113.5t22.5 133t29.5 137t28.5 126.5q25 109 67 203t109.5 163.5t163 109.5t226.5 40q100 0 184 -31t144.5 -86t94 -132t33.5 -169q0 -49 -9 -110.5t-21.5 -128t-27.5 -134t-28 -129.5q-25 -119 -73 -216t-119.5 -167t-167.5 -107.5t-219 -37.5 q-121 0 -206 32.5t-138.5 90t-78 134.5t-24.5 165zM268 384q4 -68 35 -120.5t91.5 -84.5t160.5 -32q82 0 146.5 30t112.5 80t81 119.5t51 149.5q12 55 26.5 117t27 123t20.5 118.5t8 102.5q0 127 -75 207t-216 80q-96 0 -162.5 -34t-112.5 -86t-71.5 -118.5t-38.5 -130.5 l-73 -379q-11 -59 -11 -115q-1 -13 0 -27z" />
<glyph unicode="P" horiz-adv-x="1148" d="M70 0l278 1425h502q86 0 157.5 -22.5t124 -68.5t81 -113.5t28.5 -157.5q0 -109 -42 -199t-112.5 -154.5t-165 -100.5t-198.5 -36h-365l-110 -573h-178zM391 739h346q66 0 124.5 22.5t101.5 62.5t68.5 95t25.5 121q0 111 -66.5 165.5t-171.5 54.5h-327z" />
<glyph unicode="Q" horiz-adv-x="1200" d="M94 410q0 49 9.5 113.5t22.5 133t29.5 137t28.5 126.5q25 109 67 203t109.5 163.5t163 109.5t226.5 40q100 0 184 -31t144.5 -86t94 -132t33.5 -169q0 -49 -9 -110.5t-21.5 -128t-27.5 -134t-28 -129.5q-37 -170 -116 -293l135 -131l-121 -123l-133 127 q-68 -53 -154 -80.5t-190 -27.5q-121 0 -206 32.5t-138.5 90t-78 134.5t-24.5 165zM268 384q4 -69 35 -121t91.5 -84t160.5 -32q121 0 209 66l-182 178l127 121l170 -166q43 78 67 180q12 55 26.5 117t27 123t20.5 118.5t8 102.5q0 127 -75 207t-216 80q-96 0 -162.5 -34 t-112.5 -86t-71.5 -118.5t-38.5 -130.5l-73 -379q-11 -59 -11 -115v-27z" />
<glyph unicode="R" horiz-adv-x="1200" d="M70 0l278 1425h555q86 0 153.5 -27.5t112.5 -78.5t65 -123q14 -48 14 -104q0 -27 -3 -56q-18 -166 -120.5 -261t-256.5 -130l201 -645h-197l-186 627h-317l-121 -627h-178zM399 784h355q57 0 110.5 16.5t96.5 48.5t72.5 79t35.5 108q2 21 2 40q1 90 -55 136 q-68 56 -182 56h-340z" />
<glyph unicode="S" horiz-adv-x="1093" d="M6 168l117 129q68 -63 164 -100t207 -37q70 0 134 15t114.5 47t80 80t29.5 112q0 51 -21.5 89t-57.5 64.5t-80 44t-89 29.5q-68 16 -137.5 40t-124.5 62.5t-91 98t-36 147.5q0 100 36 182t102.5 141.5t160.5 92.5t209 33q117 0 225.5 -32t188.5 -89l-107 -150 q-66 47 -150.5 73t-177.5 26q-47 0 -101 -13.5t-100 -42t-77 -74.5t-31 -114q0 -51 26.5 -87t63.5 -59.5t76 -37t62 -19.5q78 -20 153.5 -48t136 -72t98.5 -109.5t38 -161.5q0 -109 -46.5 -191.5t-123 -138t-177 -83t-211.5 -27.5q-145 0 -272 46t-211 134z" />
<glyph unicode="T" horiz-adv-x="974" d="M166 1268l31 157h972l-30 -157h-398l-247 -1268h-177l246 1268h-397z" />
<glyph unicode="U" horiz-adv-x="1241" d="M141 496l181 929h176l-176 -905q-11 -57 -12 -107q0 -21 2 -41q6 -68 36.5 -115.5t84.5 -75t136 -27.5q147 0 250 92t133 254l181 925h176l-185 -950q-23 -111 -67.5 -200t-115.5 -153.5t-167 -99t-217 -34.5q-104 0 -190 35.5t-143.5 102.5t-81.5 161q-12 49 -12 103 q0 50 11 106z" />
<glyph unicode="V" horiz-adv-x="1089" d="M203 1425h184l82 -729l43 -395h10l191 399l362 725h199l-746 -1425h-143z" />
<glyph unicode="W" horiz-adv-x="1652" d="M221 1425h178l39 -1063h8q41 90 80 181.5t80 179.5l328 702h160l57 -716q8 -88 13 -174t14 -175h8l139 347l299 718h188l-626 -1425h-156l-51 711l-25 385h-6q-39 -90 -80 -181.5t-82 -181.5l-335 -733h-156z" />
<glyph unicode="X" horiz-adv-x="1050" d="M-74 0l572 731l-267 694h187l192 -555l412 555h197l-537 -694l289 -731h-189l-215 592l-444 -592h-197z" />
<glyph unicode="Y" horiz-adv-x="1019" d="M199 1425h176l119 -411l69 -266l187 284l264 393h192l-585 -862l-111 -563h-168l111 563z" />
<glyph unicode="Z" horiz-adv-x="1013" d="M-16 0l30 158l897 1110h-655l31 157h858l-29 -143l-901 -1116h684l-31 -166h-884z" />
<glyph unicode="[" horiz-adv-x="524" d="M23 -215l319 1645h340l-23 -115h-188l-274 -1415h188l-23 -115h-339z" />
<glyph unicode="\" horiz-adv-x="649" d="M203 1485h133l209 -1571h-133z" />
<glyph unicode="]" horiz-adv-x="524" d="M-70 -215l23 115h186l275 1415h-187l23 115h338l-320 -1645h-338z" />
<glyph unicode="^" horiz-adv-x="1024" d="M94 672l561 751h123l269 -751h-146l-215 600l-446 -600h-146z" />
<glyph unicode="_" horiz-adv-x="1003" d="M-133 -264l24 123h1004l-25 -123h-1003z" />
<glyph unicode="`" horiz-adv-x="1005" d="M469 1511l139 33l140 -379l-101 -30z" />
<glyph unicode="a" horiz-adv-x="1013" d="M90 342q0 106 27.5 227t86 222.5t148.5 168t215 66.5q74 0 144.5 -29.5t103.5 -95.5l6 2l27 111h158l-197 -1014h-164l23 111l-6 4q-61 -70 -123 -98.5t-150 -28.5q-80 0 -136 26.5t-92 74.5t-53.5 112.5t-17.5 140.5zM256 338q0 -33 7 -69t27.5 -66.5t54.5 -51t89 -20.5 q92 0 154.5 55.5t102.5 136t57.5 172t17.5 162.5q0 94 -40 155.5t-142 61.5q-96 0 -160 -55t-100.5 -137t-52 -175t-15.5 -169z" />
<glyph unicode="b" horiz-adv-x="995" d="M37 0l289 1489h163l-112 -588h4q53 51 120.5 88t174.5 37q76 0 129 -23.5t87 -65.5t48 -100.5t14 -127.5q0 -109 -24.5 -236t-81.5 -234.5t-148.5 -179t-226.5 -71.5q-76 0 -140.5 29.5t-105.5 95.5h-4l-26 -113h-160zM283 358q0 -45 9 -85t29.5 -69.5t54.5 -47t83 -17.5 q96 0 159.5 57.5t101.5 139.5t53 171t15 152q0 92 -38 150.5t-136 58.5q-94 0 -157.5 -53t-102.5 -131t-55 -166t-16 -160z" />
<glyph unicode="c" horiz-adv-x="864" d="M61 377q0 131 34 248.5t100.5 207t167 141.5t235.5 52q90 0 176 -35t144 -106l-123 -119q-39 45 -92.5 72.5t-114.5 27.5q-94 0 -162 -43t-111 -109.5t-63.5 -147.5t-20.5 -158q0 -57 10.5 -103.5t35 -80.5t65.5 -52t104 -18q74 0 139.5 33.5t108.5 64.5l99 -125 q-76 -66 -179.5 -102.5t-203.5 -36.5q-88 0 -154 29.5t-109 82t-64.5 123t-21.5 154.5z" />
<glyph unicode="d" horiz-adv-x="995" d="M92 319q0 111 24.5 236t82 229.5t150.5 173t229 68.5q61 0 127.5 -23.5t111.5 -82.5h4l115 569h164l-293 -1489h-164l21 111l-5 2q-59 -66 -132.5 -95.5t-145.5 -29.5q-84 0 -140.5 25.5t-89 70.5t-46 105.5t-13.5 129.5zM266 367q0 -98 37 -155.5t141 -57.5 q76 0 128.5 35.5t86 89t53 115t29.5 114.5q9 50 13 114q1 12 1 24q-1 52 -13 96q-16 56 -54.5 92t-112.5 36q-63 0 -108 -24.5t-78 -65.5t-54.5 -92t-35.5 -102q-16 -57 -24.5 -115.5t-8.5 -103.5z" />
<glyph unicode="e" horiz-adv-x="962" d="M84 356q0 115 27.5 234t88 216t156 158.5t228.5 61.5q166 0 258 -73.5t92 -202.5q0 -63 -25.5 -125t-93 -109t-182.5 -76.5t-293 -29.5h-44.5t-45.5 2q-4 -23 -4 -36.5v-21.5q0 -117 50 -164t150 -47q31 0 67 8.5t73 21.5t69.5 30.5t57.5 34.5l82 -121 q-76 -61 -175.5 -95t-197.5 -34q-174 0 -256 94t-82 274zM276 559q25 -2 46.5 -2h44.5q131 0 209.5 18.5t121.5 45t56.5 57.5t13.5 53q0 66 -49.5 101.5t-145.5 35.5q-72 0 -123 -26.5t-85.5 -69.5t-55 -98.5t-33.5 -114.5z" />
<glyph unicode="f" horiz-adv-x="552" d="M-195 -408l31 156q35 -8 70 -8q43 0 70.5 13.5t44 33.5t25.5 45t13 47l195 987h-139l28 148h140l43 209q12 57 35.5 108t61.5 88t92 57.5t128 20.5q51 0 98 -8l-30 -156q-39 8 -74 8q-43 0 -70.5 -13t-43 -33.5t-23.5 -45t-13 -47.5l-38 -188h188l-29 -148h-188 l-199 -1007q-12 -57 -36.5 -107.5t-63.5 -88.5t-92.5 -59.5t-122.5 -21.5q-23 0 -48.5 2t-52.5 8z" />
<glyph unicode="g" horiz-adv-x="1026" d="M16 -293l105 123q51 -41 104.5 -68.5t118.5 -27.5q88 0 144.5 32.5t90 86t52 122t33.5 140.5h-5q-63 -66 -136.5 -95.5t-157.5 -29.5q-80 0 -132.5 25.5t-84 70.5t-45 105.5t-13.5 130.5q0 111 23.5 234.5t79 228t146.5 174t226 69.5q76 0 141.5 -29.5t106.5 -95.5h4 l23 113h164l-193 -1016q-18 -102 -53 -181t-92.5 -132.5t-138 -82t-193.5 -28.5q-41 0 -85 8t-87 25.5t-81 42t-65 55.5zM260 334q0 -92 41 -146.5t139 -54.5q90 0 151.5 56.5t100.5 138.5t55.5 174t16.5 164q0 90 -43 147t-141 57q-96 0 -158 -56t-97.5 -138t-50 -175 t-14.5 -167z" />
<glyph unicode="h" horiz-adv-x="1060" d="M55 0l287 1489h164l-115 -600h6q66 66 146 101.5t159 35.5q63 0 120 -22.5t95.5 -68.5t54.5 -118q7 -33 6 -72q0 -45 -9 -96l-125 -649h-166l119 608q8 41 8 80v16q-2 46 -19.5 80.5t-53.5 55t-95 20.5q-49 0 -97 -17.5t-89 -50t-71 -79.5t-42 -105l-119 -608h-164z" />
<glyph unicode="i" horiz-adv-x="450" d="M61 0l197 1014h164l-197 -1014h-164zM305 1257l33 168h164l-33 -168h-164z" />
<glyph unicode="j" horiz-adv-x="487" d="M-176 -414l29 158h61q55 0 93 34t50 97l222 1139h165l-223 -1151q-25 -123 -92.5 -200t-204.5 -77h-100zM326 1257l32 168h166l-32 -168h-166z" />
<glyph unicode="k" horiz-adv-x="1015" d="M55 0l289 1489h164l-186 -967l6 2l518 490h201l-414 -400l285 -614h-183l-229 508l-232 -219l-55 -289h-164z" />
<glyph unicode="l" horiz-adv-x="487" d="M95 142q-4 21 -4 44q0 32 7 70l246 1233h164l-240 -1223q-3 -15 -3 -29q-1 -29 13 -51q20 -32 74 -32h47l-30 -154h-70q-53 0 -96 15.5t-71 47t-37 79.5z" />
<glyph unicode="m" horiz-adv-x="1699" d="M66 0l196 1014h166l-22 -119h4q61 66 142 98.5t159 32.5q102 0 164.5 -39t103.5 -106q0 2 2 0q86 86 171 115.5t183 29.5q72 0 129.5 -26.5t93.5 -75.5q38 -50 52 -118q7 -33 7 -69q0 -40 -9 -84l-131 -653h-164l119 608q10 49 10 89q0 55 -19 95q-32 68 -151 68 q-49 0 -98.5 -17.5t-90.5 -50t-69.5 -79.5t-40.5 -105l-117 -608h-168l119 608q9 44 9 81q0 61 -24 105q-38 68 -165 68q-100 0 -177 -68.5t-100 -185.5l-119 -608h-165z" />
<glyph unicode="n" horiz-adv-x="1052" d="M49 0l197 1014h166l-23 -121h6q61 66 148.5 99.5t167.5 33.5q70 0 124 -23.5t90 -67.5q36 -43 48 -109q5 -28 5 -60q0 -42 -9 -90l-131 -676h-166l119 608q10 48 11 96v6q0 44 -16 78q-16 36 -55 58t-106 22q-49 0 -96.5 -19.5t-87.5 -54t-68.5 -82.5t-38.5 -104 l-119 -608h-166z" />
<glyph unicode="o" horiz-adv-x="1013" d="M86 336q0 135 30.5 260t92 220t156 151.5t223.5 56.5q164 0 261 -97.5t97 -260.5q0 -117 -24.5 -238t-82 -219t-151.5 -159.5t-231 -61.5q-180 0 -275.5 90t-95.5 258zM250 350q0 -31 8 -67.5t30.5 -68.5t61.5 -53.5t103 -21.5q92 0 153.5 47t100 122t55 166t16.5 181 q0 113 -58.5 166t-150.5 53t-153.5 -53t-98 -132t-52 -171t-15.5 -168z" />
<glyph unicode="p" horiz-adv-x="1026" d="M-27 -412l279 1426h164l-23 -111l6 -2q59 59 134 92t161 33q78 0 130.5 -27.5t84 -73.5t45 -107.5t13.5 -129.5q0 -111 -26 -233.5t-83 -227t-150.5 -172t-226.5 -67.5q-78 0 -140 30.5t-97 96.5l-4 -2l-101 -525h-166zM303 379q0 -43 8 -84t28.5 -71.5t54.5 -49 t83 -18.5q92 0 152.5 50t97.5 125t51.5 162t14.5 160q0 92 -39 149.5t-140 57.5q-84 0 -143 -49t-96 -123t-54.5 -157.5t-17.5 -151.5z" />
<glyph unicode="q" horiz-adv-x="1026" d="M102 334q0 111 25 232.5t81 224t149.5 169t228.5 66.5q72 0 138.5 -34t104.5 -97l5 2l24 117h164l-266 -1426h-178l104 525l-4 2q-63 -59 -128 -93t-153 -34q-78 0 -134 27.5t-92 75.5t-52.5 110.5t-16.5 132.5zM285 360q0 -92 38.5 -148t139.5 -56q86 0 145.5 51t96 126 t53 160t16.5 152q0 45 -8 85t-28.5 70.5t-53.5 48t-84 17.5q-92 0 -153.5 -51t-97.5 -128t-50 -165t-14 -162z" />
<glyph unicode="r" horiz-adv-x="743" d="M53 0l197 1014h168l-29 -137h8q59 87 140 119q76 31 158 30h10q49 -2 86.5 -13.5t54.5 -25.5l-90 -166q-29 20 -70 29.5t-68 9.5q-100 0 -179 -66.5t-101 -189.5l-119 -604h-166z" />
<glyph unicode="s" horiz-adv-x="899" d="M-14 143l108 127q53 -66 138 -96.5t167 -30.5q106 0 176 35t70 109q0 72 -48 102.5t-118 48.5q-53 14 -111.5 27.5t-106.5 41.5t-78.5 76t-30.5 132q0 86 34.5 145.5t91 96t129 53t146.5 16.5q88 0 176 -24.5t154 -90.5l-103 -131q-55 45 -114.5 67.5t-128.5 22.5 q-37 0 -76 -7t-70 -25.5t-50 -48t-19 -74.5q0 -33 17 -53.5t46 -35t68 -23.5t79 -19q51 -12 101.5 -28.5t90.5 -46.5t65.5 -76t25.5 -118q0 -90 -36 -151.5t-94 -101t-133 -57t-155 -17.5q-51 0 -108.5 9t-112.5 28.5t-104 49t-86 68.5z" />
<glyph unicode="t" horiz-adv-x="561" d="M129 238l123 628h-121l29 148h121l49 254h164l-50 -254h154l-29 -148h-153l-115 -587q-5 -22 -5 -43q0 -23 6 -44q11 -40 73 -40h86l-31 -152h-117q-99 0 -153 60q-37 42 -38 113q0 30 7 65z" />
<glyph unicode="u" horiz-adv-x="1060" d="M114 188q-5 28 -5 59q0 42 10 91l131 676h164l-117 -608q-12 -59 -12 -106.5t19.5 -81.5t60.5 -52.5t112 -18.5q49 0 94 18.5t82 52.5t63.5 81t39.5 107l118 608h164l-196 -1014h-166l22 115h-6q-61 -66 -140 -96.5t-157 -30.5q-76 0 -134 22.5t-96.5 67t-50.5 110.5z " />
<glyph unicode="v" horiz-adv-x="876" d="M100 1012h172l66 -420q14 -92 25.5 -183.5t15.5 -185.5h6q61 96 114.5 189.5t102.5 188.5t97.5 196.5t97.5 214.5h176q-137 -297 -276.5 -545t-293.5 -467h-133z" />
<glyph unicode="w" horiz-adv-x="1443" d="M82 1016h168l45 -547q4 -57 8 -120.5t6 -131.5h8q49 92 95.5 186.5t90.5 191.5t90 201.5t95 219.5h186l58 -537q2 -31 5 -57.5t6 -54t5 -59.5t4 -72h6q104 193 193.5 386t173.5 394h172q-61 -147 -119.5 -275.5t-122 -250t-131 -241.5t-147.5 -249h-154l-49 479 q-2 25 -5 63t-6 82t-5 91t-2 94h-11q-47 -119 -92 -221.5t-91 -197.5t-96 -190.5t-110 -199.5h-155z" />
<glyph unicode="x" horiz-adv-x="929" d="M-78 0l443 522q-53 121 -111.5 247t-114.5 247h187l145 -377l291 377h205l-424 -500q55 -123 118.5 -258t118.5 -258h-190l-156 391l-307 -391h-205z" />
<glyph unicode="y" horiz-adv-x="845" d="M-111 -274q106 10 198.5 59t178.5 168l-166 1061h176l60 -463q12 -92 25.5 -212t13.5 -237h6q121 213 213 451t170 461h170q-117 -324 -232.5 -587t-238.5 -464q-47 -74 -100.5 -140.5t-121 -118.5t-153.5 -85t-194 -37z" />
<glyph unicode="z" horiz-adv-x="870" d="M-37 0l29 139l682 727h-512l28 148h705l-27 -144l-667 -714h528l-31 -156h-735z" />
<glyph unicode="{" horiz-adv-x="524" d="M55 555l21 104q41 6 75.5 30t61.5 59.5t44 82t28 95.5l53 278q20 100 85.5 160.5t143.5 60.5h135l-20 -110h-82q-29 0 -49.5 -16.5t-35.5 -42t-25.5 -57.5t-16.5 -62l-51 -256q-12 -66 -39 -114t-57.5 -81t-60 -50.5t-46.5 -23.5v-6q14 -6 35.5 -23.5t40 -50t27 -79.5 t-4.5 -111l-51 -266q-6 -31 -8 -62.5t4 -57.5t20.5 -42t41.5 -16h82l-21 -109h-117q-39 0 -72.5 15.5t-57 44t-33 69.5t0.5 90l56 285q23 109 -3 180.5t-104 81.5z" />
<glyph unicode="|" horiz-adv-x="417" d="M143 -332v1798h133v-1798h-133z" />
<glyph unicode="}" horiz-adv-x="524" d="M-100 -211l20 109h84q27 0 48.5 16t36.5 42t25.5 57.5t16.5 62.5l51 266q12 63 39 110.5t57.5 80t59.5 50t47 23.5l2 6q-16 6 -38.5 23.5t-40 50.5t-25 81t5.5 114l49 256q6 31 11 62.5t1 57t-19.5 42t-49.5 16.5h-84l18 102h133q96 0 132 -60.5t18 -152.5l-56 -278 q-10 -49 -9 -95.5t13.5 -82t37 -59t63.5 -30.5l-21 -104q-82 -10 -133 -82t-74 -180l-55 -285q-18 -100 -83.5 -159.5t-143.5 -59.5h-137z" />
<glyph unicode="~" horiz-adv-x="1024" d="M86 553q72 102 145.5 143t153.5 41q47 0 95 -20.5t94.5 -46t91.5 -46t88 -20.5q47 0 86 27.5t86 89.5l96 -72q-59 -102 -127 -149t-162 -47q-41 0 -89 20.5t-98 46t-99.5 46t-92.5 20.5q-53 0 -89 -24.5t-85 -78.5z" />
<glyph unicode="&#xa1;" horiz-adv-x="493" d="M76 -414l227 1063h123l-188 -1063h-162zM299 811l39 201h184l-39 -201h-184z" />
<glyph unicode="&#xa2;" horiz-adv-x="864" d="M63 387q0 117 31 227.5t92.5 198.5t153.5 144.5t215 66.5l41 207h92l-41 -207q78 -8 151.5 -43t125.5 -96l-131 -123q-35 39 -79 65.5t-98 32.5l-137 -706q53 6 113.5 37.5t101.5 60.5l92 -123q-72 -61 -158.5 -99t-181.5 -42l-43 -228h-92l45 234q-152 18 -222.5 123.5 t-70.5 269.5zM231 408q0 -102 36 -166t122 -82l133 696q-78 -12 -133 -56t-90 -106.5t-51.5 -137t-16.5 -148.5z" />
<glyph unicode="&#xa3;" horiz-adv-x="1024" d="M35 0l26 131q94 100 166 218t103 253h-191l27 133h162q-4 66 -17.5 130.5t-13.5 131.5q0 88 28.5 167t83 138.5t130 95.5t170.5 36q131 0 225 -45.5t149 -171.5l-147 -78q-35 78 -90 107.5t-139 29.5q-55 0 -97.5 -25.5t-72 -66.5t-44 -91.5t-14.5 -99.5q0 -66 13.5 -129 t13.5 -129h307l-29 -133h-292q-29 -125 -77 -236.5t-134 -209.5h614l-29 -156h-831z" />
<glyph unicode="&#xa4;" horiz-adv-x="1138" d="M82 274l141 138q-78 121 -78 241q0 123 78 242l-141 139q27 29 50.5 51.5t49.5 49.5l140 -140q59 39 118.5 58.5t124.5 19.5q66 0 125.5 -19.5t118.5 -58.5l137 140l101 -103l-140 -137q78 -119 78 -242q0 -121 -78 -241q33 -31 70 -66t70 -70l-101 -102l-137 139 q-115 -80 -244 -80q-131 0 -243 80l-140 -139q-20 23 -51 52.5t-49 47.5zM291 653q0 -55 21.5 -105t58.5 -87t86 -58.5t106 -21.5t107.5 21.5t87.5 58.5t58.5 87t21.5 105q0 57 -21.5 107.5t-58.5 87.5t-87 58.5t-108 21.5q-57 0 -106 -21.5t-86 -58.5t-58.5 -87.5 t-21.5 -107.5z" />
<glyph unicode="&#xa5;" horiz-adv-x="1024" d="M63 324l21 110h311l31 154l-12 43h-291l22 110h236l-201 684h176l109 -403l70 -289l178 287l268 405h178l-469 -684h240l-23 -110h-291l-30 -43l-29 -154h313l-22 -110h-313l-64 -324h-160l64 324h-312z" />
<glyph unicode="&#xa6;" horiz-adv-x="417" d="M143 -332v836h133v-836h-133zM143 623v843h133v-843h-133z" />
<glyph unicode="&#xa7;" horiz-adv-x="954" d="M27 4l104 107q49 -66 120 -93.5t148 -27.5q55 0 105.5 13t88.5 39t59.5 64.5t21.5 88.5q0 66 -57.5 109.5t-157.5 78.5q-135 47 -211 109.5t-76 166.5q0 90 37 159t113 124q-25 35 -41.5 67.5t-16.5 86.5q0 86 36 150.5t93.5 106.5t130 63.5t146.5 21.5q104 0 197.5 -30 t152.5 -93l-102 -119q-59 55 -123 75.5t-125 20.5q-49 0 -92 -13t-75 -37.5t-49.5 -57.5t-17.5 -72q0 -35 20.5 -61.5t53.5 -49t75 -41t85 -32.5q45 -16 94 -38t89 -56.5t66.5 -83t26.5 -115.5q0 -92 -42 -155.5t-101 -117.5q16 -29 26.5 -66.5t10.5 -78.5q0 -78 -33 -145.5 t-91.5 -118.5t-140 -80t-180.5 -29q-57 0 -112.5 11.5t-104.5 33t-88 51t-63 64.5zM328 698q0 -53 41 -86.5t99 -59.5t121.5 -48.5t110.5 -48.5q39 29 63.5 71.5t24.5 94.5q0 68 -66.5 104.5t-170.5 73.5q-31 12 -58.5 28.5t-58.5 34.5q-43 -25 -74.5 -72t-31.5 -92z" />
<glyph unicode="&#xa8;" horiz-adv-x="985" d="M375 1223l35 180h176l-35 -180h-176zM735 1223l35 180h178l-35 -180h-178z" />
<glyph unicode="&#xa9;" horiz-adv-x="1644" d="M115 698q0 154 54 286t150.5 228.5t226.5 150.5t281 54q152 0 283 -54t227.5 -150.5t150.5 -228.5t54 -286t-54 -283.5t-150.5 -226t-227.5 -150.5t-283 -54q-156 0 -285.5 54t-225 150.5t-148.5 226.5t-53 283zM244 698q0 -127 44 -234.5t122.5 -186t185 -123.5 t231.5 -45t231.5 45t185.5 123.5t123 186t44 234.5t-44 235.5t-123 188.5t-185.5 125t-231.5 45t-231.5 -45t-185 -125t-122.5 -188.5t-44 -235.5zM518 569v238q0 66 19.5 125t59.5 104t99.5 72t137.5 27q111 0 186.5 -53.5t109.5 -145.5l-120 -53q-23 55 -68 91t-106 36 q-47 0 -83 -17.5t-59.5 -47.5t-35 -67.5t-11.5 -76.5v-223q0 -41 11.5 -79t35 -69t59 -49.5t83.5 -18.5q63 0 107 38t67 98l123 -58q-37 -94 -113 -147t-186 -53q-78 0 -137.5 26.5t-99.5 71.5t-59.5 104.5t-19.5 126.5z" />
<glyph unicode="&#xaa;" horiz-adv-x="700" d="M119 801q0 70 18.5 148.5t58.5 145t102 110.5t148 44q45 0 91.5 -17.5t80.5 -49.5l13 59h127l-125 -670h-133l14 80q-76 -88 -176 -88q-115 0 -166 67.5t-53 170.5zM260 803q0 -18 5 -38t17.5 -37t34 -27.5t54.5 -10.5q53 0 91 31t62.5 78t35.5 101t11 101q0 53 -25.5 87 t-84.5 34q-61 0 -99 -36.5t-60.5 -87t-32 -104.5t-9.5 -91z" />
<glyph unicode="&#xab;" horiz-adv-x="940" d="M100 475l326 381h168l-328 -381l178 -381h-159zM453 475l325 381h168l-325 -381l176 -381h-160z" />
<glyph unicode="&#xac;" horiz-adv-x="1024" d="M80 537l26 131h904l-105 -525h-157l75 394h-743z" />
<glyph unicode="&#xad;" horiz-adv-x="802" d="M115 471l30 154h590l-30 -154h-590z" />
<glyph unicode="&#xae;" horiz-adv-x="1146" d="M143 1008q0 92 33 170.5t90.5 136t136 90.5t168.5 33q92 0 170 -33t135.5 -90.5t90 -136t32.5 -170.5t-32.5 -169t-90 -134.5t-135 -89t-170.5 -31.5q-90 0 -168.5 31.5t-136 89t-90.5 134t-33 169.5zM225 1008q0 -74 27 -138.5t73 -110.5t109.5 -73t136.5 -27 q74 0 137.5 27t109.5 73t73 110.5t27 138.5q0 76 -27 140t-73 111.5t-109.5 74t-137.5 26.5t-137 -26.5t-109 -74t-73 -112t-27 -139.5zM412 760v495h204q61 0 104.5 -37.5t43.5 -103.5q0 -47 -26.5 -83t-69.5 -52l114 -219h-96l-104 207h-86v-207h-84zM496 1044h106 q35 0 56.5 18.5t21.5 51.5q0 66 -76 66h-108v-136z" />
<glyph unicode="&#xaf;" horiz-adv-x="1013" d="M375 1229l31 153h548l-30 -153h-549z" />
<glyph unicode="&#xb0;" horiz-adv-x="788" d="M119 1163q0 57 21.5 107.5t58.5 87.5t87 58.5t107 21.5q61 0 112.5 -21.5t87.5 -58.5t55.5 -87.5t19.5 -107.5t-21.5 -107t-58.5 -87t-87 -58.5t-108 -21.5q-57 0 -107 21.5t-87 58.5t-58.5 87t-21.5 107zM229 1163q0 -68 46.5 -116t117.5 -48q70 0 117 48t47 116 t-47 116t-117 48q-68 0 -116 -48t-48 -116z" />
<glyph unicode="&#xb1;" horiz-adv-x="1024" d="M-4 0l24 131h883l-24 -131h-883zM111 596l26 131h377l68 356h131l-68 -356h375l-27 -131h-375l-69 -356h-131l69 356h-376z" />
<glyph unicode="&#xb2;" horiz-adv-x="636" d="M72 756l22 118l432 408q70 63 70 125q0 35 -28.5 60.5t-84.5 25.5q-53 0 -95 -37t-62 -96l-142 29q41 104 123 164.5t185 60.5q104 0 175.5 -48t71.5 -147q0 -61 -27.5 -108t-74.5 -92q-96 -90 -180 -169t-181 -169h355l-25 -125h-534z" />
<glyph unicode="&#xb3;" horiz-adv-x="645" d="M113 952l137 19q2 -53 31.5 -79t76.5 -26q74 0 127.5 48.5t51.5 129.5q0 49 -30 75t-83 26h-82l23 115h65q70 0 120 40.5t48 104.5q0 41 -29.5 65.5t-76.5 24.5q-41 0 -85.5 -27.5t-64.5 -83.5l-133 23q31 98 111 153.5t176 55.5q123 0 181 -56.5t60 -136.5 q2 -53 -27.5 -113.5t-113.5 -105.5q41 -29 60.5 -67.5t19.5 -79.5q2 -70 -24.5 -126.5t-70.5 -97t-104.5 -63t-126.5 -22.5q-43 0 -85 10t-75.5 34.5t-55 63.5t-21.5 96z" />
<glyph unicode="&#xb4;" horiz-adv-x="1005" d="M633 1169l219 363l156 -51l-275 -353z" />
<glyph unicode="&#xb6;" horiz-adv-x="1153" d="M199 948q0 82 30.5 170t89 161t142.5 119t192 46h596l-26 -133h-88l-287 -1479h-152l287 1479h-174l-287 -1479h-153l159 832h-79q-66 0 -113 22.5t-78 61t-45 91t-14 109.5z" />
<glyph unicode="&#xb7;" horiz-adv-x="487" d="M180 424l43 227h211l-43 -227h-211z" />
<glyph unicode="&#xb8;" horiz-adv-x="882" d="M129 -397l41 94q41 -18 85 -24.5t73 -6.5q39 0 78.5 20.5t39.5 65.5q0 41 -28.5 63.5t-81.5 22.5h-25l-35 33l105 219l90 -8l-76 -162q51 -4 87 -18.5t56.5 -36t30 -46t9.5 -48.5q0 -35 -15.5 -71t-46.5 -64.5t-79 -47t-113 -18.5h-33t-50.5 3t-57 10t-54.5 20z" />
<glyph unicode="&#xb9;" horiz-adv-x="555" d="M242 756l139 708l-135 -80l33 142l135 84h127l-166 -854h-133z" />
<glyph unicode="&#xba;" horiz-adv-x="700" d="M131 797q-2 90 18.5 172t62.5 143.5t107.5 98t155.5 36.5q117 0 186.5 -64.5t71.5 -174.5q2 -78 -14.5 -157t-55 -142.5t-104 -104.5t-162.5 -41q-127 0 -195.5 60.5t-70.5 173.5zM262 805q0 -18 5 -40t19.5 -40t40 -31.5t64.5 -13.5q59 0 100 29.5t65 75.5t34 103.5 t8 112.5q0 66 -38 99t-95 33q-59 0 -98 -34t-62.5 -83t-33 -106.5t-9.5 -104.5z" />
<glyph unicode="&#xbb;" horiz-adv-x="940" d="M27 94l327 381l-178 381h160l186 -381l-336 -381h-159zM379 94l330 381l-181 381h160l186 -381l-335 -381h-160z" />
<glyph unicode="&#xbc;" horiz-adv-x="1613" d="M123 -35l1161 1495h148l-1164 -1495h-145zM256 571l139 709l-135 -80l33 141l135 84h127l-166 -854h-133zM788 127l25 115l428 612h152l-428 -608h233q10 57 23.5 121.5t21.5 119.5h135l-47 -241h76l-23 -119h-73q-6 -29 -14.5 -63.5t-12.5 -63.5h-131l25 127h-390z" />
<glyph unicode="&#xbd;" horiz-adv-x="1613" d="M63 -35l1162 1495h147l-1163 -1495h-146zM250 571l139 709l-135 -80l33 141l135 84h127l-166 -854h-133zM831 0l23 119l432 407q70 63 70 125q0 35 -29 60.5t-84 25.5q-53 0 -95 -36.5t-63 -96.5l-141 29q41 104 123 164.5t184 60.5q104 0 176 -48t72 -146 q0 -61 -27.5 -108.5t-74.5 -92.5q-96 -90 -180 -169t-181 -169h355l-25 -125h-535z" />
<glyph unicode="&#xbe;" horiz-adv-x="1613" d="M102 768l138 18q2 -53 31.5 -78.5t76.5 -25.5q74 0 127 48t51 130q0 49 -29.5 75t-82.5 26h-82l22 114h66q70 0 120 41t48 105q0 41 -30 65.5t-77 24.5q-41 0 -85 -28t-64 -83l-133 23q31 98 110.5 153.5t175.5 55.5q123 0 181.5 -56.5t60.5 -136.5q2 -53 -27.5 -113.5 t-113.5 -105.5q41 -29 60.5 -68t19.5 -80q2 -70 -25 -126t-71 -97t-104 -63.5t-126 -22.5q-43 0 -85 10.5t-76 35t-55.5 63.5t-21.5 96zM242 -35l1161 1495h147l-1163 -1495h-145zM920 127l24 115l428 612h152l-428 -608h233q10 57 23.5 121.5t21.5 119.5h135l-47 -241h76 l-22 -119h-74q-6 -29 -14.5 -63.5t-12.5 -63.5h-131l25 127h-389z" />
<glyph unicode="&#xbf;" horiz-adv-x="1017" d="M100 -98q0 78 21.5 136t57.5 106.5t80 87t89 75.5q63 53 115.5 109.5t66.5 124.5l21 102h178l-20 -106q-14 -72 -54.5 -132.5t-99.5 -113.5q-37 -43 -84 -83t-88 -81t-68.5 -87t-27.5 -99q0 -31 10 -64t34.5 -60.5t63.5 -45t99 -17.5q72 0 124 26.5t86.5 65.5t53 84 t24.5 80l183 -43q-29 -109 -74 -181.5t-106.5 -117.5t-139.5 -63.5t-172 -18.5q-82 0 -150.5 23.5t-117.5 65.5t-77 99.5t-28 127.5zM584 819l39 201h184l-39 -201h-184z" />
<glyph unicode="&#xc0;" horiz-adv-x="1200" d="M-74 0l789 1425h157l234 -1425h-184l-50 328h-579l-176 -328h-191zM373 483h481l-57 400l-41 323h-4l-162 -315zM432 1722l96 125l353 -250l-60 -86z" />
<glyph unicode="&#xc1;" horiz-adv-x="1200" d="M-74 0l789 1425h157l234 -1425h-184l-50 328h-579l-176 -328h-191zM373 483h481l-57 400l-41 323h-4l-162 -315zM700 1597l353 250l96 -125l-389 -211z" />
<glyph unicode="&#xc2;" horiz-adv-x="1200" d="M-74 0l789 1425h157l234 -1425h-184l-50 328h-579l-176 -328h-191zM373 483h481l-57 400l-41 323h-4l-162 -315zM430 1591l361 269h108l242 -265l-78 -75l-240 176l-348 -183z" />
<glyph unicode="&#xc3;" horiz-adv-x="1200" d="M-74 0l789 1425h157l234 -1425h-184l-50 328h-579l-176 -328h-191zM373 483h481l-57 400l-41 323h-4l-162 -315zM432 1577q57 98 121 140t125 42q37 0 75 -15t74.5 -32.5t69.5 -33t59 -15.5q31 0 61 21.5t70 70.5l95 -59q-53 -102 -114.5 -142.5t-127.5 -40.5 q-37 0 -75 14.5t-74.5 32t-70.5 32t-65 14.5q-35 0 -61.5 -17.5t-73.5 -64.5z" />
<glyph unicode="&#xc4;" horiz-adv-x="1200" d="M-74 0l789 1425h157l234 -1425h-184l-50 328h-579l-176 -328h-191zM373 483h481l-57 400l-41 323h-4l-162 -315zM543 1536l35 180h180l-35 -180h-180zM911 1536l35 180h180l-34 -180h-181z" />
<glyph unicode="&#xc5;" horiz-adv-x="1200" d="M-74 0l789 1425h157l234 -1425h-184l-50 328h-579l-176 -328h-191zM373 483h481l-57 400l-41 323h-4l-162 -315zM645 1624q0 47 17.5 91t50 77t78 52.5t98.5 19.5q74 0 122 -48.5t48 -119.5q0 -55 -21.5 -98.5t-55.5 -73t-78 -46t-89 -16.5q-74 0 -122 46t-48 116z M737 1640q0 -41 25.5 -65.5t66.5 -24.5q53 0 95.5 40t42.5 96q0 39 -28 64.5t-69 25.5q-53 0 -93 -41t-40 -95z" />
<glyph unicode="&#xc6;" horiz-adv-x="2000" d="M-41 0l1108 1425h979l-23 -165h-720l-66 -461h614l-22 -158h-615l-65 -475h721l-23 -166h-903l57 418h-530l-324 -418h-188zM592 573h432l104 691z" />
<glyph unicode="&#xc7;" horiz-adv-x="1112" d="M113 412q0 61 12 123l78 389q20 104 63 197t111.5 163t164 111t220.5 41q174 0 289.5 -83t160.5 -218l-172 -76q-10 39 -34.5 78t-59.5 68.5t-82 48t-104 18.5q-90 0 -155.5 -33t-112 -85t-74 -118.5t-39.5 -134.5l-74 -371q-4 -23 -6 -45t-2 -45q0 -57 11 -108t41 -89 t82 -60.5t132 -22.5q111 0 207 58t150 155l167 -82q-82 -147 -219 -223t-303 -80l-30 -68q51 -4 86.5 -18.5t56 -36t30 -46t9.5 -48.5q0 -35 -15.5 -71t-46 -64.5t-79 -47t-113.5 -18.5h-32.5t-50.5 3t-57.5 10t-54.5 20l41 94q41 -18 85 -24.5t73 -6.5q39 0 79 20.5 t40 65.5q0 41 -29 63.5t-82 22.5h-24l-35 33l57 121q-90 10 -157.5 47t-112.5 93t-67.5 128t-22.5 152z" />
<glyph unicode="&#xc8;" horiz-adv-x="1089" d="M70 0l278 1425h862l-32 -165h-686l-89 -461h603l-31 -158h-602l-94 -475h747l-31 -166h-925zM455 1722l96 125l352 -250l-59 -86z" />
<glyph unicode="&#xc9;" horiz-adv-x="1089" d="M70 0l278 1425h862l-32 -165h-686l-89 -461h603l-31 -158h-602l-94 -475h747l-31 -166h-925zM696 1597l353 250l96 -125l-389 -211z" />
<glyph unicode="&#xca;" horiz-adv-x="1089" d="M70 0l278 1425h862l-32 -165h-686l-89 -461h603l-31 -158h-602l-94 -475h747l-31 -166h-925zM449 1591l360 269h109l241 -265l-78 -75l-239 176l-348 -183z" />
<glyph unicode="&#xcb;" horiz-adv-x="1089" d="M70 0l278 1425h862l-32 -165h-686l-89 -461h603l-31 -158h-602l-94 -475h747l-31 -166h-925zM520 1536l35 180h180l-35 -180h-180zM889 1536l35 180h180l-35 -180h-180z" />
<glyph unicode="&#xcc;" horiz-adv-x="483" d="M70 0l278 1425h176l-276 -1425h-178zM88 1722l96 125l353 -250l-60 -86z" />
<glyph unicode="&#xcd;" horiz-adv-x="483" d="M70 0l278 1425h176l-276 -1425h-178zM385 1597l352 250l97 -125l-390 -211z" />
<glyph unicode="&#xce;" horiz-adv-x="483" d="M70 0l278 1425h176l-276 -1425h-178zM102 1591l361 269h108l242 -265l-78 -75l-239 176l-349 -183z" />
<glyph unicode="&#xcf;" horiz-adv-x="483" d="M70 0l278 1425h176l-276 -1425h-178zM190 1571l35 180h176l-34 -180h-177zM551 1571l35 180h178l-35 -180h-178z" />
<glyph unicode="&#xd0;" horiz-adv-x="1241" d="M33 676l24 129h168l121 620h459q90 0 170 -20.5t140.5 -65.5t95 -116.5t34.5 -171.5q0 -92 -16.5 -210t-41 -229.5t-54 -205t-54.5 -136.5q-49 -82 -106.5 -134t-122 -82.5t-135 -42t-144.5 -11.5h-501l131 676h-168zM279 166h276q100 0 175 28.5t128 82t86 128t51 166.5 l54 273q8 41 11 75.5t3 65.5q0 76 -21.5 129t-59.5 85t-92 46.5t-122 14.5h-276l-89 -455h275l-27 -129h-274z" />
<glyph unicode="&#xd1;" horiz-adv-x="1351" d="M70 0l278 1425h174l340 -786l137 -336l7 -2l217 1124h174l-277 -1425h-172l-354 815l-125 311l-6 -2l-215 -1124h-178zM543 1577q57 98 120.5 140t124.5 42q37 0 75 -15t75 -32.5t69.5 -33t59.5 -15.5q31 0 60.5 21.5t70.5 70.5l94 -59q-53 -102 -114.5 -142.5 t-126.5 -40.5q-37 0 -75 14.5t-75 32t-70.5 32t-64.5 14.5q-35 0 -61.5 -17.5t-73.5 -64.5z" />
<glyph unicode="&#xd2;" horiz-adv-x="1185" d="M94 410q0 49 9.5 113.5t22.5 133t29.5 137t28.5 126.5q25 109 67 203t109.5 163.5t163 109.5t226.5 40q100 0 184 -31t144.5 -86t94 -132t33.5 -169q0 -49 -9 -110.5t-21.5 -128t-27.5 -134t-28 -129.5q-25 -119 -73 -216t-119.5 -167t-167.5 -107.5t-219 -37.5 q-121 0 -206 32.5t-138.5 90t-78 134.5t-24.5 165zM268.5 383.5q3.5 -68.5 34.5 -120.5t91.5 -84t160.5 -32q82 0 146.5 30t112.5 80t81 119.5t51 149.5q12 55 26.5 117t27 123t20.5 118.5t8 102.5q0 127 -75 207t-216 80q-96 0 -162.5 -34t-112.5 -86t-71.5 -118.5 t-38.5 -130.5l-73 -379q-14 -74 -10.5 -142.5zM555 1722l96 125l353 -250l-60 -86z" />
<glyph unicode="&#xd3;" horiz-adv-x="1185" d="M94 410q0 49 9.5 113.5t22.5 133t29.5 137t28.5 126.5q25 109 67 203t109.5 163.5t163 109.5t226.5 40q100 0 184 -31t144.5 -86t94 -132t33.5 -169q0 -49 -9 -110.5t-21.5 -128t-27.5 -134t-28 -129.5q-25 -119 -73 -216t-119.5 -167t-167.5 -107.5t-219 -37.5 q-121 0 -206 32.5t-138.5 90t-78 134.5t-24.5 165zM268.5 383.5q3.5 -68.5 34.5 -120.5t91.5 -84t160.5 -32q82 0 146.5 30t112.5 80t81 119.5t51 149.5q12 55 26.5 117t27 123t20.5 118.5t8 102.5q0 127 -75 207t-216 80q-96 0 -162.5 -34t-112.5 -86t-71.5 -118.5 t-38.5 -130.5l-73 -379q-14 -74 -10.5 -142.5zM717 1597l352 250l96 -125l-389 -211z" />
<glyph unicode="&#xd4;" horiz-adv-x="1185" d="M94 410q0 49 9.5 113.5t22.5 133t29.5 137t28.5 126.5q25 109 67 203t109.5 163.5t163 109.5t226.5 40q100 0 184 -31t144.5 -86t94 -132t33.5 -169q0 -49 -9 -110.5t-21.5 -128t-27.5 -134t-28 -129.5q-25 -119 -73 -216t-119.5 -167t-167.5 -107.5t-219 -37.5 q-121 0 -206 32.5t-138.5 90t-78 134.5t-24.5 165zM268.5 383.5q3.5 -68.5 34.5 -120.5t91.5 -84t160.5 -32q82 0 146.5 30t112.5 80t81 119.5t51 149.5q12 55 26.5 117t27 123t20.5 118.5t8 102.5q0 127 -75 207t-216 80q-96 0 -162.5 -34t-112.5 -86t-71.5 -118.5 t-38.5 -130.5l-73 -379q-14 -74 -10.5 -142.5zM465 1591l360 269h109l242 -265l-78 -75l-240 176l-348 -183z" />
<glyph unicode="&#xd5;" horiz-adv-x="1185" d="M94 410q0 49 9.5 113.5t22.5 133t29.5 137t28.5 126.5q25 109 67 203t109.5 163.5t163 109.5t226.5 40q100 0 184 -31t144.5 -86t94 -132t33.5 -169q0 -49 -9 -110.5t-21.5 -128t-27.5 -134t-28 -129.5q-25 -119 -73 -216t-119.5 -167t-167.5 -107.5t-219 -37.5 q-121 0 -206 32.5t-138.5 90t-78 134.5t-24.5 165zM268.5 383.5q3.5 -68.5 34.5 -120.5t91.5 -84t160.5 -32q82 0 146.5 30t112.5 80t81 119.5t51 149.5q12 55 26.5 117t27 123t20.5 118.5t8 102.5q0 127 -75 207t-216 80q-96 0 -162.5 -34t-112.5 -86t-71.5 -118.5 t-38.5 -130.5l-73 -379q-14 -74 -10.5 -142.5zM475 1577q57 98 121 140t125 42q37 0 75 -15t74.5 -32.5t69.5 -33t59 -15.5q31 0 61 21.5t70 70.5l95 -59q-53 -102 -114.5 -142.5t-127.5 -40.5q-37 0 -75 14.5t-74.5 32t-70.5 32t-65 14.5q-35 0 -61.5 -17.5t-73.5 -64.5z " />
<glyph unicode="&#xd6;" horiz-adv-x="1185" d="M94 410q0 49 9.5 113.5t22.5 133t29.5 137t28.5 126.5q25 109 67 203t109.5 163.5t163 109.5t226.5 40q100 0 184 -31t144.5 -86t94 -132t33.5 -169q0 -49 -9 -110.5t-21.5 -128t-27.5 -134t-28 -129.5q-25 -119 -73 -216t-119.5 -167t-167.5 -107.5t-219 -37.5 q-121 0 -206 32.5t-138.5 90t-78 134.5t-24.5 165zM268.5 383.5q3.5 -68.5 34.5 -120.5t91.5 -84t160.5 -32q82 0 146.5 30t112.5 80t81 119.5t51 149.5q12 55 26.5 117t27 123t20.5 118.5t8 102.5q0 127 -75 207t-216 80q-96 0 -162.5 -34t-112.5 -86t-71.5 -118.5 t-38.5 -130.5l-73 -379q-14 -74 -10.5 -142.5zM545 1536l35 180h180l-35 -180h-180zM913 1536l35 180h180l-34 -180h-181z" />
<glyph unicode="&#xd7;" horiz-adv-x="1202" d="M123 178l399 326l-260 340l105 78l262 -338l399 323l78 -102l-399 -324l274 -358l-104 -78l-275 356l-401 -325z" />
<glyph unicode="&#xd8;" horiz-adv-x="1185" d="M94 49l74 96q-39 53 -56.5 121t-17.5 144q0 49 9.5 113.5t22.5 133t29.5 137t28.5 126.5q25 109 67 203t109.5 163.5t163 109.5t226.5 40q98 0 178 -29t139 -80l82 107l68 -60l-89 -114q37 -49 57.5 -111t20.5 -131q0 -49 -9 -110.5t-21.5 -128t-27.5 -134t-28 -129.5 q-25 -119 -73 -216t-119.5 -167t-167.5 -107.5t-219 -37.5q-104 0 -182 24.5t-132 69.5l-69 -92zM267.5 406.5q0.5 -58.5 17.5 -105.5l676 885q-37 41 -93.5 64.5t-130.5 23.5q-96 0 -162.5 -34t-112.5 -86t-71.5 -118.5t-38.5 -130.5l-73 -379q-12 -61 -11.5 -119.5z M334 221q70 -74 221 -74q82 0 146.5 30t112.5 80t81 119.5t51 149.5q12 55 26.5 117t27 123t20.5 118.5t8 102.5q0 63 -18 117z" />
<glyph unicode="&#xd9;" horiz-adv-x="1241" d="M141 496l181 929h176l-176 -905q-16 -80 -9.5 -147.5t36.5 -115.5t84 -75.5t136 -27.5q147 0 250 92t133 254l181 925h176l-185 -950q-23 -111 -67.5 -200t-115.5 -153.5t-167 -99t-217 -34.5q-104 0 -190 35.5t-143.5 102.5t-81 161t-1.5 209zM543 1722l96 125l352 -250 l-59 -86z" />
<glyph unicode="&#xda;" horiz-adv-x="1241" d="M141 496l181 929h176l-176 -905q-16 -80 -9.5 -147.5t36.5 -115.5t84 -75.5t136 -27.5q147 0 250 92t133 254l181 925h176l-185 -950q-23 -111 -67.5 -200t-115.5 -153.5t-167 -99t-217 -34.5q-104 0 -190 35.5t-143.5 102.5t-81 161t-1.5 209zM696 1597l353 250l96 -125 l-389 -211z" />
<glyph unicode="&#xdb;" horiz-adv-x="1241" d="M141 496l181 929h176l-176 -905q-16 -80 -9.5 -147.5t36.5 -115.5t84 -75.5t136 -27.5q147 0 250 92t133 254l181 925h176l-185 -950q-23 -111 -67.5 -200t-115.5 -153.5t-167 -99t-217 -34.5q-104 0 -190 35.5t-143.5 102.5t-81 161t-1.5 209zM489 1591l361 269h108 l242 -265l-78 -75l-239 176l-348 -183z" />
<glyph unicode="&#xdc;" horiz-adv-x="1241" d="M141 496l181 929h176l-176 -905q-16 -80 -9.5 -147.5t36.5 -115.5t84 -75.5t136 -27.5q147 0 250 92t133 254l181 925h176l-185 -950q-23 -111 -67.5 -200t-115.5 -153.5t-167 -99t-217 -34.5q-104 0 -190 35.5t-143.5 102.5t-81 161t-1.5 209zM543 1536l35 180h180 l-35 -180h-180zM911 1536l35 180h180l-34 -180h-181z" />
<glyph unicode="&#xdd;" horiz-adv-x="1019" d="M199 1425h176l119 -411l69 -266l187 284l264 393h192l-585 -862l-111 -563h-168l111 563zM600 1597l352 250l97 -125l-390 -211z" />
<glyph unicode="&#xde;" horiz-adv-x="1171" d="M74 0l272 1419h182l-49 -258h342q78 0 146.5 -22.5t120 -67.5t81 -111.5t29.5 -154.5q0 -82 -31.5 -169t-96 -160t-161 -120t-225.5 -47h-371l-59 -309h-180zM346 475h354q72 0 128.5 27.5t96.5 71.5t61.5 97.5t21.5 104.5q0 98 -55.5 158.5t-159.5 60.5h-347z" />
<glyph unicode="&#xdf;" horiz-adv-x="1038" d="M47 0l211 1085q35 182 138.5 286t297.5 104q88 0 150.5 -29t100.5 -74t55.5 -101.5t17.5 -109.5q0 -45 -12.5 -94t-39 -94t-65.5 -81t-90 -54q86 -31 118 -98.5t32 -157.5q0 -102 -30 -208t-88.5 -192t-148.5 -140t-209 -54q-51 0 -106 16l22 152q31 -12 76 -13 q86 0 146.5 49.5t97.5 119t54.5 146.5t17.5 132q0 35 -8.5 66.5t-27 55t-49 37t-75.5 13.5h-74l29 145h45q57 0 98 24.5t67.5 60.5t39 77t12.5 72t-9.5 63.5t-29.5 60t-54 46t-85 18.5q-63 0 -107.5 -22.5t-72 -58.5t-43 -77t-21.5 -77l-213 -1094h-168z" />
<glyph unicode="&#xe0;" horiz-adv-x="1013" d="M90 342q0 106 27.5 227t86 222.5t148.5 168t215 66.5q74 0 144.5 -29.5t103.5 -95.5l6 2l27 111h158l-197 -1014h-164l23 111l-6 4q-61 -70 -123 -98.5t-150 -28.5q-80 0 -136 26.5t-92 74.5t-53.5 112.5t-17.5 140.5zM256 338q0 -33 7 -69t27.5 -66.5t54.5 -51t89 -20.5 q92 0 154.5 55.5t102.5 136t57.5 172t17.5 162.5q0 94 -40 155.5t-142 61.5q-96 0 -160 -55t-100.5 -137t-52 -175t-15.5 -169zM469 1511l139 33l140 -379l-101 -30z" />
<glyph unicode="&#xe1;" horiz-adv-x="1013" d="M90 342q0 106 27.5 227t86 222.5t148.5 168t215 66.5q74 0 144.5 -29.5t103.5 -95.5l6 2l27 111h158l-197 -1014h-164l23 111l-6 4q-61 -70 -123 -98.5t-150 -28.5q-80 0 -136 26.5t-92 74.5t-53.5 112.5t-17.5 140.5zM256 338q0 -33 7 -69t27.5 -66.5t54.5 -51t89 -20.5 q92 0 154.5 55.5t102.5 136t57.5 172t17.5 162.5q0 94 -40 155.5t-142 61.5q-96 0 -160 -55t-100.5 -137t-52 -175t-15.5 -169zM553 1169l219 363l156 -51l-275 -353z" />
<glyph unicode="&#xe2;" horiz-adv-x="1013" d="M90 342q0 106 27.5 227t86 222.5t148.5 168t215 66.5q74 0 144.5 -29.5t103.5 -95.5l6 2l27 111h158l-197 -1014h-164l23 111l-6 4q-61 -70 -123 -98.5t-150 -28.5q-80 0 -136 26.5t-92 74.5t-53.5 112.5t-17.5 140.5zM256 338q0 -33 7 -69t27.5 -66.5t54.5 -51t89 -20.5 q92 0 154.5 55.5t102.5 136t57.5 172t17.5 162.5q0 94 -40 155.5t-142 61.5q-96 0 -160 -55t-100.5 -137t-52 -175t-15.5 -169zM313 1208l369 314h109l233 -310l-98 -79l-211 223l-336 -226z" />
<glyph unicode="&#xe3;" horiz-adv-x="1013" d="M90 342q0 106 27.5 227t86 222.5t148.5 168t215 66.5q74 0 144.5 -29.5t103.5 -95.5l6 2l27 111h158l-197 -1014h-164l23 111l-6 4q-61 -70 -123 -98.5t-150 -28.5q-80 0 -136 26.5t-92 74.5t-53.5 112.5t-17.5 140.5zM256 338q0 -33 7 -69t27.5 -66.5t54.5 -51t89 -20.5 q92 0 154.5 55.5t102.5 136t57.5 172t17.5 162.5q0 94 -40 155.5t-142 61.5q-96 0 -160 -55t-100.5 -137t-52 -175t-15.5 -169zM338 1249q57 98 121 140.5t125 42.5q37 0 74.5 -15.5t74.5 -33t70 -33t59 -15.5q31 0 60.5 21.5t70.5 70.5l94 -59q-53 -102 -114.5 -142 t-126.5 -40q-37 0 -75 14t-75 31.5t-70.5 32t-64.5 14.5q-35 0 -61.5 -17.5t-73.5 -64.5z" />
<glyph unicode="&#xe4;" horiz-adv-x="1013" d="M90 342q0 106 27.5 227t86 222.5t148.5 168t215 66.5q74 0 144.5 -29.5t103.5 -95.5l6 2l27 111h158l-197 -1014h-164l23 111l-6 4q-61 -70 -123 -98.5t-150 -28.5q-80 0 -136 26.5t-92 74.5t-53.5 112.5t-17.5 140.5zM256 338q0 -33 7 -69t27.5 -66.5t54.5 -51t89 -20.5 q92 0 154.5 55.5t102.5 136t57.5 172t17.5 162.5q0 94 -40 155.5t-142 61.5q-96 0 -160 -55t-100.5 -137t-52 -175t-15.5 -169zM395 1223l35 180h176l-35 -180h-176zM756 1223l35 180h178l-35 -180h-178z" />
<glyph unicode="&#xe5;" horiz-adv-x="1013" d="M90 342q0 106 27.5 227t86 222.5t148.5 168t215 66.5q74 0 144.5 -29.5t103.5 -95.5l6 2l27 111h158l-197 -1014h-164l23 111l-6 4q-61 -70 -123 -98.5t-150 -28.5q-80 0 -136 26.5t-92 74.5t-53.5 112.5t-17.5 140.5zM256 338q0 -33 7 -69t27.5 -66.5t54.5 -51t89 -20.5 q92 0 154.5 55.5t102.5 136t57.5 172t17.5 162.5q0 94 -40 155.5t-142 61.5q-96 0 -160 -55t-100.5 -137t-52 -175t-15.5 -169zM481 1280q0 47 17.5 91t50.5 77t78 52.5t98 19.5q74 0 122 -48.5t48 -119.5q0 -55 -21.5 -98.5t-55.5 -73t-78 -46t-89 -16.5q-74 0 -122 46 t-48 116zM573 1296q0 -41 26 -65.5t67 -24.5q53 0 95 40t42 95q0 39 -27.5 65t-68.5 26q-53 0 -93.5 -41t-40.5 -95z" />
<glyph unicode="&#xe6;" horiz-adv-x="1636" d="M66 289q6 66 35.5 122t78.5 97t117 64.5t149 21.5q53 0 89 -2t69 -5t70 -7.5t92 -10.5l22 133q16 84 -30.5 125t-169.5 41q-96 0 -156.5 -23.5t-101.5 -64.5l-97 113q72 66 168.5 99.5t200.5 33.5q51 0 103.5 -6t98.5 -19.5t83 -37t59 -56.5q57 53 131 86t170 33 q168 0 260 -76t90 -205q0 -68 -30.5 -132t-107.5 -111t-209 -73t-337 -17q-4 -23 -4 -36.5v-21.5q0 -66 12.5 -106.5t38 -63t63.5 -32t87 -9.5q31 0 66.5 8.5t72.5 21.5t70 30.5t57 34.5l82 -121q-76 -61 -175 -95t-198 -34q-127 0 -201.5 45t-107.5 133l-4 -19 q-63 -78 -167.5 -118.5t-237.5 -40.5q-158 0 -236 84t-65 217zM227 299q-14 -72 32 -115t159 -43q49 0 98 12.5t91 37t71 59.5t39 80l22 104q-49 6 -81.5 10.5t-62.5 7.5t-60.5 4t-73.5 3q-98 0 -159 -44t-75 -116zM940 559q160 -8 257 6.5t149.5 41t69 60t16.5 64.5 q0 66 -49.5 101.5t-145.5 35.5q-76 0 -128 -26.5t-86 -69.5t-52.5 -98.5t-30.5 -114.5z" />
<glyph unicode="&#xe7;" horiz-adv-x="864" d="M61 377q0 131 34 248.5t100.5 207t167 141.5t235.5 52q90 0 176 -35t144 -106l-123 -119q-39 45 -92.5 72.5t-114.5 27.5q-94 0 -162 -43t-111 -109.5t-63.5 -147.5t-20.5 -158q0 -57 10.5 -103.5t35 -80.5t65.5 -52t104 -18q74 0 139.5 33.5t108.5 64.5l99 -125 q-72 -61 -170.5 -98t-196.5 -41l-31 -68q51 -4 87 -18.5t56.5 -36t30 -46t9.5 -48.5q0 -35 -15.5 -71t-46.5 -64.5t-79 -47t-113 -18.5h-33t-50.5 3t-57 10t-54.5 20l41 94q41 -18 85 -24.5t73 -6.5q39 0 78.5 20.5t39.5 65.5q0 41 -28.5 63.5t-81.5 22.5h-25l-35 33l58 123 q-70 12 -121 45t-85 84t-50.5 115.5t-16.5 138.5z" />
<glyph unicode="&#xe8;" horiz-adv-x="962" d="M84 356q0 115 27.5 234t88 216t156 158.5t228.5 61.5q166 0 258 -73.5t92 -202.5q0 -63 -25.5 -125t-93 -109t-182.5 -76.5t-293 -29.5h-44.5t-45.5 2q-4 -23 -4 -36.5v-21.5q0 -117 50 -164t150 -47q31 0 67 8.5t73 21.5t69.5 30.5t57.5 34.5l82 -121 q-76 -61 -175.5 -95t-197.5 -34q-174 0 -256 94t-82 274zM276 559q25 -2 46.5 -2h44.5q131 0 209.5 18.5t121.5 45t56.5 57.5t13.5 53q0 66 -49.5 101.5t-145.5 35.5q-72 0 -123 -26.5t-85.5 -69.5t-55 -98.5t-33.5 -114.5zM412 1511l139 33l139 -379l-100 -30z" />
<glyph unicode="&#xe9;" horiz-adv-x="962" d="M84 356q0 115 27.5 234t88 216t156 158.5t228.5 61.5q166 0 258 -73.5t92 -202.5q0 -63 -25.5 -125t-93 -109t-182.5 -76.5t-293 -29.5h-44.5t-45.5 2q-4 -23 -4 -36.5v-21.5q0 -117 50 -164t150 -47q31 0 67 8.5t73 21.5t69.5 30.5t57.5 34.5l82 -121 q-76 -61 -175.5 -95t-197.5 -34q-174 0 -256 94t-82 274zM276 559q25 -2 46.5 -2h44.5q131 0 209.5 18.5t121.5 45t56.5 57.5t13.5 53q0 66 -49.5 101.5t-145.5 35.5q-72 0 -123 -26.5t-85.5 -69.5t-55 -98.5t-33.5 -114.5zM512 1169l219 363l156 -51l-275 -353z" />
<glyph unicode="&#xea;" horiz-adv-x="962" d="M84 356q0 115 27.5 234t88 216t156 158.5t228.5 61.5q166 0 258 -73.5t92 -202.5q0 -63 -25.5 -125t-93 -109t-182.5 -76.5t-293 -29.5h-44.5t-45.5 2q-4 -23 -4 -36.5v-21.5q0 -117 50 -164t150 -47q31 0 67 8.5t73 21.5t69.5 30.5t57.5 34.5l82 -121 q-76 -61 -175.5 -95t-197.5 -34q-174 0 -256 94t-82 274zM276 559q25 -2 46.5 -2h44.5q131 0 209.5 18.5t121.5 45t56.5 57.5t13.5 53q0 66 -49.5 101.5t-145.5 35.5q-72 0 -123 -26.5t-85.5 -69.5t-55 -98.5t-33.5 -114.5zM276 1208l369 314h109l233 -310l-98 -79l-211 223 l-336 -226z" />
<glyph unicode="&#xeb;" horiz-adv-x="962" d="M84 356q0 115 27.5 234t88 216t156 158.5t228.5 61.5q166 0 258 -73.5t92 -202.5q0 -63 -25.5 -125t-93 -109t-182.5 -76.5t-293 -29.5h-44.5t-45.5 2q-4 -23 -4 -36.5v-21.5q0 -117 50 -164t150 -47q31 0 67 8.5t73 21.5t69.5 30.5t57.5 34.5l82 -121 q-76 -61 -175.5 -95t-197.5 -34q-174 0 -256 94t-82 274zM276 559q25 -2 46.5 -2h44.5q131 0 209.5 18.5t121.5 45t56.5 57.5t13.5 53q0 66 -49.5 101.5t-145.5 35.5q-72 0 -123 -26.5t-85.5 -69.5t-55 -98.5t-33.5 -114.5zM375 1223l35 180h176l-35 -180h-176zM735 1223 l35 180h178l-35 -180h-178z" />
<glyph unicode="&#xec;" horiz-adv-x="450" d="M61 0l197 1014h164l-197 -1014h-164zM123 1511l139 33l139 -379l-100 -30z" />
<glyph unicode="&#xed;" horiz-adv-x="450" d="M61 0l197 1014h164l-197 -1014h-164zM299 1169l219 363l156 -51l-275 -353z" />
<glyph unicode="&#xee;" horiz-adv-x="544" d="M78 1208l368 314h109l233 -310l-98 -79l-211 223l-336 -226zM123 0l196 1014h164l-196 -1014h-164z" />
<glyph unicode="&#xef;" horiz-adv-x="548" d="M123 0l196 1014h164l-196 -1014h-164zM162 1223l35 180h176l-35 -180h-176zM522 1223l35 180h178l-35 -180h-178z" />
<glyph unicode="&#xf0;" horiz-adv-x="1009" d="M61 348q0 135 33 251t93.5 199t148.5 130t199 47q45 0 88 -12.5t79.5 -33t65.5 -50t45 -62.5h8q4 27 6 52.5t2 50.5q0 63 -12 122.5t-39 112.5l-141 -90l-41 65l141 91q-41 55 -101.5 90t-139.5 43l47 137q117 -14 199.5 -61.5t136.5 -118.5l168 106l40 -65l-165 -107 q35 -68 50 -144.5t15 -156.5q0 -78 -6 -179t-26.5 -207.5t-58.5 -209t-100.5 -182.5t-153.5 -129t-218 -49q-170 0 -266.5 91t-96.5 269zM223 352q0 -100 54.5 -156.5t154.5 -56.5q150 0 241 123t91 354q0 53 -19.5 92.5t-51 66t-72.5 38.5t-84 12q-88 0 -147.5 -43 t-96.5 -111.5t-53.5 -152.5t-16.5 -166z" />
<glyph unicode="&#xf1;" horiz-adv-x="1052" d="M49 0l197 1014h166l-23 -121h6q61 66 148.5 99.5t167.5 33.5q70 0 124 -23.5t90 -67.5t48 -109.5t-4 -149.5l-131 -676h-166l119 608q10 49 11 96.5t-15.5 84t-55.5 58t-106 21.5q-49 0 -96.5 -19.5t-87.5 -54t-68.5 -82.5t-38.5 -104l-119 -608h-166zM307 1249 q57 98 121 140.5t125 42.5q37 0 75 -15.5t74.5 -33t69.5 -33t59 -15.5q31 0 61 21.5t71 70.5l94 -59q-53 -102 -114.5 -142t-127.5 -40q-37 0 -75 14t-74.5 31.5t-70.5 32t-65 14.5q-35 0 -61.5 -17.5t-73.5 -64.5z" />
<glyph unicode="&#xf2;" horiz-adv-x="1013" d="M86 336q0 135 30.5 260t92 220t156 151.5t223.5 56.5q164 0 261 -97.5t97 -260.5q0 -117 -24.5 -238t-82 -219t-151.5 -159.5t-231 -61.5q-180 0 -275.5 90t-95.5 258zM250 350q0 -31 8 -67.5t30.5 -68.5t61.5 -53.5t103 -21.5q92 0 153.5 47t100 122t55 166t16.5 181 q0 113 -58.5 166t-150.5 53t-153.5 -53t-98 -132t-52 -171t-15.5 -168zM428 1511l139 33l140 -379l-101 -30z" />
<glyph unicode="&#xf3;" horiz-adv-x="1013" d="M86 336q0 135 30.5 260t92 220t156 151.5t223.5 56.5q164 0 261 -97.5t97 -260.5q0 -117 -24.5 -238t-82 -219t-151.5 -159.5t-231 -61.5q-180 0 -275.5 90t-95.5 258zM250 350q0 -31 8 -67.5t30.5 -68.5t61.5 -53.5t103 -21.5q92 0 153.5 47t100 122t55 166t16.5 181 q0 113 -58.5 166t-150.5 53t-153.5 -53t-98 -132t-52 -171t-15.5 -168zM563 1169l219 363l156 -51l-274 -353z" />
<glyph unicode="&#xf4;" horiz-adv-x="1013" d="M86 336q0 135 30.5 260t92 220t156 151.5t223.5 56.5q164 0 261 -97.5t97 -260.5q0 -117 -24.5 -238t-82 -219t-151.5 -159.5t-231 -61.5q-180 0 -275.5 90t-95.5 258zM250 350q0 -31 8 -67.5t30.5 -68.5t61.5 -53.5t103 -21.5q92 0 153.5 47t100 122t55 166t16.5 181 q0 113 -58.5 166t-150.5 53t-153.5 -53t-98 -132t-52 -171t-15.5 -168zM313 1208l369 314h109l233 -310l-98 -79l-211 223l-336 -226z" />
<glyph unicode="&#xf5;" horiz-adv-x="1013" d="M86 336q0 135 30.5 260t92 220t156 151.5t223.5 56.5q164 0 261 -97.5t97 -260.5q0 -117 -24.5 -238t-82 -219t-151.5 -159.5t-231 -61.5q-180 0 -275.5 90t-95.5 258zM250 350q0 -31 8 -67.5t30.5 -68.5t61.5 -53.5t103 -21.5q92 0 153.5 47t100 122t55 166t16.5 181 q0 113 -58.5 166t-150.5 53t-153.5 -53t-98 -132t-52 -171t-15.5 -168zM295 1249q57 98 121 140.5t125 42.5q37 0 74.5 -15.5t74.5 -33t70 -33t59 -15.5q31 0 60.5 21.5t70.5 70.5l94 -59q-53 -102 -114.5 -142t-126.5 -40q-37 0 -75 14t-75 31.5t-70.5 32t-64.5 14.5 q-35 0 -61.5 -17.5t-73.5 -64.5z" />
<glyph unicode="&#xf6;" horiz-adv-x="1013" d="M86 336q0 135 30.5 260t92 220t156 151.5t223.5 56.5q164 0 261 -97.5t97 -260.5q0 -117 -24.5 -238t-82 -219t-151.5 -159.5t-231 -61.5q-180 0 -275.5 90t-95.5 258zM250 350q0 -31 8 -67.5t30.5 -68.5t61.5 -53.5t103 -21.5q92 0 153.5 47t100 122t55 166t16.5 181 q0 113 -58.5 166t-150.5 53t-153.5 -53t-98 -132t-52 -171t-15.5 -168zM354 1223l35 180h176l-35 -180h-176zM715 1223l35 180h178l-35 -180h-178z" />
<glyph unicode="&#xf7;" horiz-adv-x="1024" d="M78 537l26 129h924l-27 -129h-923zM365 215q0 55 43 96t98 41q43 0 69.5 -25.5t26.5 -66.5q0 -57 -44 -98t-97 -41q-43 0 -69.5 26.5t-26.5 67.5zM506 946q0 55 44 97t99 42q41 0 67.5 -26.5t26.5 -67.5q0 -29 -12 -53.5t-31.5 -44t-45 -30.5t-52.5 -11q-43 0 -69.5 26.5 t-26.5 67.5z" />
<glyph unicode="&#xf8;" horiz-adv-x="1013" d="M82 -4l78 104q-74 86 -74 236q0 135 30.5 260t92 220t156 151.5t223.5 56.5q66 0 122 -17.5t101 -50.5l88 117l74 -55l-96 -127q70 -92 69 -225q0 -117 -24.5 -238t-82 -219t-151.5 -159.5t-231 -61.5t-226 53l-77 -102zM250 350q0 -25 4 -51.5t16 -54.5l443 583 q-58 47 -144 47q-92 0 -153.5 -53t-98 -132t-52 -171t-15.5 -168zM330 172q23 -16 52.5 -24.5t70.5 -8.5q92 0 153.5 47t100 122t55 166t16.5 181q0 49 -12 90z" />
<glyph unicode="&#xf9;" horiz-adv-x="1060" d="M114.5 188.5q-12.5 65.5 4.5 149.5l131 676h164l-117 -608q-12 -59 -12 -106.5t19.5 -81.5t60.5 -52.5t112 -18.5q49 0 94 18.5t82 52.5t63.5 81t39.5 107l118 608h164l-196 -1014h-166l22 115h-6q-61 -66 -140 -96.5t-157 -30.5q-76 0 -134 22.5t-96 67.5t-50.5 110.5z M446 1511l140 33l139 -379l-100 -30z" />
<glyph unicode="&#xfa;" horiz-adv-x="1060" d="M114.5 188.5q-12.5 65.5 4.5 149.5l131 676h164l-117 -608q-12 -59 -12 -106.5t19.5 -81.5t60.5 -52.5t112 -18.5q49 0 94 18.5t82 52.5t63.5 81t39.5 107l118 608h164l-196 -1014h-166l22 115h-6q-61 -66 -140 -96.5t-157 -30.5q-76 0 -134 22.5t-96 67.5t-50.5 110.5z M551 1169l219 363l156 -51l-275 -353z" />
<glyph unicode="&#xfb;" horiz-adv-x="1060" d="M114.5 188.5q-12.5 65.5 4.5 149.5l131 676h164l-117 -608q-12 -59 -12 -106.5t19.5 -81.5t60.5 -52.5t112 -18.5q49 0 94 18.5t82 52.5t63.5 81t39.5 107l118 608h164l-196 -1014h-166l22 115h-6q-61 -66 -140 -96.5t-157 -30.5q-76 0 -134 22.5t-96 67.5t-50.5 110.5z M315 1208l369 314h109l233 -310l-98 -79l-211 223l-336 -226z" />
<glyph unicode="&#xfc;" horiz-adv-x="1060" d="M114.5 188.5q-12.5 65.5 4.5 149.5l131 676h164l-117 -608q-12 -59 -12 -106.5t19.5 -81.5t60.5 -52.5t112 -18.5q49 0 94 18.5t82 52.5t63.5 81t39.5 107l118 608h164l-196 -1014h-166l22 115h-6q-61 -66 -140 -96.5t-157 -30.5q-76 0 -134 22.5t-96 67.5t-50.5 110.5z M410 1223l34 180h177l-35 -180h-176zM770 1223l35 180h178l-35 -180h-178z" />
<glyph unicode="&#xfd;" horiz-adv-x="845" d="M-111 -274q106 10 198.5 59t178.5 168l-166 1061h176l60 -463q12 -92 25.5 -212t13.5 -237h6q121 213 213 451t170 461h170q-117 -324 -232.5 -587t-238.5 -464q-47 -74 -100.5 -140.5t-121 -118.5t-153.5 -85t-194 -37zM457 1169l219 363l155 -51l-274 -353z" />
<glyph unicode="&#xfe;" horiz-adv-x="1026" d="M-27 -412l357 1837h166l-103 -522l6 -2q59 59 134 92t161 33q78 0 130.5 -27.5t84 -73.5t45 -107.5t13.5 -129.5q0 -111 -26 -233.5t-83 -227t-150.5 -172t-226.5 -67.5q-78 0 -134 31.5t-103 95.5l-4 -2l-101 -525h-166zM303 379q0 -43 8 -84t28.5 -71.5t54.5 -49 t83 -18.5q92 0 152.5 50t97.5 125t51.5 162t14.5 160q0 92 -39 149.5t-140 57.5q-84 0 -143 -49t-96 -123t-54.5 -157.5t-17.5 -151.5z" />
<glyph unicode="&#xff;" horiz-adv-x="845" d="M-111 -274q106 10 198.5 59t178.5 168l-166 1061h176l60 -463q12 -92 25.5 -212t13.5 -237h6q121 213 213 451t170 461h170q-117 -324 -232.5 -587t-238.5 -464q-47 -74 -100.5 -140.5t-121 -118.5t-153.5 -85t-194 -37zM246 1223l35 180h176l-35 -180h-176zM606 1223 l35 180h178l-35 -180h-178z" />
<glyph unicode="&#x100;" horiz-adv-x="1200" d="M-74 0l789 1425h157l234 -1425h-184l-50 328h-579l-176 -328h-191zM373 483h481l-57 400l-41 323h-4l-162 -315zM539 1575l30 154h549l-31 -154h-548z" />
<glyph unicode="&#x101;" horiz-adv-x="1013" d="M90 342q0 106 27.5 227t86 222.5t148.5 168t215 66.5q74 0 144.5 -29.5t103.5 -95.5l6 2l27 111h158l-197 -1014h-164l23 111l-6 4q-61 -70 -123 -98.5t-150 -28.5q-80 0 -136 26.5t-92 74.5t-53.5 112.5t-17.5 140.5zM256 338q0 -33 7 -69t27.5 -66.5t54.5 -51t89 -20.5 q92 0 154.5 55.5t102.5 136t57.5 172t17.5 162.5q0 94 -40 155.5t-142 61.5q-96 0 -160 -55t-100.5 -137t-52 -175t-15.5 -169zM375 1229l31 153h548l-30 -153h-549z" />
<glyph unicode="&#x102;" horiz-adv-x="1200" d="M-74 0l789 1425h157l234 -1425h-184l-50 328h-579l-176 -328h-191zM373 483h481l-57 400l-41 323h-4l-162 -315zM563 1782h148q-10 -53 19.5 -91t94.5 -38q41 0 72 12t51.5 31.5t32.5 42t16 43.5h154q-8 -45 -31.5 -92.5t-64.5 -85t-102.5 -62t-145.5 -24.5 q-80 0 -130 26.5t-78 65.5t-35 85t-1 87z" />
<glyph unicode="&#x103;" horiz-adv-x="1013" d="M90 342q0 106 27.5 227t86 222.5t148.5 168t215 66.5q74 0 144.5 -29.5t103.5 -95.5l6 2l27 111h158l-197 -1014h-164l23 111l-6 4q-61 -70 -123 -98.5t-150 -28.5q-80 0 -136 26.5t-92 74.5t-53.5 112.5t-17.5 140.5zM256 338q0 -33 7 -69t27.5 -66.5t54.5 -51t89 -20.5 q92 0 154.5 55.5t102.5 136t57.5 172t17.5 162.5q0 94 -40 155.5t-142 61.5q-96 0 -160 -55t-100.5 -137t-52 -175t-15.5 -169zM418 1448h145q-2 -20 3 -45t20.5 -45.5t40 -34.5t61.5 -14q74 0 118 44t54 95h158q-12 -49 -38 -98.5t-67 -89t-98 -64.5t-137 -25 q-152 0 -212 76t-48 201z" />
<glyph unicode="&#x104;" horiz-adv-x="1200" d="M-74 0l789 1425h157l234 -1425h-59q-98 -111 -99 -188q0 -66 82 -66q25 0 56.5 8t66.5 29l23 -100q-45 -25 -97.5 -38.5t-103.5 -13.5q-78 0 -122 42t-44 106q0 49 25.5 100t87.5 121l-50 328h-579l-176 -328h-191zM373 483h481l-57 400l-41 323h-4l-162 -315z" />
<glyph unicode="&#x105;" horiz-adv-x="1013" d="M90 342q0 106 27.5 227t86 222.5t148.5 168t215 66.5q74 0 144.5 -29.5t103.5 -95.5l6 2l27 111h158l-197 -1014h-41q-98 -111 -98 -188q0 -66 82 -66q25 0 56.5 8t65.5 29l23 -100q-45 -25 -97.5 -38.5t-103.5 -13.5q-78 0 -122 42t-44 106q0 49 26 101t89 122l23 109 l-6 4q-61 -70 -123 -98.5t-150 -28.5q-80 0 -136 26.5t-92 74.5t-53.5 112.5t-17.5 140.5zM256 338q0 -33 7 -69t27.5 -66.5t54.5 -51t89 -20.5q92 0 154.5 55.5t102.5 136t57.5 172t17.5 162.5q0 94 -40 155.5t-142 61.5q-96 0 -160 -55t-100.5 -137t-52 -175t-15.5 -169z " />
<glyph unicode="&#x106;" horiz-adv-x="1112" d="M113 412q0 61 12 123l78 389q20 104 63 197t111.5 163t164 111t220.5 41q174 0 289.5 -83t160.5 -218l-172 -76q-10 39 -34.5 78t-59.5 68.5t-82 48t-104 18.5q-90 0 -155.5 -33t-112 -85t-74 -118.5t-39.5 -134.5l-74 -371q-4 -23 -6 -45t-2 -45q0 -57 11 -108t41 -89 t82 -60.5t132 -22.5q111 0 207 58t150 155l167 -82q-84 -152 -225 -227.5t-315 -75.5q-109 0 -191 33.5t-136 91t-80.5 134.5t-26.5 165zM678 1597l352 250l96 -125l-389 -211z" />
<glyph unicode="&#x107;" horiz-adv-x="864" d="M61 377q0 131 34 248.5t100.5 207t167 141.5t235.5 52q90 0 176 -35t144 -106l-123 -119q-39 45 -92.5 72.5t-114.5 27.5q-94 0 -162 -43t-111 -109.5t-63.5 -147.5t-20.5 -158q0 -57 10.5 -103.5t35 -80.5t65.5 -52t104 -18q74 0 139.5 33.5t108.5 64.5l99 -125 q-76 -66 -179.5 -102.5t-203.5 -36.5q-88 0 -154 29.5t-109 82t-64.5 123t-21.5 154.5zM496 1169l219 363l155 -51l-274 -353z" />
<glyph unicode="&#x108;" horiz-adv-x="1112" d="M113 412q0 61 12 123l78 389q20 104 63 197t111.5 163t164 111t220.5 41q174 0 289.5 -83t160.5 -218l-172 -76q-10 39 -34.5 78t-59.5 68.5t-82 48t-104 18.5q-90 0 -155.5 -33t-112 -85t-74 -118.5t-39.5 -134.5l-74 -371q-4 -23 -6 -45t-2 -45q0 -57 11 -108t41 -89 t82 -60.5t132 -22.5q111 0 207 58t150 155l167 -82q-84 -152 -225 -227.5t-315 -75.5q-109 0 -191 33.5t-136 91t-80.5 134.5t-26.5 165zM459 1591l360 269h109l241 -265l-77 -75l-240 176l-348 -183z" />
<glyph unicode="&#x109;" horiz-adv-x="864" d="M61 377q0 131 34 248.5t100.5 207t167 141.5t235.5 52q90 0 176 -35t144 -106l-123 -119q-39 45 -92.5 72.5t-114.5 27.5q-94 0 -162 -43t-111 -109.5t-63.5 -147.5t-20.5 -158q0 -57 10.5 -103.5t35 -80.5t65.5 -52t104 -18q74 0 139.5 33.5t108.5 64.5l99 -125 q-76 -66 -179.5 -102.5t-203.5 -36.5q-88 0 -154 29.5t-109 82t-64.5 123t-21.5 154.5zM252 1208l369 314h108l234 -310l-99 -79l-211 223l-336 -226z" />
<glyph unicode="&#x10a;" horiz-adv-x="1112" d="M113 412q0 61 12 123l78 389q20 104 63 197t111.5 163t164 111t220.5 41q174 0 289.5 -83t160.5 -218l-172 -76q-10 39 -34.5 78t-59.5 68.5t-82 48t-104 18.5q-90 0 -155.5 -33t-112 -85t-74 -118.5t-39.5 -134.5l-74 -371q-4 -23 -6 -45t-2 -45q0 -57 11 -108t41 -89 t82 -60.5t132 -22.5q111 0 207 58t150 155l167 -82q-84 -152 -225 -227.5t-315 -75.5q-109 0 -191 33.5t-136 91t-80.5 134.5t-26.5 165zM756 1530l35 180h180l-35 -180h-180z" />
<glyph unicode="&#x10b;" horiz-adv-x="864" d="M61 377q0 131 34 248.5t100.5 207t167 141.5t235.5 52q90 0 176 -35t144 -106l-123 -119q-39 45 -92.5 72.5t-114.5 27.5q-94 0 -162 -43t-111 -109.5t-63.5 -147.5t-20.5 -158q0 -57 10.5 -103.5t35 -80.5t65.5 -52t104 -18q74 0 139.5 33.5t108.5 64.5l99 -125 q-76 -66 -179.5 -102.5t-203.5 -36.5q-88 0 -154 29.5t-109 82t-64.5 123t-21.5 154.5zM532 1223l35 180h181l-35 -180h-181z" />
<glyph unicode="&#x10c;" horiz-adv-x="1112" d="M113 412q0 61 12 123l78 389q20 104 63 197t111.5 163t164 111t220.5 41q174 0 289.5 -83t160.5 -218l-172 -76q-10 39 -34.5 78t-59.5 68.5t-82 48t-104 18.5q-90 0 -155.5 -33t-112 -85t-74 -118.5t-39.5 -134.5l-74 -371q-4 -23 -6 -45t-2 -45q0 -57 11 -108t41 -89 t82 -60.5t132 -22.5q111 0 207 58t150 155l167 -82q-84 -152 -225 -227.5t-315 -75.5q-109 0 -191 33.5t-136 91t-80.5 134.5t-26.5 165zM504 1780l74 71l239 -172l352 183l45 -78l-360 -268h-109z" />
<glyph unicode="&#x10d;" horiz-adv-x="864" d="M61 377q0 131 34 248.5t100.5 207t167 141.5t235.5 52q90 0 176 -35t144 -106l-123 -119q-39 45 -92.5 72.5t-114.5 27.5q-94 0 -162 -43t-111 -109.5t-63.5 -147.5t-20.5 -158q0 -57 10.5 -103.5t35 -80.5t65.5 -52t104 -18q74 0 139.5 33.5t108.5 64.5l99 -125 q-76 -66 -179.5 -102.5t-203.5 -36.5q-88 0 -154 29.5t-109 82t-64.5 123t-21.5 154.5zM328 1446l94 78l225 -228l322 226l65 -80l-352 -309h-109z" />
<glyph unicode="&#x10e;" horiz-adv-x="1241" d="M70 0l276 1425h459q90 0 170 -20.5t140.5 -65.5t95 -116.5t34.5 -171.5q0 -92 -16.5 -210t-41 -229.5t-54 -205t-54.5 -136.5q-49 -82 -106.5 -134t-122 -82.5t-135 -42t-144.5 -11.5h-501zM279 166h276q100 0 175 28.5t128 82t86 128t51 166.5l54 273q8 41 11 75.5 t3 65.5q0 76 -21.5 129t-59.5 85t-92 46.5t-122 14.5h-276zM449 1780l73 71l240 -172l352 183l45 -78l-360 -268h-109z" />
<glyph unicode="&#x10f;" horiz-adv-x="1230" d="M92 319q0 111 24.5 236t82 229.5t150.5 173t229 68.5q61 0 127.5 -23.5t111.5 -82.5h4l115 569h164l-293 -1489h-164l21 111l-5 2q-59 -66 -132.5 -95.5t-145.5 -29.5q-84 0 -140.5 25.5t-89 70.5t-46 105.5t-13.5 129.5zM266 367q0 -98 37 -155.5t141 -57.5 q76 0 128.5 35.5t86 89t53 115t29.5 114.5q10 51 13.5 114.5t-12 119t-54.5 92t-113 36.5q-63 0 -108 -24.5t-78 -65.5t-54.5 -92t-35.5 -102q-16 -57 -24.5 -115.5t-8.5 -103.5zM1155 1075l115 180h-72l45 228h211l-43 -223l-151 -185h-105z" />
<glyph unicode="&#x110;" horiz-adv-x="1241" d="M33 676l24 129h168l121 620h459q90 0 170 -20.5t140.5 -65.5t95 -116.5t34.5 -171.5q0 -92 -16.5 -210t-41 -229.5t-54 -205t-54.5 -136.5q-49 -82 -106.5 -134t-122 -82.5t-135 -42t-144.5 -11.5h-501l131 676h-168zM279 166h276q100 0 175 28.5t128 82t86 128t51 166.5 l54 273q8 41 11 75.5t3 65.5q0 76 -21.5 129t-59.5 85t-92 46.5t-122 14.5h-276l-89 -455h275l-27 -129h-274z" />
<glyph unicode="&#x111;" horiz-adv-x="995" d="M92 319q0 111 24.5 236t82 229.5t150.5 173t229 68.5q61 0 127.5 -23.5t111.5 -82.5h4l49 241h-159l22 117h160l43 211h164l-43 -211h131l-23 -117h-131l-227 -1161h-164l21 111l-5 2q-59 -66 -132.5 -95.5t-145.5 -29.5q-84 0 -140.5 25.5t-89 70.5t-46 105.5 t-13.5 129.5zM266 367q0 -98 37 -155.5t141 -57.5q76 0 128.5 35.5t86 89t53 115t29.5 114.5q10 51 13.5 114.5t-12 119t-54.5 92t-113 36.5q-63 0 -108 -24.5t-78 -65.5t-54.5 -92t-35.5 -102q-16 -57 -24.5 -115.5t-8.5 -103.5z" />
<glyph unicode="&#x112;" horiz-adv-x="1089" d="M70 0l278 1425h862l-32 -165h-686l-89 -461h603l-31 -158h-602l-94 -475h747l-31 -166h-925zM526 1575l31 154h549l-31 -154h-549z" />
<glyph unicode="&#x113;" horiz-adv-x="962" d="M84 356q0 115 27.5 234t88 216t156 158.5t228.5 61.5q166 0 258 -73.5t92 -202.5q0 -63 -25.5 -125t-93 -109t-182.5 -76.5t-293 -29.5h-44.5t-45.5 2q-4 -23 -4 -36.5v-21.5q0 -117 50 -164t150 -47q31 0 67 8.5t73 21.5t69.5 30.5t57.5 34.5l82 -121 q-76 -61 -175.5 -95t-197.5 -34q-174 0 -256 94t-82 274zM276 559q25 -2 46.5 -2h44.5q131 0 209.5 18.5t121.5 45t56.5 57.5t13.5 53q0 66 -49.5 101.5t-145.5 35.5q-72 0 -123 -26.5t-85.5 -69.5t-55 -98.5t-33.5 -114.5zM334 1229l31 153h548l-30 -153h-549z" />
<glyph unicode="&#x114;" horiz-adv-x="1089" d="M70 0l278 1425h862l-32 -165h-686l-89 -461h603l-31 -158h-602l-94 -475h747l-31 -166h-925zM539 1782h147q-10 -53 19.5 -91t95.5 -38q41 0 71.5 12t51 31.5t33 42t16.5 43.5h153q-8 -45 -31.5 -92.5t-64.5 -85t-102.5 -62t-145.5 -24.5q-80 0 -130 26.5t-77.5 65.5 t-35 85t-0.5 87z" />
<glyph unicode="&#x115;" horiz-adv-x="962" d="M84 356q0 115 27.5 234t88 216t156 158.5t228.5 61.5q166 0 258 -73.5t92 -202.5q0 -63 -25.5 -125t-93 -109t-182.5 -76.5t-293 -29.5h-44.5t-45.5 2q-4 -23 -4 -36.5v-21.5q0 -117 50 -164t150 -47q31 0 67 8.5t73 21.5t69.5 30.5t57.5 34.5l82 -121 q-76 -61 -175.5 -95t-197.5 -34q-174 0 -256 94t-82 274zM276 559q25 -2 46.5 -2h44.5q131 0 209.5 18.5t121.5 45t56.5 57.5t13.5 53q0 66 -49.5 101.5t-145.5 35.5q-72 0 -123 -26.5t-85.5 -69.5t-55 -98.5t-33.5 -114.5zM360 1448h146q-2 -20 3 -45t20.5 -45.5t40 -34.5 t61.5 -14q74 0 118 44t54 95h158q-12 -49 -38 -98.5t-67 -89t-98.5 -64.5t-136.5 -25q-152 0 -212.5 76t-48.5 201z" />
<glyph unicode="&#x116;" horiz-adv-x="1089" d="M70 0l278 1425h862l-32 -165h-686l-89 -461h603l-31 -158h-602l-94 -475h747l-31 -166h-925zM702 1561l35 180h181l-35 -180h-181z" />
<glyph unicode="&#x117;" horiz-adv-x="962" d="M84 356q0 115 27.5 234t88 216t156 158.5t228.5 61.5q166 0 258 -73.5t92 -202.5q0 -63 -25.5 -125t-93 -109t-182.5 -76.5t-293 -29.5h-44.5t-45.5 2q-4 -23 -4 -36.5v-21.5q0 -117 50 -164t150 -47q31 0 67 8.5t73 21.5t69.5 30.5t57.5 34.5l82 -121 q-76 -61 -175.5 -95t-197.5 -34q-174 0 -256 94t-82 274zM276 559q25 -2 46.5 -2h44.5q131 0 209.5 18.5t121.5 45t56.5 57.5t13.5 53q0 66 -49.5 101.5t-145.5 35.5q-72 0 -123 -26.5t-85.5 -69.5t-55 -98.5t-33.5 -114.5zM506 1223l35 180h180l-35 -180h-180z" />
<glyph unicode="&#x118;" horiz-adv-x="1089" d="M70 0l278 1425h862l-32 -165h-686l-89 -461h603l-31 -158h-602l-94 -475h747l-31 -166h-41q-98 -111 -98 -188q0 -66 82 -66q25 0 56.5 8t66.5 29l22 -100q-45 -25 -97 -38.5t-103 -13.5q-78 0 -122 42t-44 106q0 49 25.5 100t86.5 121h-759z" />
<glyph unicode="&#x119;" horiz-adv-x="962" d="M84 356q0 115 27.5 234t88 216t156 158.5t228.5 61.5q166 0 258 -73.5t92 -202.5q0 -63 -25.5 -125t-93 -109t-182.5 -76.5t-293 -29.5h-44.5t-45.5 2q-4 -23 -4 -36.5v-21.5q0 -117 50 -164t150 -47q31 0 67 8.5t73 21.5t69.5 30.5t57.5 34.5l82 -121q-41 -35 -97 -62 q-98 -111 -98 -188q0 -66 82 -66q25 0 56.5 8.5t66.5 28.5l22 -100q-45 -25 -97 -38t-103 -13q-78 0 -122 42t-44 105q0 39 15.5 78t49.5 86q-57 -10 -104 -10q-174 0 -256 94t-82 274zM276 559q25 -2 46.5 -2h44.5q131 0 209.5 18.5t121.5 45t56.5 57.5t13.5 53 q0 66 -49.5 101.5t-145.5 35.5q-72 0 -123 -26.5t-85.5 -69.5t-55 -98.5t-33.5 -114.5z" />
<glyph unicode="&#x11a;" horiz-adv-x="1089" d="M70 0l278 1425h862l-32 -165h-686l-89 -461h603l-31 -158h-602l-94 -475h747l-31 -166h-925zM455 1780l73 71l240 -172l352 183l45 -78l-360 -268h-109z" />
<glyph unicode="&#x11b;" horiz-adv-x="962" d="M84 356q0 115 27.5 234t88 216t156 158.5t228.5 61.5q166 0 258 -73.5t92 -202.5q0 -63 -25.5 -125t-93 -109t-182.5 -76.5t-293 -29.5h-44.5t-45.5 2q-4 -23 -4 -36.5v-21.5q0 -117 50 -164t150 -47q31 0 67 8.5t73 21.5t69.5 30.5t57.5 34.5l82 -121 q-76 -61 -175.5 -95t-197.5 -34q-174 0 -256 94t-82 274zM276 559q25 -2 46.5 -2h44.5q131 0 209.5 18.5t121.5 45t56.5 57.5t13.5 53q0 66 -49.5 101.5t-145.5 35.5q-72 0 -123 -26.5t-85.5 -69.5t-55 -98.5t-33.5 -114.5zM301 1446l94 78l226 -228l321 226l66 -80 l-353 -309h-108z" />
<glyph unicode="&#x11c;" horiz-adv-x="1200" d="M109 399q0 35 4 68t10 68l78 389q20 104 64 197t114 163t167 111t224 41q174 0 280.5 -78t157.5 -223l-176 -76q-18 88 -91 145.5t-167 57.5q-92 0 -161.5 -31t-118 -81t-78 -115.5t-41.5 -133.5l-72 -371q-4 -29 -7 -54t-3 -52q0 -55 13 -104.5t43 -86t76 -58t114 -21.5 q74 0 138 26.5t116.5 72.5t88.5 109.5t52 137.5l20 100h-295l31 164h477l-55 -277q-23 -109 -74 -199.5t-126.5 -157.5t-174 -104.5t-211.5 -37.5q-109 0 -186.5 31.5t-129.5 88t-76.5 131t-24.5 160.5zM428 1591l360 269h109l242 -265l-78 -75l-240 176l-348 -183z" />
<glyph unicode="&#x11d;" horiz-adv-x="1026" d="M16 -293l105 123q51 -41 104.5 -68.5t118.5 -27.5q88 0 144.5 32.5t90 86t52 122t33.5 140.5h-5q-63 -66 -136.5 -95.5t-157.5 -29.5q-80 0 -132.5 25.5t-84 70.5t-45 105.5t-13.5 130.5q0 111 23.5 234.5t79 228t146.5 174t226 69.5q76 0 141.5 -29.5t106.5 -95.5h4 l23 113h164l-193 -1016q-18 -102 -53 -181t-92.5 -132.5t-138 -82t-193.5 -28.5q-41 0 -85 8t-87 25.5t-81 42t-65 55.5zM260 334q0 -92 41 -146.5t139 -54.5q90 0 151.5 56.5t100.5 138.5t55.5 174t16.5 164q0 90 -43 147t-141 57q-96 0 -158 -56t-97.5 -138t-50 -175 t-14.5 -167zM279 1208l368 314h109l233 -310l-98 -79l-211 223l-336 -226z" />
<glyph unicode="&#x11e;" horiz-adv-x="1200" d="M109 399q0 35 4 68t10 68l78 389q20 104 64 197t114 163t167 111t224 41q174 0 280.5 -78t157.5 -223l-176 -76q-18 88 -91 145.5t-167 57.5q-92 0 -161.5 -31t-118 -81t-78 -115.5t-41.5 -133.5l-72 -371q-4 -29 -7 -54t-3 -52q0 -55 13 -104.5t43 -86t76 -58t114 -21.5 q74 0 138 26.5t116.5 72.5t88.5 109.5t52 137.5l20 100h-295l31 164h477l-55 -277q-23 -109 -74 -199.5t-126.5 -157.5t-174 -104.5t-211.5 -37.5q-109 0 -186.5 31.5t-129.5 88t-76.5 131t-24.5 160.5zM553 1782h147q-10 -53 20 -91t95 -38q41 0 72 12t51 31.5t32.5 42 t16.5 43.5h154q-8 -45 -32 -92.5t-64.5 -85t-102 -62t-145.5 -24.5q-80 0 -130.5 26.5t-78 65.5t-34.5 85t-1 87z" />
<glyph unicode="&#x11f;" horiz-adv-x="1026" d="M16 -293l105 123q51 -41 104.5 -68.5t118.5 -27.5q88 0 144.5 32.5t90 86t52 122t33.5 140.5h-5q-63 -66 -136.5 -95.5t-157.5 -29.5q-80 0 -132.5 25.5t-84 70.5t-45 105.5t-13.5 130.5q0 111 23.5 234.5t79 228t146.5 174t226 69.5q76 0 141.5 -29.5t106.5 -95.5h4 l23 113h164l-193 -1016q-18 -102 -53 -181t-92.5 -132.5t-138 -82t-193.5 -28.5q-41 0 -85 8t-87 25.5t-81 42t-65 55.5zM260 334q0 -92 41 -146.5t139 -54.5q90 0 151.5 56.5t100.5 138.5t55.5 174t16.5 164q0 90 -43 147t-141 57q-96 0 -158 -56t-97.5 -138t-50 -175 t-14.5 -167zM385 1448h145q-2 -20 3.5 -45t20.5 -45.5t39.5 -34.5t61.5 -14q74 0 118 44t54 95h158q-12 -49 -37.5 -98.5t-66.5 -89t-98.5 -64.5t-137.5 -25q-152 0 -212 76t-48 201z" />
<glyph unicode="&#x120;" horiz-adv-x="1200" d="M109 399q0 35 4 68t10 68l78 389q20 104 64 197t114 163t167 111t224 41q174 0 280.5 -78t157.5 -223l-176 -76q-18 88 -91 145.5t-167 57.5q-92 0 -161.5 -31t-118 -81t-78 -115.5t-41.5 -133.5l-72 -371q-4 -29 -7 -54t-3 -52q0 -55 13 -104.5t43 -86t76 -58t114 -21.5 q74 0 138 26.5t116.5 72.5t88.5 109.5t52 137.5l20 100h-295l31 164h477l-55 -277q-23 -109 -74 -199.5t-126.5 -157.5t-174 -104.5t-211.5 -37.5q-109 0 -186.5 31.5t-129.5 88t-76.5 131t-24.5 160.5zM690 1530l35 180h180l-35 -180h-180z" />
<glyph unicode="&#x121;" horiz-adv-x="1026" d="M16 -293l105 123q51 -41 104.5 -68.5t118.5 -27.5q88 0 144.5 32.5t90 86t52 122t33.5 140.5h-5q-63 -66 -136.5 -95.5t-157.5 -29.5q-80 0 -132.5 25.5t-84 70.5t-45 105.5t-13.5 130.5q0 111 23.5 234.5t79 228t146.5 174t226 69.5q76 0 141.5 -29.5t106.5 -95.5h4 l23 113h164l-193 -1016q-18 -102 -53 -181t-92.5 -132.5t-138 -82t-193.5 -28.5q-41 0 -85 8t-87 25.5t-81 42t-65 55.5zM260 334q0 -92 41 -146.5t139 -54.5q90 0 151.5 56.5t100.5 138.5t55.5 174t16.5 164q0 90 -43 147t-141 57q-96 0 -158 -56t-97.5 -138t-50 -175 t-14.5 -167zM567 1223l35 180h180l-34 -180h-181z" />
<glyph unicode="&#x122;" horiz-adv-x="1200" d="M109 399q0 35 4 68t10 68l78 389q20 104 64 197t114 163t167 111t224 41q174 0 280.5 -78t157.5 -223l-176 -76q-18 88 -91 145.5t-167 57.5q-92 0 -161.5 -31t-118 -81t-78 -115.5t-41.5 -133.5l-72 -371q-4 -29 -7 -54t-3 -52q0 -55 13 -104.5t43 -86t76 -58t114 -21.5 q74 0 138 26.5t116.5 72.5t88.5 109.5t52 137.5l20 100h-295l31 164h477l-55 -277q-23 -109 -74 -199.5t-126.5 -157.5t-174 -104.5t-211.5 -37.5q-109 0 -186.5 31.5t-129.5 88t-76.5 131t-24.5 160.5zM307 -526l115 180h-72l45 227h211l-43 -223l-151 -184h-105z" />
<glyph unicode="&#x123;" horiz-adv-x="1026" d="M16 -293l105 123q51 -41 104.5 -68.5t118.5 -27.5q88 0 144.5 32.5t90 86t52 122t33.5 140.5h-5q-63 -66 -136.5 -95.5t-157.5 -29.5q-80 0 -132.5 25.5t-84 70.5t-45 105.5t-13.5 130.5q0 111 23.5 234.5t79 228t146.5 174t226 69.5q76 0 141.5 -29.5t106.5 -95.5h4 l23 113h164l-193 -1016q-18 -102 -53 -181t-92.5 -132.5t-138 -82t-193.5 -28.5q-41 0 -85 8t-87 25.5t-81 42t-65 55.5zM260 334q0 -92 41 -146.5t139 -54.5q90 0 151.5 56.5t100.5 138.5t55.5 174t16.5 164q0 90 -43 147t-141 57q-96 0 -158 -56t-97.5 -138t-50 -175 t-14.5 -167zM537 1169l43 224l151 184h105l-115 -180h72l-45 -228h-211z" />
<glyph unicode="&#x124;" horiz-adv-x="1275" d="M70 0l278 1425h176l-121 -626h617l123 626h176l-277 -1425h-176l123 641h-616l-125 -641h-178zM498 1591l360 269h109l241 -265l-78 -75l-239 176l-348 -183z" />
<glyph unicode="&#x125;" horiz-adv-x="1060" d="M55 0l287 1489h164l-115 -600h6q66 66 146 101.5t159 35.5q63 0 120 -22.5t95.5 -68.5t54 -118t-2.5 -168l-125 -649h-166l119 608q10 49 8 95.5t-19.5 81t-53.5 55t-95 20.5q-49 0 -97 -17.5t-89 -50t-71 -79.5t-42 -105l-119 -608h-164zM76 1591l360 269h109l241 -265 l-77 -75l-240 176l-348 -183z" />
<glyph unicode="&#x126;" horiz-adv-x="1275" d="M70 0l213 1096h-119l22 123h121l41 206h176l-41 -206h619l41 206h176l-41 -206h106l-22 -123h-107l-213 -1096h-176l123 641h-616l-125 -641h-178zM403 799h617l57 297h-616z" />
<glyph unicode="&#x127;" horiz-adv-x="1060" d="M55 0l230 1194h-154l25 127h153l33 168h164l-33 -168h436l-26 -127h-434l-58 -305h6q66 66 146 101.5t159 35.5q63 0 120 -22.5t95.5 -68.5t54 -118t-2.5 -168l-125 -649h-166l119 608q10 49 8 95.5t-19.5 81t-53.5 55t-95 20.5q-49 0 -97 -17.5t-89 -50t-71 -79.5 t-42 -105l-119 -608h-164z" />
<glyph unicode="&#x128;" horiz-adv-x="483" d="M70 0l278 1425h176l-276 -1425h-178zM88 1577q57 98 121 140t125 42q37 0 74.5 -15t74.5 -32.5t70 -33t59 -15.5q31 0 60.5 21.5t70.5 70.5l95 -59q-53 -102 -114.5 -142.5t-127.5 -40.5q-37 0 -75 14.5t-74.5 32t-70.5 32t-65 14.5q-35 0 -61.5 -17.5t-73.5 -64.5z" />
<glyph unicode="&#x129;" horiz-adv-x="630" d="M117 1249q57 98 120.5 140.5t124.5 42.5q37 0 75 -15.5t75 -33t69.5 -33t59.5 -15.5q31 0 60.5 21.5t70.5 70.5l94 -59q-53 -102 -114.5 -142t-126.5 -40q-37 0 -75 14t-75 31.5t-70.5 32t-64.5 14.5q-35 0 -61.5 -17.5t-73.5 -64.5zM184 0l197 1014h164l-197 -1014h-164 z" />
<glyph unicode="&#x12a;" horiz-adv-x="483" d="M70 0l278 1425h176l-276 -1425h-178zM178 1575l31 154h549l-31 -154h-549z" />
<glyph unicode="&#x12b;" horiz-adv-x="487" d="M82 0l197 1014h163l-196 -1014h-164zM145 1229l31 153h549l-31 -153h-549z" />
<glyph unicode="&#x12c;" horiz-adv-x="555" d="M102 0l279 1425h176l-276 -1425h-179zM231 1782h148q-10 -53 19.5 -91t95.5 -38q41 0 71.5 12t51 31.5t33 42t16.5 43.5h153q-8 -45 -31.5 -92.5t-64.5 -85t-102.5 -62t-145.5 -24.5q-80 0 -130 26.5t-77.5 65.5t-35 85t-1.5 87z" />
<glyph unicode="&#x12d;" horiz-adv-x="528" d="M139 0l197 1014h164l-197 -1014h-164zM176 1460h146q-2 -20 3 -44.5t20 -45t40 -35t61 -14.5q74 0 118 44t54 95h158q-12 -49 -37.5 -98t-66.5 -89t-98.5 -64.5t-137.5 -24.5q-152 0 -212 75.5t-48 200.5z" />
<glyph unicode="&#x12e;" horiz-adv-x="483" d="M-16 -221q0 49 25.5 100t86.5 121h-26l278 1425h176l-276 -1425h-27q-98 -111 -98 -188q0 -66 82 -66q25 0 56.5 8t66.5 29l22 -100q-45 -25 -97 -38.5t-103 -13.5q-78 0 -122 42t-44 106z" />
<glyph unicode="&#x12f;" horiz-adv-x="450" d="M-31 -219q0 49 25.5 100t85.5 119h-19l197 1014h164l-197 -1014h-20q-96 -104 -96 -186q0 -66 81 -66q25 0 57 8t66 29l23 -100q-45 -25 -97.5 -38.5t-103.5 -13.5q-78 0 -122 42t-44 106zM305 1257l33 168h164l-33 -168h-164z" />
<glyph unicode="&#x130;" horiz-adv-x="483" d="M70 0l278 1425h176l-276 -1425h-178zM362 1530l35 180h181l-35 -180h-181z" />
<glyph unicode="&#x131;" horiz-adv-x="450" d="M61 0l197 1014h164l-197 -1014h-164z" />
<glyph unicode="&#x132;" horiz-adv-x="1366" d="M72 0l278 1425h176l-276 -1425h-178zM422 135l125 119q41 -47 96 -74.5t107 -27.5q57 0 105 13t88 49t70.5 98.5t49.5 160.5l184 952h176l-192 -991q-25 -133 -69 -219t-104.5 -136t-137 -70.5t-168.5 -20.5q-104 0 -195.5 41t-134.5 106z" />
<glyph unicode="&#x133;" horiz-adv-x="925" d="M61 0l197 1014h164l-197 -1014h-164zM262 -414l29 158h61q55 0 93 34t51 97l221 1139h166l-224 -1151q-25 -123 -92 -200t-205 -77h-100zM305 1257l33 168h164l-33 -168h-164zM764 1257l33 168h166l-33 -168h-166z" />
<glyph unicode="&#x134;" horiz-adv-x="937" d="M-6 137l125 119q41 -47 96 -74.5t107 -27.5q57 0 105 13t88 49t70.5 98.5t49.5 160.5l184 952h176l-192 -991q-25 -133 -69 -219t-104.5 -136t-137 -70.5t-168.5 -20.5q-104 0 -195.5 41t-134.5 106zM573 1595l361 269h108l242 -265l-78 -75l-239 176l-349 -182z" />
<glyph unicode="&#x135;" horiz-adv-x="587" d="M-127 -414l29 154h12h20.5h18.5t10 2q55 2 93 36t50 97l222 1139h166l-224 -1151q-25 -123 -107.5 -200t-209.5 -77h-80zM86 1208l369 314h108l234 -310l-99 -79l-211 223l-335 -226z" />
<glyph unicode="&#x136;" horiz-adv-x="1241" d="M70 0l278 1425h176l-147 -770l6 2l319 330l445 438h215l-553 -553l332 -872h-197l-272 733l-350 -344l-74 -389h-178zM401 -498l115 181h-72l45 227h211l-43 -223l-151 -185h-105z" />
<glyph unicode="&#x137;" horiz-adv-x="1015" d="M55 0l289 1489h164l-186 -967l6 2l518 490h201l-414 -400l285 -614h-183l-229 508l-232 -219l-55 -289h-164zM250 -526l115 180h-72l45 227h211l-43 -223l-152 -184h-104z" />
<glyph unicode="&#x138;" horiz-adv-x="1003" d="M55 0l197 1014h164l-94 -473l6 2l508 471h211l-418 -396l286 -618h-186l-223 506l-232 -217l-55 -289h-164z" />
<glyph unicode="&#x139;" horiz-adv-x="1089" d="M70 0l278 1425h176l-245 -1259h706l-31 -166h-884zM369 1597l352 250l96 -125l-389 -211z" />
<glyph unicode="&#x13a;" horiz-adv-x="487" d="M95 142q-9 48 3 114l246 1233h164l-240 -1223q-10 -47 10.5 -79.5t73.5 -32.5h47l-30 -154h-70q-53 0 -96 15.5t-71 47t-37 79.5zM348 1618l352 250l97 -125l-389 -211z" />
<glyph unicode="&#x13b;" horiz-adv-x="1089" d="M70 0l278 1425h176l-245 -1259h706l-31 -166h-884zM324 -526l114 180h-71l45 227h211l-43 -223l-152 -184h-104z" />
<glyph unicode="&#x13c;" horiz-adv-x="487" d="M31 -526l114 180h-71l45 227h211l-43 -223l-152 -184h-104zM95 142q-9 48 3 114l246 1233h164l-240 -1223q-10 -47 10.5 -79.5t73.5 -32.5h47l-30 -154h-70q-53 0 -96 15.5t-71 47t-37 79.5z" />
<glyph unicode="&#x13d;" horiz-adv-x="1089" d="M70 0l278 1425h176l-245 -1259h706l-31 -166h-884zM653 1018l115 180h-72l45 227h211l-43 -223l-151 -184h-105z" />
<glyph unicode="&#x13e;" horiz-adv-x="641" d="M95 142q-9 48 3 114l246 1233h164l-240 -1223q-10 -47 10.5 -79.5t73.5 -32.5h47l-30 -154h-70q-53 0 -96 15.5t-71 47t-37 79.5zM569 1083l115 181h-72l45 227h211l-43 -223l-151 -185h-105z" />
<glyph unicode="&#x13f;" horiz-adv-x="1089" d="M70 0l278 1425h176l-245 -1259h706l-31 -166h-884zM723 637l35 180h180l-35 -180h-180z" />
<glyph unicode="&#x140;" horiz-adv-x="587" d="M95 142q-9 48 3 114l246 1233h164l-240 -1223q-10 -47 10.5 -79.5t73.5 -32.5h47l-30 -154h-70q-53 0 -96 15.5t-71 47t-37 79.5zM477 692l35 180h180l-35 -180h-180z" />
<glyph unicode="&#x141;" horiz-adv-x="1157" d="M0 518l264 139l152 768h176l-131 -665l291 151l45 -118l-367 -191l-84 -436h707l-31 -166h-885l96 500l-190 -101z" />
<glyph unicode="&#x142;" horiz-adv-x="487" d="M-16 639l213 111l147 739h164l-127 -645l192 100l43 -119l-266 -137l-82 -422q-10 -47 10.5 -79.5t73.5 -32.5h47l-30 -154h-70q-53 0 -96 15.5t-71 47t-37 79.5t3 114l68 336l-141 -72z" />
<glyph unicode="&#x143;" horiz-adv-x="1351" d="M70 0l278 1425h174l340 -786l137 -336l7 -2l217 1124h174l-277 -1425h-172l-354 815l-125 311l-6 -2l-215 -1124h-178zM799 1597l352 250l96 -125l-389 -211z" />
<glyph unicode="&#x144;" horiz-adv-x="1052" d="M49 0l197 1014h166l-23 -121h6q61 66 148.5 99.5t167.5 33.5q70 0 124 -23.5t90 -67.5t48 -109.5t-4 -149.5l-131 -676h-166l119 608q10 49 11 96.5t-15.5 84t-55.5 58t-106 21.5q-49 0 -96.5 -19.5t-87.5 -54t-68.5 -82.5t-38.5 -104l-119 -608h-166zM530 1169l220 363 l155 -51l-274 -353z" />
<glyph unicode="&#x145;" horiz-adv-x="1351" d="M70 0l278 1425h174l340 -786l137 -336l7 -2l217 1124h174l-277 -1425h-172l-354 815l-125 311l-6 -2l-215 -1124h-178zM426 -485l115 180h-72l45 227h211l-43 -223l-152 -184h-104z" />
<glyph unicode="&#x146;" horiz-adv-x="1052" d="M49 0l197 1014h166l-23 -121h6q61 66 148.5 99.5t167.5 33.5q70 0 124 -23.5t90 -67.5t48 -109.5t-4 -149.5l-131 -676h-166l119 608q10 49 11 96.5t-15.5 84t-55.5 58t-106 21.5q-49 0 -96.5 -19.5t-87.5 -54t-68.5 -82.5t-38.5 -104l-119 -608h-166zM242 -526l114 180 h-71l45 227h211l-43 -223l-152 -184h-104z" />
<glyph unicode="&#x147;" horiz-adv-x="1351" d="M70 0l278 1425h174l340 -786l137 -336l7 -2l217 1124h174l-277 -1425h-172l-354 815l-125 311l-6 -2l-215 -1124h-178zM586 1780l73 71l240 -172l352 183l45 -78l-360 -268h-109z" />
<glyph unicode="&#x148;" horiz-adv-x="1052" d="M49 0l197 1014h166l-23 -121h6q61 66 148.5 99.5t167.5 33.5q70 0 124 -23.5t90 -67.5t48 -109.5t-4 -149.5l-131 -676h-166l119 608q10 49 11 96.5t-15.5 84t-55.5 58t-106 21.5q-49 0 -96.5 -19.5t-87.5 -54t-68.5 -82.5t-38.5 -104l-119 -608h-166zM317 1446l95 78 l225 -228l321 226l66 -80l-352 -309h-109z" />
<glyph unicode="&#x149;" horiz-adv-x="1224" d="M113 963l114 180h-71l45 227h211l-43 -223l-152 -184h-104zM221 0l197 1014h166l-23 -121h6q61 66 148.5 99.5t167.5 33.5q70 0 124 -23.5t90 -67.5t48 -109.5t-4 -149.5l-131 -676h-166l119 608q10 49 11 96.5t-15.5 84t-55.5 58t-106 21.5q-49 0 -96.5 -19.5t-87.5 -54 t-68.5 -82.5t-38.5 -104l-119 -608h-166z" />
<glyph unicode="&#x14a;" horiz-adv-x="1351" d="M72 0l278 1425h174l340 -786l137 -336l7 -2l217 1124h174l-305 -1572q-23 -117 -81.5 -167.5t-144.5 -50.5q-41 0 -91 10.5t-91 32.5l57 121q33 -10 58.5 -16t46.5 -6q68 0 84 84l24 129l-360 825l-125 311l-6 -2l-215 -1124h-178z" />
<glyph unicode="&#x14b;" horiz-adv-x="1032" d="M49 0l197 1014h166l-23 -121h6q61 66 141 99.5t160 33.5q63 0 119.5 -23.5t96.5 -67.5t56.5 -109.5t0.5 -149.5l-162 -823q-23 -117 -81 -167.5t-144 -50.5q-41 0 -91.5 10.5t-91.5 32.5l58 121q33 -10 56.5 -16t43.5 -6q68 0 84 84l150 747q10 49 10 95.5t-18.5 82 t-59.5 56t-113 20.5q-49 0 -94 -18.5t-82 -52t-63.5 -80.5t-36.5 -103l-119 -608h-166z" />
<glyph unicode="&#x14c;" horiz-adv-x="1185" d="M94 410q0 49 9.5 113.5t22.5 133t29.5 137t28.5 126.5q25 109 67 203t109.5 163.5t163 109.5t226.5 40q100 0 184 -31t144.5 -86t94 -132t33.5 -169q0 -49 -9 -110.5t-21.5 -128t-27.5 -134t-28 -129.5q-25 -119 -73 -216t-119.5 -167t-167.5 -107.5t-219 -37.5 q-121 0 -206 32.5t-138.5 90t-78 134.5t-24.5 165zM268.5 383.5q3.5 -68.5 34.5 -120.5t91.5 -84t160.5 -32q82 0 146.5 30t112.5 80t81 119.5t51 149.5q12 55 26.5 117t27 123t20.5 118.5t8 102.5q0 127 -75 207t-216 80q-96 0 -162.5 -34t-112.5 -86t-71.5 -118.5 t-38.5 -130.5l-73 -379q-14 -74 -10.5 -142.5zM547 1575l31 154h548l-30 -154h-549z" />
<glyph unicode="&#x14d;" horiz-adv-x="1013" d="M86 336q0 135 30.5 260t92 220t156 151.5t223.5 56.5q164 0 261 -97.5t97 -260.5q0 -117 -24.5 -238t-82 -219t-151.5 -159.5t-231 -61.5q-180 0 -275.5 90t-95.5 258zM250 350q0 -31 8 -67.5t30.5 -68.5t61.5 -53.5t103 -21.5q92 0 153.5 47t100 122t55 166t16.5 181 q0 113 -58.5 166t-150.5 53t-153.5 -53t-98 -132t-52 -171t-15.5 -168zM375 1229l31 153h548l-30 -153h-549z" />
<glyph unicode="&#x14e;" horiz-adv-x="1185" d="M94 410q0 49 9.5 113.5t22.5 133t29.5 137t28.5 126.5q25 109 67 203t109.5 163.5t163 109.5t226.5 40q100 0 184 -31t144.5 -86t94 -132t33.5 -169q0 -49 -9 -110.5t-21.5 -128t-27.5 -134t-28 -129.5q-25 -119 -73 -216t-119.5 -167t-167.5 -107.5t-219 -37.5 q-121 0 -206 32.5t-138.5 90t-78 134.5t-24.5 165zM268.5 383.5q3.5 -68.5 34.5 -120.5t91.5 -84t160.5 -32q82 0 146.5 30t112.5 80t81 119.5t51 149.5q12 55 26.5 117t27 123t20.5 118.5t8 102.5q0 127 -75 207t-216 80q-96 0 -162.5 -34t-112.5 -86t-71.5 -118.5 t-38.5 -130.5l-73 -379q-14 -74 -10.5 -142.5zM551 1782h147q-10 -53 20 -91t95 -38q41 0 71.5 12t51 31.5t33 42t16.5 43.5h154q-8 -45 -32 -92.5t-65 -85t-102 -62t-145 -24.5q-80 0 -130.5 26.5t-78 65.5t-34.5 85t-1 87z" />
<glyph unicode="&#x14f;" horiz-adv-x="1013" d="M86 336q0 135 30.5 260t92 220t156 151.5t223.5 56.5q164 0 261 -97.5t97 -260.5q0 -117 -24.5 -238t-82 -219t-151.5 -159.5t-231 -61.5q-180 0 -275.5 90t-95.5 258zM250 350q0 -31 8 -67.5t30.5 -68.5t61.5 -53.5t103 -21.5q92 0 153.5 47t100 122t55 166t16.5 181 q0 113 -58.5 166t-150.5 53t-153.5 -53t-98 -132t-52 -171t-15.5 -168zM397 1448h146q-2 -20 3 -45t20.5 -45.5t40 -34.5t61.5 -14q74 0 117.5 44t54.5 95h157q-12 -49 -37.5 -98.5t-66.5 -89t-98.5 -64.5t-137.5 -25q-152 0 -212 76t-48 201z" />
<glyph unicode="&#x150;" horiz-adv-x="1185" d="M94 410q0 49 9.5 113.5t22.5 133t29.5 137t28.5 126.5q25 109 67 203t109.5 163.5t163 109.5t226.5 40q100 0 184 -31t144.5 -86t94 -132t33.5 -169q0 -49 -9 -110.5t-21.5 -128t-27.5 -134t-28 -129.5q-25 -119 -73 -216t-119.5 -167t-167.5 -107.5t-219 -37.5 q-121 0 -206 32.5t-138.5 90t-78 134.5t-24.5 165zM268.5 383.5q3.5 -68.5 34.5 -120.5t91.5 -84t160.5 -32q82 0 146.5 30t112.5 80t81 119.5t51 149.5q12 55 26.5 117t27 123t20.5 118.5t8 102.5q0 127 -75 207t-216 80q-96 0 -162.5 -34t-112.5 -86t-71.5 -118.5 t-38.5 -130.5l-73 -379q-14 -74 -10.5 -142.5zM524 1597l303 250l121 -125l-348 -211zM858 1597l352 250l97 -125l-389 -211z" />
<glyph unicode="&#x151;" horiz-adv-x="1013" d="M86 336q0 135 30.5 260t92 220t156 151.5t223.5 56.5q164 0 261 -97.5t97 -260.5q0 -117 -24.5 -238t-82 -219t-151.5 -159.5t-231 -61.5q-180 0 -275.5 90t-95.5 258zM250 350q0 -31 8 -67.5t30.5 -68.5t61.5 -53.5t103 -21.5q92 0 153.5 47t100 122t55 166t16.5 181 q0 113 -58.5 166t-150.5 53t-153.5 -53t-98 -132t-52 -171t-15.5 -168zM403 1169l220 363l155 -51l-274 -353zM668 1169l219 363l155 -51l-274 -353z" />
<glyph unicode="&#x152;" horiz-adv-x="1691" d="M119 410q0 49 8 113.5t20.5 132t26.5 135t27 124.5q23 102 65.5 197.5t109 168.5t160 117t216.5 44q47 0 99 -4t99 -15l883 2l-33 -165h-706l-88 -461h602l-31 -158h-602l-94 -475h706l-31 -166h-868q-61 -12 -131 -12q-109 0 -190.5 32.5t-137 90t-83 134.5t-27.5 165z M293 444q0 -131 70 -214t215 -83q66 0 127 23l213 1085q-31 14 -68 19.5t-82 5.5q-94 0 -162.5 -35t-116 -88t-75 -120.5t-39.5 -131.5l-74 -379q-2 -20 -5 -40.5t-3 -41.5z" />
<glyph unicode="&#x153;" horiz-adv-x="1638" d="M86 336q0 135 32 260t94 220t156.5 151.5t219.5 56.5q102 0 188 -46t127 -122q0 -2 1 -3t1 -3q59 78 147.5 127t207.5 49q166 0 258 -73.5t92 -202.5q0 -63 -25.5 -125t-93.5 -109t-182.5 -76.5t-292.5 -29.5h-44.5t-45.5 2q-4 -23 -4 -36.5v-21.5q0 -117 50 -164 t150 -47q31 0 67 8.5t72.5 21.5t69.5 30.5t58 34.5l81 -121q-76 -61 -175 -95t-197 -34q-115 0 -187.5 40t-111.5 117q-66 -88 -154 -122.5t-188 -34.5q-180 0 -275.5 90t-95.5 258zM250 350q0 -31 9 -67.5t30.5 -68.5t59.5 -53.5t95 -21.5q100 0 165 49.5t103 124t52 165.5 t14 177q0 113 -58.5 166t-150.5 53q-90 0 -151.5 -53t-98 -132t-53 -171t-16.5 -168zM952 559q25 -2 46.5 -2h43.5q131 0 210 18.5t122 45t56.5 57.5t13.5 53q0 66 -49.5 101.5t-145.5 35.5q-76 0 -128 -26.5t-86 -69.5t-52 -98.5t-31 -114.5z" />
<glyph unicode="&#x154;" horiz-adv-x="1200" d="M70 0l278 1425h555q86 0 153.5 -27.5t112.5 -78.5t65.5 -123t10.5 -160q-18 -166 -120.5 -261t-256.5 -130l201 -645h-197l-186 627h-317l-121 -627h-178zM399 784h355q57 0 110.5 16.5t96.5 48.5t72.5 79t35.5 108q14 121 -53.5 176.5t-181.5 55.5h-340zM655 1597 l353 250l96 -125l-389 -211z" />
<glyph unicode="&#x155;" horiz-adv-x="743" d="M53 0l197 1014h168l-29 -137h8q59 86 140 118.5t168 30.5q49 -2 86.5 -13.5t54.5 -25.5l-90 -166q-29 20 -70 29.5t-68 9.5q-100 0 -179 -66.5t-101 -189.5l-119 -604h-166zM395 1169l219 363l156 -51l-274 -353z" />
<glyph unicode="&#x156;" horiz-adv-x="1200" d="M70 0l278 1425h555q86 0 153.5 -27.5t112.5 -78.5t65.5 -123t10.5 -160q-18 -166 -120.5 -261t-256.5 -130l201 -645h-197l-186 627h-317l-121 -627h-178zM367 -485l114 180h-71l45 227h211l-43 -223l-152 -184h-104zM399 784h355q57 0 110.5 16.5t96.5 48.5t72.5 79 t35.5 108q14 121 -53.5 176.5t-181.5 55.5h-340z" />
<glyph unicode="&#x157;" horiz-adv-x="743" d="M-66 -526l115 180h-72l46 227h210l-43 -223l-151 -184h-105zM53 0l197 1014h168l-29 -137h8q59 86 140 118.5t168 30.5q49 -2 86.5 -13.5t54.5 -25.5l-90 -166q-29 20 -70 29.5t-68 9.5q-100 0 -179 -66.5t-101 -189.5l-119 -604h-166z" />
<glyph unicode="&#x158;" horiz-adv-x="1200" d="M70 0l278 1425h555q86 0 153.5 -27.5t112.5 -78.5t65.5 -123t10.5 -160q-18 -166 -120.5 -261t-256.5 -130l201 -645h-197l-186 627h-317l-121 -627h-178zM399 784h355q57 0 110.5 16.5t96.5 48.5t72.5 79t35.5 108q14 121 -53.5 176.5t-181.5 55.5h-340zM426 1780l74 71 l239 -172l353 183l45 -78l-361 -268h-108z" />
<glyph unicode="&#x159;" horiz-adv-x="743" d="M53 0l197 1014h168l-29 -137h8q59 86 140 118.5t168 30.5q49 -2 86.5 -13.5t54.5 -25.5l-90 -166q-29 20 -70 29.5t-68 9.5q-100 0 -179 -66.5t-101 -189.5l-119 -604h-166zM190 1446l95 78l225 -228l321 226l66 -80l-352 -309h-109z" />
<glyph unicode="&#x15a;" horiz-adv-x="1093" d="M6 168l117 129q68 -63 164 -100t207 -37q70 0 134 15t114.5 47t80 80t29.5 112q0 51 -21.5 89t-57.5 64.5t-80 44t-89 29.5q-68 16 -137.5 40t-124.5 62.5t-91 98t-36 147.5q0 100 36 182t102.5 141.5t160.5 92.5t209 33q117 0 225.5 -32t188.5 -89l-107 -150 q-66 47 -150.5 73t-177.5 26q-47 0 -101 -13.5t-100 -42t-77 -74.5t-31 -114q0 -51 26.5 -87t63.5 -59.5t76 -37t62 -19.5q78 -20 153.5 -48t136 -72t98.5 -109.5t38 -161.5q0 -109 -46.5 -191.5t-123 -138t-177 -83t-211.5 -27.5q-145 0 -272 46t-211 134zM635 1597 l352 250l96 -125l-389 -211z" />
<glyph unicode="&#x15b;" horiz-adv-x="899" d="M-14 143l108 127q53 -66 138 -96.5t167 -30.5q106 0 176 35t70 109q0 72 -48 102.5t-118 48.5q-53 14 -111.5 27.5t-106.5 41.5t-78.5 76t-30.5 132q0 86 34.5 145.5t91 96t129 53t146.5 16.5q88 0 176 -24.5t154 -90.5l-103 -131q-55 45 -114.5 67.5t-128.5 22.5 q-37 0 -76 -7t-70 -25.5t-50 -48t-19 -74.5q0 -33 17 -53.5t46 -35t68 -23.5t79 -19q51 -12 101.5 -28.5t90.5 -46.5t65.5 -76t25.5 -118q0 -90 -36 -151.5t-94 -101t-133 -57t-155 -17.5q-51 0 -108.5 9t-112.5 28.5t-104 49t-86 68.5zM489 1169l220 363l155 -51l-274 -353 z" />
<glyph unicode="&#x15c;" horiz-adv-x="1093" d="M6 168l117 129q68 -63 164 -100t207 -37q70 0 134 15t114.5 47t80 80t29.5 112q0 51 -21.5 89t-57.5 64.5t-80 44t-89 29.5q-68 16 -137.5 40t-124.5 62.5t-91 98t-36 147.5q0 100 36 182t102.5 141.5t160.5 92.5t209 33q117 0 225.5 -32t188.5 -89l-107 -150 q-66 47 -150.5 73t-177.5 26q-47 0 -101 -13.5t-100 -42t-77 -74.5t-31 -114q0 -51 26.5 -87t63.5 -59.5t76 -37t62 -19.5q78 -20 153.5 -48t136 -72t98.5 -109.5t38 -161.5q0 -109 -46.5 -191.5t-123 -138t-177 -83t-211.5 -27.5q-145 0 -272 46t-211 134zM403 1591 l361 269h108l242 -265l-78 -75l-239 176l-348 -183z" />
<glyph unicode="&#x15d;" horiz-adv-x="899" d="M-14 143l108 127q53 -66 138 -96.5t167 -30.5q106 0 176 35t70 109q0 72 -48 102.5t-118 48.5q-53 14 -111.5 27.5t-106.5 41.5t-78.5 76t-30.5 132q0 86 34.5 145.5t91 96t129 53t146.5 16.5q88 0 176 -24.5t154 -90.5l-103 -131q-55 45 -114.5 67.5t-128.5 22.5 q-37 0 -76 -7t-70 -25.5t-50 -48t-19 -74.5q0 -33 17 -53.5t46 -35t68 -23.5t79 -19q51 -12 101.5 -28.5t90.5 -46.5t65.5 -76t25.5 -118q0 -90 -36 -151.5t-94 -101t-133 -57t-155 -17.5q-51 0 -108.5 9t-112.5 28.5t-104 49t-86 68.5zM231 1208l369 314h109l233 -310 l-98 -79l-211 223l-336 -226z" />
<glyph unicode="&#x15e;" horiz-adv-x="1093" d="M6 168l117 129q68 -63 164 -100t207 -37q70 0 134 15t114.5 47t80 80t29.5 112q0 51 -21.5 89t-57.5 64.5t-80 44t-89 29.5q-68 16 -137.5 40t-124.5 62.5t-91 98t-36 147.5q0 100 36 182t102.5 141.5t160.5 92.5t209 33q117 0 225.5 -32t188.5 -89l-107 -150 q-66 47 -150.5 73t-177.5 26q-47 0 -101 -13.5t-100 -42t-77 -74.5t-31 -114q0 -51 26.5 -87t63.5 -59.5t76 -37t62 -19.5q78 -20 153.5 -48t136 -72t98.5 -109.5t38 -161.5q0 -104 -42 -184t-114 -135.5t-165 -85t-198 -33.5l-30 -70q51 -4 87 -18.5t56.5 -36t29.5 -46 t9 -48.5q0 -35 -15.5 -71t-46 -64.5t-78.5 -47t-114 -18.5h-32.5t-50.5 3t-57.5 10t-54.5 20l41 94q41 -18 85 -24.5t73 -6.5q39 0 79 20.5t40 65.5q0 41 -28.5 63.5t-82.5 22.5h-24l-35 33l55 119q-129 8 -240.5 53t-187.5 125z" />
<glyph unicode="&#x15f;" horiz-adv-x="899" d="M-14 143l108 127q53 -66 138 -96.5t167 -30.5q106 0 176 35t70 109q0 72 -48 102.5t-118 48.5q-53 14 -111.5 27.5t-106.5 41.5t-78.5 76t-30.5 132q0 86 34.5 145.5t91 96t129 53t146.5 16.5q88 0 176 -24.5t154 -90.5l-103 -131q-55 45 -114.5 67.5t-128.5 22.5 q-37 0 -76 -7t-70 -25.5t-50 -48t-19 -74.5q0 -33 17 -53.5t46 -35t68 -23.5t79 -19q51 -12 101.5 -28.5t90.5 -46.5t65.5 -76t25.5 -118q0 -84 -30.5 -143t-83 -98t-120 -59.5t-141.5 -24.5l-32 -70q51 -4 86.5 -18.5t56 -36t30 -46t9.5 -48.5q0 -35 -15.5 -71t-46 -64.5 t-79 -47t-113.5 -18.5h-32.5t-50.5 3t-57.5 10t-54.5 20l41 94q41 -18 85 -24.5t73 -6.5q39 0 79 20.5t40 65.5q0 41 -29 63.5t-82 22.5h-24l-35 33l55 119q-96 8 -194.5 46t-163.5 107z" />
<glyph unicode="&#x160;" horiz-adv-x="1093" d="M6 168l117 129q68 -63 164 -100t207 -37q70 0 134 15t114.5 47t80 80t29.5 112q0 51 -21.5 89t-57.5 64.5t-80 44t-89 29.5q-68 16 -137.5 40t-124.5 62.5t-91 98t-36 147.5q0 100 36 182t102.5 141.5t160.5 92.5t209 33q117 0 225.5 -32t188.5 -89l-107 -150 q-66 47 -150.5 73t-177.5 26q-47 0 -101 -13.5t-100 -42t-77 -74.5t-31 -114q0 -51 26.5 -87t63.5 -59.5t76 -37t62 -19.5q78 -20 153.5 -48t136 -72t98.5 -109.5t38 -161.5q0 -109 -46.5 -191.5t-123 -138t-177 -83t-211.5 -27.5q-145 0 -272 46t-211 134zM467 1780l74 71 l239 -172l353 183l45 -78l-361 -268h-108z" />
<glyph unicode="&#x161;" horiz-adv-x="899" d="M-14 143l108 127q53 -66 138 -96.5t167 -30.5q106 0 176 35t70 109q0 72 -48 102.5t-118 48.5q-53 14 -111.5 27.5t-106.5 41.5t-78.5 76t-30.5 132q0 86 34.5 145.5t91 96t129 53t146.5 16.5q88 0 176 -24.5t154 -90.5l-103 -131q-55 45 -114.5 67.5t-128.5 22.5 q-37 0 -76 -7t-70 -25.5t-50 -48t-19 -74.5q0 -33 17 -53.5t46 -35t68 -23.5t79 -19q51 -12 101.5 -28.5t90.5 -46.5t65.5 -76t25.5 -118q0 -90 -36 -151.5t-94 -101t-133 -57t-155 -17.5q-51 0 -108.5 9t-112.5 28.5t-104 49t-86 68.5zM299 1446l94 78l225 -228l322 226 l66 -80l-353 -309h-108z" />
<glyph unicode="&#x162;" horiz-adv-x="974" d="M166 1268l31 157h972l-30 -157h-398l-247 -1268h-177l246 1268h-397zM197 -526l114 180h-71l45 227h211l-43 -223l-152 -184h-104z" />
<glyph unicode="&#x163;" horiz-adv-x="561" d="M29 -526l114 180h-71l45 227h211l-43 -223l-152 -184h-104zM129 238l123 628h-121l29 148h121l49 254h164l-50 -254h154l-29 -148h-153l-115 -587q-10 -47 1 -87t73 -40h86l-31 -152h-117q-100 0 -153.5 60.5t-30.5 177.5z" />
<glyph unicode="&#x164;" horiz-adv-x="974" d="M166 1268l31 157h972l-30 -157h-398l-247 -1268h-177l246 1268h-397zM395 1780l74 71l240 -172l352 183l45 -78l-361 -268h-108z" />
<glyph unicode="&#x165;" horiz-adv-x="667" d="M133 238l123 628h-121l29 148h121l49 254h164l-49 -254h153l-29 -148h-153l-115 -587q-10 -47 1 -87t73 -40h86l-31 -152h-117q-100 0 -153 60.5t-31 177.5zM604 1130l115 181h-72l45 227h211l-43 -223l-151 -185h-105z" />
<glyph unicode="&#x166;" horiz-adv-x="974" d="M147 682l27 143h303l86 443h-397l31 157h972l-30 -157h-398l-88 -443h295l-26 -143h-295l-133 -682h-177l132 682h-302z" />
<glyph unicode="&#x167;" horiz-adv-x="561" d="M37 500l26 137h144l45 229h-121l29 148h121l49 254h164l-50 -254h154l-29 -148h-153l-45 -229h137l-27 -137h-137l-43 -221q-10 -47 1 -87t73 -40h86l-31 -152h-117q-100 0 -153.5 60.5t-30.5 177.5l51 262h-143z" />
<glyph unicode="&#x168;" horiz-adv-x="1241" d="M141 496l181 929h176l-176 -905q-16 -80 -9.5 -147.5t36.5 -115.5t84 -75.5t136 -27.5q147 0 250 92t133 254l181 925h176l-185 -950q-23 -111 -67.5 -200t-115.5 -153.5t-167 -99t-217 -34.5q-104 0 -190 35.5t-143.5 102.5t-81 161t-1.5 209zM467 1577q57 98 121 140 t125 42q37 0 74.5 -15t74.5 -32.5t70 -33t59 -15.5q31 0 60.5 21.5t70.5 70.5l95 -59q-53 -102 -115 -142.5t-127 -40.5q-37 0 -75 14.5t-75 32t-70.5 32t-64.5 14.5q-35 0 -61.5 -17.5t-73.5 -64.5z" />
<glyph unicode="&#x169;" horiz-adv-x="1060" d="M114.5 188.5q-12.5 65.5 4.5 149.5l131 676h164l-117 -608q-12 -59 -12 -106.5t19.5 -81.5t60.5 -52.5t112 -18.5q49 0 94 18.5t82 52.5t63.5 81t39.5 107l118 608h164l-196 -1014h-166l22 115h-6q-61 -66 -140 -96.5t-157 -30.5q-76 0 -134 22.5t-96 67.5t-50.5 110.5z M315 1249q57 98 121 140.5t125 42.5q37 0 75 -15.5t75 -33t69.5 -33t59.5 -15.5q31 0 60.5 21.5t70.5 70.5l94 -59q-53 -102 -114.5 -142t-127.5 -40q-37 0 -74.5 14t-74.5 31.5t-71 32t-64 14.5q-35 0 -61.5 -17.5t-74.5 -64.5z" />
<glyph unicode="&#x16a;" horiz-adv-x="1241" d="M141 496l181 929h176l-176 -905q-16 -80 -9.5 -147.5t36.5 -115.5t84 -75.5t136 -27.5q147 0 250 92t133 254l181 925h176l-185 -950q-23 -111 -67.5 -200t-115.5 -153.5t-167 -99t-217 -34.5q-104 0 -190 35.5t-143.5 102.5t-81 161t-1.5 209zM539 1575l30 154h549 l-31 -154h-548z" />
<glyph unicode="&#x16b;" horiz-adv-x="1060" d="M114.5 188.5q-12.5 65.5 4.5 149.5l131 676h164l-117 -608q-12 -59 -12 -106.5t19.5 -81.5t60.5 -52.5t112 -18.5q49 0 94 18.5t82 52.5t63.5 81t39.5 107l118 608h164l-196 -1014h-166l22 115h-6q-61 -66 -140 -96.5t-157 -30.5q-76 0 -134 22.5t-96 67.5t-50.5 110.5z M375 1229l31 153h548l-30 -153h-549z" />
<glyph unicode="&#x16c;" horiz-adv-x="1241" d="M141 496l181 929h176l-176 -905q-16 -80 -9.5 -147.5t36.5 -115.5t84 -75.5t136 -27.5q147 0 250 92t133 254l181 925h176l-185 -950q-23 -111 -67.5 -200t-115.5 -153.5t-167 -99t-217 -34.5q-104 0 -190 35.5t-143.5 102.5t-81 161t-1.5 209zM571 1755h146 q-2 -20 3 -44.5t20.5 -45t40 -35t61.5 -14.5q74 0 118 44t54 95h157q-12 -49 -37.5 -98t-66.5 -89t-98.5 -64.5t-137.5 -24.5q-152 0 -212 75.5t-48 200.5z" />
<glyph unicode="&#x16d;" horiz-adv-x="1060" d="M114.5 188.5q-12.5 65.5 4.5 149.5l131 676h164l-117 -608q-12 -59 -12 -106.5t19.5 -81.5t60.5 -52.5t112 -18.5q49 0 94 18.5t82 52.5t63.5 81t39.5 107l118 608h164l-196 -1014h-166l22 115h-6q-61 -66 -140 -96.5t-157 -30.5q-76 0 -134 22.5t-96 67.5t-50.5 110.5z M406 1448h145q-2 -20 3 -45t20.5 -45.5t40 -34.5t61.5 -14q74 0 118 44t54 95h158q-12 -49 -38 -98.5t-67 -89t-98.5 -64.5t-136.5 -25q-152 0 -212.5 76t-47.5 201z" />
<glyph unicode="&#x16e;" horiz-adv-x="1241" d="M141 496l181 929h176l-176 -905q-16 -80 -9.5 -147.5t36.5 -115.5t84 -75.5t136 -27.5q147 0 250 92t133 254l181 925h176l-185 -950q-23 -111 -67.5 -200t-115.5 -153.5t-167 -99t-217 -34.5q-104 0 -190 35.5t-143.5 102.5t-81 161t-1.5 209zM633 1612q0 47 17.5 91 t50 76.5t77.5 52t99 19.5q74 0 122 -48t48 -120q0 -55 -21.5 -98t-55.5 -72.5t-78 -46t-89 -16.5q-74 0 -122 46t-48 116zM725 1628q0 -41 25.5 -65.5t66.5 -24.5q53 0 95 40t42 95q0 39 -27.5 64.5t-68.5 25.5q-53 0 -93 -41t-40 -94z" />
<glyph unicode="&#x16f;" horiz-adv-x="1060" d="M114.5 188.5q-12.5 65.5 4.5 149.5l131 676h164l-117 -608q-12 -59 -12 -106.5t19.5 -81.5t60.5 -52.5t112 -18.5q49 0 94 18.5t82 52.5t63.5 81t39.5 107l118 608h164l-196 -1014h-166l22 115h-6q-61 -66 -140 -96.5t-157 -30.5q-76 0 -134 22.5t-96 67.5t-50.5 110.5z M487 1280q0 47 17.5 91t50.5 77t78 52.5t98 19.5q74 0 122 -48.5t48 -119.5q0 -55 -21.5 -98.5t-55 -73t-78 -46t-89.5 -16.5q-74 0 -122 46t-48 116zM580 1296q0 -41 25.5 -65.5t66.5 -24.5q53 0 95 40t42 95q0 39 -27.5 65t-68.5 26q-53 0 -93 -41t-40 -95z" />
<glyph unicode="&#x170;" horiz-adv-x="1241" d="M141 496l181 929h176l-176 -905q-16 -80 -9.5 -147.5t36.5 -115.5t84 -75.5t136 -27.5q147 0 250 92t133 254l181 925h176l-185 -950q-23 -111 -67.5 -200t-115.5 -153.5t-167 -99t-217 -34.5q-104 0 -190 35.5t-143.5 102.5t-81 161t-1.5 209zM563 1597l303 250 l121 -125l-348 -211zM897 1597l352 250l97 -125l-390 -211z" />
<glyph unicode="&#x171;" horiz-adv-x="1060" d="M114.5 188.5q-12.5 65.5 4.5 149.5l131 676h164l-117 -608q-12 -59 -12 -106.5t19.5 -81.5t60.5 -52.5t112 -18.5q49 0 94 18.5t82 52.5t63.5 81t39.5 107l118 608h164l-196 -1014h-166l22 115h-6q-61 -66 -140 -96.5t-157 -30.5q-76 0 -134 22.5t-96 67.5t-50.5 110.5z M479 1169l219 363l156 -51l-274 -353zM743 1169l220 363l155 -51l-274 -353z" />
<glyph unicode="&#x172;" horiz-adv-x="1241" d="M139.5 301q-18.5 88 1.5 195l181 929h176l-176 -905q-16 -80 -9.5 -147.5t36.5 -115.5t84 -75.5t136 -27.5q147 0 250 92t133 254l181 925h176l-185 -950q-41 -209 -168 -339t-344 -146q-84 -96 -84 -174q0 -66 82 -66q25 0 56.5 8.5t66.5 28.5l23 -100 q-45 -25 -97.5 -38.5t-103.5 -13.5q-78 0 -122 42t-44 106q0 47 23.5 96t76.5 113q-90 10 -163.5 51t-120.5 105.5t-65.5 152.5z" />
<glyph unicode="&#x173;" horiz-adv-x="1060" d="M114.5 188.5q-12.5 65.5 4.5 149.5l131 676h164l-117 -608q-12 -59 -12 -106.5t19.5 -81.5t60.5 -52.5t112 -18.5q49 0 94 18.5t82 52.5t63.5 81t39.5 107l118 608h164l-196 -1014h-45q-96 -104 -97 -186q0 -66 82 -66q25 0 56.5 8t66.5 29l23 -100q-45 -25 -97.5 -38.5 t-103.5 -13.5q-78 0 -122 42t-44 106q0 49 26.5 101t88.5 122l22 111h-6q-61 -66 -140 -96.5t-157 -30.5q-76 0 -134 22.5t-96 67.5t-50.5 110.5z" />
<glyph unicode="&#x174;" horiz-adv-x="1652" d="M221 1425h178l39 -1063h8q41 90 80 181.5t80 179.5l328 702h160l57 -716q8 -88 13 -174t14 -175h8l139 347l299 718h188l-626 -1425h-156l-51 711l-25 385h-6q-39 -90 -80 -181.5t-82 -181.5l-335 -733h-156zM698 1591l361 269h108l242 -265l-78 -75l-239 176l-349 -183z " />
<glyph unicode="&#x175;" horiz-adv-x="1443" d="M82 1016h168l45 -547q4 -57 8 -120.5t6 -131.5h8q49 92 95.5 186.5t90.5 191.5t90 201.5t95 219.5h186l58 -537q2 -31 5 -57.5t6 -54t5 -59.5t4 -72h6q104 193 193.5 386t173.5 394h172q-61 -147 -119.5 -275.5t-122 -250t-131 -241.5t-147.5 -249h-154l-49 479 q-2 25 -5 63t-6 82t-5 91t-2 94h-11q-47 -119 -92 -221.5t-91 -197.5t-96 -190.5t-110 -199.5h-155zM469 1208l369 314h108l234 -310l-99 -79l-211 223l-335 -226z" />
<glyph unicode="&#x176;" horiz-adv-x="1019" d="M199 1425h176l119 -411l69 -266l187 284l264 393h192l-585 -862l-111 -563h-168l111 563zM375 1591l360 269h109l241 -265l-77 -75l-240 176l-348 -183z" />
<glyph unicode="&#x177;" horiz-adv-x="845" d="M-111 -274q106 10 198.5 59t178.5 168l-166 1061h176l60 -463q12 -92 25.5 -212t13.5 -237h6q121 213 213 451t170 461h170q-117 -324 -232.5 -587t-238.5 -464q-47 -74 -100.5 -140.5t-121 -118.5t-153.5 -85t-194 -37zM172 1208l369 314h108l234 -310l-99 -79l-211 223 l-335 -226z" />
<glyph unicode="&#x178;" horiz-adv-x="1019" d="M199 1425h176l119 -411l69 -266l187 284l264 393h192l-585 -862l-111 -563h-168l111 563zM451 1536l34 180h181l-35 -180h-180zM819 1536l35 180h180l-35 -180h-180z" />
<glyph unicode="&#x179;" horiz-adv-x="1013" d="M-16 0l30 158l897 1110h-655l31 157h858l-29 -143l-901 -1116h684l-31 -166h-884zM604 1597l352 250l97 -125l-389 -211z" />
<glyph unicode="&#x17a;" horiz-adv-x="870" d="M-14 0l28 139l682 727h-512l29 148h705l-27 -144l-668 -714h529l-31 -156h-735zM485 1169l220 363l155 -51l-274 -353z" />
<glyph unicode="&#x17b;" horiz-adv-x="1013" d="M-16 0l30 158l897 1110h-655l31 157h858l-29 -143l-901 -1116h684l-31 -166h-884zM643 1530l35 180h180l-35 -180h-180z" />
<glyph unicode="&#x17c;" horiz-adv-x="870" d="M-14 0l28 139l682 727h-512l29 148h705l-27 -144l-668 -714h529l-31 -156h-735zM526 1223l35 180h180l-34 -180h-181z" />
<glyph unicode="&#x17d;" horiz-adv-x="1013" d="M-16 0l30 158l897 1110h-655l31 157h858l-29 -143l-901 -1116h684l-31 -166h-884zM467 1780l74 71l239 -172l353 183l45 -78l-361 -268h-108z" />
<glyph unicode="&#x17e;" horiz-adv-x="870" d="M-14 0l28 139l682 727h-512l29 148h705l-27 -144l-668 -714h529l-31 -156h-735zM252 1446l94 78l225 -228l322 226l65 -80l-352 -309h-108z" />
<glyph unicode="&#x192;" horiz-adv-x="1024" d="M-25 -145q16 41 30.5 68.5t31.5 68.5q66 -27 121 -27q86 0 134 78t77 207l108 469h-178l14 149h201l33 142q16 70 46 145.5t79 137t120.5 101.5t174.5 40q47 0 89 -8.5t72 -20.5q-14 -41 -27.5 -77t-25.5 -77q-29 10 -65.5 15.5t-65.5 5.5q-47 0 -83 -20.5t-61.5 -56.5 t-43 -81t-29.5 -94l-33 -152h217l-14 -149h-240l-106 -467q-23 -98 -53.5 -178t-76.5 -137.5t-108.5 -89t-146.5 -31.5q-43 0 -96.5 11t-94.5 28z" />
<glyph unicode="&#x1a0;" horiz-adv-x="1249" d="M94 410q0 49 9.5 113.5t22.5 133t29.5 137t28.5 126.5q25 109 67 203t109.5 163.5t163 109.5t226.5 40q92 0 168.5 -26t136.5 -73h4q43 0 72.5 9.5t51 33t35 63.5t25.5 99l8 43h154l-12 -67q-27 -135 -76 -214t-152 -104q41 -82 41 -182q0 -49 -9 -110.5t-21.5 -128 t-27.5 -134t-28 -129.5q-25 -119 -73 -216t-119.5 -167t-167.5 -107.5t-219 -37.5q-121 0 -206 32.5t-138.5 90t-78 134.5t-24.5 165zM268.5 383.5q3.5 -68.5 34.5 -120.5t91.5 -84t160.5 -32q82 0 146.5 30t112.5 80t81 119.5t51 149.5q12 55 26.5 117t27 123t20.5 118.5 t8 102.5q0 127 -75 207t-216 80q-96 0 -162.5 -34t-112.5 -86t-71.5 -118.5t-38.5 -130.5l-73 -379q-14 -74 -10.5 -142.5z" />
<glyph unicode="&#x1a1;" horiz-adv-x="1064" d="M86 336q0 135 30.5 260t92 220t156 151.5t223.5 56.5q78 0 140.5 -23.5t109.5 -64.5q78 2 113.5 46t58.5 159l8 43h153l-12 -68q-29 -135 -78 -215t-155 -102q10 -31 15 -65t5 -68q0 -117 -24.5 -238t-82 -219t-151.5 -159.5t-231 -61.5q-180 0 -275.5 90t-95.5 258z M250 350q0 -31 8 -67.5t30.5 -68.5t61.5 -53.5t103 -21.5q92 0 153.5 47t100 122t55 166t16.5 181q0 113 -58.5 166t-150.5 53t-153.5 -53t-98 -132t-52 -171t-15.5 -168z" />
<glyph unicode="&#x1af;" horiz-adv-x="1347" d="M141 496l181 929h176l-176 -905q-16 -80 -9.5 -147.5t36.5 -115.5t84 -75.5t136 -27.5q147 0 250 92t133 254l181 925h176l-19 -88q37 2 61.5 14.5t43 36t32 61.5t23.5 93l8 43h154l-13 -67q-16 -82 -39.5 -143.5t-61.5 -102.5t-94 -61.5t-136 -20.5h-6l-138 -715 q-23 -111 -67.5 -200t-115.5 -153.5t-167 -99t-217 -34.5q-104 0 -190 35.5t-143.5 102.5t-81 161t-1.5 209z" />
<glyph unicode="&#x1b0;" horiz-adv-x="1175" d="M114.5 188.5q-12.5 65.5 4.5 149.5l131 676h164l-117 -608q-12 -59 -12 -106.5t19.5 -81.5t60.5 -52.5t112 -18.5q49 0 94 18.5t82 52.5t63.5 81t39.5 107l118 608h164l-16 -78q37 2 63.5 13.5t45 35t32 62t23.5 94.5l8 43h154l-13 -68q-16 -82 -39.5 -143.5 t-61.5 -102.5t-94.5 -61.5t-135.5 -20.5h-11l-151 -788h-166l22 115h-6q-61 -66 -140 -96.5t-157 -30.5q-76 0 -134 22.5t-96 67.5t-50.5 110.5z" />
<glyph unicode="&#x1fc;" horiz-adv-x="2000" d="M-41 0l1108 1425h979l-23 -165h-720l-66 -461h614l-22 -158h-615l-65 -475h721l-23 -166h-903l57 418h-530l-324 -418h-188zM592 573h432l104 691zM1350 1597l352 250l96 -125l-389 -211z" />
<glyph unicode="&#x1fd;" horiz-adv-x="1636" d="M66 289q6 66 35.5 122t78.5 97t117 64.5t149 21.5q53 0 89 -2t69 -5t70 -7.5t92 -10.5l22 133q16 84 -30.5 125t-169.5 41q-96 0 -156.5 -23.5t-101.5 -64.5l-97 113q72 66 168.5 99.5t200.5 33.5q51 0 103.5 -6t98.5 -19.5t83 -37t59 -56.5q57 53 131 86t170 33 q168 0 260 -76t90 -205q0 -68 -30.5 -132t-107.5 -111t-209 -73t-337 -17q-4 -23 -4 -36.5v-21.5q0 -66 12.5 -106.5t38 -63t63.5 -32t87 -9.5q31 0 66.5 8.5t72.5 21.5t70 30.5t57 34.5l82 -121q-76 -61 -175 -95t-198 -34q-127 0 -201.5 45t-107.5 133l-4 -19 q-63 -78 -167.5 -118.5t-237.5 -40.5q-158 0 -236 84t-65 217zM227 299q-14 -72 32 -115t159 -43q49 0 98 12.5t91 37t71 59.5t39 80l22 104q-49 6 -81.5 10.5t-62.5 7.5t-60.5 4t-73.5 3q-98 0 -159 -44t-75 -116zM940 559q160 -8 257 6.5t149.5 41t69 60t16.5 64.5 q0 66 -49.5 101.5t-145.5 35.5q-76 0 -128 -26.5t-86 -69.5t-52.5 -98.5t-30.5 -114.5zM940 1169l219 363l156 -51l-275 -353z" />
<glyph unicode="&#x1fe;" horiz-adv-x="1185" d="M94 49l74 96q-39 53 -56.5 121t-17.5 144q0 49 9.5 113.5t22.5 133t29.5 137t28.5 126.5q25 109 67 203t109.5 163.5t163 109.5t226.5 40q98 0 178 -29t139 -80l82 107l68 -60l-89 -114q37 -49 57.5 -111t20.5 -131q0 -49 -9 -110.5t-21.5 -128t-27.5 -134t-28 -129.5 q-25 -119 -73 -216t-119.5 -167t-167.5 -107.5t-219 -37.5q-104 0 -182 24.5t-132 69.5l-69 -92zM267.5 406.5q0.5 -58.5 17.5 -105.5l676 885q-37 41 -93.5 64.5t-130.5 23.5q-96 0 -162.5 -34t-112.5 -86t-71.5 -118.5t-38.5 -130.5l-73 -379q-12 -61 -11.5 -119.5z M334 221q70 -74 221 -74q82 0 146.5 30t112.5 80t81 119.5t51 149.5q12 55 26.5 117t27 123t20.5 118.5t8 102.5q0 63 -18 117zM717 1597l352 250l96 -125l-389 -211z" />
<glyph unicode="&#x1ff;" horiz-adv-x="1013" d="M82 -4l78 104q-74 86 -74 236q0 135 30.5 260t92 220t156 151.5t223.5 56.5q66 0 122 -17.5t101 -50.5l88 117l74 -55l-96 -127q70 -92 69 -225q0 -117 -24.5 -238t-82 -219t-151.5 -159.5t-231 -61.5t-226 53l-77 -102zM250 350q0 -25 4 -51.5t16 -54.5l443 583 q-58 47 -144 47q-92 0 -153.5 -53t-98 -132t-52 -171t-15.5 -168zM330 172q23 -16 52.5 -24.5t70.5 -8.5q92 0 153.5 47t100 122t55 166t16.5 181q0 49 -12 90zM604 1169l219 363l156 -51l-274 -353z" />
<glyph unicode="&#x218;" horiz-adv-x="1093" d="M6 168l117 129q68 -63 164 -100t207 -37q70 0 134 15t114.5 47t80 80t29.5 112q0 51 -21.5 89t-57.5 64.5t-80 44t-89 29.5q-68 16 -137.5 40t-124.5 62.5t-91 98t-36 147.5q0 100 36 182t102.5 141.5t160.5 92.5t209 33q117 0 225.5 -32t188.5 -89l-107 -150 q-66 47 -150.5 73t-177.5 26q-47 0 -101 -13.5t-100 -42t-77 -74.5t-31 -114q0 -51 26.5 -87t63.5 -59.5t76 -37t62 -19.5q78 -20 153.5 -48t136 -72t98.5 -109.5t38 -161.5q0 -109 -46.5 -191.5t-123 -138t-177 -83t-211.5 -27.5q-145 0 -272 46t-211 134zM268 -526 l115 180h-72l45 227h211l-43 -223l-151 -184h-105z" />
<glyph unicode="&#x219;" horiz-adv-x="899" d="M-14 143l108 127q53 -66 138 -96.5t167 -30.5q106 0 176 35t70 109q0 72 -48 102.5t-118 48.5q-53 14 -111.5 27.5t-106.5 41.5t-78.5 76t-30.5 132q0 86 34.5 145.5t91 96t129 53t146.5 16.5q88 0 176 -24.5t154 -90.5l-103 -131q-55 45 -114.5 67.5t-128.5 22.5 q-37 0 -76 -7t-70 -25.5t-50 -48t-19 -74.5q0 -33 17 -53.5t46 -35t68 -23.5t79 -19q51 -12 101.5 -28.5t90.5 -46.5t65.5 -76t25.5 -118q0 -90 -36 -151.5t-94 -101t-133 -57t-155 -17.5q-51 0 -108.5 9t-112.5 28.5t-104 49t-86 68.5zM178 -526l115 180h-72l45 227h211 l-43 -223l-151 -184h-105z" />
<glyph unicode="&#x259;" horiz-adv-x="962" d="M86 266q0 63 25.5 125t93 109t182.5 76.5t293 29.5h44t46 -2q4 23 4 36v22q0 117 -50 163.5t-151 46.5q-31 0 -66.5 -8t-72.5 -21.5t-69.5 -30.5t-57.5 -34l-82 121q76 61 175.5 95t197.5 34q174 0 256 -94t82 -275q0 -115 -27.5 -234.5t-88 -215.5t-156 -157.5 t-228.5 -61.5q-166 0 -258 73.5t-92 202.5zM252 285q0 -66 49 -102t145 -36q72 0 123.5 27t86 70t55 98t32.5 115q-25 2 -46 2h-44q-131 0 -209.5 -18.5t-121.5 -45t-56.5 -57.5t-13.5 -53z" />
<glyph unicode="&#x2b9;" horiz-adv-x="552" d="M184 864l291 557l191 -49l-371 -545z" />
<glyph unicode="&#x2c6;" horiz-adv-x="1005" d="M313 1208l369 314h109l233 -310l-98 -79l-211 223l-336 -226z" />
<glyph unicode="&#x2c7;" horiz-adv-x="1005" d="M360 1446l95 78l225 -228l321 226l66 -80l-352 -309h-109z" />
<glyph unicode="&#x2d8;" horiz-adv-x="1046" d="M418 1448h145q-2 -20 3 -45t20.5 -45.5t40 -34.5t61.5 -14q74 0 118 44t54 95h158q-12 -49 -38 -98.5t-67 -89t-98 -64.5t-137 -25q-152 0 -212 76t-48 201z" />
<glyph unicode="&#x2d9;" horiz-adv-x="962" d="M506 1223l35 180h180l-35 -180h-180z" />
<glyph unicode="&#x2da;" horiz-adv-x="1013" d="M502 1280q0 47 17.5 91t50 77t77.5 52.5t98 19.5q74 0 122 -48.5t48 -119.5q0 -55 -21.5 -98.5t-55 -73t-77.5 -46t-89 -16.5q-74 0 -122 46t-48 116zM594 1296q0 -41 25.5 -65.5t66.5 -24.5q53 0 95 40t42 95q0 39 -27.5 65t-68.5 26q-53 0 -93 -41t-40 -95z" />
<glyph unicode="&#x2db;" horiz-adv-x="575" d="M117 -221q0 49 26.5 101t89.5 124h119l2 -4q-98 -111 -98 -188q0 -66 82 -66q25 0 56.5 8t66.5 29l22 -100q-45 -25 -97 -38.5t-103 -13.5q-78 0 -122 42t-44 106z" />
<glyph unicode="&#x2dc;" horiz-adv-x="1005" d="M315 1249q57 98 121 140.5t125 42.5q37 0 75 -15.5t75 -33t69.5 -33t59.5 -15.5q31 0 60.5 21.5t70.5 70.5l94 -59q-53 -102 -114.5 -142t-127.5 -40q-37 0 -74.5 14t-74.5 31.5t-71 32t-64 14.5q-35 0 -61.5 -17.5t-74.5 -64.5z" />
<glyph unicode="&#x2dd;" horiz-adv-x="1013" d="M410 1169l219 363l155 -51l-274 -353zM674 1169l219 363l156 -51l-275 -353z" />
<glyph unicode="&#x384;" horiz-adv-x="1005" d="M539 1169l219 363l155 -51l-272 -353z" />
<glyph unicode="&#x385;" horiz-adv-x="784" d="M166 1206l37 183h174l-35 -183h-176zM395 1169l219 363l156 -51l-272 -353zM739 1206l35 183h174l-35 -183h-174z" />
<glyph unicode="&#x386;" horiz-adv-x="1200" d="M-74 0l789 1425h157l234 -1425h-184l-50 328h-579l-176 -328h-191zM18 1128l220 363l155 -51l-272 -353zM373 483h481l-57 400l-41 323h-4l-162 -315z" />
<glyph unicode="&#x387;" horiz-adv-x="487" d="M162 584l43 227h211l-43 -227h-211z" />
<glyph unicode="&#x388;" horiz-adv-x="1089" d="M-139 1128l219 363l156 -51l-273 -353zM70 0l278 1425h862l-32 -165h-686l-89 -461h603l-31 -158h-602l-94 -475h747l-31 -166h-925z" />
<glyph unicode="&#x389;" horiz-adv-x="1275" d="M-152 1128l220 363l155 -51l-272 -353zM70 0l278 1425h176l-121 -626h617l123 626h176l-277 -1425h-176l123 641h-616l-125 -641h-178z" />
<glyph unicode="&#x38a;" horiz-adv-x="483" d="M-160 1128l219 363l156 -51l-272 -353zM70 0l278 1425h176l-276 -1425h-178z" />
<glyph unicode="&#x38c;" horiz-adv-x="1185" d="M-143 1128l219 363l155 -51l-272 -353zM94 410q0 49 9.5 113.5t22.5 133t29.5 137t28.5 126.5q25 109 67 203t109.5 163.5t163 109.5t226.5 40q100 0 184 -31t144.5 -86t94 -132t33.5 -169q0 -49 -9 -110.5t-21.5 -128t-27.5 -134t-28 -129.5q-25 -119 -73 -216 t-119.5 -167t-167.5 -107.5t-219 -37.5q-121 0 -206 32.5t-138.5 90t-78 134.5t-24.5 165zM268.5 383.5q3.5 -68.5 34.5 -120.5t91.5 -84t160.5 -32q82 0 146.5 30t112.5 80t81 119.5t51 149.5q12 55 26.5 117t27 123t20.5 118.5t8 102.5q0 127 -75 207t-216 80 q-96 0 -162.5 -34t-112.5 -86t-71.5 -118.5t-38.5 -130.5l-73 -379q-14 -74 -10.5 -142.5z" />
<glyph unicode="&#x38e;" horiz-adv-x="1019" d="M-236 1128l220 363l155 -51l-272 -353zM199 1425h176l119 -411l69 -266l187 284l264 393h192l-585 -862l-111 -563h-168l111 563z" />
<glyph unicode="&#x38f;" horiz-adv-x="1163" d="M-170 1128l219 363l156 -51l-273 -353zM-37 0l31 166h213q-66 43 -90.5 114.5t-24.5 155.5q0 37 4 75t10 73l62 327q20 104 61 199.5t110 168.5t166 116t230 43q131 0 224.5 -44t148.5 -118t73.5 -170t-1.5 -201l-66 -342q-12 -63 -28.5 -122.5t-42 -110.5t-62.5 -93 t-88 -71h174l-31 -166h-413l36 195q109 35 178.5 132t96.5 226l72 340q14 70 7 139.5t-41 124.5t-93.5 90t-149.5 35q-86 0 -152.5 -32.5t-113.5 -86t-76 -121t-43 -135.5l-70 -354q-8 -41 -8 -92q0 -88 38 -160t118 -106l-39 -195h-420z" />
<glyph unicode="&#x390;" horiz-adv-x="477" d="M12 1206l37 183h174l-35 -183h-176zM98 227l154 785h164l-152 -776q-10 -47 2.5 -68t67.5 -25l-31 -143q-16 -2 -23.5 -2h-17.5q-121 0 -153.5 57.5t-10.5 171.5zM242 1169l219 363l155 -51l-272 -353zM586 1206l35 183h174l-35 -183h-174z" />
<glyph unicode="&#x391;" horiz-adv-x="1200" d="M-74 0l789 1425h157l234 -1425h-184l-50 328h-579l-176 -328h-191zM373 483h481l-57 400l-41 323h-4l-162 -315z" />
<glyph unicode="&#x392;" horiz-adv-x="1200" d="M70 0l278 1425h488q80 0 149.5 -17t120.5 -56t81 -99.5t30 -148.5q0 -141 -75 -237.5t-210 -133.5l-2 -6q96 -33 147 -105.5t51 -172.5q0 -94 -37.5 -176.5t-100 -142.5t-146.5 -95t-176 -35h-598zM279 166h360q61 0 117.5 21.5t99.5 59.5t68.5 91t25.5 117 q0 96 -63.5 146t-153.5 50h-358zM403 807h330q59 0 114.5 18.5t97.5 54t67.5 86t25.5 113.5q0 49 -20.5 85t-53 59.5t-75.5 34t-86 10.5h-309z" />
<glyph unicode="&#x393;" horiz-adv-x="1052" d="M70 0l278 1425h883l-33 -165h-706l-244 -1260h-178z" />
<glyph unicode="&#x394;" horiz-adv-x="1200" d="M-70 0l789 1425h153l234 -1425h-1176zM203 158h698l-102 719l-41 329h-4l-170 -332z" />
<glyph unicode="&#x395;" horiz-adv-x="1089" d="M70 0l278 1425h862l-32 -165h-686l-89 -461h603l-31 -158h-602l-94 -475h747l-31 -166h-925z" />
<glyph unicode="&#x396;" horiz-adv-x="1013" d="M-16 0l30 158l897 1110h-655l31 157h858l-29 -143l-901 -1116h684l-31 -166h-884z" />
<glyph unicode="&#x397;" horiz-adv-x="1275" d="M70 0l278 1425h176l-121 -626h617l123 626h176l-277 -1425h-176l123 641h-616l-125 -641h-178z" />
<glyph unicode="&#x398;" horiz-adv-x="1187" d="M92 410q0 57 12 118l78 387q20 104 66.5 198.5t119 166.5t173 114t227.5 42q102 0 183 -31t136.5 -86t85 -132t29.5 -169q0 -57 -12 -119l-74 -383q-23 -121 -71 -219t-120.5 -167t-171 -105.5t-223.5 -36.5q-109 0 -190.5 32.5t-137 90t-83 134.5t-27.5 165zM274 444 q0 -59 16.5 -111t51.5 -91t86 -62.5t123 -23.5q76 0 139.5 28.5t113.5 77.5t84 116.5t50 147.5l74 379q8 39 8 82q0 121 -70.5 200t-201.5 79q-82 0 -149 -31t-116 -81t-81.5 -115.5t-45.5 -133.5l-73 -379q-2 -20 -5.5 -40.5t-3.5 -41.5zM381 643l29 154h510l-29 -154h-510 z" />
<glyph unicode="&#x399;" horiz-adv-x="483" d="M70 0l278 1425h176l-276 -1425h-178z" />
<glyph unicode="&#x39a;" horiz-adv-x="1241" d="M70 0l278 1425h176l-147 -770l6 2l319 330l445 438h215l-553 -553l332 -872h-197l-272 733l-350 -344l-74 -389h-178z" />
<glyph unicode="&#x39b;" horiz-adv-x="1200" d="M-70 0l789 1425h153l234 -1425h-184q-10 74 -17.5 122t-12.5 86t-10 71.5t-14 80.5q-6 45 -14 113t-20.5 168t-31 239.5t-44.5 327.5h-6q-100 -188 -172 -327.5t-124.5 -239.5t-86 -167.5t-58.5 -113.5l-194 -360h-187z" />
<glyph unicode="&#x39c;" horiz-adv-x="1501" d="M70 0l278 1425h176l166 -665l74 -332h6l201 330l422 667h174l-279 -1425h-176l199 1012h-8l-160 -269l-344 -532h-156l-137 549l-55 252h-7l-196 -1012h-178z" />
<glyph unicode="&#x39d;" horiz-adv-x="1351" d="M70 0l278 1425h174l340 -786l137 -336l7 -2l217 1124h174l-277 -1425h-172l-354 815l-125 311l-6 -2l-215 -1124h-178z" />
<glyph unicode="&#x39e;" horiz-adv-x="1140" d="M33 0l33 166h923l-33 -166h-923zM266 641l31 158h686l-31 -158h-686zM276 1260l33 165h895l-33 -165h-895z" />
<glyph unicode="&#x39f;" horiz-adv-x="1185" d="M94 410q0 49 9.5 113.5t22.5 133t29.5 137t28.5 126.5q25 109 67 203t109.5 163.5t163 109.5t226.5 40q100 0 184 -31t144.5 -86t94 -132t33.5 -169q0 -49 -9 -110.5t-21.5 -128t-27.5 -134t-28 -129.5q-25 -119 -73 -216t-119.5 -167t-167.5 -107.5t-219 -37.5 q-121 0 -206 32.5t-138.5 90t-78 134.5t-24.5 165zM268.5 383.5q3.5 -68.5 34.5 -120.5t91.5 -84t160.5 -32q82 0 146.5 30t112.5 80t81 119.5t51 149.5q12 55 26.5 117t27 123t20.5 118.5t8 102.5q0 127 -75 207t-216 80q-96 0 -162.5 -34t-112.5 -86t-71.5 -118.5 t-38.5 -130.5l-73 -379q-14 -74 -10.5 -142.5z" />
<glyph unicode="&#x3a0;" horiz-adv-x="1275" d="M70 0l278 1425h971l-277 -1425h-176l246 1268h-618l-246 -1268h-178z" />
<glyph unicode="&#x3a1;" horiz-adv-x="1148" d="M70 0l278 1425h502q86 0 157.5 -22.5t124 -68.5t81 -113.5t28.5 -157.5q0 -109 -42 -199t-112.5 -154.5t-165 -100.5t-198.5 -36h-365l-110 -573h-178zM391 739h346q66 0 124.5 22.5t101.5 62.5t68.5 95t25.5 121q0 111 -66.5 165.5t-171.5 54.5h-327z" />
<glyph unicode="&#x3a3;" horiz-adv-x="1013" d="M-16 0l30 158l451 575l-229 549l28 143h856l-30 -157h-650l232 -535l-451 -567h678l-31 -166h-884z" />
<glyph unicode="&#x3a4;" horiz-adv-x="974" d="M166 1268l31 157h972l-30 -157h-398l-247 -1268h-177l246 1268h-397z" />
<glyph unicode="&#x3a5;" horiz-adv-x="1019" d="M199 1425h176l119 -411l69 -266l187 284l264 393h192l-585 -862l-111 -563h-168l111 563z" />
<glyph unicode="&#x3a6;" horiz-adv-x="1468" d="M133 584q0 166 49 305t140.5 242.5t219.5 164t285 66.5l13 63h174l-13 -63q236 -8 349.5 -134t113.5 -337q0 -160 -43 -298t-130 -242.5t-220 -168t-313 -71.5l-21 -111h-174l21 111q-123 12 -209 53t-140.5 102.5t-78 142t-23.5 175.5zM297 602q0 -68 16.5 -127t53 -105 t97 -76t148.5 -36l187 954q-121 -10 -215.5 -59t-158 -130t-96 -188.5t-32.5 -232.5zM786 258q131 0 227.5 55.5t159 144.5t92 202.5t29.5 234.5q0 66 -16 121t-54 95t-99.5 65.5t-151.5 33.5z" />
<glyph unicode="&#x3a7;" horiz-adv-x="1050" d="M-74 0l572 731l-267 694h187l192 -555l412 555h197l-537 -694l289 -731h-189l-215 592l-444 -592h-197z" />
<glyph unicode="&#x3a8;" horiz-adv-x="1456" d="M203 827l116 598h177l-111 -573q-16 -86 -5 -152.5t47 -112.5t93.5 -70.5t132.5 -27.5l183 936h176l-183 -936q152 2 263.5 91.5t144.5 250.5l115 594h176l-121 -618q-41 -219 -197.5 -348t-412.5 -142l-62 -317h-176l62 319q-104 8 -191.5 46t-145 102.5t-81 155 t-0.5 204.5z" />
<glyph unicode="&#x3a9;" horiz-adv-x="1163" d="M-37 0l31 166h213q-66 43 -90.5 114.5t-24.5 155.5q0 37 4 75t10 73l62 327q20 104 61 199.5t110 168.5t166 116t230 43q131 0 224.5 -44t148.5 -118t73.5 -170t-1.5 -201l-66 -342q-12 -63 -28.5 -122.5t-42 -110.5t-62.5 -93t-88 -71h174l-31 -166h-413l36 195 q109 35 178.5 132t96.5 226l72 340q14 70 7 139.5t-41 124.5t-93.5 90t-149.5 35q-86 0 -152.5 -32.5t-113.5 -86t-76 -121t-43 -135.5l-70 -354q-8 -41 -8 -92q0 -88 38 -160t118 -106l-39 -195h-420z" />
<glyph unicode="&#x3aa;" horiz-adv-x="483" d="M70 0l278 1425h176l-276 -1425h-178zM184 1536l35 180h180l-34 -180h-181zM553 1536l35 180h180l-35 -180h-180z" />
<glyph unicode="&#x3ab;" horiz-adv-x="1019" d="M199 1425h176l119 -411l69 -266l187 284l264 393h192l-585 -862l-111 -563h-168l111 563zM442 1536l35 180h180l-34 -180h-181zM811 1536l35 180h180l-35 -180h-180z" />
<glyph unicode="&#x3ac;" horiz-adv-x="1013" d="M92 313q0 111 25.5 237t83 231.5t147.5 175t219 69.5q74 0 140.5 -30.5t107.5 -94.5l6 2l21 111h164l-197 -1014h-164l23 111l-6 4q-61 -70 -134 -98.5t-161 -28.5q-76 0 -128.5 24.5t-85 68.5t-47 103.5t-14.5 128.5zM266 346q0 -92 38 -141t142 -49q82 0 140.5 52 t97.5 129t57.5 163t18.5 155q0 92 -39 148.5t-137 56.5q-61 0 -109.5 -27.5t-83.5 -71.5t-59.5 -100.5t-38.5 -112.5t-20.5 -109.5t-6.5 -92.5zM518 1169l219 363l156 -51l-272 -353z" />
<glyph unicode="&#x3ad;" horiz-adv-x="882" d="M76 252q0 49 16.5 95t45 84t67.5 66.5t86 41.5q-59 23 -89 68.5t-30 109.5q0 78 37 136t95 96t130 57.5t144 19.5q45 0 93 -8t93 -24.5t85 -42t69 -60.5l-119 -125q-31 41 -91.5 67.5t-119.5 26.5q-41 0 -84 -6t-78 -22.5t-57.5 -44t-22.5 -70.5q0 -41 20.5 -63.5t50 -33 t62.5 -12.5t60 -2h116l-26 -143h-160q-37 0 -76 -10.5t-71.5 -32t-54 -55t-21.5 -82.5q0 -41 20.5 -67t52 -39t68.5 -18t70 -5q66 0 131 30.5t112 71.5l107 -125q-166 -139 -387 -139q-59 0 -120.5 14t-111 46t-81 81t-31.5 119zM518 1169l219 363l156 -51l-272 -353z" />
<glyph unicode="&#x3ae;" horiz-adv-x="1052" d="M49 0l197 1014h166l-23 -121h6q61 66 141 99.5t160 33.5q55 0 106.5 -17.5t90.5 -52t61.5 -86t22.5 -116.5q0 -18 -2 -38t-6 -40l-183 -944h-165l170 876q10 57 10 92q0 78 -42 120t-149 42q-49 0 -94 -18.5t-82 -52t-63.5 -80.5t-36.5 -103l-119 -608h-166zM498 1169 l219 363l155 -51l-272 -353z" />
<glyph unicode="&#x3af;" horiz-adv-x="477" d="M98 227l154 785h164l-152 -776q-10 -47 2.5 -68t67.5 -25l-31 -143q-16 -2 -23.5 -2h-17.5q-121 0 -153.5 57.5t-10.5 171.5zM301 1169l219 363l156 -51l-273 -353z" />
<glyph unicode="&#x3b0;" horiz-adv-x="1060" d="M119 295q0 18 2 38.5t6 41.5l125 639h164l-119 -608q-6 -31 -6 -62q0 -90 51 -142t137 -52q117 0 187.5 69.5t93.5 186.5l119 608h163l-129 -660q-33 -164 -145.5 -265t-288.5 -101q-78 0 -144.5 20.5t-114.5 60.5t-74.5 97t-26.5 129zM305 1206l37 183h174l-35 -183 h-176zM535 1169l219 363l155 -51l-272 -353zM879 1206l34 183h174l-34 -183h-174z" />
<glyph unicode="&#x3b1;" horiz-adv-x="1013" d="M92 313q0 111 25.5 237t83 231.5t147.5 175t219 69.5q74 0 140.5 -30.5t107.5 -94.5l6 2l21 111h164l-197 -1014h-164l23 111l-6 4q-61 -70 -134 -98.5t-161 -28.5q-76 0 -128.5 24.5t-85 68.5t-47 103.5t-14.5 128.5zM266 346q0 -92 38 -141t142 -49q82 0 140.5 52 t97.5 129t57.5 163t18.5 155q0 92 -39 148.5t-137 56.5q-61 0 -109.5 -27.5t-83.5 -71.5t-59.5 -100.5t-38.5 -112.5t-20.5 -109.5t-6.5 -92.5z" />
<glyph unicode="&#x3b2;" horiz-adv-x="1038" d="M0 -268l258 1353q35 182 138 286t298 104q88 0 150.5 -29t100.5 -74t55.5 -101.5t17.5 -109.5q0 -45 -12.5 -94t-39 -94t-65.5 -81t-90 -54q86 -31 118 -98.5t32 -157.5q0 -102 -30 -208t-88.5 -192t-148.5 -140t-209 -54q-72 0 -136 26.5t-107 96.5l-6 -2l-70 -377h-166 zM301 362q0 -43 8 -82.5t27.5 -69.5t53.5 -48.5t87 -18.5q86 0 146.5 49.5t97.5 119t54.5 146.5t17.5 132q0 35 -8.5 66.5t-27 55t-49 37t-75.5 13.5h-162l29 145h133q57 0 98 24.5t67.5 60.5t39 77t12.5 72t-9.5 63.5t-29.5 60t-54 46t-85 18.5q-63 0 -107.5 -22.5 t-72 -58.5t-43 -77t-21.5 -77l-111 -580q-6 -35 -11 -74t-5 -78z" />
<glyph unicode="&#x3b3;" horiz-adv-x="823" d="M68 864l14 142q31 10 52.5 14t43.5 4q68 0 97.5 -39t39.5 -104q10 -61 20.5 -133t20 -148t17.5 -150.5t14 -142.5h12q115 180 203 353.5t180 355.5h185q-68 -135 -128.5 -251t-124 -228.5t-132 -230.5t-152.5 -257l-90 -459h-166l84 428q-16 205 -39.5 385.5t-56.5 364.5 q-6 35 -12.5 54.5t-15.5 28.5t-22.5 11t-35.5 2h-8z" />
<glyph unicode="&#x3b4;" horiz-adv-x="985" d="M82 338q0 111 24.5 212t71.5 183t115.5 143.5t157.5 92.5q-53 39 -86 97t-33 112q0 82 31.5 141t83 98t115.5 57.5t130 18.5q92 0 175 -20.5t151 -61.5l-80 -143q-57 33 -111.5 49t-117.5 16q-84 0 -144.5 -38t-60.5 -103q0 -33 19.5 -57.5t50 -48t70.5 -45t81 -48.5 t81 -59.5t70.5 -75.5t49 -98t18.5 -129q0 -131 -30.5 -248t-92 -205t-156 -139t-223.5 -51q-168 0 -264 88t-96 262zM248 352q0 -98 53 -155.5t154 -57.5q84 0 145.5 38t101 104.5t59 154.5t19.5 189q0 113 -52 166.5t-126 76.5q-86 -2 -151.5 -46t-110.5 -115.5 t-68.5 -163.5t-23.5 -191z" />
<glyph unicode="&#x3b5;" horiz-adv-x="882" d="M76 252q0 49 16.5 95t45 84t67.5 66.5t86 41.5q-59 23 -89 68.5t-30 109.5q0 78 37 136t95 96t130 57.5t144 19.5q45 0 93 -8t93 -24.5t85 -42t69 -60.5l-119 -125q-31 41 -91.5 67.5t-119.5 26.5q-41 0 -84 -6t-78 -22.5t-57.5 -44t-22.5 -70.5q0 -41 20.5 -63.5t50 -33 t62.5 -12.5t60 -2h116l-26 -143h-160q-37 0 -76 -10.5t-71.5 -32t-54 -55t-21.5 -82.5q0 -41 20.5 -67t52 -39t68.5 -18t70 -5q66 0 131 30.5t112 71.5l107 -125q-166 -139 -387 -139q-59 0 -120.5 14t-111 46t-81 81t-31.5 119z" />
<glyph unicode="&#x3b6;" horiz-adv-x="780" d="M57 348q0 90 37 183.5t98.5 185.5t140.5 179t163 164t164.5 140.5t148.5 108.5h-490l29 147h729l-28 -139q-59 -41 -142.5 -104.5t-172.5 -141.5t-176 -166t-155.5 -179t-111.5 -180t-43 -169q0 -70 34.5 -113t87 -71.5t113 -49t112.5 -45t87 -59.5t35 -92 q0 -43 -19.5 -90t-49.5 -91.5t-62.5 -85t-59.5 -71.5l-120 69q10 16 29.5 44t39 58t33.5 58.5t14 46.5q0 35 -34.5 55.5t-86 40t-112 43t-111.5 63.5t-86 102.5t-35 158.5z" />
<glyph unicode="&#x3b7;" horiz-adv-x="1052" d="M49 0l197 1014h166l-23 -121h6q61 66 141 99.5t160 33.5q55 0 106.5 -17.5t90.5 -52t61.5 -86t22.5 -116.5q0 -18 -2 -38t-6 -40l-183 -944h-165l170 876q10 57 10 92q0 78 -42 120t-149 42q-49 0 -94 -18.5t-82 -52t-63.5 -80.5t-36.5 -103l-119 -608h-166z" />
<glyph unicode="&#x3b8;" horiz-adv-x="985" d="M82 338q0 72 14.5 193.5t40.5 254.5q27 133 66 261.5t86 214.5q66 117 165 176t228 59q166 0 248 -86t82 -276q0 -78 -10.5 -161t-22.5 -159q-39 -223 -83 -384t-95 -238q-55 -86 -145.5 -145.5t-221.5 -59.5q-176 0 -264 82t-88 268zM244 358q0 -43 7 -82.5t27.5 -69.5 t58.5 -47.5t99 -17.5q94 0 158.5 49.5t101.5 139.5q14 35 45 128t58 257h-508q-29 -135 -38 -219t-9 -138zM317 866h508q16 94 22.5 160t6.5 107q0 96 -44.5 152t-150.5 56q-72 0 -130 -35.5t-99 -101.5q-23 -35 -52.5 -115.5t-60.5 -222.5z" />
<glyph unicode="&#x3b9;" horiz-adv-x="477" d="M98 227l154 785h164l-152 -776q-10 -47 2.5 -68t67.5 -25l-31 -143q-16 -2 -23.5 -2h-17.5q-121 0 -153.5 57.5t-10.5 171.5z" />
<glyph unicode="&#x3ba;" horiz-adv-x="1003" d="M55 0l197 1014h164l-94 -473l6 2l508 471h211l-418 -396l286 -618h-186l-223 506l-232 -217l-55 -289h-164z" />
<glyph unicode="&#x3bb;" horiz-adv-x="858" d="M-92 0l565 1010l-22 219q-6 53 -25.5 78.5t-83.5 25.5h-17.5t-19.5 -2l10 154q29 6 57.5 8t51.5 2q94 0 136 -51t54 -150l136 -1050q4 -35 8 -55.5t12 -32t22.5 -15.5t38.5 -4l-8 -141q-29 -6 -51 -7t-41 -1q-117 0 -135 129l-49 364l-35 285h-6l-174 -338l-234 -428 h-190z" />
<glyph unicode="&#x3bc;" horiz-adv-x="1048" d="M-25 -410l277 1424h164l-119 -608q-23 -117 24.5 -189t157.5 -72q49 0 94 18.5t82 53.5t63.5 82t39.5 107l119 608h163l-196 -1014h-166l22 115h-6q-61 -66 -141 -96.5t-158 -30.5q-43 0 -85 13t-77 42l-6 -2l-88 -451h-164z" />
<glyph unicode="&#x3bd;" horiz-adv-x="876" d="M86 1012h168l65 -420q14 -92 25.5 -183.5t15.5 -185.5h7q59 100 112 193.5t103.5 188.5t98.5 194.5t97 212.5h185q-70 -150 -137.5 -281t-136 -252t-140.5 -238.5t-152 -240.5h-141z" />
<glyph unicode="&#x3be;" horiz-adv-x="829" d="M72 336q0 78 22.5 155.5t66.5 145.5t106.5 118t142.5 74q-90 33 -129 92.5t-39 137.5q0 92 36.5 168t99 131t146.5 85t181 30q43 0 90 -4.5t94 -14.5t91 -26.5t79 -43.5l-94 -147q-109 76 -244 76q-59 0 -113.5 -20.5t-94.5 -55.5t-63.5 -83t-23.5 -105q0 -47 22.5 -78 t59.5 -48.5t85 -23.5t101 -6h146l-27 -145h-205q-80 0 -146.5 -37t-114.5 -93.5t-73.5 -122t-25.5 -122.5q0 -66 35.5 -107t90 -68.5t117 -48t117 -47t90 -64.5t35.5 -99q0 -41 -19.5 -86.5t-47 -88.5t-59.5 -82.5t-58 -70.5l-127 63q10 14 29.5 43t38 59.5t32 61.5t13.5 49 q0 35 -34 56.5t-86.5 41t-111.5 42t-111.5 60.5t-86 97.5t-33.5 151.5z" />
<glyph unicode="&#x3bf;" horiz-adv-x="1013" d="M86 336q0 135 30.5 260t92 220t156 151.5t223.5 56.5q164 0 261 -97.5t97 -260.5q0 -117 -24.5 -238t-82 -219t-151.5 -159.5t-231 -61.5q-180 0 -275.5 90t-95.5 258zM250 350q0 -31 8 -67.5t30.5 -68.5t61.5 -53.5t103 -21.5q92 0 153.5 47t100 122t55 166t16.5 181 q0 113 -58.5 166t-150.5 53t-153.5 -53t-98 -132t-52 -171t-15.5 -168z" />
<glyph unicode="&#x3c0;" horiz-adv-x="1060" d="M55 0l197 1016h788l-196 -1016h-166l170 866h-461l-168 -866h-164z" />
<glyph unicode="&#x3c1;" horiz-adv-x="1028" d="M-53 -410l184 955q18 94 54 180t94.5 152.5t139.5 106.5t189 40q164 0 261.5 -97.5t97.5 -260.5q0 -145 -31 -270.5t-92.5 -215.5t-152.5 -141t-214 -51q-94 0 -155.5 36.5t-102.5 86.5l-8 -9l-100 -512h-164zM270 348q0 -39 10.5 -75.5t34 -64.5t60.5 -46.5t90 -20.5 q100 0 164.5 49.5t102.5 125t52.5 166.5t14.5 173q0 113 -58.5 166t-150.5 53q-72 0 -131.5 -40.5t-101.5 -111.5t-64.5 -167t-22.5 -207z" />
<glyph unicode="&#x3c2;" horiz-adv-x="819" d="M72 389q0 170 47 291t120.5 197.5t167 112.5t185.5 36q86 0 176 -29.5t156 -111.5l-103 -121q-43 51 -110.5 76.5t-122.5 25.5q-61 0 -123 -24.5t-110 -77.5t-77.5 -138t-29.5 -204q0 -84 25.5 -144.5t115.5 -101.5l195 -90q61 -29 87.5 -65.5t26.5 -83.5q0 -76 -53 -157 t-125 -159l-117 72q33 51 52.5 87t30 58.5t13.5 34.5t3 18q0 23 -13.5 41.5t-52.5 34.5q-70 31 -135 59.5t-116.5 72.5t-82 113t-30.5 177z" />
<glyph unicode="&#x3c3;" horiz-adv-x="1017" d="M76 332q0 141 32.5 265t96 216t152.5 145.5t204 53.5h514l-24 -144h-181l-4 -4q39 -43 54.5 -95t15.5 -112q0 -119 -27.5 -238.5t-86 -214.5t-150.5 -155.5t-223 -60.5q-180 0 -276.5 91t-96.5 253zM240 356q0 -31 8 -68.5t29.5 -70.5t60.5 -55.5t98 -22.5q94 0 156.5 46 t101.5 119t55.5 162t16.5 175q0 113 -58.5 166t-150.5 53q-88 0 -148.5 -50t-98.5 -126t-54 -164t-16 -164z" />
<glyph unicode="&#x3c4;" horiz-adv-x="684" d="M104 866l29 148h612l-28 -148h-240l-112 -587q-10 -47 1 -85t72 -38h54l-29 -156h-88q-100 0 -153.5 60.5t-31.5 177.5l123 628h-209z" />
<glyph unicode="&#x3c5;" horiz-adv-x="1060" d="M119 295q0 18 2 38.5t6 41.5l125 639h164l-119 -608q-6 -31 -6 -62q0 -90 51 -142t137 -52q117 0 187.5 69.5t93.5 186.5l119 608h163l-129 -660q-33 -164 -145.5 -265t-288.5 -101q-78 0 -144.5 20.5t-114.5 60.5t-74.5 97t-26.5 129z" />
<glyph unicode="&#x3c6;" horiz-adv-x="1224" d="M84 334q0 113 21.5 224.5t68.5 203.5t122 159.5t181 92.5l25 -144q-61 -20 -108.5 -67t-80 -114.5t-49 -152.5t-16.5 -182q0 -35 10 -71.5t34.5 -68.5t65.5 -54.5t103 -24.5l172 891h160q106 0 176.5 -34t111.5 -86t58.5 -113.5t17.5 -116.5q0 -152 -31.5 -278 t-99.5 -217t-173 -142t-255 -51l-76 -396h-168l76 396q-92 8 -157.5 39.5t-107.5 78t-61.5 104.5t-19.5 124zM629 133q119 6 190.5 60.5t109.5 134.5t49 170t11 166q0 51 -17.5 89t-48 62.5t-70.5 36.5t-85 12z" />
<glyph unicode="&#x3c7;" horiz-adv-x="929" d="M-78 0l443 522q-53 121 -111.5 247t-114.5 247h187l145 -377l291 377h205l-424 -500q55 -123 118.5 -258t118.5 -258h-190l-156 391l-307 -391h-205z" />
<glyph unicode="&#x3c8;" horiz-adv-x="1253" d="M121 313q0 37 6 74l119 627h164l-117 -604q-6 -37 -6 -70q0 -94 55 -144.5t150 -54.5l176 914h163l-176 -914q129 6 207 77t101 192l118 604h164l-125 -645q-35 -174 -168 -272.5t-327 -108.5l-78 -396h-164l76 396q-74 4 -136.5 28.5t-106.5 67.5t-69.5 101.5 t-25.5 127.5z" />
<glyph unicode="&#x3c9;" horiz-adv-x="1509" d="M92 334q0 139 30 261t88 214t143 148.5t196 64.5v-150q-72 -6 -127 -51t-92 -117.5t-55.5 -163.5t-18.5 -188q0 -94 42 -149.5t130 -55.5q115 0 168 69t76 183l73 379h164l-73 -379q-6 -37 -7 -67q0 -88 50.5 -135t146.5 -47q63 0 113.5 38.5t85.5 106t53 159t18 193.5 q0 92 -34.5 145.5t-112.5 71.5l45 150q143 -37 204.5 -119t61.5 -225q0 -135 -25.5 -259t-82 -217.5t-145.5 -148.5t-216 -55q-94 0 -166.5 36.5t-113.5 114.5q-59 -72 -137 -111.5t-173 -39.5q-82 0 -140 26.5t-96 72.5t-55.5 108.5t-17.5 136.5z" />
<glyph unicode="&#x3ca;" horiz-adv-x="477" d="M98 227l154 785h164l-152 -776q-10 -47 2.5 -68t67.5 -25l-31 -143q-16 -2 -23.5 -2h-17.5q-121 0 -153.5 57.5t-10.5 171.5zM98 1223l35 180h176l-35 -180h-176zM459 1223l35 180h178l-35 -180h-178z" />
<glyph unicode="&#x3cb;" horiz-adv-x="1060" d="M119 295q0 18 2 38.5t6 41.5l125 639h164l-119 -608q-6 -31 -6 -62q0 -90 51 -142t137 -52q117 0 187.5 69.5t93.5 186.5l119 608h163l-129 -660q-33 -164 -145.5 -265t-288.5 -101q-78 0 -144.5 20.5t-114.5 60.5t-74.5 97t-26.5 129zM401 1223l35 180h176l-34 -180 h-177zM762 1223l35 180h178l-35 -180h-178z" />
<glyph unicode="&#x3cc;" horiz-adv-x="1013" d="M86 336q0 135 30.5 260t92 220t156 151.5t223.5 56.5q164 0 261 -97.5t97 -260.5q0 -117 -24.5 -238t-82 -219t-151.5 -159.5t-231 -61.5q-180 0 -275.5 90t-95.5 258zM250 350q0 -31 8 -67.5t30.5 -68.5t61.5 -53.5t103 -21.5q92 0 153.5 47t100 122t55 166t16.5 181 q0 113 -58.5 166t-150.5 53t-153.5 -53t-98 -132t-52 -171t-15.5 -168zM559 1169l219 363l156 -51l-272 -353z" />
<glyph unicode="&#x3cd;" horiz-adv-x="1060" d="M119 295q0 18 2 38.5t6 41.5l125 639h164l-119 -608q-6 -31 -6 -62q0 -90 51 -142t137 -52q117 0 187.5 69.5t93.5 186.5l119 608h163l-129 -660q-33 -164 -145.5 -265t-288.5 -101q-78 0 -144.5 20.5t-114.5 60.5t-74.5 97t-26.5 129zM539 1169l219 363l155 -51 l-272 -353z" />
<glyph unicode="&#x3ce;" horiz-adv-x="1509" d="M92 334q0 139 30 261t88 214t143 148.5t196 64.5v-150q-72 -6 -127 -51t-92 -117.5t-55.5 -163.5t-18.5 -188q0 -94 42 -149.5t130 -55.5q115 0 168 69t76 183l73 379h164l-73 -379q-6 -37 -7 -67q0 -88 50.5 -135t146.5 -47q63 0 113.5 38.5t85.5 106t53 159t18 193.5 q0 92 -34.5 145.5t-112.5 71.5l45 150q143 -37 204.5 -119t61.5 -225q0 -135 -25.5 -259t-82 -217.5t-145.5 -148.5t-216 -55q-94 0 -166.5 36.5t-113.5 114.5q-59 -72 -137 -111.5t-173 -39.5q-82 0 -140 26.5t-96 72.5t-55.5 108.5t-17.5 136.5zM780 1169l219 363l156 -51 l-272 -353z" />
<glyph unicode="&#x401;" horiz-adv-x="1089" d="M70 0l278 1425h862l-32 -165h-686l-89 -461h603l-31 -158h-602l-94 -475h747l-31 -166h-925zM545 1536l35 180h180l-35 -180h-180zM913 1536l35 180h180l-34 -180h-181z" />
<glyph unicode="&#x402;" horiz-adv-x="1380" d="M125 1268l31 155h1058l-30 -155h-508l-88 -461h4q80 80 180 118t186 38q72 0 133.5 -19.5t107.5 -61.5t71.5 -106.5t25.5 -152.5q0 -127 -30.5 -244t-98 -207t-175 -143.5t-261.5 -53.5q-23 0 -43 1t-43 4l27 145q12 0 24.5 -1t22.5 -1q86 0 159.5 27.5t126 84t82 143.5 t29.5 204q0 111 -56 170t-171 59q-143 0 -241.5 -96.5t-137.5 -296.5l-80 -418h-178l246 1268h-373z" />
<glyph unicode="&#x403;" horiz-adv-x="1052" d="M70 0l278 1425h883l-33 -165h-706l-244 -1260h-178zM643 1597l352 250l97 -125l-390 -211z" />
<glyph unicode="&#x404;" horiz-adv-x="1089" d="M113 412q0 61 12 123l76 389q20 106 64 199.5t115 163t168 109.5t224 40q174 0 284.5 -83t155.5 -218l-178 -76q-10 43 -36.5 81t-64.5 64.5t-84 42t-93 15.5q-92 0 -158 -31t-111 -81t-70.5 -115.5t-39.5 -133.5l-21 -102h478l-31 -158h-477l-21 -111q-4 -25 -6 -48 t-2 -46q0 -117 63.5 -196.5t202.5 -79.5q111 0 207 58t150 155l167 -82q-84 -152 -225 -227.5t-315 -75.5q-109 0 -191 33.5t-136 91t-80.5 134.5t-26.5 165z" />
<glyph unicode="&#x405;" horiz-adv-x="1093" d="M6 168l117 129q68 -63 164 -100t207 -37q70 0 134 15t114.5 47t80 80t29.5 112q0 51 -21.5 89t-57.5 64.5t-80 44t-89 29.5q-68 16 -137.5 40t-124.5 62.5t-91 98t-36 147.5q0 100 36 182t102.5 141.5t160.5 92.5t209 33q117 0 225.5 -32t188.5 -89l-107 -150 q-66 47 -150.5 73t-177.5 26q-47 0 -101 -13.5t-100 -42t-77 -74.5t-31 -114q0 -51 26.5 -87t63.5 -59.5t76 -37t62 -19.5q78 -20 153.5 -48t136 -72t98.5 -109.5t38 -161.5q0 -109 -46.5 -191.5t-123 -138t-177 -83t-211.5 -27.5q-145 0 -272 46t-211 134z" />
<glyph unicode="&#x406;" horiz-adv-x="483" d="M70 0l278 1425h176l-276 -1425h-178z" />
<glyph unicode="&#x407;" horiz-adv-x="493" d="M70 0l278 1425h176l-276 -1425h-178zM188 1536l35 180h180l-34 -180h-181zM557 1536l35 180h180l-35 -180h-180z" />
<glyph unicode="&#x408;" horiz-adv-x="937" d="M-6 135l125 119q41 -47 96 -74.5t107 -27.5q57 0 105 13t88 49t70.5 98.5t49.5 160.5l184 952h176l-192 -991q-25 -133 -69 -219t-104.5 -136t-137 -70.5t-168.5 -20.5q-104 0 -195.5 41t-134.5 106z" />
<glyph unicode="&#x409;" horiz-adv-x="1857" d="M-31 125q63 23 122 52.5t107 85.5t87 146.5t67 231.5l152 784h719l-119 -616h332q80 0 151.5 -23.5t123.5 -68.5t83 -111.5t31 -150.5q0 -98 -39 -181.5t-105.5 -144.5t-153.5 -95t-181 -34h-576l246 1268h-367l-123 -637q-33 -170 -86 -288t-120.5 -194.5t-148.5 -117.5 t-169 -58zM979 166h346q63 0 120.5 16.5t100.5 50t68.5 84.5t25.5 119q0 106 -64.5 160.5t-168.5 54.5h-334z" />
<glyph unicode="&#x40a;" horiz-adv-x="1880" d="M70 0l278 1425h176l-118 -614h544l121 614h174l-119 -616h332q80 0 151.5 -23.5t124 -68.5t83 -111.5t30.5 -150.5q0 -98 -39 -181.5t-105.5 -144.5t-153.5 -95t-181 -34h-573l125 653h-545l-127 -653h-178zM1001 166h347q63 0 120.5 16.5t100.5 50t68.5 84.5t25.5 119 q0 106 -64.5 160.5t-168.5 54.5h-334z" />
<glyph unicode="&#x40b;" horiz-adv-x="1468" d="M143 1268l31 157h1075l-30 -157h-502l-92 -469h6q41 43 90 73.5t99 50t98.5 30t89.5 10.5q164 0 247.5 -81t83.5 -218q0 -23 -3 -46.5t-7 -50.5l-108 -567h-174l96 506q12 61 12 115q0 84 -47 137t-172 53q-61 0 -121.5 -25.5t-113 -72.5t-90.5 -111.5t-52 -142.5 l-88 -459h-176l246 1268h-398z" />
<glyph unicode="&#x40c;" horiz-adv-x="1171" d="M61 0l275 1421h178l-119 -618h221q33 0 71 6t77 27.5t77 63.5t74 112l207 409h187l-209 -415q-53 -104 -117.5 -175t-136.5 -94q84 -29 118.5 -102.5t45.5 -177.5l47 -457h-180l-41 428q-6 72 -27 115t-49.5 66.5t-65.5 31.5t-78 8h-251l-125 -649h-179zM659 1597 l353 250l96 -125l-389 -211z" />
<glyph unicode="&#x40e;" horiz-adv-x="1142" d="M145 -23l33 162h51q51 0 105.5 22.5t101.5 94.5l27 47l-201 1120h184l82 -516l66 -391h8l213 393l279 518h190l-663 -1187q-47 -82 -95.5 -133.5t-97.5 -80t-97 -39t-98 -10.5h-88zM539 1782h147q-10 -53 19.5 -91t95.5 -38q41 0 71.5 12t51 31.5t33 42t16.5 43.5h153 q-8 -45 -31.5 -92.5t-64.5 -85t-102.5 -62t-145.5 -24.5q-80 0 -130 26.5t-77.5 65.5t-35 85t-0.5 87z" />
<glyph unicode="&#x40f;" horiz-adv-x="1275" d="M70 0l272 1425h176l-242 -1259h619l242 1259h176l-271 -1425h-389l-61 -309h-193l62 309h-391z" />
<glyph unicode="&#x410;" horiz-adv-x="1200" d="M-74 0l789 1425h157l234 -1425h-184l-50 328h-579l-176 -328h-191zM373 483h481l-57 400l-41 323h-4l-162 -315z" />
<glyph unicode="&#x411;" horiz-adv-x="1214" d="M70 0l278 1425h782l-32 -165h-602l-86 -451h327q82 0 153 -23.5t124 -68.5t83.5 -111.5t30.5 -150.5q0 -98 -39.5 -181.5t-105 -144.5t-154 -95t-182.5 -34h-577zM281 166h346q63 0 120.5 16.5t100.5 50t68.5 84.5t25.5 119q0 106 -64.5 160.5t-168.5 54.5h-334z" />
<glyph unicode="&#x412;" horiz-adv-x="1200" d="M70 0l278 1425h488q80 0 149.5 -17t120.5 -56t81 -99.5t30 -148.5q0 -141 -75 -237.5t-210 -133.5l-2 -6q96 -33 147 -105.5t51 -172.5q0 -94 -37.5 -176.5t-100 -142.5t-146.5 -95t-176 -35h-598zM279 166h360q61 0 117.5 21.5t99.5 59.5t68.5 91t25.5 117 q0 96 -63.5 146t-153.5 50h-358zM403 807h330q59 0 114.5 18.5t97.5 54t67.5 86t25.5 113.5q0 49 -20.5 85t-53 59.5t-75.5 34t-86 10.5h-309z" />
<glyph unicode="&#x413;" horiz-adv-x="1052" d="M70 0l278 1425h883l-33 -165h-706l-244 -1260h-178z" />
<glyph unicode="&#x414;" horiz-adv-x="1421" d="M-98 -305l82 440l114 25q66 39 110 93t76.5 132t60.5 185.5t63 254.5l135 600h893l-246 -1267h127l-88 -463h-172l59 305h-983l-59 -305h-172zM330 158h680l217 1110h-553l-99 -434q-29 -123 -54 -225.5t-53 -186.5t-60.5 -149.5t-77.5 -114.5z" />
<glyph unicode="&#x415;" horiz-adv-x="1089" d="M70 0l278 1425h862l-32 -165h-686l-89 -461h603l-31 -158h-602l-94 -475h747l-31 -166h-925z" />
<glyph unicode="&#x416;" horiz-adv-x="1794" d="M-41 0l215 457q51 104 112.5 178t153.5 102q-59 23 -98 93.5t-49 175.5l-47 415h172l53 -409q6 -72 28.5 -113t52.5 -62.5t64.5 -27.5t67.5 -6h195l114 624h176l-114 -624h194q33 0 70 6t76 27.5t75.5 62.5t69.5 113l203 409h174l-203 -415q-49 -104 -112.5 -175 t-133.5 -94q80 -29 114 -102.5t44 -177.5l49 -457h-188l-41 428q-8 70 -28.5 114t-48.5 67.5t-63.5 31.5t-74.5 8h-205l-121 -649h-176l121 649h-205q-41 0 -79 -8t-74.5 -31.5t-72.5 -67.5t-71 -114l-201 -428h-188z" />
<glyph unicode="&#x417;" horiz-adv-x="1089" d="M-2 266l160 78q35 -94 124 -140t207 -46q70 0 130.5 23.5t104.5 65.5t68.5 100.5t24.5 129.5q0 88 -54 144.5t-161 56.5h-176l31 160h159q61 0 112.5 18t87.5 50t55.5 75t19.5 90q0 84 -64.5 133t-189.5 49q-98 0 -187.5 -32.5t-154.5 -120.5l-131 104q96 135 222 182.5 t278 47.5q104 0 184 -27t133 -72t79.5 -104.5t26.5 -124.5q0 -49 -10 -99.5t-37.5 -96.5t-73.5 -85t-118 -63l2 -10q49 -20 80 -52t49 -70t25.5 -78t7.5 -77q0 -100 -38 -188t-107.5 -154.5t-166 -104.5t-215.5 -38q-84 0 -159.5 14t-139 47t-112.5 85t-76 130z" />
<glyph unicode="&#x418;" horiz-adv-x="1325" d="M72 0l278 1425h174l-211 -1089l6 -4l285 338l641 755h154l-277 -1425h-176l213 1087l-4 3l-248 -306l-661 -784h-174z" />
<glyph unicode="&#x419;" horiz-adv-x="1351" d="M72 0l278 1425h174l-211 -1089l6 -4l285 338l641 755h154l-277 -1425h-176l213 1087l-4 3l-248 -306l-661 -784h-174zM641 1782h147q-10 -53 20 -91t95 -38q41 0 72 12t51.5 31.5t32.5 42t16 43.5h154q-8 -45 -31.5 -92.5t-64.5 -85t-102.5 -62t-145.5 -24.5 q-80 0 -130 26.5t-78 65.5t-35 85t-1 87z" />
<glyph unicode="&#x41a;" horiz-adv-x="1171" d="M61 0l275 1421h178l-119 -618h221q33 0 71 6t77 27.5t77 63.5t74 112l207 409h187l-209 -415q-53 -104 -117.5 -175t-136.5 -94q84 -29 118.5 -102.5t45.5 -177.5l47 -457h-180l-41 428q-6 72 -27 115t-49.5 66.5t-65.5 31.5t-78 8h-251l-125 -649h-179z" />
<glyph unicode="&#x41b;" horiz-adv-x="1306" d="M-49 125q63 23 117.5 47.5t100.5 72.5t82 131t62 224l162 825h866l-276 -1425h-178l246 1268h-517l-133 -678q-33 -170 -82 -280.5t-111.5 -179.5t-139 -102.5t-164.5 -50.5z" />
<glyph unicode="&#x41c;" horiz-adv-x="1501" d="M70 0l278 1425h176l166 -665l74 -332h6l201 330l422 667h174l-279 -1425h-176l199 1012h-8l-160 -269l-344 -532h-156l-137 549l-55 252h-7l-196 -1012h-178z" />
<glyph unicode="&#x41d;" horiz-adv-x="1275" d="M70 0l278 1425h176l-121 -626h617l123 626h176l-277 -1425h-176l123 641h-616l-125 -641h-178z" />
<glyph unicode="&#x41e;" horiz-adv-x="1185" d="M94 410q0 49 9.5 113.5t22.5 133t29.5 137t28.5 126.5q25 109 67 203t109.5 163.5t163 109.5t226.5 40q100 0 184 -31t144.5 -86t94 -132t33.5 -169q0 -49 -9 -110.5t-21.5 -128t-27.5 -134t-28 -129.5q-25 -119 -73 -216t-119.5 -167t-167.5 -107.5t-219 -37.5 q-121 0 -206 32.5t-138.5 90t-78 134.5t-24.5 165zM268.5 383.5q3.5 -68.5 34.5 -120.5t91.5 -84t160.5 -32q82 0 146.5 30t112.5 80t81 119.5t51 149.5q12 55 26.5 117t27 123t20.5 118.5t8 102.5q0 127 -75 207t-216 80q-96 0 -162.5 -34t-112.5 -86t-71.5 -118.5 t-38.5 -130.5l-73 -379q-14 -74 -10.5 -142.5z" />
<glyph unicode="&#x41f;" horiz-adv-x="1275" d="M70 0l278 1425h971l-277 -1425h-176l246 1268h-618l-246 -1268h-178z" />
<glyph unicode="&#x420;" horiz-adv-x="1148" d="M70 0l278 1425h502q86 0 157.5 -22.5t124 -68.5t81 -113.5t28.5 -157.5q0 -109 -42 -199t-112.5 -154.5t-165 -100.5t-198.5 -36h-365l-110 -573h-178zM391 739h346q66 0 124.5 22.5t101.5 62.5t68.5 95t25.5 121q0 111 -66.5 165.5t-171.5 54.5h-327z" />
<glyph unicode="&#x421;" horiz-adv-x="1112" d="M113 412q0 61 12 123l78 389q20 104 63 197t111.5 163t164 111t220.5 41q174 0 289.5 -83t160.5 -218l-172 -76q-10 39 -34.5 78t-59.5 68.5t-82 48t-104 18.5q-90 0 -155.5 -33t-112 -85t-74 -118.5t-39.5 -134.5l-74 -371q-4 -23 -6 -45t-2 -45q0 -57 11 -108t41 -89 t82 -60.5t132 -22.5q111 0 207 58t150 155l167 -82q-84 -152 -225 -227.5t-315 -75.5q-109 0 -191 33.5t-136 91t-80.5 134.5t-26.5 165z" />
<glyph unicode="&#x422;" horiz-adv-x="974" d="M166 1268l31 157h972l-30 -157h-398l-247 -1268h-177l246 1268h-397z" />
<glyph unicode="&#x423;" horiz-adv-x="1120" d="M145 -23l33 162h51q51 0 105.5 22.5t101.5 94.5l27 47l-201 1120h184l82 -516l66 -391h8l213 393l279 518h190l-663 -1187q-47 -82 -95.5 -133.5t-97.5 -80t-97 -39t-98 -10.5h-88z" />
<glyph unicode="&#x424;" horiz-adv-x="1468" d="M133 584q0 166 49 305t140.5 242.5t219.5 164t285 66.5l13 63h174l-13 -63q236 -8 349.5 -134t113.5 -337q0 -160 -43 -298t-130 -242.5t-220 -168t-313 -71.5l-21 -111h-174l21 111q-123 12 -209 53t-140.5 102.5t-78 142t-23.5 175.5zM297 602q0 -68 16.5 -127t53 -105 t97 -76t148.5 -36l187 954q-121 -10 -215.5 -59t-158 -130t-96 -188.5t-32.5 -232.5zM786 258q131 0 227.5 55.5t159 144.5t92 202.5t29.5 234.5q0 66 -16 121t-54 95t-99.5 65.5t-151.5 33.5z" />
<glyph unicode="&#x425;" horiz-adv-x="1050" d="M-74 0l572 731l-267 694h187l192 -555l412 555h197l-537 -694l289 -731h-189l-215 592l-444 -592h-197z" />
<glyph unicode="&#x426;" horiz-adv-x="1325" d="M70 0l272 1425h176l-242 -1259h619l242 1259h176l-240 -1263h148l-86 -467h-172l55 305h-948z" />
<glyph unicode="&#x427;" horiz-adv-x="1181" d="M164 860q0 25 2 50.5t8 54.5l90 460h174l-82 -421q-10 -57 -10 -97q0 -109 55.5 -160t192.5 -51q86 0 186.5 33t177.5 92l119 604h178l-278 -1425h-176l125 635h-4q-53 -39 -109.5 -61.5t-107 -35t-94.5 -15.5t-72 -3q-74 0 -142.5 20.5t-120 62.5t-82 105.5t-30.5 151.5 z" />
<glyph unicode="&#x428;" horiz-adv-x="1802" d="M55 0l277 1425h176l-244 -1259h496l244 1259h176l-244 -1259h500l243 1259h179l-279 -1425h-1524z" />
<glyph unicode="&#x429;" horiz-adv-x="1861" d="M55 0l271 1425h176l-240 -1259h496l239 1259h177l-240 -1259h500l241 1259h176l-241 -1263h149l-90 -467h-172l59 305h-1501z" />
<glyph unicode="&#x42a;" horiz-adv-x="1445" d="M174 1260l33 165h614l-121 -616h334q80 0 151.5 -23.5t124 -68.5t83 -111.5t30.5 -150.5q0 -98 -38.5 -181.5t-105.5 -144.5t-154 -95t-181 -34h-573l243 1260h-440zM575 166h349q63 0 119.5 16.5t99.5 50t68.5 84.5t25.5 119q0 106 -63.5 160.5t-167.5 54.5h-336z" />
<glyph unicode="&#x42b;" horiz-adv-x="1560" d="M72 0l276 1425h174l-119 -616h332q82 0 152.5 -23.5t124 -68.5t84 -111.5t30.5 -150.5q0 -98 -39.5 -181.5t-105.5 -144.5t-154 -95t-182 -34h-573zM279 166h346q63 0 120.5 16.5t100.5 50t68.5 84.5t25.5 119q0 106 -64.5 160.5t-168.5 54.5h-334zM1182 0l276 1425h176 l-276 -1425h-176z" />
<glyph unicode="&#x42c;" horiz-adv-x="1148" d="M72 0l276 1425h174l-119 -616h332q82 0 152.5 -23.5t124 -68.5t84 -111.5t30.5 -150.5q0 -98 -39.5 -181.5t-105.5 -144.5t-154 -95t-182 -34h-573zM279 166h346q63 0 120.5 16.5t100.5 50t68.5 84.5t25.5 119q0 106 -64.5 160.5t-168.5 54.5h-334z" />
<glyph unicode="&#x42d;" horiz-adv-x="1089" d="M14 295l179 76q23 -104 98.5 -154.5t179.5 -50.5q94 0 160.5 30.5t113 82t73 117t40.5 132.5l25 123h-484l31 158h483l17 102q10 68 2 132.5t-39 114.5t-87 81t-142 31q-125 0 -200 -58.5t-128 -154.5l-158 82q88 162 208 232.5t294 70.5q135 0 226 -47t143.5 -124 t65.5 -176.5t-7 -203.5l-76 -385q-20 -104 -62 -197.5t-109.5 -163t-163 -110.5t-222.5 -41q-174 0 -295 83t-166 218z" />
<glyph unicode="&#x42e;" horiz-adv-x="1497" d="M47 0l277 1425h176l-121 -626h188l25 116q23 102 61.5 196.5t102 166.5t156 115t221.5 43q113 0 194.5 -36t135 -96.5t80 -140.5t26.5 -170q0 -27 -2 -53.5t-6 -52.5q-10 -72 -19.5 -121t-19 -89t-18.5 -78t-17 -83q-25 -119 -67 -216t-107.5 -167t-157.5 -107.5 t-217 -37.5q-109 0 -190.5 32.5t-136 90t-81 134.5t-26.5 165q0 47 8 106t20 125h-184l-125 -641h-176zM678 438q-2 -59 10 -112.5t43 -93t82 -62.5t129 -23q88 0 150.5 30t105.5 80t69.5 119.5t45.5 149.5q12 55 26.5 117t26.5 123t20.5 118.5t8.5 102.5q0 127 -65 207 t-206 80q-94 0 -157.5 -34t-105.5 -86t-65.5 -118.5t-35.5 -130.5l-74 -379q-4 -23 -6 -44t-2 -44z" />
<glyph unicode="&#x42f;" horiz-adv-x="1232" d="M-4 0l174 412q47 109 100.5 178t143.5 94q-55 25 -90 58.5t-54.5 71.5t-28 80t-8.5 83q0 100 34 183t96.5 142.5t149.5 91t194 31.5h569l-277 -1425h-178l121 631h-252q-41 0 -87 -10.5t-91 -37t-86 -72.5t-72 -120l-166 -391h-192zM412 989q0 -106 68.5 -155.5 t178.5 -49.5h314l94 484h-352q-135 0 -219 -69t-84 -210z" />
<glyph unicode="&#x430;" horiz-adv-x="1013" d="M90 342q0 106 27.5 227t86 222.5t148.5 168t215 66.5q74 0 144.5 -29.5t103.5 -95.5l6 2l27 111h158l-197 -1014h-164l23 111l-6 4q-61 -70 -123 -98.5t-150 -28.5q-80 0 -136 26.5t-92 74.5t-53.5 112.5t-17.5 140.5zM256 338q0 -33 7 -69t27.5 -66.5t54.5 -51t89 -20.5 q92 0 154.5 55.5t102.5 136t57.5 172t17.5 162.5q0 94 -40 155.5t-142 61.5q-96 0 -160 -55t-100.5 -137t-52 -175t-15.5 -169z" />
<glyph unicode="&#x431;" horiz-adv-x="1036" d="M96 342q0 35 3 78t7 90q6 61 17.5 135t28 151.5t39 157.5t51.5 152q57 145 135 221t169 111t194.5 42t215.5 15l13 -139q-82 -12 -170 -16.5t-168 -30t-146.5 -87t-107.5 -186.5q-14 -45 -26.5 -87t-28.5 -113l8 -5q25 33 61.5 60t76.5 44t82 26.5t77 9.5q98 0 160.5 -29 t98.5 -77t50 -111.5t14 -130.5q0 -111 -26.5 -224.5t-85 -206t-153.5 -149.5t-232 -57q-176 0 -266.5 89t-90.5 267zM264 342q0 -84 48 -145.5t151 -61.5q86 0 146.5 44t98 112.5t54 150.5t16.5 160q0 92 -43 153.5t-149 61.5q-94 0 -156.5 -50t-99.5 -124t-51.5 -155.5 t-14.5 -145.5z" />
<glyph unicode="&#x432;" horiz-adv-x="1032" d="M78 287q0 31 2 62.5t10 64.5l57 270q14 63 47 124.5t88.5 110t132.5 77t177 28.5q92 0 158.5 -23.5t107.5 -59.5t60.5 -78t19.5 -81q0 -68 -38 -129t-97 -84q74 -20 110.5 -72.5t40.5 -117.5q-2 -72 -35.5 -141.5t-97 -126t-157 -91t-211.5 -34.5q-63 0 -130 14 t-121.5 50t-89 93.5t-34.5 143.5zM242 332q0 -51 17 -87t46 -59.5t66 -34t78 -10.5q82 0 143 23.5t102 58.5t62.5 75t21.5 71q0 53 -39 86.5t-131 33.5h-137l29 148h108q72 0 108 36t36 77q0 45 -41.5 82.5t-137.5 37.5q-72 0 -121 -24.5t-79.5 -59t-46 -72.5t-21.5 -65 l-57 -270q-6 -25 -6 -47z" />
<glyph unicode="&#x433;" horiz-adv-x="950" d="M51 254q0 86 38 142.5t98.5 94t135 61t146.5 42.5q55 14 104.5 28.5t87 34t60 44t22.5 61.5q0 33 -15 53.5t-38.5 31.5t-53.5 15t-58 4q-92 0 -174 -28.5t-152 -81.5l-92 129q86 66 191.5 102.5t209.5 40.5q63 0 127 -11t115 -40t83 -78t32 -127q0 -82 -36 -136 t-91.5 -90t-121 -57.5t-124.5 -39.5q-47 -14 -102.5 -25.5t-103.5 -30t-81 -47.5t-33 -74q0 -66 59.5 -96.5t159.5 -30.5q31 0 73 7.5t86 19.5t86 30.5t77 43.5l86 -135q-96 -66 -198.5 -95.5t-237.5 -29.5q-68 0 -133.5 13t-116.5 45t-83 83t-32 127z" />
<glyph unicode="&#x434;" horiz-adv-x="1026" d="M92 340q0 104 27.5 216t86 206t147.5 154.5t214 60.5q66 0 142.5 -31t117.5 -104l11 4q4 41 7 74.5t3 68.5q0 72 -13.5 130.5t-44 100.5t-82 65.5t-128.5 27.5q-51 0 -111.5 -13.5t-114.5 -37.5l-49 139q146 59 289 59q88 0 162.5 -24.5t128 -81t84 -147.5t30.5 -224 q0 -70 -7 -170t-27.5 -210.5t-58.5 -221.5t-98 -198t-147.5 -142t-205.5 -55q-104 0 -174 32.5t-112 83t-59.5 114t-17.5 124.5zM254 358q0 -41 9 -79.5t32.5 -70.5t63.5 -51.5t102 -19.5q90 0 150.5 50.5t96 123t51 154.5t15.5 145q0 92 -51.5 150.5t-149.5 58.5 q-96 0 -158.5 -53t-98 -127t-49 -151.5t-13.5 -129.5z" />
<glyph unicode="&#x435;" horiz-adv-x="962" d="M84 356q0 115 27.5 234t88 216t156 158.5t228.5 61.5q166 0 258 -73.5t92 -202.5q0 -63 -25.5 -125t-93 -109t-182.5 -76.5t-293 -29.5h-44.5t-45.5 2q-4 -23 -4 -36.5v-21.5q0 -117 50 -164t150 -47q31 0 67 8.5t73 21.5t69.5 30.5t57.5 34.5l82 -121 q-76 -61 -175.5 -95t-197.5 -34q-174 0 -256 94t-82 274zM276 559q25 -2 46.5 -2h44.5q131 0 209.5 18.5t121.5 45t56.5 57.5t13.5 53q0 66 -49.5 101.5t-145.5 35.5q-72 0 -123 -26.5t-85.5 -69.5t-55 -98.5t-33.5 -114.5z" />
<glyph unicode="&#x436;" horiz-adv-x="1861" d="M-49 72l94 135q41 -29 87 -47.5t91 -18.5q72 0 134.5 35t107.5 99.5t70.5 155.5t25.5 202q0 92 -41 159.5t-129 67.5q-102 0 -190 -43l-43 139q55 29 122.5 47.5t143.5 18.5q55 0 108.5 -18.5t95.5 -59.5t67.5 -105.5t25.5 -156.5q0 -14 -2 -48t-6 -71l6 -2 q72 100 135.5 217t128.5 234h135l-135 -674l6 -4q27 47 60.5 105.5t74.5 129.5q41 72 73 121t52 78q88 123 187.5 190.5t216.5 67.5q66 0 131 -16.5t131 -69.5l-90 -127q-41 29 -90 47.5t-95 18.5q-63 0 -122.5 -35t-104.5 -102.5t-71.5 -168t-26.5 -231.5q0 -41 10 -78 t33.5 -64.5t61.5 -44t91 -16.5q43 0 105.5 19.5t105.5 54.5l70 -121q-55 -47 -138 -74.5t-175 -27.5q-55 0 -112.5 17.5t-103.5 56t-76 102t-30 156.5l4 88h-4q-61 -94 -122.5 -206t-110.5 -204h-148l133 666l-6 4q-37 -66 -69.5 -119t-63.5 -101.5t-62.5 -93.5t-66.5 -94 q-41 -55 -83 -105.5t-92 -88t-114.5 -60t-146.5 -22.5q-66 0 -127.5 20.5t-126.5 65.5z" />
<glyph unicode="&#x437;" horiz-adv-x="919" d="M-6 123l112 117q33 -35 101.5 -65t154.5 -30q72 0 120 15.5t78 41t43 60.5t13 74q0 66 -52 96.5t-124 30.5h-121l27 137h121q92 0 148.5 38t56.5 110q0 33 -15.5 56t-41 37.5t-58.5 20.5t-70 6q-68 0 -133 -17t-118 -60l-93 122q78 61 173.5 88t195.5 27 q88 0 151.5 -19.5t104.5 -53t60.5 -77.5t19.5 -96q0 -29 -8.5 -63.5t-30 -69.5t-57 -65.5t-88.5 -48.5q78 -31 107.5 -89.5t29.5 -111.5q0 -61 -25.5 -124t-78 -112t-132.5 -79.5t-186 -30.5q-123 0 -223.5 29.5t-161.5 105.5z" />
<glyph unicode="&#x438;" horiz-adv-x="1060" d="M114.5 188.5q-12.5 65.5 4.5 149.5l131 676h164l-117 -608q-12 -59 -12 -106.5t19.5 -81.5t60.5 -52.5t112 -18.5q49 0 94 18.5t82 52.5t63.5 81t39.5 107l118 608h164l-196 -1014h-166l22 115h-6q-61 -66 -140 -96.5t-157 -30.5q-76 0 -134 22.5t-96 67.5t-50.5 110.5z " />
<glyph unicode="&#x439;" horiz-adv-x="1060" d="M114.5 188.5q-12.5 65.5 4.5 149.5l131 676h164l-117 -608q-12 -59 -12 -106.5t19.5 -81.5t60.5 -52.5t112 -18.5q49 0 94 18.5t82 52.5t63.5 81t39.5 107l118 608h164l-196 -1014h-166l22 115h-6q-61 -66 -140 -96.5t-157 -30.5q-76 0 -134 22.5t-96 67.5t-50.5 110.5z M432 1448h150q-10 -53 19.5 -91t94.5 -38q33 0 62.5 12t54.5 31.5t40 42t19 43.5h148q-10 -45 -33.5 -92t-64.5 -85t-101.5 -62.5t-144.5 -24.5q-80 0 -130 26.5t-78 65.5t-35 85t-1 87z" />
<glyph unicode="&#x43a;" horiz-adv-x="968" d="M35 0l198 1016h170l-86 -441h142q29 0 58.5 4.5t58 19.5t55 45t51.5 79l147 293h183l-150 -295q-37 -74 -82 -124t-104 -67q68 -16 90 -70t31 -130l34 -330h-163l-25 281q-14 98 -55 127.5t-111 29.5h-186l-86 -438h-170z" />
<glyph unicode="&#x43b;" horiz-adv-x="1054" d="M-51 113q57 20 102 43.5t81 68.5t64.5 123t53.5 205l90 463h690l-196 -1016h-168l168 868h-363l-63 -325q-31 -158 -71 -261.5t-91 -167t-115.5 -95t-144.5 -46.5z" />
<glyph unicode="&#x43c;" horiz-adv-x="1204" d="M37 0l196 1014h148l143 -479l62 -203l139 203l326 479h168l-197 -1014h-166l123 653q-23 -35 -43.5 -66.5t-42.5 -64.5l-266 -377h-138l-122 387l-37 123l-127 -655h-166z" />
<glyph unicode="&#x43d;" horiz-adv-x="1024" d="M35 0l196 1014h166l-84 -434h461l84 434h164l-197 -1014h-163l86 444h-461l-86 -444h-166z" />
<glyph unicode="&#x43e;" horiz-adv-x="1013" d="M86 336q0 135 30.5 260t92 220t156 151.5t223.5 56.5q164 0 261 -97.5t97 -260.5q0 -117 -24.5 -238t-82 -219t-151.5 -159.5t-231 -61.5q-180 0 -275.5 90t-95.5 258zM250 350q0 -31 8 -67.5t30.5 -68.5t61.5 -53.5t103 -21.5q92 0 153.5 47t100 122t55 166t16.5 181 q0 113 -58.5 166t-150.5 53t-153.5 -53t-98 -132t-52 -171t-15.5 -168z" />
<glyph unicode="&#x43f;" horiz-adv-x="1052" d="M49 0l197 1014h166l-23 -121h6q61 66 148.5 99.5t167.5 33.5q70 0 124 -23.5t90 -67.5t48 -109.5t-4 -149.5l-131 -676h-166l119 608q10 49 11 96.5t-15.5 84t-55.5 58t-106 21.5q-49 0 -96.5 -19.5t-87.5 -54t-68.5 -82.5t-38.5 -104l-119 -608h-166z" />
<glyph unicode="&#x440;" horiz-adv-x="1026" d="M-27 -412l279 1426h164l-23 -111l6 -2q59 59 134 92t161 33q78 0 130.5 -27.5t84 -73.5t45 -107.5t13.5 -129.5q0 -111 -26 -233.5t-83 -227t-150.5 -172t-226.5 -67.5q-78 0 -140 30.5t-97 96.5l-4 -2l-101 -525h-166zM303 379q0 -43 8 -84t28.5 -71.5t54.5 -49 t83 -18.5q92 0 152.5 50t97.5 125t51.5 162t14.5 160q0 92 -39 149.5t-140 57.5q-84 0 -143 -49t-96 -123t-54.5 -157.5t-17.5 -151.5z" />
<glyph unicode="&#x441;" horiz-adv-x="864" d="M61 377q0 131 34 248.5t100.5 207t167 141.5t235.5 52q90 0 176 -35t144 -106l-123 -119q-39 45 -92.5 72.5t-114.5 27.5q-94 0 -162 -43t-111 -109.5t-63.5 -147.5t-20.5 -158q0 -57 10.5 -103.5t35 -80.5t65.5 -52t104 -18q74 0 139.5 33.5t108.5 64.5l99 -125 q-76 -66 -179.5 -102.5t-203.5 -36.5q-88 0 -154 29.5t-109 82t-64.5 123t-21.5 154.5z" />
<glyph unicode="&#x442;" horiz-adv-x="1699" d="M66 0l196 1014h166l-22 -119h4q61 66 142 98.5t159 32.5q102 0 164.5 -39t103.5 -106q0 2 2 0q86 86 171 115.5t183 29.5q72 0 129.5 -26.5t94 -76t51 -118t-1.5 -152.5l-131 -653h-164l119 608q23 117 -9 184.5t-151 67.5q-49 0 -98.5 -17.5t-90.5 -50t-69.5 -79.5 t-40.5 -105l-117 -608h-168l119 608q23 117 -15 185.5t-165 68.5q-100 0 -177 -68.5t-100 -185.5l-119 -608h-165z" />
<glyph unicode="&#x443;" horiz-adv-x="845" d="M-111 -274q106 10 198.5 59t178.5 168l-166 1061h176l60 -463q12 -92 25.5 -212t13.5 -237h6q121 213 213 451t170 461h170q-117 -324 -232.5 -587t-238.5 -464q-47 -74 -100.5 -140.5t-121 -118.5t-153.5 -85t-194 -37z" />
<glyph unicode="&#x444;" horiz-adv-x="1226" d="M82 371q0 135 35 253.5t104.5 209t175 142.5t246.5 54l90 459h168l-90 -461q164 -16 258 -113.5t94 -263.5q0 -147 -32.5 -269t-101 -211t-174 -138t-249.5 -49l-74 -392h-167l71 392q-90 8 -156.5 40.5t-110.5 84t-65.5 118t-21.5 144.5zM248 371q0 -96 53 -155.5 t166 -74.5l145 725q-102 0 -171.5 -44t-112.5 -114.5t-61.5 -159.5t-18.5 -177zM637 141q160 4 257 125t97 363q0 47 -10 88t-34.5 72.5t-65.5 51t-101 25.5z" />
<glyph unicode="&#x445;" horiz-adv-x="929" d="M-78 0l443 522q-53 121 -111.5 247t-114.5 247h187l145 -377l291 377h205l-424 -500q55 -123 118.5 -258t118.5 -258h-190l-156 391l-307 -391h-205z" />
<glyph unicode="&#x446;" horiz-adv-x="1064" d="M109 250q0 41 10 88l131 676h164l-117 -608q-10 -47 -10 -91q0 -172 180 -172q51 0 97 19.5t84 53.5t64.5 82t39.5 108l116 608h166l-139 -709q-14 -66 5.5 -128t111.5 -120l-90 -354h-156l53 283q-39 20 -68.5 58t-33.5 89h-4q-59 -68 -149.5 -106.5t-168.5 -38.5 q-125 0 -205.5 65.5t-80.5 196.5z" />
<glyph unicode="&#x447;" horiz-adv-x="950" d="M105.5 543.5q-11.5 66.5 7.5 161.5l61 313h164l-59 -303q-23 -115 14 -157t135 -42q43 0 126 23.5t165 78.5l78 400h164l-199 -1018h-164l88 453h-6q-86 -53 -161 -76t-140 -23q-74 0 -131.5 19.5t-94 61.5t-48 108.5z" />
<glyph unicode="&#x448;" horiz-adv-x="1681" d="M110.5 207.5q-14.5 68.5 2.5 152.5l131 654h164l-119 -608q-23 -117 9 -188t151 -71q49 0 98 17.5t89 50.5t69.5 81t42.5 110l116 608h168l-119 -608q-27 -133 12.5 -198t168.5 -65q100 0 177 73t99 190l119 608h166l-197 -1014h-166l23 119h-4q-61 -66 -142.5 -98.5 t-158.5 -32.5q-102 0 -165 36.5t-91 108.5q0 -2 -2 0q-84 -90 -177.5 -117.5t-189.5 -27.5q-72 0 -129 26.5t-94 75.5t-51.5 117.5z" />
<glyph unicode="&#x449;" horiz-adv-x="1681" d="M110.5 207.5q-14.5 68.5 2.5 152.5l131 654h164l-119 -608q-23 -117 9 -188t151 -71q49 0 98 17.5t89 50.5t69.5 81t42.5 110l116 608h168l-119 -608q-27 -133 9 -198t165 -65q51 0 97.5 19.5t84.5 53.5t64.5 82t38.5 108l117 608h166l-139 -709q-14 -66 5 -128t111 -120 l-90 -354h-156l54 283q-39 20 -69 58t-34 89h-4q-59 -68 -149 -106.5t-168 -38.5q-203 0 -262 145q0 -2 -2 0q-84 -90 -177.5 -117.5t-189.5 -27.5q-72 0 -129 26.5t-94 75.5t-51.5 117.5z" />
<glyph unicode="&#x44a;" horiz-adv-x="1150" d="M96 872l29 142h444l-77 -381h266q113 0 180.5 -31t103 -74t47 -90t11.5 -80q0 -68 -28 -135t-85 -119.5t-144 -85t-204 -32.5q-94 0 -170 26.5t-124 79.5t-66.5 132t4.5 182l94 466h-281zM438 371q-20 -104 35 -168t166 -64q80 0 134 21.5t88 53.5t48.5 68.5t14.5 67.5 q0 53 -42 94t-153 41h-268z" />
<glyph unicode="&#x44b;" horiz-adv-x="1366" d="M102.5 224q-18.5 79 3.5 182l121 608h164l-78 -381h265q113 0 180 -31t103 -74t47.5 -90t11.5 -80q0 -68 -28 -135t-84 -119.5t-142 -85t-203 -32.5q-94 0 -170 26.5t-124 79.5t-66.5 132zM262 371q-20 -104 35 -168t166 -64q80 0 134 21.5t86 53.5t46 68.5t14 67.5 q0 53 -42 94t-152 41h-264zM981 0l199 1014h166l-197 -1014h-168z" />
<glyph unicode="&#x44c;" horiz-adv-x="978" d="M102.5 224q-18.5 79 3.5 182l121 608h164l-78 -381h265q113 0 180 -31t103 -74t47.5 -90t11.5 -80q0 -68 -28 -135t-84 -119.5t-142 -85t-203 -32.5q-94 0 -170 26.5t-124 79.5t-66.5 132zM262 371q-20 -104 35 -168t166 -64q80 0 134 21.5t86 53.5t46 68.5t14 67.5 q0 53 -42 94t-152 41h-264z" />
<glyph unicode="&#x44d;" horiz-adv-x="872" d="M-20 131l114 119q16 -23 46 -42.5t64 -32.5t68.5 -20.5t63.5 -7.5q76 0 130 23t91 62.5t59.5 94t34.5 117.5h-387l25 136l387 -2q2 12 3 24t1 25q0 111 -62.5 174t-185.5 63q-55 0 -113.5 -20.5t-101.5 -55.5l-78 140q35 20 69 38.5t70.5 32t78.5 20.5t96 7 q197 0 298 -114.5t101 -317.5q0 -121 -32 -230.5t-95 -192.5t-159.5 -133t-225.5 -50q-45 0 -96 9t-100.5 26.5t-92.5 44t-71 63.5z" />
<glyph unicode="&#x44e;" horiz-adv-x="1308" d="M49 0l197 1014h168l-86 -434h131q49 219 172 331.5t293 112.5q80 0 143 -25.5t108.5 -71.5t69 -109.5t23.5 -141.5q0 -152 -32 -278t-94.5 -217t-153.5 -142t-210 -51q-168 0 -258 88t-90 248q0 27 1 56.5t5 63.5h-133l-88 -444h-166zM590 344q0 -31 8 -66.5t27.5 -66.5 t55.5 -51.5t91 -20.5q96 0 159.5 51.5t101.5 128t53.5 169t15.5 176.5q0 109 -55.5 159.5t-143.5 50.5q-92 0 -152.5 -55t-96.5 -136t-50 -173t-14 -166z" />
<glyph unicode="&#x44f;" horiz-adv-x="997" d="M-20 0l114 274q27 61 71 122t107 79q-70 35 -98.5 89t-28.5 132q0 72 28 130.5t75 100.5t112.5 64.5t141.5 22.5h491l-190 -1014h-168l82 420h-240q-66 -4 -122 -34t-93 -120l-110 -266h-172zM311 684q0 -59 48.5 -94t127.5 -35h256l62 311h-295q-35 0 -69.5 -9 t-63.5 -29.5t-47.5 -56.5t-18.5 -87z" />
<glyph unicode="&#x451;" horiz-adv-x="962" d="M84 356q0 115 27.5 234t88 216t156 158.5t228.5 61.5q166 0 258 -73.5t92 -202.5q0 -63 -25.5 -125t-93 -109t-182.5 -76.5t-293 -29.5h-44.5t-45.5 2q-4 -23 -4 -36.5v-21.5q0 -117 50 -164t150 -47q31 0 67 8.5t73 21.5t69.5 30.5t57.5 34.5l82 -121 q-76 -61 -175.5 -95t-197.5 -34q-174 0 -256 94t-82 274zM276 559q25 -2 46.5 -2h44.5q131 0 209.5 18.5t121.5 45t56.5 57.5t13.5 53q0 66 -49.5 101.5t-145.5 35.5q-72 0 -123 -26.5t-85.5 -69.5t-55 -98.5t-33.5 -114.5zM379 1237l35 180h176l-35 -180h-176zM739 1237 l35 180h178l-34 -180h-179z" />
<glyph unicode="&#x452;" horiz-adv-x="1060" d="M53 0l228 1171h-123l26 136h123l35 180h168l-35 -180h436l-26 -136h-436l-56 -284h6q72 76 150 102.5t162 26.5q63 0 118.5 -22.5t96.5 -68.5t64.5 -116t23.5 -166q0 -131 -31 -251t-96.5 -210t-171 -144t-254.5 -54q-18 0 -28.5 1t-33.5 5l29 149q16 -4 32.5 -4h31.5 q86 0 151.5 39t109.5 102.5t66.5 146.5t22.5 171q0 59 -11.5 108.5t-37 85t-68.5 55t-104 19.5q-37 0 -81 -16.5t-86 -52t-76 -92t-48 -136.5l-109 -565h-168z" />
<glyph unicode="&#x453;" horiz-adv-x="950" d="M51 254q0 86 38 142.5t98.5 94t135 61t146.5 42.5q55 14 104.5 28.5t87 34t60 44t22.5 61.5q0 33 -15 53.5t-38.5 31.5t-53.5 15t-58 4q-92 0 -174 -28.5t-152 -81.5l-92 129q86 66 191.5 102.5t209.5 40.5q63 0 127 -11t115 -40t83 -78t32 -127q0 -82 -36 -136 t-91.5 -90t-121 -57.5t-124.5 -39.5q-47 -14 -102.5 -25.5t-103.5 -30t-81 -47.5t-33 -74q0 -66 59.5 -96.5t159.5 -30.5q31 0 73 7.5t86 19.5t86 30.5t77 43.5l86 -135q-96 -66 -198.5 -95.5t-237.5 -29.5q-68 0 -133.5 13t-116.5 45t-83 83t-32 127zM532 1169l220 363 l155 -51l-274 -353z" />
<glyph unicode="&#x454;" horiz-adv-x="872" d="M63 387q0 123 35 238.5t102.5 205t167 142.5t228.5 53q90 0 176 -35t143 -106l-118 -121q-39 45 -92.5 72.5t-114.5 27.5q-70 0 -125 -22.5t-97 -61.5t-71 -91t-45 -109h399l-26 -136h-394q-20 -145 42.5 -217.5t189.5 -72.5q55 0 119.5 29.5t111.5 68.5l92 -123 q-78 -76 -170 -108.5t-192 -32.5q-186 0 -273.5 109.5t-87.5 289.5z" />
<glyph unicode="&#x455;" horiz-adv-x="899" d="M-14 143l108 127q53 -66 138 -96.5t167 -30.5q106 0 176 35t70 109q0 72 -48 102.5t-118 48.5q-53 14 -111.5 27.5t-106.5 41.5t-78.5 76t-30.5 132q0 86 34.5 145.5t91 96t129 53t146.5 16.5q88 0 176 -24.5t154 -90.5l-103 -131q-55 45 -114.5 67.5t-128.5 22.5 q-37 0 -76 -7t-70 -25.5t-50 -48t-19 -74.5q0 -33 17 -53.5t46 -35t68 -23.5t79 -19q51 -12 101.5 -28.5t90.5 -46.5t65.5 -76t25.5 -118q0 -90 -36 -151.5t-94 -101t-133 -57t-155 -17.5q-51 0 -108.5 9t-112.5 28.5t-104 49t-86 68.5z" />
<glyph unicode="&#x456;" horiz-adv-x="450" d="M61 0l197 1014h164l-197 -1014h-164zM305 1257l33 168h164l-33 -168h-164z" />
<glyph unicode="&#x457;" horiz-adv-x="450" d="M61 0l197 1014h164l-197 -1014h-164zM88 1223l35 180h176l-35 -180h-176zM449 1223l34 180h179l-35 -180h-178z" />
<glyph unicode="&#x458;" horiz-adv-x="487" d="M-176 -414l29 158h61q55 0 93 34t50 97l222 1139h165l-223 -1151q-25 -123 -92.5 -200t-204.5 -77h-100zM326 1257l32 168h166l-32 -168h-166z" />
<glyph unicode="&#x459;" horiz-adv-x="1492" d="M-37 119q59 20 106.5 47t85.5 78t67.5 134t56.5 216l81 422h594l-77 -383h266q113 0 180.5 -31t103 -74t47 -90t11.5 -80q0 -68 -27.5 -135t-84 -119.5t-143.5 -85t-204 -32.5q-94 0 -170 26.5t-124 79.5t-66.5 132t4.5 182l92 460h-266l-56 -282q-31 -158 -73.5 -266.5 t-98 -179t-124 -108.5t-150.5 -53zM825 371q-20 -104 35 -168t166 -64q80 0 134 21.5t87 53.5t47.5 68.5t14.5 67.5q0 53 -42 94t-153 41h-266z" />
<glyph unicode="&#x45a;" horiz-adv-x="1554" d="M41 0l197 1014h165l-71 -381h399l76 381h164l-78 -381h266q113 0 180.5 -31t103.5 -74t47 -90t11 -80q0 -68 -27.5 -135t-84 -119.5t-143.5 -85t-204 -32.5q-94 0 -169.5 26.5t-124 79.5t-66.5 132t4 182l14 79h-399l-94 -485h-166zM842 371q-20 -104 34.5 -168 t165.5 -64q80 0 134.5 21.5t87 53.5t47 68.5t14.5 67.5q0 53 -42 94t-153 41h-266z" />
<glyph unicode="&#x45b;" horiz-adv-x="1091" d="M55 0l228 1176h-123l28 137h121l35 172h164l-35 -172h434l-26 -137h-432l-62 -299h6q66 66 147 101.5t162 35.5q72 0 129.5 -25.5t92 -73t47 -113t-3.5 -147.5l-123 -655h-166l115 596q23 123 -15.5 187.5t-156.5 64.5q-43 0 -88.5 -17.5t-86 -50t-70.5 -80t-42 -104.5 l-115 -596h-164z" />
<glyph unicode="&#x45c;" horiz-adv-x="968" d="M35 0l198 1016h170l-86 -441h142q29 0 58.5 4.5t58 19.5t55 45t51.5 79l147 293h183l-150 -295q-37 -74 -82 -124t-104 -67q68 -16 90 -70t31 -130l34 -330h-163l-25 281q-14 98 -55 127.5t-111 29.5h-186l-86 -438h-170zM522 1169l219 363l156 -51l-274 -353z" />
<glyph unicode="&#x45e;" horiz-adv-x="845" d="M-111 -274q106 10 198.5 59t178.5 168l-166 1061h176l60 -463q12 -92 25.5 -212t13.5 -237h6q121 213 213 451t170 461h170q-117 -324 -232.5 -587t-238.5 -464q-47 -74 -100.5 -140.5t-121 -118.5t-153.5 -85t-194 -37zM256 1448h145q-2 -20 3.5 -45t20.5 -45.5 t39.5 -34.5t61.5 -14q74 0 118 44t54 95h158q-12 -49 -37.5 -98.5t-66.5 -89t-98.5 -64.5t-137.5 -25q-152 0 -212 76t-48 201z" />
<glyph unicode="&#x45f;" horiz-adv-x="1060" d="M114.5 188.5q-12.5 65.5 4.5 149.5l131 676h164l-117 -608q-23 -117 14 -188t166 -71q49 0 94 18.5t82 52.5t63.5 81t39.5 107l118 608h164l-196 -1014h-166l22 115h-6q-61 -66 -140 -96.5t-157 -30.5q-76 0 -134 22.5t-96 67.5t-50.5 110.5zM346 -403l68 329l170 25 l-84 -354h-154z" />
<glyph unicode="&#x490;" horiz-adv-x="1073" d="M76 0l262 1425h709l40 228h164l-69 -393h-701l-233 -1260h-172z" />
<glyph unicode="&#x491;" horiz-adv-x="862" d="M43 0l188 1016h562l38 203h152l-65 -351h-547l-162 -868h-166z" />
<glyph unicode="&#x4d9;" horiz-adv-x="962" d="M86 266q0 63 25.5 125t93 109t182.5 76.5t293 29.5h44t46 -2q4 23 4 36v22q0 117 -50 163.5t-151 46.5q-31 0 -66.5 -8t-72.5 -21.5t-69.5 -30.5t-57.5 -34l-82 121q76 61 175.5 95t197.5 34q174 0 256 -94t82 -275q0 -115 -27.5 -234.5t-88 -215.5t-156 -157.5 t-228.5 -61.5q-166 0 -258 73.5t-92 202.5zM252 285q0 -66 49 -102t145 -36q72 0 123.5 27t86 70t55 98t32.5 115q-25 2 -46 2h-44q-131 0 -209.5 -18.5t-121.5 -45t-56.5 -57.5t-13.5 -53z" />
<glyph unicode="&#x1e80;" horiz-adv-x="1652" d="M221 1425h178l39 -1063h8q41 90 80 181.5t80 179.5l328 702h160l57 -716q8 -88 13 -174t14 -175h8l139 347l299 718h188l-626 -1425h-156l-51 711l-25 385h-6q-39 -90 -80 -181.5t-82 -181.5l-335 -733h-156zM655 1722l97 125l352 -250l-60 -86z" />
<glyph unicode="&#x1e81;" horiz-adv-x="1443" d="M82 1016h168l45 -547q4 -57 8 -120.5t6 -131.5h8q49 92 95.5 186.5t90.5 191.5t90 201.5t95 219.5h186l58 -537q2 -31 5 -57.5t6 -54t5 -59.5t4 -72h6q104 193 193.5 386t173.5 394h172q-61 -147 -119.5 -275.5t-122 -250t-131 -241.5t-147.5 -249h-154l-49 479 q-2 25 -5 63t-6 82t-5 91t-2 94h-11q-47 -119 -92 -221.5t-91 -197.5t-96 -190.5t-110 -199.5h-155zM578 1511l139 33l139 -379l-100 -30z" />
<glyph unicode="&#x1e82;" horiz-adv-x="1652" d="M221 1425h178l39 -1063h8q41 90 80 181.5t80 179.5l328 702h160l57 -716q8 -88 13 -174t14 -175h8l139 347l299 718h188l-626 -1425h-156l-51 711l-25 385h-6q-39 -90 -80 -181.5t-82 -181.5l-335 -733h-156zM936 1597l352 250l96 -125l-389 -211z" />
<glyph unicode="&#x1e83;" horiz-adv-x="1443" d="M82 1016h168l45 -547q4 -57 8 -120.5t6 -131.5h8q49 92 95.5 186.5t90.5 191.5t90 201.5t95 219.5h186l58 -537q2 -31 5 -57.5t6 -54t5 -59.5t4 -72h6q104 193 193.5 386t173.5 394h172q-61 -147 -119.5 -275.5t-122 -250t-131 -241.5t-147.5 -249h-154l-49 479 q-2 25 -5 63t-6 82t-5 91t-2 94h-11q-47 -119 -92 -221.5t-91 -197.5t-96 -190.5t-110 -199.5h-155zM754 1169l219 363l155 -51l-274 -353z" />
<glyph unicode="&#x1e84;" horiz-adv-x="1652" d="M221 1425h178l39 -1063h8q41 90 80 181.5t80 179.5l328 702h160l57 -716q8 -88 13 -174t14 -175h8l139 347l299 718h188l-626 -1425h-156l-51 711l-25 385h-6q-39 -90 -80 -181.5t-82 -181.5l-335 -733h-156zM768 1536l35 180h180l-35 -180h-180zM1137 1536l34 180h181 l-35 -180h-180z" />
<glyph unicode="&#x1e85;" horiz-adv-x="1443" d="M82 1016h168l45 -547q4 -57 8 -120.5t6 -131.5h8q49 92 95.5 186.5t90.5 191.5t90 201.5t95 219.5h186l58 -537q2 -31 5 -57.5t6 -54t5 -59.5t4 -72h6q104 193 193.5 386t173.5 394h172q-61 -147 -119.5 -275.5t-122 -250t-131 -241.5t-147.5 -249h-154l-49 479 q-2 25 -5 63t-6 82t-5 91t-2 94h-11q-47 -119 -92 -221.5t-91 -197.5t-96 -190.5t-110 -199.5h-155zM571 1223l35 180h176l-34 -180h-177zM932 1223l35 180h178l-35 -180h-178z" />
<glyph unicode="&#x1ef2;" horiz-adv-x="1019" d="M199 1425h176l119 -411l69 -266l187 284l264 393h192l-585 -862l-111 -563h-168l111 563zM324 1722l96 125l352 -250l-59 -86z" />
<glyph unicode="&#x1ef3;" horiz-adv-x="845" d="M-111 -274q106 10 198.5 59t178.5 168l-166 1061h176l60 -463q12 -92 25.5 -212t13.5 -237h6q121 213 213 451t170 461h170q-117 -324 -232.5 -587t-238.5 -464q-47 -74 -100.5 -140.5t-121 -118.5t-153.5 -85t-194 -37zM313 1511l140 33l139 -379l-100 -30z" />
<glyph unicode="&#x1f00;" horiz-adv-x="1013" d="M92 313q0 111 25.5 237t83 231.5t147.5 175t219 69.5q74 0 140.5 -30.5t107.5 -94.5l6 2l21 111h164l-197 -1014h-164l23 111l-6 4q-61 -70 -134 -98.5t-161 -28.5q-76 0 -128.5 24.5t-85 68.5t-47 103.5t-14.5 128.5zM266 346q0 -92 38 -141t142 -49q82 0 140.5 52 t97.5 129t57.5 163t18.5 155q0 92 -39 148.5t-137 56.5q-61 0 -109.5 -27.5t-83.5 -71.5t-59.5 -100.5t-38.5 -112.5t-20.5 -109.5t-6.5 -92.5zM573 1430l93 165q92 -16 145 -60t53 -116q0 -18 -8 -50t-28.5 -72t-56.5 -83t-91 -86l-80 39q39 41 61.5 88.5t22.5 79.5 q0 31 -22.5 57.5t-88.5 37.5z" />
<glyph unicode="&#x1f01;" horiz-adv-x="1013" d="M92 313q0 111 25.5 237t83 231.5t147.5 175t219 69.5q74 0 140.5 -30.5t107.5 -94.5l6 2l21 111h164l-197 -1014h-164l23 111l-6 4q-61 -70 -134 -98.5t-161 -28.5q-76 0 -128.5 24.5t-85 68.5t-47 103.5t-14.5 128.5zM266 346q0 -92 38 -141t142 -49q82 0 140.5 52 t97.5 129t57.5 163t18.5 155q0 92 -39 148.5t-137 56.5q-61 0 -109.5 -27.5t-83.5 -71.5t-59.5 -100.5t-38.5 -112.5t-20.5 -109.5t-6.5 -92.5zM532 1339q0 53 21.5 96.5t60.5 75t91.5 53t111.5 31.5l27 -165q-49 -8 -80 -24.5t-48.5 -37t-22.5 -44.5t-5 -46q0 -27 6 -55.5 t21 -55.5l-97 -39q-47 53 -66.5 109.5t-19.5 101.5z" />
<glyph unicode="&#x1f02;" horiz-adv-x="1013" d="M92 313q0 111 25.5 237t83 231.5t147.5 175t219 69.5q74 0 140.5 -30.5t107.5 -94.5l6 2l21 111h164l-197 -1014h-164l23 111l-6 4q-61 -70 -134 -98.5t-161 -28.5q-76 0 -128.5 24.5t-85 68.5t-47 103.5t-14.5 128.5zM266 346q0 -92 38 -141t142 -49q82 0 140.5 52 t97.5 129t57.5 163t18.5 155q0 92 -39 148.5t-137 56.5q-61 0 -109.5 -27.5t-83.5 -71.5t-59.5 -100.5t-38.5 -112.5t-20.5 -109.5t-6.5 -92.5zM305 1432l92 165q92 -16 145.5 -60t53.5 -116q0 -18 -8 -50t-28.5 -71.5t-56.5 -82.5t-91 -87l-80 39q39 41 61.5 88.5 t22.5 79.5q0 31 -22.5 57.5t-88.5 37.5zM600 1563l203 34l186 -430l-94 -32z" />
<glyph unicode="&#x1f03;" horiz-adv-x="1013" d="M92 313q0 111 25.5 237t83 231.5t147.5 175t219 69.5q74 0 140.5 -30.5t107.5 -94.5l6 2l21 111h164l-197 -1014h-164l23 111l-6 4q-61 -70 -134 -98.5t-161 -28.5q-76 0 -128.5 24.5t-85 68.5t-47 103.5t-14.5 128.5zM256 1327q0 53 21.5 96t60.5 75t91 53.5t112 31.5 l26 -166q-49 -8 -79.5 -24.5t-48 -37t-22.5 -44t-5 -45.5q0 -27 6 -55.5t20 -55.5l-96 -39q-47 53 -66.5 109.5t-19.5 101.5zM266 346q0 -92 38 -141t142 -49q82 0 140.5 52t97.5 129t57.5 163t18.5 155q0 92 -39 148.5t-137 56.5q-61 0 -109.5 -27.5t-83.5 -71.5 t-59.5 -100.5t-38.5 -112.5t-20.5 -109.5t-6.5 -92.5zM582 1563l202 34l187 -430l-94 -32z" />
<glyph unicode="&#x1f04;" horiz-adv-x="1013" d="M92 313q0 111 25.5 237t83 231.5t147.5 175t219 69.5q74 0 140.5 -30.5t107.5 -94.5l6 2l21 111h164l-197 -1014h-164l23 111l-6 4q-61 -70 -134 -98.5t-161 -28.5q-76 0 -128.5 24.5t-85 68.5t-47 103.5t-14.5 128.5zM266 346q0 -92 38 -141t142 -49q82 0 140.5 52 t97.5 129t57.5 163t18.5 155q0 92 -39 148.5t-137 56.5q-61 0 -109.5 -27.5t-83.5 -71.5t-59.5 -100.5t-38.5 -112.5t-20.5 -109.5t-6.5 -92.5zM430 1427l90 166q92 -16 146.5 -60t54.5 -118q0 -20 -8 -52t-29.5 -71t-56.5 -82t-90 -84l-80 39q41 43 61.5 89t20.5 81 q0 31 -21.5 56.5t-87.5 35.5zM709 1163l252 430l188 -34l-352 -429z" />
<glyph unicode="&#x1f05;" horiz-adv-x="1013" d="M92 313q0 111 25.5 237t83 231.5t147.5 175t219 69.5q74 0 140.5 -30.5t107.5 -94.5l6 2l21 111h164l-197 -1014h-164l23 111l-6 4q-61 -70 -134 -98.5t-161 -28.5q-76 0 -128.5 24.5t-85 68.5t-47 103.5t-14.5 128.5zM266 346q0 -92 38 -141t142 -49q82 0 140.5 52 t97.5 129t57.5 163t18.5 155q0 92 -39 148.5t-137 56.5q-61 0 -109.5 -27.5t-83.5 -71.5t-59.5 -100.5t-38.5 -112.5t-20.5 -109.5t-6.5 -92.5zM385 1335q0 55 21.5 98.5t59.5 75t90 53t112 31.5l28 -166q-96 -16 -126.5 -58t-30.5 -87q0 -29 7 -59.5t21 -57.5l-96 -39 q-47 53 -66.5 108.5t-19.5 100.5zM645 1167l268 430l189 -34l-369 -428z" />
<glyph unicode="&#x1f06;" horiz-adv-x="1013" d="M92 313q0 111 25.5 237t83 231.5t147.5 175t219 69.5q74 0 140.5 -30.5t107.5 -94.5l6 2l21 111h164l-197 -1014h-164l23 111l-6 4q-61 -70 -134 -98.5t-161 -28.5q-76 0 -128.5 24.5t-85 68.5t-47 103.5t-14.5 128.5zM266 346q0 -92 38 -141t142 -49q82 0 140.5 52 t97.5 129t57.5 163t18.5 155q0 92 -39 148.5t-137 56.5q-61 0 -109.5 -27.5t-83.5 -71.5t-59.5 -100.5t-38.5 -112.5t-20.5 -109.5t-6.5 -92.5zM365 1540q57 98 120.5 140t124.5 42q37 0 75 -15t75 -32.5t69.5 -33t59.5 -15.5q31 0 60.5 21.5t70.5 70.5l94 -59 q-53 -102 -114.5 -142t-127.5 -40q-37 0 -74.5 14t-74.5 31.5t-71 32t-64 14.5q-35 0 -61.5 -17.5t-73.5 -64.5zM555 1331l84 133q88 -12 138 -45t50 -88q0 -16 -7 -40.5t-26.5 -55.5t-54 -68t-90.5 -75l-78 30q43 39 68 77t25 65q0 25 -24 41t-85 26z" />
<glyph unicode="&#x1f07;" horiz-adv-x="1013" d="M92 313q0 111 25.5 237t83 231.5t147.5 175t219 69.5q74 0 140.5 -30.5t107.5 -94.5l6 2l21 111h164l-197 -1014h-164l23 111l-6 4q-61 -70 -134 -98.5t-161 -28.5q-76 0 -128.5 24.5t-85 68.5t-47 103.5t-14.5 128.5zM266 346q0 -92 38 -141t142 -49q82 0 140.5 52 t97.5 129t57.5 163t18.5 155q0 92 -39 148.5t-137 56.5q-61 0 -109.5 -27.5t-83.5 -71.5t-59.5 -100.5t-38.5 -112.5t-20.5 -109.5t-6.5 -92.5zM303 1546q57 98 121 140.5t125 42.5q37 0 75 -15.5t74.5 -33t69.5 -33t59 -15.5q31 0 61 21.5t70 70.5l95 -59 q-53 -102 -114.5 -142t-127.5 -40q-37 0 -75 14t-74.5 31.5t-70.5 32t-65 14.5q-35 0 -61.5 -17.5t-73.5 -64.5zM481 1274q0 80 65.5 126t182.5 62l31 -133q-84 -12 -111.5 -37.5t-27.5 -62.5q0 -51 41 -109l-91 -30q-53 53 -71.5 101t-18.5 83z" />
<glyph unicode="&#x1f08;" horiz-adv-x="1200" d="M-74 0l789 1425h157l234 -1425h-184l-50 328h-579l-176 -328h-191zM47 1315l92 166q92 -16 145.5 -60.5t53.5 -115.5q0 -18 -8 -50t-28.5 -72t-56.5 -83t-91 -86l-80 39q39 41 61.5 88t22.5 80q0 31 -22.5 57.5t-88.5 36.5zM373 483h481l-57 400l-41 323h-4l-162 -315z " />
<glyph unicode="&#x1f09;" horiz-adv-x="1200" d="M-74 0l789 1425h157l234 -1425h-184l-50 328h-579l-176 -328h-191zM51 1227q0 53 21.5 96t60.5 75t91 53.5t112 31.5l26 -166q-49 -8 -79.5 -24.5t-48 -37t-22.5 -44t-5 -46.5q0 -27 6 -55.5t20 -54.5l-96 -39q-47 53 -66.5 109.5t-19.5 101.5zM373 483h481l-57 400 l-41 323h-4l-162 -315z" />
<glyph unicode="&#x1f0a;" horiz-adv-x="1200" d="M-279 1317l93 166q92 -16 145 -60.5t53 -115.5q0 -18 -8 -50t-28.5 -72t-56.5 -83t-91 -86l-80 39q39 41 61.5 88t22.5 80q0 31 -22.5 57.5t-88.5 36.5zM-74 0l789 1425h157l234 -1425h-184l-50 328h-579l-176 -328h-191zM16 1448l203 35l187 -430l-95 -33zM373 483h481 l-57 400l-41 323h-4l-162 -315z" />
<glyph unicode="&#x1f0b;" horiz-adv-x="1200" d="M-326 1214q0 53 21.5 96.5t60.5 75t91.5 53t111.5 31.5l27 -165q-49 -8 -80 -24.5t-48.5 -37t-22.5 -44t-5 -46.5q0 -27 6 -55.5t21 -55.5l-97 -38q-47 53 -66.5 109t-19.5 101zM-74 0l789 1425h157l234 -1425h-184l-50 328h-579l-176 -328h-191zM0 1450l203 35l186 -430 l-94 -33zM373 483h481l-57 400l-41 323h-4l-162 -315z" />
<glyph unicode="&#x1f0c;" horiz-adv-x="1200" d="M-215 1311l90 166q92 -16 146.5 -60.5t54.5 -118.5q0 -20 -8.5 -52t-30 -70.5t-56 -81.5t-90.5 -84l-79 39q41 43 61.5 89t20.5 81q0 31 -22 56t-87 36zM-74 0l789 1425h157l234 -1425h-184l-50 328h-579l-176 -328h-191zM63 1047l252 430l189 -35l-352 -428zM373 483 h481l-57 400l-41 323h-4l-162 -315z" />
<glyph unicode="&#x1f0d;" horiz-adv-x="1200" d="M-197 1223q0 55 21.5 98t59.5 74.5t90.5 53t111.5 32.5l29 -166q-96 -16 -127 -58.5t-31 -87.5q0 -29 7 -59.5t22 -56.5l-97 -39q-47 53 -66.5 108.5t-19.5 100.5zM-74 0l789 1425h157l234 -1425h-184l-50 328h-579l-176 -328h-191zM63 1055l269 430l188 -35l-368 -428z M373 483h481l-57 400l-41 323h-4l-162 -315z" />
<glyph unicode="&#x1f0e;" horiz-adv-x="1200" d="M-256 1315q57 98 121 140t125 42q37 0 74.5 -15.5t74.5 -32.5t70 -32.5t59 -15.5q31 0 60.5 21.5t70.5 70.5l95 -59q-53 -102 -115 -142.5t-127 -40.5q-37 0 -75 14.5t-74.5 32t-70.5 31.5t-65 14q-35 0 -61.5 -17t-73.5 -64zM-74 0l789 1425h157l234 -1425h-184l-50 328 h-579l-176 -328h-191zM-66 1106l84 133q88 -12 138.5 -45t50.5 -88q0 -16 -7 -41t-26.5 -55.5t-54.5 -67.5t-90 -76l-78 31q43 39 67.5 77t24.5 64q0 25 -23.5 41.5t-85.5 26.5zM373 483h481l-57 400l-41 323h-4l-162 -315z" />
<glyph unicode="&#x1f0f;" horiz-adv-x="1200" d="M-291 1323q57 98 121 140t125 42q37 0 75 -15t74.5 -32.5t69.5 -33t59 -15.5q31 0 61 21.5t71 70.5l94 -59q-53 -102 -114.5 -142t-127.5 -40q-37 0 -75 14t-74.5 31.5t-70.5 32t-65 14.5q-35 0 -61.5 -17.5t-73.5 -64.5zM-113 1051q0 80 65.5 126t182.5 62l31 -133 q-84 -12 -111.5 -38t-27.5 -62q0 -51 41 -109l-91 -31q-53 53 -71.5 101.5t-18.5 83.5zM-74 0l789 1425h157l234 -1425h-184l-50 328h-579l-176 -328h-191zM373 483h481l-57 400l-41 323h-4l-162 -315z" />
<glyph unicode="&#x1f10;" horiz-adv-x="882" d="M76 252q0 49 16.5 95t45 84t67.5 66.5t86 41.5q-59 23 -89 68.5t-30 109.5q0 78 37 136t95 96t130 57.5t144 19.5q45 0 93 -8t93 -24.5t85 -42t69 -60.5l-119 -125q-31 41 -91.5 67.5t-119.5 26.5q-41 0 -84 -6t-78 -22.5t-57.5 -44t-22.5 -70.5q0 -41 20.5 -63.5t50 -33 t62.5 -12.5t60 -2h116l-26 -143h-160q-37 0 -76 -10.5t-71.5 -32t-54 -55t-21.5 -82.5q0 -41 20.5 -67t52 -39t68.5 -18t70 -5q66 0 131 30.5t112 71.5l107 -125q-166 -139 -387 -139q-59 0 -120.5 14t-111 46t-81 81t-31.5 119zM506 1430l92 165q92 -16 145.5 -60 t53.5 -116q0 -18 -8.5 -50t-29 -72t-56 -83t-91.5 -86l-80 39q39 41 61.5 88.5t22.5 79.5q0 31 -22.5 57.5t-87.5 37.5z" />
<glyph unicode="&#x1f11;" horiz-adv-x="882" d="M76 252q0 49 16.5 95t45 84t67.5 66.5t86 41.5q-59 23 -89 68.5t-30 109.5q0 78 37 136t95 96t130 57.5t144 19.5q45 0 93 -8t93 -24.5t85 -42t69 -60.5l-119 -125q-31 41 -91.5 67.5t-119.5 26.5q-41 0 -84 -6t-78 -22.5t-57.5 -44t-22.5 -70.5q0 -41 20.5 -63.5t50 -33 t62.5 -12.5t60 -2h116l-26 -143h-160q-37 0 -76 -10.5t-71.5 -32t-54 -55t-21.5 -82.5q0 -41 20.5 -67t52 -39t68.5 -18t70 -5q66 0 131 30.5t112 71.5l107 -125q-166 -139 -387 -139q-59 0 -120.5 14t-111 46t-81 81t-31.5 119zM483 1339q0 53 21.5 96.5t60.5 75t91.5 53 t111.5 31.5l27 -165q-49 -8 -80 -24.5t-48.5 -37t-22.5 -44.5t-5 -46q0 -27 6 -55.5t21 -55.5l-97 -39q-47 53 -66.5 109.5t-19.5 101.5z" />
<glyph unicode="&#x1f12;" horiz-adv-x="882" d="M76 252q0 49 16.5 95t45 84t67.5 66.5t86 41.5q-59 23 -89 68.5t-30 109.5q0 78 37 136t95 96t130 57.5t144 19.5q45 0 93 -8t93 -24.5t85 -42t69 -60.5l-119 -125q-31 41 -91.5 67.5t-119.5 26.5q-41 0 -84 -6t-78 -22.5t-57.5 -44t-22.5 -70.5q0 -41 20.5 -63.5t50 -33 t62.5 -12.5t60 -2h116l-26 -143h-160q-37 0 -76 -10.5t-71.5 -32t-54 -55t-21.5 -82.5q0 -41 20.5 -67t52 -39t68.5 -18t70 -5q66 0 131 30.5t112 71.5l107 -125q-166 -139 -387 -139q-59 0 -120.5 14t-111 46t-81 81t-31.5 119zM236 1432l92 165q92 -16 145 -60t53 -116 q0 -18 -8 -50t-28.5 -71.5t-56.5 -82.5t-91 -87l-80 39q39 41 61.5 88.5t22.5 79.5q0 31 -22.5 57.5t-87.5 37.5zM530 1563l203 34l187 -430l-95 -32z" />
<glyph unicode="&#x1f13;" horiz-adv-x="882" d="M76 252q0 49 16.5 95t45 84t67.5 66.5t86 41.5q-59 23 -89 68.5t-30 109.5q0 78 37 136t95 96t130 57.5t144 19.5q45 0 93 -8t93 -24.5t85 -42t69 -60.5l-119 -125q-31 41 -91.5 67.5t-119.5 26.5q-41 0 -84 -6t-78 -22.5t-57.5 -44t-22.5 -70.5q0 -41 20.5 -63.5t50 -33 t62.5 -12.5t60 -2h116l-26 -143h-160q-37 0 -76 -10.5t-71.5 -32t-54 -55t-21.5 -82.5q0 -41 20.5 -67t52 -39t68.5 -18t70 -5q66 0 131 30.5t112 71.5l107 -125q-166 -139 -387 -139q-59 0 -120.5 14t-111 46t-81 81t-31.5 119zM184 1327q0 53 21.5 96t60.5 75t91.5 53.5 t111.5 31.5l27 -166q-49 -8 -80 -24.5t-48.5 -37t-22.5 -44t-5 -45.5q0 -27 6 -55.5t21 -55.5l-97 -39q-47 53 -66.5 109.5t-19.5 101.5zM510 1563l203 34l186 -430l-94 -32z" />
<glyph unicode="&#x1f14;" horiz-adv-x="882" d="M76 252q0 49 16.5 95t45 84t67.5 66.5t86 41.5q-59 23 -89 68.5t-30 109.5q0 78 37 136t95 96t130 57.5t144 19.5q45 0 93 -8t93 -24.5t85 -42t69 -60.5l-119 -125q-31 41 -91.5 67.5t-119.5 26.5q-41 0 -84 -6t-78 -22.5t-57.5 -44t-22.5 -70.5q0 -41 20.5 -63.5t50 -33 t62.5 -12.5t60 -2h116l-26 -143h-160q-37 0 -76 -10.5t-71.5 -32t-54 -55t-21.5 -82.5q0 -41 20.5 -67t52 -39t68.5 -18t70 -5q66 0 131 30.5t112 71.5l107 -125q-166 -139 -387 -139q-59 0 -120.5 14t-111 46t-81 81t-31.5 119zM406 1427l90 166q92 -16 146 -60t54 -118 q0 -20 -8 -52t-29.5 -71t-56.5 -82t-90 -84l-80 39q41 43 61.5 89t20.5 81q0 31 -21.5 56.5t-86.5 35.5zM684 1163l252 430l188 -34l-352 -429z" />
<glyph unicode="&#x1f15;" horiz-adv-x="882" d="M76 252q0 49 16.5 95t45 84t67.5 66.5t86 41.5q-59 23 -89 68.5t-30 109.5q0 78 37 136t95 96t130 57.5t144 19.5q45 0 93 -8t93 -24.5t85 -42t69 -60.5l-119 -125q-31 41 -91.5 67.5t-119.5 26.5q-41 0 -84 -6t-78 -22.5t-57.5 -44t-22.5 -70.5q0 -41 20.5 -63.5t50 -33 t62.5 -12.5t60 -2h116l-26 -143h-160q-37 0 -76 -10.5t-71.5 -32t-54 -55t-21.5 -82.5q0 -41 20.5 -67t52 -39t68.5 -18t70 -5q66 0 131 30.5t112 71.5l107 -125q-166 -139 -387 -139q-59 0 -120.5 14t-111 46t-81 81t-31.5 119zM406 1335q0 55 21.5 98.5t59 75t90 53 t111.5 31.5l29 -166q-96 -16 -127 -58t-31 -87q0 -29 7 -59.5t22 -57.5l-96 -39q-47 53 -66.5 108.5t-19.5 100.5zM666 1167l268 430l188 -34l-368 -428z" />
<glyph unicode="&#x1f18;" horiz-adv-x="1089" d="M-143 1327l92 166q92 -16 145 -60t53 -116q0 -18 -8 -50t-28.5 -72t-56.5 -83t-91 -86l-80 39q39 41 61.5 88t22.5 80q0 31 -22.5 57.5t-87.5 36.5zM70 0l278 1425h862l-32 -165h-686l-89 -461h603l-31 -158h-602l-94 -475h747l-31 -166h-925z" />
<glyph unicode="&#x1f19;" horiz-adv-x="1089" d="M-174 1237q0 53 21.5 96t60.5 75t91 53.5t112 31.5l26 -166q-49 -8 -79.5 -24.5t-48 -37t-22.5 -44t-5 -45.5q0 -27 6 -55.5t20 -55.5l-96 -39q-47 53 -66.5 109.5t-19.5 101.5zM70 0l278 1425h862l-32 -165h-686l-89 -461h603l-31 -158h-602l-94 -475h747l-31 -166h-925 z" />
<glyph unicode="&#x1f1a;" horiz-adv-x="1089" d="M-522 1329l92 166q92 -16 145.5 -60t53.5 -116q0 -18 -8.5 -50t-29 -72t-56 -83t-91.5 -86l-80 39q39 41 61.5 88t22.5 80q0 31 -22.5 57.5t-87.5 36.5zM-227 1460l202 35l187 -430l-94 -33zM70 0l278 1425h862l-32 -165h-686l-89 -461h603l-31 -158h-602l-94 -475h747 l-31 -166h-925z" />
<glyph unicode="&#x1f1b;" horiz-adv-x="1089" d="M-557 1225q0 53 21.5 96t60.5 74.5t91 53t112 32.5l26 -166q-49 -8 -79.5 -24.5t-48 -37t-22.5 -44t-5 -46.5q0 -27 6 -55.5t20 -54.5l-96 -39q-47 53 -66.5 109.5t-19.5 101.5zM-231 1460l202 35l187 -430l-95 -33zM70 0l278 1425h862l-32 -165h-686l-89 -461h603 l-31 -158h-602l-94 -475h747l-31 -166h-925z" />
<glyph unicode="&#x1f1c;" horiz-adv-x="1089" d="M-395 1325l90 166q92 -16 146.5 -60.5t54.5 -117.5q0 -20 -8.5 -52t-30 -71t-56 -82t-90.5 -84l-80 39q41 43 61.5 89t20.5 81q0 31 -21.5 56.5t-86.5 35.5zM-117 1061l252 430l189 -35l-353 -428zM70 0l278 1425h862l-32 -165h-686l-89 -461h603l-31 -158h-602l-94 -475 h747l-31 -166h-925z" />
<glyph unicode="&#x1f1d;" horiz-adv-x="1089" d="M-483 1233q0 55 21.5 98t59 75t90 53.5t111.5 31.5l29 -166q-96 -16 -127 -58t-31 -87q0 -29 7.5 -59.5t21.5 -57.5l-96 -39q-47 53 -66.5 108.5t-19.5 100.5zM-223 1065l268 430l188 -35l-368 -428zM70 0l278 1425h862l-32 -165h-686l-89 -461h603l-31 -158h-602 l-94 -475h747l-31 -166h-925z" />
<glyph unicode="&#x1f20;" horiz-adv-x="1052" d="M49 0l197 1014h166l-23 -121h6q61 66 141 99.5t160 33.5q55 0 106.5 -17.5t90.5 -52t61.5 -86t22.5 -116.5q0 -18 -2 -38t-6 -40l-183 -944h-165l170 876q10 57 10 92q0 78 -42 120t-149 42q-49 0 -94 -18.5t-82 -52t-63.5 -80.5t-36.5 -103l-119 -608h-166zM549 1430 l92 165q92 -16 145.5 -60t53.5 -116q0 -18 -8.5 -50t-29 -72t-56 -83t-91.5 -86l-80 39q39 41 61.5 88.5t22.5 79.5q0 31 -22.5 57.5t-87.5 37.5z" />
<glyph unicode="&#x1f21;" horiz-adv-x="1052" d="M49 0l197 1014h166l-23 -121h6q61 66 141 99.5t160 33.5q55 0 106.5 -17.5t90.5 -52t61.5 -86t22.5 -116.5q0 -18 -2 -38t-6 -40l-183 -944h-165l170 876q10 57 10 92q0 78 -42 120t-149 42q-49 0 -94 -18.5t-82 -52t-63.5 -80.5t-36.5 -103l-119 -608h-166zM494 1339 q0 53 21.5 96.5t60 75t91 53t111.5 31.5l27 -165q-49 -8 -80 -24.5t-48.5 -37t-22.5 -44.5t-5 -46q0 -27 6.5 -55.5t20.5 -55.5l-96 -39q-47 53 -66.5 109.5t-19.5 101.5z" />
<glyph unicode="&#x1f22;" horiz-adv-x="1052" d="M49 0l197 1014h166l-23 -121h6q61 66 141 99.5t160 33.5q55 0 106.5 -17.5t90.5 -52t61.5 -86t22.5 -116.5q0 -18 -2 -38t-6 -40l-183 -944h-165l170 876q10 57 10 92q0 78 -42 120t-149 42q-49 0 -94 -18.5t-82 -52t-63.5 -80.5t-36.5 -103l-119 -608h-166zM283 1432 l92 165q92 -16 145 -60t53 -116q0 -18 -8 -50t-28.5 -71.5t-56.5 -82.5t-91 -87l-80 39q39 41 61.5 88.5t22.5 79.5q0 31 -22.5 57.5t-87.5 37.5zM578 1563l202 34l187 -430l-95 -32z" />
<glyph unicode="&#x1f23;" horiz-adv-x="1052" d="M49 0l197 1014h166l-23 -121h6q61 66 141 99.5t160 33.5q55 0 106.5 -17.5t90.5 -52t61.5 -86t22.5 -116.5q0 -18 -2 -38t-6 -40l-183 -944h-165l170 876q10 57 10 92q0 78 -42 120t-149 42q-49 0 -94 -18.5t-82 -52t-63.5 -80.5t-36.5 -103l-119 -608h-166zM242 1327 q0 53 21.5 96t60 75t91 53.5t111.5 31.5l27 -166q-49 -8 -80 -24.5t-48 -37t-22.5 -44t-5.5 -45.5q0 -27 6.5 -55.5t20.5 -55.5l-96 -39q-47 53 -66.5 109.5t-19.5 101.5zM567 1563l203 34l186 -430l-94 -32z" />
<glyph unicode="&#x1f24;" horiz-adv-x="1052" d="M49 0l197 1014h166l-23 -121h6q61 66 141 99.5t160 33.5q55 0 106.5 -17.5t90.5 -52t61.5 -86t22.5 -116.5q0 -18 -2 -38t-6 -40l-183 -944h-165l170 876q10 57 10 92q0 78 -42 120t-149 42q-49 0 -94 -18.5t-82 -52t-63.5 -80.5t-36.5 -103l-119 -608h-166zM432 1427 l90 166q92 -16 146.5 -60t54.5 -118q0 -20 -8 -52t-29.5 -71t-56.5 -82t-90 -84l-80 39q41 43 61.5 89t20.5 81q0 31 -21.5 56.5t-87.5 35.5zM711 1163l252 430l188 -34l-352 -429z" />
<glyph unicode="&#x1f25;" horiz-adv-x="1052" d="M49 0l197 1014h166l-23 -121h6q61 66 141 99.5t160 33.5q55 0 106.5 -17.5t90.5 -52t61.5 -86t22.5 -116.5q0 -18 -2 -38t-6 -40l-183 -944h-165l170 876q10 57 10 92q0 78 -42 120t-149 42q-49 0 -94 -18.5t-82 -52t-63.5 -80.5t-36.5 -103l-119 -608h-166zM449 1335 q0 55 21.5 98.5t59 75t90 53t111.5 31.5l29 -166q-96 -16 -127 -58t-31 -87q0 -29 7 -59.5t22 -57.5l-96 -39q-47 53 -66.5 108.5t-19.5 100.5zM709 1167l268 430l188 -34l-368 -428z" />
<glyph unicode="&#x1f26;" horiz-adv-x="1052" d="M49 0l197 1014h166l-23 -121h6q61 66 141 99.5t160 33.5q55 0 106.5 -17.5t90.5 -52t61.5 -86t22.5 -116.5q0 -18 -2 -38t-6 -40l-183 -944h-165l170 876q10 57 10 92q0 78 -42 120t-149 42q-49 0 -94 -18.5t-82 -52t-63.5 -80.5t-36.5 -103l-119 -608h-166zM319 1540 q57 98 121 140t125 42q37 0 75 -15t75 -32.5t69.5 -33t59.5 -15.5q31 0 60.5 21.5t70.5 70.5l94 -59q-53 -102 -114.5 -142t-127.5 -40q-37 0 -74.5 14t-74.5 31.5t-71 32t-64 14.5q-35 0 -61.5 -17.5t-73.5 -64.5zM510 1331l84 133q88 -12 138 -45t50 -88q0 -16 -7 -40.5 t-26.5 -55.5t-54.5 -68t-90 -75l-78 30q43 39 67.5 77t24.5 65q0 25 -23.5 41t-84.5 26z" />
<glyph unicode="&#x1f27;" horiz-adv-x="1052" d="M49 0l197 1014h166l-23 -121h6q61 66 141 99.5t160 33.5q55 0 106.5 -17.5t90.5 -52t61.5 -86t22.5 -116.5q0 -18 -2 -38t-6 -40l-183 -944h-165l170 876q10 57 10 92q0 78 -42 120t-149 42q-49 0 -94 -18.5t-82 -52t-63.5 -80.5t-36.5 -103l-119 -608h-166zM315 1544 q57 98 121 140t125 42q37 0 75 -15t75 -32.5t69.5 -33t59.5 -15.5q31 0 60.5 21.5t70.5 70.5l94 -59q-53 -102 -114.5 -142t-127.5 -40q-37 0 -74.5 14t-74.5 31.5t-71 32t-64 14.5q-35 0 -61.5 -17.5t-74.5 -64.5zM494 1272q0 80 65.5 126t181.5 62l31 -133 q-84 -12 -111.5 -37.5t-27.5 -62.5q0 -51 41 -109l-90 -31q-53 53 -71.5 101.5t-18.5 83.5z" />
<glyph unicode="&#x1f28;" horiz-adv-x="1275" d="M-102 1327l92 166q92 -16 145 -60t53 -116q0 -18 -8 -50t-28.5 -72t-56.5 -83t-91 -86l-80 39q39 41 61.5 88t22.5 80q0 31 -22.5 57.5t-87.5 36.5zM70 0l278 1425h176l-121 -626h617l123 626h176l-277 -1425h-176l123 641h-616l-125 -641h-178z" />
<glyph unicode="&#x1f29;" horiz-adv-x="1275" d="M-166 1237q0 53 21.5 96t60.5 75t91 53.5t112 31.5l26 -166q-49 -8 -79.5 -24.5t-48 -37t-22.5 -44t-5 -45.5q0 -27 6 -55.5t20 -55.5l-96 -39q-47 53 -66.5 109.5t-19.5 101.5zM70 0l278 1425h176l-121 -626h617l123 626h176l-277 -1425h-176l123 641h-616l-125 -641 h-178z" />
<glyph unicode="&#x1f2a;" horiz-adv-x="1275" d="M-492 1329l93 166q92 -16 145 -60t53 -116q0 -18 -8 -50t-28.5 -72t-56.5 -83t-91 -86l-80 39q39 41 61.5 88t22.5 80q0 31 -22.5 57.5t-88.5 36.5zM-197 1460l203 35l187 -430l-95 -33zM70 0l278 1425h176l-121 -626h617l123 626h176l-277 -1425h-176l123 641h-616 l-125 -641h-178z" />
<glyph unicode="&#x1f2b;" horiz-adv-x="1275" d="M-528 1225q0 53 21.5 96t60 74.5t91 53t111.5 32.5l27 -166q-49 -8 -80 -24.5t-48 -37t-22.5 -44t-5.5 -46.5q0 -27 6.5 -55.5t20.5 -54.5l-96 -39q-47 53 -66.5 109.5t-19.5 101.5zM-203 1460l203 35l186 -430l-94 -33zM70 0l278 1425h176l-121 -626h617l123 626h176 l-277 -1425h-176l123 641h-616l-125 -641h-178z" />
<glyph unicode="&#x1f2c;" horiz-adv-x="1275" d="M-455 1325l90 166q92 -16 146.5 -60.5t54.5 -117.5q0 -20 -8 -52t-29.5 -71t-56.5 -82t-90 -84l-80 39q41 43 61.5 89t20.5 81q0 31 -21.5 56.5t-87.5 35.5zM-176 1061l252 430l188 -35l-352 -428zM70 0l278 1425h176l-121 -626h617l123 626h176l-277 -1425h-176l123 641 h-616l-125 -641h-178z" />
<glyph unicode="&#x1f2d;" horiz-adv-x="1275" d="M-463 1233q0 55 21.5 98t59.5 75t90 53.5t112 31.5l28 -166q-96 -16 -126.5 -58t-30.5 -87q0 -29 7 -59.5t21 -57.5l-96 -39q-47 53 -66.5 108.5t-19.5 100.5zM-203 1065l269 430l188 -35l-369 -428zM70 0l278 1425h176l-121 -626h617l123 626h176l-277 -1425h-176 l123 641h-616l-125 -641h-178z" />
<glyph unicode="&#x1f2e;" horiz-adv-x="1275" d="M-496 1317q57 98 121 140t125 42q37 0 75 -15.5t75 -32.5t69.5 -32.5t59.5 -15.5q31 0 60.5 21.5t70.5 70.5l94 -59q-53 -102 -114.5 -142.5t-127.5 -40.5q-37 0 -74.5 14.5t-74.5 32t-71 32t-64 14.5q-35 0 -61.5 -17.5t-74.5 -64.5zM-305 1108l84 133q88 -12 138 -45 t50 -88q0 -16 -7 -41t-26.5 -55.5t-54.5 -67.5t-90 -76l-78 31q43 39 67.5 77t24.5 64q0 25 -23.5 41.5t-84.5 26.5zM70 0l278 1425h176l-121 -626h617l123 626h176l-277 -1425h-176l123 641h-616l-125 -641h-178z" />
<glyph unicode="&#x1f2f;" horiz-adv-x="1275" d="M-539 1323q57 98 121 140t125 42q37 0 75 -15t75 -32.5t69.5 -33t59.5 -15.5q31 0 60.5 21.5t70.5 70.5l94 -59q-53 -102 -114.5 -142t-127.5 -40q-37 0 -74.5 14t-74.5 31.5t-71 32t-64 14.5q-35 0 -61.5 -17.5t-74.5 -64.5zM-360 1051q0 80 65.5 126t181.5 62l31 -133 q-84 -12 -111.5 -38t-27.5 -62q0 -51 41 -109l-90 -31q-53 53 -71.5 101.5t-18.5 83.5zM70 0l278 1425h176l-121 -626h617l123 626h176l-277 -1425h-176l123 641h-616l-125 -641h-178z" />
<glyph unicode="&#x1f30;" horiz-adv-x="477" d="M98 227l154 785h164l-152 -776q-10 -47 2.5 -68t67.5 -25l-31 -143q-16 -2 -23.5 -2h-17.5q-121 0 -153.5 57.5t-10.5 171.5zM266 1430l92 165q92 -16 145.5 -60t53.5 -116q0 -18 -8 -50t-28.5 -72t-56.5 -83t-91 -86l-80 39q39 41 61.5 88.5t22.5 79.5q0 31 -22.5 57.5 t-88.5 37.5z" />
<glyph unicode="&#x1f31;" horiz-adv-x="477" d="M98 227l154 785h164l-152 -776q-10 -47 2.5 -68t67.5 -25l-31 -143q-16 -2 -23.5 -2h-17.5q-121 0 -153.5 57.5t-10.5 171.5zM205 1339q0 53 21.5 96.5t60.5 75t91 53t111 31.5l27 -165q-49 -8 -79.5 -24.5t-48 -37t-23 -44.5t-5.5 -46q0 -27 6.5 -55.5t20.5 -55.5 l-96 -39q-47 53 -66.5 109.5t-19.5 101.5z" />
<glyph unicode="&#x1f32;" horiz-adv-x="477" d="M2 1432l92 165q92 -16 145.5 -60t53.5 -116q0 -18 -8.5 -50t-28.5 -71.5t-56 -82.5t-91 -87l-80 39q39 41 61.5 88.5t22.5 79.5q0 31 -22.5 57.5t-88.5 37.5zM98 227l154 785h164l-152 -776q-10 -47 2.5 -68t67.5 -25l-31 -143q-16 -2 -23.5 -2h-17.5q-121 0 -153.5 57.5 t-10.5 171.5zM297 1563l203 34l186 -430l-94 -32z" />
<glyph unicode="&#x1f33;" horiz-adv-x="477" d="M-33 1331q0 53 21.5 96t60.5 75t91.5 53.5t111.5 31.5l27 -166q-49 -8 -80 -24.5t-48.5 -37t-22.5 -44t-5 -45.5q0 -27 6 -55.5t21 -55.5l-97 -39q-47 53 -66.5 109.5t-19.5 101.5zM98 227l154 785h164l-152 -776q-10 -47 2.5 -68t67.5 -25l-31 -143q-16 -2 -23.5 -2 h-17.5q-121 0 -153.5 57.5t-10.5 171.5zM293 1567l203 35l186 -431l-94 -32z" />
<glyph unicode="&#x1f34;" horiz-adv-x="477" d="M98 227l154 785h164l-152 -776q-10 -47 2.5 -68t67.5 -25l-31 -143q-16 -2 -23.5 -2h-17.5q-121 0 -153.5 57.5t-10.5 171.5zM129 1427l90 166q92 -16 146.5 -60t54.5 -118q0 -20 -8.5 -52t-30 -71t-56 -82t-89.5 -84l-80 39q41 43 61.5 89t20.5 81q0 31 -21.5 56.5 t-87.5 35.5zM408 1163l251 430l189 -34l-352 -429z" />
<glyph unicode="&#x1f35;" horiz-adv-x="477" d="M98 227l154 785h164l-152 -776q-10 -47 2.5 -68t67.5 -25l-31 -143q-16 -2 -23.5 -2h-17.5q-121 0 -153.5 57.5t-10.5 171.5zM162 1335q0 55 21.5 98.5t59.5 75t90 53t111 31.5l29 -166q-96 -16 -127 -58t-31 -87q0 -29 7.5 -59.5t21.5 -57.5l-96 -39q-47 53 -66.5 108.5 t-19.5 100.5zM422 1167l268 430l189 -34l-369 -428z" />
<glyph unicode="&#x1f36;" horiz-adv-x="477" d="M86 1540q57 98 121 140t125 42q37 0 74.5 -15t74.5 -32.5t70 -33t59 -15.5q31 0 60.5 21.5t70.5 70.5l95 -59q-53 -102 -115 -142t-127 -40q-37 0 -75 14t-74.5 31.5t-70.5 32t-65 14.5q-35 0 -61.5 -17.5t-73.5 -64.5zM98 227l154 785h164l-152 -776q-10 -47 2.5 -68 t67.5 -25l-31 -143q-16 -2 -23.5 -2h-17.5q-121 0 -153.5 57.5t-10.5 171.5zM276 1331l84 133q88 -12 138.5 -45t50.5 -88q0 -16 -7 -40.5t-26.5 -55.5t-54.5 -68t-90 -75l-78 30q43 39 67.5 77t24.5 65q0 25 -23.5 41t-85.5 26z" />
<glyph unicode="&#x1f37;" horiz-adv-x="477" d="M51 1546q57 98 121 140.5t125 42.5q37 0 75 -15.5t74.5 -33t69.5 -33t59 -15.5q31 0 61 21.5t71 70.5l94 -59q-53 -102 -114.5 -142t-127.5 -40q-37 0 -75 14t-74.5 31.5t-70.5 32t-65 14.5q-35 0 -61.5 -17.5t-73.5 -64.5zM98 227l154 785h164l-152 -776 q-10 -47 2.5 -68t67.5 -25l-31 -143q-16 -2 -23.5 -2h-17.5q-121 0 -153.5 57.5t-10.5 171.5zM229 1274q0 80 65.5 126t182.5 62l31 -133q-84 -12 -111.5 -37.5t-27.5 -62.5q0 -51 41 -109l-91 -30q-53 53 -71.5 101t-18.5 83z" />
<glyph unicode="&#x1f38;" horiz-adv-x="483" d="M-113 1327l93 166q92 -16 145 -60t53 -116q0 -18 -8 -50t-28.5 -72t-56.5 -83t-91 -86l-80 39q39 41 61.5 88t22.5 80q0 31 -22.5 57.5t-88.5 36.5zM70 0l278 1425h176l-276 -1425h-178z" />
<glyph unicode="&#x1f39;" horiz-adv-x="483" d="M-172 1237q0 53 21.5 96t60.5 75t91 53.5t112 31.5l26 -166q-49 -8 -79.5 -24.5t-48 -37t-22.5 -44t-5 -45.5q0 -27 6 -55.5t20 -55.5l-96 -39q-47 53 -66.5 109.5t-19.5 101.5zM70 0l278 1425h176l-276 -1425h-178z" />
<glyph unicode="&#x1f3a;" horiz-adv-x="483" d="M-489 1329l92 166q92 -16 145 -60t53 -116q0 -18 -8 -50t-28.5 -72t-56.5 -83t-91 -86l-80 39q39 41 61.5 88t22.5 80q0 31 -22.5 57.5t-87.5 36.5zM-195 1460l203 35l187 -430l-95 -33zM70 0l278 1425h176l-276 -1425h-178z" />
<glyph unicode="&#x1f3b;" horiz-adv-x="483" d="M-532 1225q0 53 21.5 96t60 74.5t91 53t111.5 32.5l27 -166q-49 -8 -80 -24.5t-48.5 -37t-22.5 -44t-5 -46.5q0 -27 6 -55.5t21 -54.5l-96 -39q-47 53 -66.5 109.5t-19.5 101.5zM-207 1460l203 35l186 -430l-94 -33zM70 0l278 1425h176l-276 -1425h-178z" />
<glyph unicode="&#x1f3c;" horiz-adv-x="483" d="M-463 1325l90 166q92 -16 146.5 -60.5t54.5 -117.5q0 -20 -8 -52t-29.5 -71t-56.5 -82t-90 -84l-80 39q41 43 61.5 89t20.5 81q0 31 -21.5 56.5t-87.5 35.5zM-184 1061l252 430l188 -35l-352 -428zM70 0l278 1425h176l-276 -1425h-178z" />
<glyph unicode="&#x1f3d;" horiz-adv-x="483" d="M-463 1233q0 55 21.5 98t59.5 75t90 53.5t112 31.5l28 -166q-96 -16 -126.5 -58t-30.5 -87q0 -29 7 -59.5t21 -57.5l-96 -39q-47 53 -66.5 108.5t-19.5 100.5zM-203 1065l269 430l188 -35l-369 -428zM70 0l278 1425h176l-276 -1425h-178z" />
<glyph unicode="&#x1f3e;" horiz-adv-x="483" d="M-524 1315q57 98 120.5 140t124.5 42q37 0 75 -15.5t75 -32.5t69.5 -32.5t59.5 -15.5q31 0 60.5 21.5t70.5 70.5l94 -59q-53 -102 -114.5 -142.5t-126.5 -40.5q-37 0 -75 14.5t-75 32t-70.5 31.5t-64.5 14q-35 0 -61.5 -17t-73.5 -64zM-334 1106l84 133q88 -12 138.5 -45 t50.5 -88q0 -16 -7.5 -41t-27 -55.5t-54 -67.5t-90.5 -76l-77 31q43 39 67.5 77t24.5 64q0 25 -23.5 41.5t-85.5 26.5zM70 0l278 1425h176l-276 -1425h-178z" />
</font>
</defs>
</svg>
