<?xml version="1.0" encoding="UTF-8" standalone="no"?>
<!DOCTYPE svg  PUBLIC '-//W3C//DTD SVG 1.1//EN'  'http://www.w3.org/Graphics/SVG/1.1/DTD/svg11.dtd'>
<svg xmlns="http://www.w3.org/2000/svg">
<defs>
<font id="PFDinTextPro-LightItalic" horiz-adv-x="1818">
<font-face slope="-12" underline-position="-50" font-weight="300" descent="-200" panose-1="2 0 5 6 0 0 0 9 0 4" units-per-em="1000" unicode-range="U+0020-FB05" bbox="-279 -267 1760 916" x-height="494" underline-thickness="50" font-family="PFDinTextPro" ascent="800" font-style="italic" cap-height="696"/>
<missing-glyph d="M40 73l153 277l-153 277v-554zM368 41l-150 272l-150 -272h300zM396 72v557l-153 -279zM368 659h-300l150 -272zM0 700h436v-700h-436v700z" horiz-adv-x="436"/>
<glyph glyph-name="fj" horiz-adv-x="454" unicode="fj" d="M139 496l19 91q8 42 24 70t37.5 44.5t48 23.5t55.5 7q95 0 136 -59l-44 -43q-17 22 -40.5 31.5t-59.5 9.5q-42 0 -63.5 -20t-29.5 -64l-18 -91h224l-106 -567q-11 -58 -44 -94.5t-97 -36.5h-41l11 57h5.5h9.5h9.5t4.5 1q65 3 80 78l95 507h-162l-116 -601h-65l117 601 h-61l11 55h60z"/>
<glyph glyph-name="ffj" horiz-adv-x="688" unicode="ffj" d="M320 650q-43 0 -68.5 -20t-34.5 -65l-13 -69h165l18 88q2 12 4.5 23t7.5 21q-16 12 -35.5 17t-43.5 5zM432 496h226l-107 -567q-6 -29 -16.5 -53t-27.5 -41.5t-42 -27t-60 -9.5h-37l12 57h5.5h9.5h9t5 1q65 3 79 78l98 507h-164l-117 -601h-63l116 601h-165l-117 -601 h-64l117 601h-60l10 55h61l13 69q8 42 25.5 70t40.5 44.5t50.5 23.5t56.5 7q32 0 61.5 -6.5t48.5 -19.5q27 26 54.5 35.5t64.5 9.5q96 0 138 -58l-47 -44q-19 23 -41.5 32.5t-57.5 9.5q-38 0 -63.5 -20t-33.5 -65z"/>
<glyph glyph-name="ff" horiz-adv-x="497" unicode="ff" d="M205 496h165l22 109q1 14 8 29q-16 11 -37 16t-44 5q-82 0 -100 -85zM529 731h10h20t20 -0.5t11 -0.5l-11 -59q-2 0 -9 0.5t-15.5 0.5h-15.5h-8q-21 0 -34.5 -7t-22.5 -18t-13.5 -24.5t-7.5 -27.5l-20 -99h110l-11 -54h-110l-116 -601h-63l116 601h-165l-116 -601h-64 l116 601h-61l11 54h60l15 74q8 42 25 70t40.5 44.5t51.5 23.5t58 7t58 -6.5t46 -17.5q20 20 42 30t53 10z"/>
<glyph glyph-name="fi" horiz-adv-x="454" unicode="fi" d="M276 0l85 441h-165l-117 -601h-64l117 601h-61l11 55h60l18 91q9 44 25.5 72.5t39 44.5t49 22t55.5 6q48 0 84.5 -15t56.5 -44l-51 -43q-16 23 -40 32t-59 9q-37 0 -62.5 -20t-33.5 -64l-17 -91h228l-96 -496h-63z"/>
<glyph glyph-name="fl" horiz-adv-x="471" unicode="fl" d="M392 0q-53 0 -76 23.5t-23 57.5q0 15 4 33l108 544q-21 8 -42.5 11t-35.5 3q-48 0 -71.5 -20.5t-31.5 -64.5l-17 -91h112l-10 -55h-113l-117 -601h-64l117 601h-61l11 55h60l18 91q8 42 24 70t38.5 44.5t51 23.5t61.5 7q17 0 52.5 -4.5t87.5 -20.5l-114 -587 q-2 -10 -2 -19q0 -16 9 -30t44 -14h16l-12 -57h-24z"/>
<glyph glyph-name="ffi" horiz-adv-x="688" unicode="ffi" d="M322 650q-42 0 -68 -20t-34 -65l-13 -69h165l17 88q2 12 4.5 23t7.5 21q-16 12 -35.5 17t-43.5 5zM504 0l85 441h-165l-116 -601h-64l117 601h-165l-117 -601h-64l117 601h-61l11 55h60l14 69q8 42 25 70t40.5 44.5t51.5 23.5t58 7q32 0 60.5 -6.5t47.5 -19.5 q26 26 54 35.5t65 9.5q100 0 143 -58l-52 -44q-17 22 -40.5 32t-58.5 10q-39 0 -64.5 -20t-33.5 -65l-17 -88h229l-96 -496h-64z"/>
<glyph glyph-name="ffl" horiz-adv-x="700" unicode="ffl" d="M564 732q17 0 52.5 -4.5t87.5 -20.5l-114 -587q-2 -10 -2 -19q0 -16 9 -30t44 -14h16l-12 -57h-24q-53 0 -76 23.5t-23 57.5q0 15 4 33l108 544q-21 8 -42.5 11t-36.5 3q-86 0 -102 -85l-18 -91h111l-10 -55h-112l-116 -601h-64l117 601h-165l-117 -601h-64l117 601h-61 l11 55h60l14 69q8 42 24.5 70t39 44.5t50 23.5t57.5 7q32 0 58.5 -6.5t52.5 -18.5q26 26 57 36.5t69 10.5zM322 650q-42 0 -68 -20t-34 -65l-13 -69h165l17 91q5 23 12 41q-16 12 -39.5 17t-39.5 5z"/>
<glyph glyph-name="ft" horiz-adv-x="492" unicode="ft" d="M196 442l-117 -601h-64l117 601h-61l11 54h60l22 109q11 61 45.5 93.5t92.5 32.5h10h20t20 -0.5t10 -0.5l-11 -59q-1 0 -8.5 0.5t-15.5 0.5h-15h-8q-21 0 -34.5 -7t-22.5 -18t-13.5 -24.5t-7.5 -27.5l-20 -99h166l24 127h63l-24 -127h84l-11 -54h-84l-61 -313 q-3 -15 -3 -28t5 -23t15.5 -15.5t29.5 -5.5h37l-10 -57h-52q-49 0 -70 24t-21 56q0 14 3 31l64 331h-165z"/>
<glyph glyph-name=".notdef" d="M40 73l153 277l-153 277v-554zM368 41l-150 272l-150 -272h300zM396 72v557l-153 -279zM368 659h-300l150 -272zM0 700h436v-700h-436v700z" horiz-adv-x="436"/>
<glyph glyph-name=".null" horiz-adv-x="0"/>
<glyph glyph-name="nonmarkingreturn" horiz-adv-x="333"/>
<glyph glyph-name="space" horiz-adv-x="215" unicode=" "/>
<glyph glyph-name="exclam" horiz-adv-x="226" unicode="!" d="M37 0l16 79h72l-16 -79h-72zM131 182h-46l92 514h62z"/>
<glyph glyph-name="quotedbl" horiz-adv-x="275" unicode='&quot;' d="M117 503l38 193h49l-37 -193h-50zM225 503l37 193h49l-37 -193h-49z"/>
<glyph glyph-name="numbersign" horiz-adv-x="489" unicode="#" d="M173 264h129l55 170h-128zM26 264h100l56 170h-95l9 45h101l71 215h47l-72 -215h129l71 215h47l-71 -215h100l-8 -45h-106l-56 -170h100l-9 -44h-107l-70 -220h-48l71 220h-128l-72 -220h-48l72 220h-94z"/>
<glyph glyph-name="dollar" horiz-adv-x="484" unicode="$" d="M257 387q12 63 24 124.5t23 124.5q-27 -7 -52 -17.5t-44.5 -28t-31 -42.5t-11.5 -61q0 -21 8 -37t21 -28t29.5 -20.5t33.5 -14.5zM282 308q-12 -64 -24 -127.5t-25 -127.5q31 3 58.5 13.5t48.5 29t33 44.5t12 58q0 24 -9 42t-24 31t-33.5 22t-36.5 15zM98 485q0 46 17 84 t47 65.5t69.5 43t84.5 16.5l15 78h40q-4 -20 -7.5 -40t-8.5 -40q38 -4 75.5 -17t63.5 -34l-36 -52q-24 17 -53 29t-60 16l-51 -261q30 -10 58.5 -22.5t50 -32.5t35 -49.5t13.5 -73.5q-2 -47 -21 -83.5t-50.5 -62t-72 -39.5t-85.5 -15l-21 -113h-41l22 114q-49 4 -91.5 21 t-80.5 52l41 48q32 -28 65 -44.5t77 -19.5q13 67 25.5 134.5t26.5 134.5q-26 9 -52 22t-47 32t-34.5 45.5t-13.5 63.5z"/>
<glyph glyph-name="percent" horiz-adv-x="760" unicode="%" d="M145 -17h-50l574 739h51zM251 654q-38 0 -58 -22.5t-28 -53.5l-33 -177q-2 -11 -2 -21q0 -21 13 -40t46 -19q21 0 36.5 6t26 16.5t16.5 24.5t10 30l35 173q3 13 2.5 27.5t-7 27t-20 20.5t-37.5 8zM255 699q30 0 52.5 -10.5t36.5 -28t18 -35t4 -29.5t-3 -24l-36 -182 q-11 -53 -43.5 -83.5t-95.5 -30.5q-29 0 -51.5 9.5t-36 26.5t-17 34.5t-3.5 30.5t2 28l33 178q10 51 46 83.5t94 32.5zM610 375q-38 0 -58 -22.5t-28 -53.5l-33 -177q-2 -11 -2 -21q0 -21 13 -40t46 -19q21 0 36.5 6t26 16.5t16.5 24.5t10 30l35 173q3 13 2.5 27.5t-7 27 t-20 20.5t-37.5 8zM614 420q30 0 52.5 -10.5t36.5 -28t17.5 -34.5t3.5 -29t-2 -25l-36 -182q-11 -53 -43.5 -83.5t-95.5 -30.5q-29 0 -51.5 9.5t-36 26.5t-17.5 34.5t-4 30.5t3 28l33 178q10 51 46 83.5t94 32.5z"/>
<glyph glyph-name="ampersand" horiz-adv-x="568" unicode="&amp;" d="M249 336q-67 -44 -103.5 -89.5t-36.5 -100.5q0 -45 26 -70.5t72 -25.5q39 0 80.5 20.5t72.5 50.5q-29 54 -55.5 107.5t-55.5 107.5zM352 704q45 0 81 -14.5t61 -48.5l-49 -38q-17 23 -42 32.5t-58 9.5q-27 0 -46.5 -9t-32.5 -23.5t-19.5 -32t-6.5 -35.5q0 -26 17 -69 t42 -94t53.5 -104.5t51.5 -100.5q22 28 36 60.5t22 61.5q14 -2 28 -2.5t28 -1.5q-13 -44 -33.5 -88t-51.5 -85q16 -30 33 -61.5t33 -60.5h-73l-42 75q-48 -43 -94 -62t-97 -19q-71 0 -108 39t-37 107q0 77 46.5 135.5t130.5 109.5q-19 41 -34 76.5t-15 78.5q0 31 12 61 t34.5 52.5t55 36.5t74.5 14z"/>
<glyph glyph-name="quotesingle" horiz-adv-x="214" unicode="&apos;" d="M139 503l37 193h49l-37 -193h-49z"/>
<glyph glyph-name="parenleft" horiz-adv-x="271" unicode="(" d="M166 -120q-48 71 -74 153t-26 167q0 75 21 148t56.5 140.5t83 127t100.5 109.5l29 -21q-48 -53 -88.5 -113.5t-70 -126.5t-46 -136.5t-16.5 -142.5t16 -144t50 -137z"/>
<glyph glyph-name="parenright" horiz-adv-x="271" unicode=")" d="M-49 -97q47 52 87.5 113t70.5 127.5t47 137t17 141.5q0 72 -16.5 144t-50.5 137l38 21q47 -69 72 -149t25 -165q0 -77 -21 -150.5t-57 -141t-84 -128t-102 -110.5z"/>
<glyph glyph-name="asterisk" horiz-adv-x="352" unicode="*" d="M335 444q-11 -8 -26 -18t-27 -17l-44 106q-7 -8 -19 -22.5t-24.5 -30.5t-24.5 -30.5t-18 -23.5l-40 36l97 93q-9 2 -23.5 6.5t-31 10t-31.5 10t-24 6.5l27 54l104 -48q1 10 3.5 26.5t4.5 34.5t4 34.5t4 26.5h55l-33 -122q10 4 26.5 10.5t35 13.5t35.5 13.5t27 10.5 q1 -11 3 -27.5t3 -27.5l-124 -32z"/>
<glyph glyph-name="plus" horiz-adv-x="484" unicode="+" d="M277 262l-38 -193h-50l37 193h-188l10 51h189l37 191h50l-37 -191h188l-10 -51h-188z"/>
<glyph glyph-name="comma" horiz-adv-x="213" unicode="," d="M34 -106h-39l49 106h-22l17 89h81l-16 -83z"/>
<glyph glyph-name="hyphen" horiz-adv-x="381" unicode="-" d="M58 237l12 60h276l-12 -60h-276z"/>
<glyph glyph-name="period" horiz-adv-x="205" unicode="." d="M23 0l17 88h81l-17 -88h-81z"/>
<glyph glyph-name="slash" horiz-adv-x="305" unicode="/" d="M-1 -42h-49l399 767h50z"/>
<glyph glyph-name="zero" horiz-adv-x="484" unicode="0" d="M292 642q-60 0 -96.5 -38.5t-47.5 -98.5l-61 -314q-2 -9 -3 -17.5t-1 -16.5q0 -48 29.5 -76.5t77.5 -28.5q30 0 54.5 10.5t42.5 29.5t30 44t18 55l61 314q3 15 3 28q0 46 -27.5 77.5t-79.5 31.5zM186 -6q-33 0 -63 10t-52.5 29t-36 47t-13.5 63q0 22 4 42l63 326 q17 86 70 138.5t141 52.5q31 0 60.5 -10t52.5 -29.5t36.5 -47t13.5 -62.5q0 -23 -4 -42l-63 -326q-17 -89 -69.5 -140t-139.5 -51z"/>
<glyph glyph-name="one" horiz-adv-x="484" unicode="1" d="M204 0h-61l122 629l-107 -67l14 68l105 66h63z"/>
<glyph glyph-name="two" horiz-adv-x="484" unicode="2" d="M-12 0l12 63l346 358q60 63 60 122q0 42 -27 69.5t-79 27.5q-50 0 -86.5 -30t-55.5 -78l-63 13q13 36 34.5 64.5t49 49t60 31t67.5 10.5q33 0 63 -9.5t53 -28.5t36.5 -47t13.5 -65q0 -40 -21 -81t-54 -76l-321 -331h299l-12 -62h-375z"/>
<glyph glyph-name="three" horiz-adv-x="484" unicode="3" d="M291 701q81 0 123 -40.5t42 -105.5q0 -26 -7 -53t-22.5 -52t-39.5 -47t-58 -38q42 -21 58 -53.5t16 -70.5q0 -54 -19 -99.5t-52 -78.5t-76.5 -51.5t-92.5 -18.5q-30 0 -58 7t-50 23t-36 41.5t-17 62.5l63 11q5 -45 33 -66t70 -21q35 0 66 13.5t54.5 37.5t37 57t13.5 72 q0 50 -26.5 77t-75.5 27h-47l11 57h38q32 0 59.5 12t48 32t32.5 47.5t12 59.5q0 46 -28.5 72.5t-75.5 26.5q-39 0 -77.5 -23.5t-58.5 -66.5l-60 11q12 32 32.5 57.5t46.5 43.5t57 27.5t64 9.5z"/>
<glyph glyph-name="four" horiz-adv-x="484" unicode="4" d="M366 109l-21 -109h-61l21 109h-305l12 61l342 526h66l-341 -527h237l41 210h62l-41 -210h58l-11 -60h-59z"/>
<glyph glyph-name="five" horiz-adv-x="484" unicode="5" d="M79 139q5 -43 32 -66t72 -23q49 0 83 23t54.5 59t29.5 80.5t9 87.5q0 44 -22.5 73.5t-78.5 29.5q-37 0 -70.5 -17t-57.5 -46h-61q15 90 33.5 178t35.5 178h350l-12 -62h-291l-44 -222q34 26 69.5 38t70.5 12q71 0 107 -39t36 -105q0 -60 -12.5 -118.5t-41 -104 t-75.5 -73.5t-116 -28q-32 0 -61 7.5t-51 23.5t-35.5 41.5t-15.5 61.5z"/>
<glyph glyph-name="six" horiz-adv-x="484" unicode="6" d="M360 237q0 48 -25.5 77t-76.5 29q-37 0 -66.5 -16t-50 -42t-31.5 -59t-11 -67q0 -49 26 -78.5t76 -29.5q36 0 65.5 16.5t50.5 43.5t32 60t11 66zM188 -6q-34 0 -62 11.5t-48.5 32.5t-31.5 49.5t-11 63.5q0 41 13.5 84t36.5 77l268 384h69l-221 -318l1 -1q18 10 40.5 15.5 t42.5 5.5q34 0 60 -11.5t44 -32t27 -48t9 -60.5q0 -52 -17 -98t-47.5 -80t-74.5 -54t-98 -20z"/>
<glyph glyph-name="seven" horiz-adv-x="484" unicode="7" d="M96 0h-69l367 634h-244l-20 -107h-63l33 169h373l-12 -65z"/>
<glyph glyph-name="eight" horiz-adv-x="484" unicode="8" d="M355 222q0 50 -33 80t-82 30q-33 0 -63.5 -13.5t-54 -36t-37.5 -52.5t-14 -63q0 -50 32.5 -82.5t82.5 -32.5q34 0 64.5 14t54 37t37 54t13.5 65zM404 542q0 47 -28.5 75t-74.5 28q-33 0 -61 -13.5t-48.5 -36t-32.5 -52t-12 -60.5q0 -46 29.5 -71.5t74.5 -25.5 q33 0 61 12.5t48.5 33.5t32 49.5t11.5 60.5zM174 -6q-36 0 -66 11.5t-52 32.5t-34.5 50.5t-12.5 65.5q0 33 10 65.5t29 60t45 49t58 32.5q-32 18 -49 47.5t-17 66.5q0 46 18.5 87t49.5 72t72 49t87 18q68 0 111 -41.5t43 -110.5q0 -32 -9.5 -61.5t-27 -54.5t-40.5 -44 t-50 -30q42 -17 60 -54t18 -79q0 -51 -19 -93.5t-52 -73.5t-77.5 -48t-94.5 -17z"/>
<glyph glyph-name="nine" horiz-adv-x="484" unicode="9" d="M118 459q0 -48 26 -77t76 -29q37 0 66 16t49.5 42t31.5 59t11 67q0 49 -26 78.5t-75 29.5q-36 0 -65.5 -16.5t-50 -43.5t-32 -60t-11.5 -66zM290 702q36 0 65 -11.5t49.5 -32.5t31.5 -50t11 -63q0 -41 -14.5 -83.5t-37.5 -76.5l-269 -385h-71l225 322l-3 1 q-35 -20 -78 -20q-33 0 -60 11t-46 31t-29 47.5t-10 59.5q0 52 16 98t46.5 79.5t74.5 53t99 19.5z"/>
<glyph glyph-name="colon" horiz-adv-x="206" unicode=":" d="M78 299l17 89h81l-17 -89h-81zM21 0l16 88h81l-16 -88h-81z"/>
<glyph glyph-name="semicolon" horiz-adv-x="206" unicode=";" d="M80 299l17 89h81l-17 -89h-81zM34 -106h-40l49 106h-21l17 89h81l-16 -83z"/>
<glyph glyph-name="less" horiz-adv-x="484" unicode="&lt;" d="M415 71l-367 193l9 48l441 192l-11 -58l-372 -161q9 -4 33 -16.5t55.5 -29t66.5 -34.5t66.5 -34.5t55.5 -28.5t34 -16z"/>
<glyph glyph-name="equal" horiz-adv-x="484" unicode="=" d="M19 164l11 53h426l-10 -53h-427zM55 349l10 52h427l-10 -52h-427z"/>
<glyph glyph-name="greater" horiz-adv-x="484" unicode="&gt;" d="M23 130q11 4 39.5 16.5t66.5 28.5t79.5 34.5t79.5 35t66.5 28.5t39.5 17l-309 160l11 54l367 -192l-10 -48l-441 -193z"/>
<glyph glyph-name="question" horiz-adv-x="471" unicode="?" d="M167 0l16 80h72l-15 -80h-73zM325 700q38 0 69.5 -11t54 -30.5t35 -46.5t12.5 -59q0 -37 -10.5 -65.5t-28 -52t-39 -43t-42.5 -37.5q-32 -29 -59.5 -58t-36.5 -66l-12 -58h-66l12 60q8 38 32 70.5t57 61.5q18 19 40 38.5t40.5 40.5t31 44.5t12.5 49.5q0 17 -5.5 35 t-18.5 32.5t-33.5 24t-51.5 9.5q-34 0 -61 -12.5t-46.5 -31.5t-31.5 -41.5t-17 -41.5l-67 16q32 91 90.5 131.5t139.5 40.5z"/>
<glyph glyph-name="at" horiz-adv-x="796" unicode="@" d="M513 382q0 38 -14.5 62.5t-57.5 24.5q-38 0 -64 -22.5t-42.5 -54.5t-24 -67.5t-7.5 -61.5q0 -17 3 -32t11.5 -26.5t22.5 -18t37 -6.5q36 0 61.5 21t42 51.5t24 65.5t8.5 64zM597 513q-7 -33 -17.5 -69.5t-20 -73.5t-16 -73t-6.5 -68q0 -22 11 -37.5t33 -15.5 q27 0 54 16.5t49.5 49t36.5 79t14 106.5q0 56 -20 99.5t-54.5 73t-80 44.5t-95.5 15q-80 0 -147.5 -30t-116.5 -82t-76.5 -120.5t-27.5 -146.5q0 -128 72.5 -200.5t204.5 -72.5q51 0 102.5 11.5t102.5 32.5l14 -48q-53 -18 -108 -30t-114 -12q-72 0 -132.5 21t-103.5 61 t-67 98t-24 132q0 89 31.5 168t87.5 137.5t133 92.5t168 34q65 0 121 -19t96.5 -54.5t63.5 -86.5t23 -115q0 -70 -18 -125.5t-47.5 -94.5t-67.5 -60t-77 -21q-38 0 -63 18t-27 49h-3q-18 -24 -49 -43.5t-73 -19.5q-57 0 -85 33.5t-28 85.5q0 41 11 87.5t34 86t59.5 65.5 t86.5 26q64 0 93 -54h2l11 50h50z"/>
<glyph glyph-name="A" horiz-adv-x="580" unicode="A" d="M368 616q-5 -10 -20.5 -39.5t-37 -69.5t-45.5 -85t-45.5 -85.5t-38 -71.5t-22.5 -42h268q-3 21 -7.5 53t-10 69t-11 77t-11 76.5t-10 67t-7.5 50.5h-2zM459 0q-6 42 -12 82.5t-13 82.5h-305l-89 -165h-71q96 175 191.5 348t192.5 348h62l114 -696h-70z"/>
<glyph glyph-name="B" horiz-adv-x="580" unicode="B" d="M166 327l-53 -265h200q33 0 62 10.5t51 30t35 47t15 60.5v6q0 49 -31.5 80t-87.5 31h-191zM226 637l-50 -251h179q31 0 60.5 10t52 28t37 44t16.5 58v5q0 24 -8.5 43.5t-26 34t-41.5 21.5t-52 7h-167zM35 0l136 696h235q84 0 133 -39.5t49 -113.5v-9q-2 -62 -39 -110 t-106 -66l-1 -3q27 -7 46.5 -22t32 -34.5t17.5 -41t5 -42.5v-8q-2 -47 -20 -85t-48 -65t-68.5 -42t-81.5 -15h-290z"/>
<glyph glyph-name="C" horiz-adv-x="536" unicode="C" d="M517 138q-40 -70 -106.5 -107t-147.5 -37q-62 0 -105 21.5t-68 57.5t-30.5 69.5t-5.5 53.5q0 29 7 59l39 198q10 50 31.5 95t56 79t81.5 54t109 20q81 0 133.5 -38t73.5 -101l-67 -29q-11 45 -47.5 74.5t-90.5 29.5q-49 0 -86 -16t-63 -42.5t-42.5 -61.5t-23.5 -72 l-37 -193q-6 -26 -6 -51q0 -11 2.5 -34t19 -50t47 -43.5t77.5 -16.5q59 0 107.5 30t79.5 81z"/>
<glyph glyph-name="D" horiz-adv-x="604" unicode="D" d="M226 634l-112 -572h160q53 0 91.5 15t65.5 43t44 67.5t26 88.5l24 127q9 45 9 83q0 72 -37 110t-121 38h-150zM393 696q42 0 80 -10t66.5 -32t45.5 -57t17 -84q0 -45 -8 -102.5t-20 -112.5t-26.5 -100.5t-26.5 -66.5q-24 -40 -52 -65.5t-59.5 -40t-66 -20t-70.5 -5.5 h-237l135 696h222z"/>
<glyph glyph-name="E" horiz-adv-x="525" unicode="E" d="M35 0l136 696h410l-12 -62h-344l-48 -252h304l-12 -60h-304l-51 -260h373l-12 -62h-440z"/>
<glyph glyph-name="F" horiz-adv-x="506" unicode="F" d="M226 634l-49 -255h303l-12 -60h-303l-62 -319h-68l136 696h415l-12 -62h-348z"/>
<glyph glyph-name="G" horiz-adv-x="580" unicode="G" d="M257 55q41 0 76 14t62.5 39t46 58t26.5 72l13 63h-150l12 61h217l-26 -127q-10 -53 -34 -97.5t-61 -76.5t-85 -49.5t-106 -17.5q-62 0 -104.5 21t-67 57t-29 68t-4.5 50q0 30 7 63l39 198q10 50 31.5 95t56 79t81.5 54t109 20q81 0 133.5 -38t73.5 -101l-67 -29 q-11 45 -47.5 74.5t-90.5 29.5q-49 0 -86 -16t-63 -42.5t-42.5 -61.5t-23.5 -72l-37 -193q-6 -26 -6 -51q0 -11 2.5 -34t19 -50t47 -43.5t77.5 -16.5z"/>
<glyph glyph-name="H" horiz-adv-x="629" unicode="H" d="M436 0l62 322h-333l-63 -322h-67l136 696h66l-61 -314h334l61 314h67l-136 -696h-66z"/>
<glyph glyph-name="I" horiz-adv-x="222" unicode="I" d="M37 0l136 696h66l-135 -696h-67z"/>
<glyph glyph-name="J" horiz-adv-x="449" unicode="J" d="M381 205q-12 -60 -33.5 -100.5t-52.5 -65t-69 -35t-83 -10.5q-46 0 -84 17.5t-60 46.5l49 45q39 -47 92 -47q30 0 58.5 7.5t51.5 27t41 51.5t27 82l92 472h66z"/>
<glyph glyph-name="K" horiz-adv-x="600" unicode="K" d="M469 0q-35 94 -70.5 188t-70.5 188l-191 -190l-36 -186h-66l136 696h65q-20 -103 -39.5 -205t-39.5 -205h2l27 27l156 160q112 111 223 223h80l-266 -268q42 -108 82 -214t81 -214h-73z"/>
<glyph glyph-name="L" horiz-adv-x="525" unicode="L" d="M35 0l136 696h66l-124 -634h357l-11 -62h-424z"/>
<glyph glyph-name="M" horiz-adv-x="730" unicode="M" d="M664 542h-3l-99 -158l-183 -278h-57q-11 45 -29.5 113t-37.5 142l-47 181h-2l-105 -542h-66l136 696h65q20 -78 40 -154.5t40 -153.5l49 -200h2l118 185l208 323h66l-136 -696h-65z"/>
<glyph glyph-name="N" horiz-adv-x="655" unicode="N" d="M475 0q-7 16 -21 47.5t-31 70t-36 81t-36 81t-31 69.5t-22 48l-81 189h-2q-5 -26 -14 -72.5t-20 -103t-22.5 -118t-22.5 -118t-19.5 -102.5t-13.5 -72h-67l136 696h66q7 -16 20.5 -46.5t30 -68.5t35 -79t35 -79t30 -68.5t21.5 -46.5l85 -198h2q5 26 14 72t20 102.5 t23 118t23 118t19.5 103t13.5 72.5h65l-135 -696h-65z"/>
<glyph glyph-name="O" horiz-adv-x="573" unicode="O" d="M355 640q-47 0 -81.5 -16.5t-58.5 -44t-39 -62.5t-22 -71l-38 -196q-4 -24 -4 -47q0 -13 2.5 -37t20.5 -52t52 -44.5t86 -16.5q43 0 76 15t57 41.5t40.5 63t25.5 79.5q6 27 12.5 56t12.5 58t10.5 56t6.5 51q2 12 2 23q0 21 -8 46.5t-29 48.5t-53 36t-71 13zM361 701 q62 0 107.5 -21t72.5 -56.5t33.5 -69.5t6.5 -57q0 -25 -5 -52q-9 -48 -19 -98t-20 -99q-12 -57 -33 -104t-53.5 -80.5t-78 -51.5t-107.5 -18q-54 0 -95 15.5t-68.5 42.5t-41.5 63.5t-14 78.5q0 25 4.5 56.5t11 65.5t14.5 68.5t15 65.5q10 50 30 95.5t52 80t78 55t110 20.5z "/>
<glyph glyph-name="P" horiz-adv-x="553" unicode="P" d="M529 516q0 60 -36 89t-93 29h-174l-55 -282h185q36 0 67.5 12t55 33.5t37 52t13.5 66.5zM103 0h-67l136 696h238q41 0 75.5 -10.5t60 -31.5t39.5 -53.5t14 -75.5q0 -53 -19.5 -96t-53 -74.5t-78.5 -48.5t-96 -17h-193z"/>
<glyph glyph-name="Q" horiz-adv-x="580" unicode="Q" d="M355 640q-47 0 -81.5 -16.5t-58.5 -44t-39 -62.5t-22 -71l-38 -196q-4 -24 -4 -47q0 -13 2.5 -37t20.5 -52t52 -44.5t86 -16.5q37 0 66.5 11.5t52.5 31.5l-94 90l47 45l87 -85q14 23 23.5 49.5t16.5 56.5q6 27 12.5 56t12.5 58t10.5 56t6.5 51q2 12 2 23q0 21 -8 46.5 t-29 48.5t-53 36t-71 13zM361 701q62 0 107.5 -21t72.5 -56.5t33.5 -69.5t6.5 -57q0 -25 -5 -52q-9 -48 -19 -98t-20 -99q-9 -44 -23 -81t-34 -68l67 -65l-45 -44l-64 61q-32 -27 -74.5 -42t-98.5 -15q-54 0 -95 15.5t-68.5 42.5t-41.5 63.5t-14 78.5q0 25 4.5 56.5t11 65.5 t14.5 68.5t15 65.5q10 50 30 95.5t52 80t78 55t110 20.5z"/>
<glyph glyph-name="R" horiz-adv-x="580" unicode="R" d="M536 518v12q0 24 -7.5 44.5t-24.5 34.5t-41.5 21t-52.5 7h-183l-52 -263h192q32 0 61.5 9.5t53 27.5t38 45t16.5 62zM434 0l-95 314h-175l-61 -314h-67l136 696h263q40 0 72.5 -12t55 -35t32 -52.5t9.5 -60.5q0 -9 -1 -18q-6 -85 -59 -135t-134 -63l101 -320h-77z"/>
<glyph glyph-name="S" horiz-adv-x="527" unicode="S" d="M346 702q53 0 105 -14.5t91 -41.5l-40 -55q-33 23 -75.5 35t-87.5 12q-29 0 -58.5 -8t-53.5 -25t-39.5 -43.5t-15.5 -62.5q0 -28 13.5 -47.5t33 -32t41.5 -20t39 -11.5q36 -9 72 -21.5t65.5 -32.5t48 -51.5t18.5 -77.5q0 -53 -21.5 -93t-58 -66t-85 -39t-102.5 -13 q-67 0 -127 19t-105 61l45 50q37 -32 86 -49t103 -17q37 0 72 8.5t61.5 25.5t42.5 44t16 63q0 29 -12 49.5t-31.5 34.5t-44.5 23t-50 15q-32 7 -65.5 18t-60.5 30t-44 47.5t-17 71.5q0 49 17.5 88.5t49.5 67.5t76 43t98 15z"/>
<glyph glyph-name="T" horiz-adv-x="473" unicode="T" d="M354 637l-124 -637h-66l123 637h-199l11 59h465l-11 -59h-199z"/>
<glyph glyph-name="U" horiz-adv-x="600" unicode="U" d="M542 229q-11 -53 -34.5 -96.5t-58.5 -74t-81.5 -47.5t-101.5 -17q-50 0 -91 17.5t-68 49.5t-35 65.5t-8 59.5q0 25 5 53l89 457h66l-87 -445q-5 -27 -5 -51q0 -14 3 -38t20.5 -50.5t46.5 -41t70 -14.5q78 0 133 49.5t72 135.5l89 455h67z"/>
<glyph glyph-name="V" horiz-adv-x="525" unicode="V" d="M192 0l-89 696h68q4 -32 9.5 -79t12 -101t13 -111t12.5 -111q7 -56 12 -104t9 -81h4l100 203l193 384h74q-91 -175 -181 -348t-181 -348h-56z"/>
<glyph glyph-name="W" horiz-adv-x="800" unicode="W" d="M573 0h-60l-27 361l-15 212h-2l-87 -190q-45 -97 -88.5 -192t-88.5 -191h-60q-8 175 -16.5 348t-17.5 348h66q4 -128 7.5 -216.5t6 -152t4 -109t3.5 -88.5h3l103 227q40 85 79.5 169.5t78.5 169.5h61l26 -332q3 -36 5.5 -71t5 -66t4 -56.5t3.5 -41.5h3l77 186 q41 96 80.5 190t79.5 191h70z"/>
<glyph glyph-name="X" horiz-adv-x="502" unicode="X" d="M386 0l-113 305l-230 -305h-74l278 358l-129 338h70l102 -285l213 285h74l-261 -339l141 -357h-71z"/>
<glyph glyph-name="Y" horiz-adv-x="482" unicode="Y" d="M231 0h-63l56 287q-31 103 -62 204.5t-63 204.5h65q14 -50 30 -102t36 -120q9 -33 19 -69t15 -57l96 143q4 6 15 22t25 36.5t30 44t30 44t24.5 36.5t14.5 22h71q-71 -103 -141 -204.5t-142 -204.5z"/>
<glyph glyph-name="Z" horiz-adv-x="487" unicode="Z" d="M-8 0l12 60l459 577h-333l11 59h409l-11 -55l-460 -579h348l-12 -62h-423z"/>
<glyph glyph-name="bracketleft" horiz-adv-x="243" unicode="[" d="M12 -107l156 805h153l-8 -46h-95l-138 -714h94l-9 -45h-153z"/>
<glyph glyph-name="backslash" horiz-adv-x="305" unicode="\" d="M98 725h50l103 -767h-51z"/>
<glyph glyph-name="bracketright" horiz-adv-x="243" unicode="]" d="M-31 -107l9 45h94l138 714h-93l9 46h152l-157 -805h-152z"/>
<glyph glyph-name="asciicircum" horiz-adv-x="484" unicode="^" d="M57 330l258 364h48l115 -363h-53l-95 304q-6 -9 -22 -32.5t-38 -54.5t-46 -65.5t-46 -65t-38.5 -54.5t-21.5 -33h-61z"/>
<glyph glyph-name="underscore" horiz-adv-x="487" unicode="_" d="M-63 -118l10 49h487l-10 -49h-487z"/>
<glyph glyph-name="grave" horiz-adv-x="483" unicode="`" d="M316 559l-95 163l54 19l79 -168z"/>
<glyph glyph-name="a" horiz-adv-x="493" unicode="a" d="M111 168q0 -21 5 -41.5t17 -36.5t31 -26t48 -10q47 0 80.5 28t55.5 69.5t32 88.5t10 85q0 51 -24 85.5t-77 34.5t-87 -30.5t-54.5 -74t-28.5 -91t-8 -81.5zM286 501q19 0 38.5 -4.5t36.5 -14t30.5 -23.5t19.5 -33l3 1l15 68h60l-97 -495h-62l14 65l-3 2 q-30 -37 -64.5 -55t-82.5 -18q-39 0 -66.5 13t-45 36.5t-25.5 55t-8 67.5q0 35 6 73.5t18 75.5t31.5 71t45.5 59.5t60 40.5t76 15z"/>
<glyph glyph-name="b" horiz-adv-x="471" unicode="b" d="M286 443q-48 0 -81 -28t-53.5 -69.5t-29.5 -89t-9 -86.5q0 -25 5 -46.5t16.5 -37.5t30.5 -25.5t46 -9.5q48 0 81.5 27.5t54.5 69t30.5 89t9.5 88.5q0 51 -22 84.5t-79 33.5zM216 -6q-43 0 -75 15t-52 54h-2l-15 -63h-60l141 725h61l-55 -293h2q30 35 68.5 52t80.5 17 q38 0 65 -12t44.5 -33t25.5 -50t8 -63q0 -56 -12.5 -117.5t-40.5 -113t-73.5 -85t-110.5 -33.5z"/>
<glyph glyph-name="c" horiz-adv-x="414" unicode="c" d="M371 56q-35 -29 -77 -45.5t-88 -16.5q-90 0 -132.5 52.5t-42.5 138.5q0 60 16.5 117t49.5 101t82.5 71t115.5 27q42 0 81.5 -15.5t66.5 -46.5l-50 -46q-20 21 -47 34.5t-56 13.5q-51 0 -88 -22t-61 -57.5t-35.5 -80t-11.5 -89.5q0 -65 30 -101.5t98 -36.5q29 0 61 15.5 t55 31.5z"/>
<glyph glyph-name="d" horiz-adv-x="471" unicode="d" d="M274 442q-36 0 -62.5 -14.5t-45.5 -38.5t-31.5 -53.5t-19.5 -59t-9.5 -56.5t-2.5 -45q0 -27 4.5 -49t15.5 -38t30.5 -25t49.5 -9q33 0 58.5 14t44.5 37t32 51.5t21.5 57.5t12 55.5t3.5 44.5q0 23 -4.5 46t-15.5 41t-31 29.5t-50 11.5zM320 0q3 17 7 32.5t7 32.5 q-1 0 -1 0.5t-1 0.5q-31 -35 -70 -53.5t-87 -18.5q-39 0 -65 12.5t-42 34t-23 51.5t-7 65q0 54 12 114.5t40 111.5t72.5 84t110.5 33q45 0 78.5 -20.5t49.5 -55.5h1l60 302h61l-142 -726h-61z"/>
<glyph glyph-name="e" horiz-adv-x="462" unicode="e" d="M282 444q-41 0 -70 -16t-49 -41.5t-31.5 -57.5t-17.5 -65q17 -2 34 -2h29q70 0 112 10.5t64.5 25.5t29.5 32.5t7 31.5q0 38 -28 60t-80 22zM285 501q81 0 125 -36t44 -96q0 -32 -13 -61.5t-46 -52t-89 -36t-143 -13.5q-11 0 -28 0.5t-31 1.5q-3 -26 -3 -37 q0 -65 29 -92.5t83 -27.5q15 0 33 3.5t36 9.5t35.5 14t30.5 17l31 -45q-36 -26 -82.5 -41t-91.5 -15q-85 0 -124.5 45t-39.5 132q0 57 13.5 115.5t43 106.5t76 78t111.5 30z"/>
<glyph glyph-name="f" horiz-adv-x="261" unicode="f" d="M92 -79q-11 -54 -47 -91t-100 -37q-22 0 -42 4l12 56q8 -2 15.5 -1.5t14.5 0.5q24 0 39.5 7.5t25 19.5t14 26t7.5 27l100 509h-69l10 54h70l22 108q6 27 16.5 50.5t28 41t42 27t58.5 9.5q23 0 43 -4l-10 -56q-10 2 -18.5 1.5t-16.5 -0.5q-24 0 -39 -7.5t-24 -19.5 t-13 -26t-7 -27l-20 -97h99l-11 -54h-98z"/>
<glyph glyph-name="g" horiz-adv-x="495" unicode="g" d="M383 323q0 25 -6 47t-18.5 38.5t-32.5 26t-47 9.5q-48 0 -80.5 -27.5t-52.5 -69t-28.5 -89.5t-8.5 -88q0 -26 4 -47t15 -36t29 -23.5t47 -8.5q48 0 81.5 27.5t55.5 68t32 87.5t10 85zM484 496q-23 -125 -47 -248t-48 -248q-9 -48 -26 -86t-44.5 -65t-66.5 -41.5 t-93 -14.5q-18 0 -38.5 3.5t-40.5 11t-37.5 18t-30.5 24.5q11 11 20 22.5t20 23.5q23 -20 52 -32t59 -12q37 0 64 11t46.5 30.5t31.5 46.5t20 59q5 18 8 36.5t8 37.5h-2q-32 -42 -71 -60t-86 -18q-39 0 -65 12.5t-42 34t-23 51.5t-7 65q0 36 5 75.5t17 77.5t30 72.5t44 61 t60 42t78 15.5q43 0 76.5 -18.5t52.5 -58.5h1l14 71h61z"/>
<glyph glyph-name="h" horiz-adv-x="512" unicode="h" d="M343 0l60 307q4 20 4 37q0 34 -18 64.5t-80 30.5q-28 0 -54.5 -10t-48 -28t-37.5 -43.5t-22 -57.5l-59 -300h-61l141 727h61l-59 -303h3q32 40 75 58.5t84 18.5q34 0 63 -11t48 -33.5t24.5 -47t5.5 -41.5q0 -21 -5 -46l-62 -322h-63z"/>
<glyph glyph-name="i" horiz-adv-x="208" unicode="i" d="M33 0l96 495h62l-96 -495h-62zM154 631l13 65h64l-13 -65h-64z"/>
<glyph glyph-name="j" horiz-adv-x="226" unicode="j" d="M166 631q0 3 2 12.5t4 20t3.5 20t2.5 12.5h65l-13 -65h-64zM92 -72q-11 -60 -50 -95.5t-99 -35.5h-30l10 57q2 0 12.5 -0.5t11.5 0.5q32 1 53.5 21t29.5 58l109 562h63z"/>
<glyph glyph-name="k" horiz-adv-x="483" unicode="k" d="M249 265q-34 -32 -67 -63t-66 -63l-27 -139h-61l141 727h61l-97 -500h2l23 22q21 21 56.5 54t74 69t74 69t56.5 54h75l-198 -190q35 -77 68.5 -153t68.5 -152h-66z"/>
<glyph glyph-name="l" horiz-adv-x="226" unicode="l" d="M143 0q-53 0 -76 23.5t-23 57.5q0 15 4 33l120 611h62l-118 -605q-2 -10 -2 -19q0 -16 9 -30t44 -14h16l-12 -57h-24z"/>
<glyph glyph-name="m" horiz-adv-x="838" unicode="m" d="M723 307q5 27 5 51t-9.5 42t-30.5 28.5t-57 10.5q-28 0 -55 -10t-49 -28t-37.5 -43.5t-21.5 -57.5l-58 -300h-62l59 307q5 23 5 45q0 27 -10 46t-31.5 30.5t-58.5 11.5q-28 0 -54 -10t-47 -28t-36.5 -44t-21.5 -58l-59 -300h-61l96 495h61q-3 -17 -6 -35t-7 -35h2 q32 40 74 57.5t82 17.5q55 0 89 -22t48 -62q1 0 1 -1q39 47 82.5 66t95.5 19q39 0 68 -14t47 -38t22.5 -47.5t4.5 -38.5q0 -18 -4 -38l-64 -324h-62z"/>
<glyph glyph-name="n" horiz-adv-x="506" unicode="n" d="M339 0l60 307q6 27 6 50q0 27 -11 45t-33 28t-60 10q-27 0 -53 -10t-47.5 -28.5t-36.5 -44.5t-21 -57l-58 -300h-61l96 495h61l-13 -69h2q32 40 75.5 57.5t84.5 17.5q34 0 62.5 -11.5t47.5 -33t24.5 -45t5.5 -41.5q0 -19 -4 -39l-64 -331h-63z"/>
<glyph glyph-name="o" horiz-adv-x="489" unicode="o" d="M278 445q-50 0 -84 -28t-54 -69.5t-28.5 -90t-8.5 -89.5q0 -17 4.5 -37.5t17 -38.5t35 -30t57.5 -12q49 0 83 24.5t55 63.5t30.5 87.5t9.5 97.5q0 63 -34 92.5t-83 29.5zM287 501q39 0 70.5 -12.5t54 -35t35 -54t12.5 -70.5q0 -59 -12 -119t-40 -108t-74 -78t-113 -30 q-86 0 -132.5 43t-46.5 124q0 67 14.5 128.5t44.5 108.5t76.5 75t110.5 28z"/>
<glyph glyph-name="p" horiz-adv-x="494" unicode="p" d="M126 179q0 -24 5 -46.5t16.5 -39.5t30.5 -27t47 -10q51 0 84.5 27t53 67.5t27 87.5t7.5 87q0 51 -22 83.5t-77 32.5q-47 0 -79.5 -26.5t-53 -66.5t-30 -85.5t-9.5 -83.5zM181 495l-13 -68l2 -1q31 35 69.5 55t86.5 20q37 0 63 -13t42.5 -35t24 -52.5t7.5 -64.5 q0 -54 -12 -114t-39 -111t-71 -84t-107 -33q-44 0 -79 19.5t-55 57.5l-1 -1l-53 -271h-61l135 696h61z"/>
<glyph glyph-name="q" horiz-adv-x="494" unicode="q" d="M116 172q0 -25 5 -46.5t17 -37t31 -24t47 -8.5q46 0 78.5 27.5t53 68t30 86.5t9.5 84q0 25 -5 47t-16 38.5t-29.5 26t-46.5 9.5q-50 0 -83.5 -27.5t-53.5 -68t-28.5 -88t-8.5 -87.5zM285 501q46 0 77.5 -20t48.5 -55l2 1l14 68h62l-131 -696h-67l53 271l-1 1 q-31 -35 -67 -56t-83 -21q-39 0 -66.5 13.5t-45 36.5t-25.5 53.5t-8 65.5q0 54 12.5 113.5t40 109.5t73 82.5t111.5 32.5z"/>
<glyph glyph-name="r" horiz-adv-x="349" unicode="r" d="M365 424q-14 8 -32 12t-30 4q-29 0 -54.5 -10.5t-46 -30t-35 -46.5t-20.5 -60l-57 -293h-62l96 495h62l-15 -76h3q32 48 74 65t81 17h5q44 -2 64 -15z"/>
<glyph glyph-name="s" horiz-adv-x="437" unicode="s" d="M192 -6q-26 0 -52.5 4.5t-52 13t-48.5 21.5t-41 30l42 48q28 -31 69 -45t84 -14q25 0 49.5 4.5t43.5 14.5t30.5 26t11.5 40q0 40 -26 58t-68 29q-26 6 -53.5 13.5t-50.5 21t-38 36t-15 59.5q0 40 16 68t42 45.5t60.5 25.5t70.5 8q41 0 83.5 -11.5t74.5 -40.5l-39 -49 q-29 22 -58.5 32.5t-64.5 10.5q-21 0 -42.5 -4t-39 -14.5t-28.5 -27.5t-11 -42q0 -18 9.5 -30.5t25.5 -20.5t36 -14t41 -11q26 -6 51 -14.5t44.5 -23t31.5 -37t12 -56.5q0 -39 -15.5 -68t-42.5 -48t-63.5 -28.5t-78.5 -9.5z"/>
<glyph glyph-name="t" horiz-adv-x="266" unicode="t" d="M152 0q-41 0 -65 20t-25 59q0 14 3 31q17 83 32.5 165.5t32.5 164.5h-64l11 55h63q7 32 13 64l12 64h62q-7 -32 -13 -64l-12 -64h83l-10 -55h-84l-61 -312q-3 -15 -3 -29q0 -19 10.5 -31.5t39.5 -12.5h36l-11 -55h-50z"/>
<glyph glyph-name="u" horiz-adv-x="515" unicode="u" d="M343 0l14 68h-3q-32 -40 -74 -57t-82 -17q-76 0 -108.5 40.5t-32.5 94.5q0 24 5 51l61 315h61l-59 -306q-4 -22 -4 -41q0 -36 19 -65t87 -29q27 0 52 10t46 29t36 45t21 58l58 299h62l-96 -495h-63z"/>
<glyph glyph-name="v" horiz-adv-x="424" unicode="v" d="M455 494q-65 -142 -133 -262.5t-144 -231.5h-53l-83 494h65l38 -236q7 -44 12.5 -90.5t8.5 -92.5h3q31 51 59.5 101t55 101t52 104.5t51.5 112.5h68z"/>
<glyph glyph-name="w" horiz-adv-x="697" unicode="w" d="M368 416q-25 -59 -49 -111.5t-49 -103t-52 -100t-57 -101.5h-61l-56 496h64l26 -291q2 -29 4 -64t4 -68h3q53 94 100.5 199.5t100.5 223.5h71l31 -278q4 -32 7 -69t3 -78h2q55 100 106 210t94 215h66q-29 -71 -58 -133.5t-59.5 -122t-63.5 -118.5t-70 -122h-60l-33 275 q-2 24 -5.5 61.5t-4.5 79.5h-4z"/>
<glyph glyph-name="x" horiz-adv-x="433" unicode="x" d="M298 0l-86 206q-12 -14 -35 -42.5t-48 -60t-48 -60t-34 -43.5h-77l214 255l-109 241h71l79 -197q11 14 33 41t45.5 57t45 57.5t32.5 41.5h78l-206 -244l116 -252h-71z"/>
<glyph glyph-name="y" horiz-adv-x="409" unicode="y" d="M453 495q-57 -155 -115 -281.5t-118 -223.5q-22 -35 -49 -67.5t-60 -58t-73.5 -42t-89.5 -19.5l-2 55q52 6 100.5 33t90.5 86l-82 518h66l34 -238q7 -50 14.5 -108t9.5 -115h3q66 112 116.5 231t89.5 230h65z"/>
<glyph glyph-name="z" horiz-adv-x="419" unicode="z" d="M-14 0l11 52l353 388h-263l10 55h337l-10 -54l-349 -383h274l-11 -58h-352z"/>
<glyph glyph-name="braceleft" horiz-adv-x="243" unicode="{" d="M127 -106q-38 0 -57 24.5t-19 54.5q0 12 3 26l27 139q7 34 7 60q0 20 -6.5 45t-46.5 33l7 39q22 4 38.5 17.5t29 33t20.5 42.5t13 47l26 135q10 48 39 77t67 29h56l-8 -42h-37q-16 0 -27.5 -8.5t-19.5 -22t-12.5 -29t-7.5 -30.5l-26 -130q-6 -32 -17.5 -56t-25.5 -40.5 t-28 -26.5t-24 -13l-1 -2q9 -3 19.5 -13t17.5 -26.5t9 -32t2 -24.5q0 -17 -4 -37l-27 -137q-3 -15 -4 -31t2 -29.5t11 -22t23 -8.5h37l-8 -41h-48z"/>
<glyph glyph-name="bar" horiz-adv-x="189" unicode="|" d="M71 -162v878h50v-878h-50z"/>
<glyph glyph-name="braceright" horiz-adv-x="243" unicode="}" d="M242 276q-43 -8 -66 -43.5t-34 -94.5l-27 -139q-9 -48 -38 -76.5t-67 -28.5h-57l8 41h38q15 0 26 8.5t19 22t13 29.5t8 31l27 137q6 30 17.5 53.5t25.5 40t28 26.5t25 13l1 2q-9 3 -19.5 13t-18 26.5t-9 32t-1.5 23.5q0 19 4 41l25 130q3 15 5 30.5t0 29t-10 22t-26 8.5 h-38l7 39h55q43 0 56.5 -24t13.5 -49q0 -14 -3 -30l-27 -135q-6 -27 -6 -52q0 -20 4.5 -38.5t16 -32t31.5 -17.5z"/>
<glyph glyph-name="asciitilde" horiz-adv-x="484" unicode="~" d="M475 296q-25 -41 -54.5 -61.5t-71.5 -20.5q-23 0 -48 10t-50 21.5t-49 21.5t-46 10q-26 0 -45 -12.5t-42 -35.5l-35 27q30 41 63.5 59t68.5 18q25 0 49 -10t48 -21.5t47 -21.5t47 -10q23 0 41.5 12t40.5 41z"/>
<glyph glyph-name="exclamdown" horiz-adv-x="226" unicode="¡" d="M219 494l-15 -79h-72l15 79h72zM127 312h45l-92 -514h-63z"/>
<glyph glyph-name="cent" horiz-adv-x="484" unicode="¢" d="M124 192q0 -56 22 -91t71 -44l75 382q-44 -6 -75.5 -30t-52 -58.5t-30.5 -75.5t-10 -83zM401 56q-34 -28 -74.5 -44t-85.5 -18l-21 -109h-36l21 111q-74 8 -109 59t-35 130q0 57 15.5 112t46 98.5t76 71.5t105.5 33l20 104h36l-21 -104q38 -2 73.5 -17.5t60.5 -43.5 l-50 -46q-18 20 -43 33t-52 15l-76 -387q29 0 61 15.5t55 31.5z"/>
<glyph glyph-name="sterling" horiz-adv-x="484" unicode="£" d="M209 298q-14 -66 -39.5 -126t-74.5 -113h320q0 -3 -1.5 -11.5t-3.5 -18.5t-3.5 -18.5t-2.5 -10.5h-398l10 51q48 51 83 112t50 135h-90l10 50h80q-1 35 -8 71.5t-7 74.5q0 40 13.5 77.5t39.5 66t63.5 45.5t84.5 17q63 0 105 -21.5t68 -77.5l-55 -28q-17 38 -46 53.5 t-75 15.5q-29 0 -52.5 -11t-41 -31.5t-27 -48t-9.5 -60.5q0 -35 6.5 -68t6.5 -75h147l-10 -50h-143z"/>
<glyph glyph-name="currency" horiz-adv-x="535" unicode="¤" d="M141 321q0 -28 10.5 -52t28.5 -42t42 -28.5t52 -10.5t52.5 10.5t42.5 28.5t28.5 42t10.5 52t-10.5 52.5t-28.5 42.5t-42.5 28.5t-52.5 10.5t-52 -10.5t-42 -28.5t-28.5 -42.5t-10.5 -52.5zM59 498q9 10 19 19.5t19 18.5l63 -63q53 38 115 38q58 0 112 -37l63 63l38 -39 l-63 -62q40 -57 40 -115q0 -30 -10 -58t-28 -55l13.5 -13.5t18 -17.5t18 -17t13.5 -14q-19 -20 -39 -39l-62 63q-50 -38 -114 -40q-63 2 -116 41l-63 -63l-19.5 19.5t-18.5 19.5l63 62q-36 54 -36 112v5q0 27 9.5 54.5t28.5 54.5z"/>
<glyph glyph-name="yen" horiz-adv-x="484" unicode="¥" d="M402 206q-3 -11 -5 -21.5t-4 -21.5h-162q-8 -42 -16 -82t-16 -81h-60q8 41 16 81t16 82h-159q2 11 4 21.5t4 21.5h159l16 81l-6 23h-150q3 11 5 21.5t4 21.5h128q-26 86 -51 171t-51 172h65q14 -49 27.5 -97.5t27.5 -97.5l42 -158l96 150q35 51 68.5 101.5t67.5 101.5h68 q-59 -87 -117.5 -172t-117.5 -171h129l-9 -43h-149l-16 -23q-5 -20 -8 -40.5t-8 -40.5h162z"/>
<glyph glyph-name="brokenbar" horiz-adv-x="189" unicode="¦" d="M121 247v-409h-50v409h50zM71 304v412h50v-412h-50z"/>
<glyph glyph-name="section" horiz-adv-x="457" unicode="§" d="M139 338q0 -28 23 -47.5t54.5 -34t64 -26t51.5 -23.5q24 17 38.5 42t14.5 53q0 27 -15 42t-40.5 27.5t-59 25.5t-69.5 36q-27 -17 -44.5 -43t-17.5 -52zM317 647q-26 0 -48 -7.5t-39 -21t-26.5 -32.5t-9.5 -41q0 -20 10.5 -34.5t27 -26t38 -21t44.5 -17.5 q22 -8 45.5 -19.5t42.5 -28t31 -39t12 -52.5q0 -43 -20.5 -75.5t-53.5 -59.5q9 -16 14.5 -34t5.5 -38q0 -37 -15 -69t-43 -56t-66.5 -38t-86.5 -14q-26 0 -50.5 5.5t-46.5 15t-39.5 22.5t-29.5 28q9 10 19 19.5t20 19.5q25 -29 58.5 -42t69.5 -13q29 0 56 7t47.5 21t33 35.5 t12.5 51.5q0 36 -30 58t-84 42q-66 25 -101 54.5t-35 75.5q0 41 18.5 76t59.5 64q-14 17 -22.5 34t-8.5 43q0 39 16.5 69.5t43 51t61 31t70.5 10.5q48 0 90.5 -14t70.5 -42q-11 -11 -20 -23t-20 -23q-27 26 -58.5 36.5t-63.5 10.5z"/>
<glyph glyph-name="dieresis" horiz-adv-x="480" unicode="¨" d="M163 602l14 72h70l-14 -72h-70zM346 602l13 72h71l-14 -72h-70z"/>
<glyph glyph-name="copyright" horiz-adv-x="792" unicode="©" d="M399 644q-63 0 -116.5 -23t-93 -64t-62 -96.5t-22.5 -119.5t22.5 -119t62 -95.5t93 -64t116.5 -23.5t117 23.5t93 64t61.5 95.5t22.5 119t-22.5 119.5t-61.5 96.5t-93 64t-117 23zM399 -9q-74 0 -137.5 26.5t-109.5 73.5t-72 111t-26 139t26.5 139.5t73 111.5t109.5 73.5 t136 26.5t136.5 -26.5t110 -73.5t73 -111.5t26.5 -139.5t-26.5 -139t-73 -111t-110 -73.5t-136.5 -26.5zM542 213q-17 -44 -53 -68.5t-87 -24.5q-38 0 -66 12.5t-47 34.5t-28 50.5t-9 60.5v118q0 31 9.5 59.5t28.5 50t47 34t65 12.5q51 0 86.5 -24t52.5 -65l-47 -22 q-12 27 -35.5 44.5t-55.5 17.5q-26 0 -44.5 -9t-31.5 -24t-19 -35t-6 -41v-114q0 -21 6 -41.5t19 -36t31.5 -25t44.5 -9.5q33 0 56 18.5t35 48.5z"/>
<glyph glyph-name="ordfeminine" horiz-adv-x="341" unicode="ª" d="M115 392q0 -13 3.5 -25t11 -21.5t19.5 -15.5t31 -6q29 0 50.5 17t35 42.5t19.5 55t6 54.5q0 31 -15 50.5t-48 19.5t-54.5 -18.5t-34.5 -45t-18.5 -56t-5.5 -51.5zM224 610q26 0 49 -10.5t38 -31.5l8 38h48l-60 -326h-51l8 46q-19 -23 -43 -36.5t-54 -13.5q-55 0 -79.5 33 t-25.5 82q0 34 9 73t28.5 71t50 53.5t74.5 21.5z"/>
<glyph glyph-name="guillemotleft" horiz-adv-x="433" unicode="«" d="M143 46l-86 180l153 179h65l-154 -180l83 -179h-61zM298 46l-86 180l153 179h64l-154 -180l83 -179h-60z"/>
<glyph glyph-name="logicalnot" horiz-adv-x="484" unicode="¬" d="M427 69h-60l37 193h-366l10 51h427z"/>
<glyph glyph-name="sfthyphen" horiz-adv-x="381" unicode="­" d="M58 237l12 60h276l-12 -60h-276z"/>
<glyph glyph-name="registered" horiz-adv-x="553" unicode="®" d="M234 583v-76h59q19 0 31.5 10t12.5 29q0 20 -12.5 28.5t-30.5 8.5h-60zM285 475h-51v-104h-34v242h99q31 0 51.5 -18t20.5 -49q0 -24 -14 -41.5t-37 -24.5l57 -109h-39zM451 492q0 38 -13.5 71t-37 57t-55 38t-68.5 14t-68.5 -14t-55 -38t-36.5 -57t-13 -71t13 -70.5 t36 -56.5t54.5 -37.5t69.5 -13.5q37 0 69 13.5t55 37.5t36.5 56.5t13.5 70.5zM484 492q0 -45 -15.5 -83t-43.5 -65.5t-65.5 -43.5t-82.5 -16q-44 0 -82 16t-66 43.5t-43.5 65.5t-15.5 83t16 83.5t44 66.5t65.5 44t81.5 16t82 -16t65.5 -44t43.5 -66.5t16 -83.5z"/>
<glyph glyph-name="macron" horiz-adv-x="485" unicode="¯" d="M196 603l11 59h262l-12 -59h-261z"/>
<glyph glyph-name="degree" horiz-adv-x="374" unicode="°" d="M272 572q0 18 -6.5 33.5t-18 27t-27 18.5t-33.5 7t-33.5 -7t-27 -18.5t-18 -27t-6.5 -33.5q0 -35 24 -59.5t61 -24.5q35 0 60 24t25 60zM315 572q0 -27 -10 -50t-27.5 -40.5t-40.5 -27.5t-50 -10t-50.5 10t-41 27.5t-27.5 40.5t-10 50t10 50.5t27.5 41t41 27.5t50.5 10 q29 0 52.5 -10t40.5 -27.5t26 -41t9 -50.5z"/>
<glyph glyph-name="plusminus" horiz-adv-x="484" unicode="±" d="M-6 0l9 51h421l-9 -51h-421zM283 281l-35 -181h-50l35 181h-185l10 51h185l35 180h50l-35 -180h185l-10 -51h-185z"/>
<glyph glyph-name="twosuperior" horiz-adv-x="299" unicode="²" d="M15 370l9 46l218 209q36 33 36 67q0 22 -17 36t-46 14t-52 -18.5t-35 -46.5l-53 12q19 45 57 72t86 27q49 0 81.5 -23t32.5 -69q0 -29 -13 -52t-35 -44q-16 -14 -42 -39t-54 -52t-54 -51.5t-42 -39.5h184l-9 -48h-252z"/>
<glyph glyph-name="threesuperior" horiz-adv-x="299" unicode="³" d="M216 789q54 0 83.5 -26t29.5 -66q0 -29 -16 -59t-58 -50q23 -13 33 -33t10 -41q0 -33 -11.5 -60t-32.5 -46.5t-49.5 -30.5t-62.5 -11q-19 0 -38 4.5t-34 15t-25.5 27.5t-12.5 41l51 9q3 -26 20.5 -38.5t42.5 -12.5q42 0 71 27t29 71q0 26 -16 40.5t-45 14.5h-37l9 44h30 q38 0 63.5 23t25.5 56q0 25 -16.5 40.5t-45.5 15.5q-24 0 -47 -14t-34 -40l-51 9q17 42 53.5 66t80.5 24z"/>
<glyph glyph-name="acute" horiz-adv-x="487" unicode="´" d="M296 573l98 166l61 -22l-122 -160z"/>
<glyph glyph-name="mu" horiz-adv-x="508" unicode="µ" d="M-10 -200q33 175 67 347.5t67 347.5h61l-60 -307q-4 -22 -4 -41q0 -39 23 -67t83 -28q56 0 99.5 39.5t56.5 103.5l58 300h61l-96 -495h-61l6 34t7 34h-3q-32 -40 -74 -56.5t-82 -16.5q-32 0 -58 11t-42 31h-3l-46 -237h-60z"/>
<glyph glyph-name="mu" horiz-adv-x="508" unicode="μ" d="M-10 -200q33 175 67 347.5t67 347.5h61l-60 -307q-4 -22 -4 -41q0 -39 23 -67t83 -28q56 0 99.5 39.5t56.5 103.5l58 300h61l-96 -495h-61l6 34t7 34h-3q-32 -40 -74 -56.5t-82 -16.5q-32 0 -58 11t-42 31h-3l-46 -237h-60z"/>
<glyph glyph-name="paragraph" horiz-adv-x="529" unicode="¶" d="M341 661q-24 -187 -47 -371.5t-47 -370.5h-60q13 106 25.5 211t26.5 211q-81 0 -124.5 39t-43.5 114q0 39 13.5 78.5t40 71t65 51t89.5 19.5h275q-2 -14 -4 -26.5t-4 -26.5h-53l-93 -742h-60l93 742h-92z"/>
<glyph glyph-name="periodcentered" horiz-adv-x="206" unicode="·" d="M74 224l17 89h81l-17 -89h-81z"/>
<glyph glyph-name="cedilla" horiz-adv-x="423" unicode="¸" d="M223 -117q0 24 -21.5 33.5t-43.5 9.5h-4l-13 12l45 92l36 -3l-33 -68q24 -2 40.5 -9t26.5 -17t14.5 -22t4.5 -23q0 -15 -7 -31t-21.5 -28.5t-36 -21t-51.5 -8.5q-13 0 -38 2t-48 12l16 37q19 -8 38.5 -10.5t33.5 -2.5q9 0 19.5 2.5t20 7.5t16 14t6.5 22z"/>
<glyph glyph-name="onesuperior" horiz-adv-x="248" unicode="¹" d="M157 370h-52l71 360l-69 -40l13 55l69 41h49z"/>
<glyph glyph-name="ordmasculine" horiz-adv-x="338" unicode="º" d="M230 566q-33 0 -55 -17.5t-35 -44t-18 -57t-5 -55.5q0 -11 3 -23t11.5 -23t22.5 -18t37 -7q33 0 55.5 14t36 37t18.5 51.5t5 57.5v11q-1 38 -23 56t-53 18zM234 610q55 0 89 -31t35 -84v-8q0 -34 -7.5 -70.5t-26.5 -68.5t-51 -52t-79 -20q-67 0 -97 32t-31 80v8 q0 40 9 78.5t30 69t53 48.5t76 18z"/>
<glyph glyph-name="guillemotright" horiz-adv-x="433" unicode="»" d="M176 46l155 179l-84 179h60l87 -179l-156 -179h-62zM22 46l154 179l-84 179h62l86 -179l-156 -179h-62z"/>
<glyph glyph-name="onequarter" horiz-adv-x="770" unicode="¼" d="M632 63q-1 -5 -3 -13.5t-4 -18t-4 -18.5t-2 -13h-51l12 63h-195l9 44l214 309h58l-213 -307h135q2 9 5.5 26t7 35t6.5 35t5 26h52l-24 -122h38l-9 -46h-37zM123 -17h-50l574 739h51zM198 280h-52l71 360l-69 -40l13 55l69 41h49z"/>
<glyph glyph-name="onehalf" horiz-adv-x="770" unicode="½" d="M407 0l9 45l218 210q36 34 36 66q0 22 -17 36.5t-46 14.5t-52 -18.5t-35 -46.5l-53 11q19 46 57 73t86 27q49 0 81.5 -23t32.5 -69q0 -29 -13 -52.5t-35 -43.5q-16 -15 -42 -39.5t-54 -51.5t-54 -51.5t-42 -39.5h184l-9 -48h-252zM94 -17h-50l574 739h51zM195 280h-52 l71 360l-69 -40l13 55l69 41h49z"/>
<glyph glyph-name="threequarters" horiz-adv-x="770" unicode="¾" d="M667 63q-1 -5 -3 -13.5t-4 -18t-4 -18.5t-2 -13h-51l12 63h-195l9 44l214 309h58l-213 -307h135q2 9 5.5 26t7 35t6.5 35t5 26h52l-24 -122h38l-9 -46h-37zM158 -17h-50l574 739h51zM222 699q54 0 83.5 -26t29.5 -66q0 -29 -16 -59t-58 -50q23 -13 33 -33t10 -41 q0 -33 -11.5 -60t-32.5 -46.5t-49.5 -30.5t-62.5 -11q-19 0 -38 4.5t-34 15t-25.5 27.5t-12.5 41l51 9q3 -26 20.5 -38.5t42.5 -12.5q42 0 71 27t29 71q0 26 -16 40.5t-45 14.5h-37l9 44h30q38 0 63.5 23t25.5 56q0 25 -16.5 40.5t-45.5 15.5q-24 0 -47 -14t-34 -40l-51 9 q17 42 53.5 66t80.5 24z"/>
<glyph glyph-name="questiondown" horiz-adv-x="471" unicode="¿" d="M369 497l-15 -80h-73l16 80h72zM441 -29q-14 -48 -36.5 -81.5t-52 -54t-65 -29.5t-76.5 -9q-38 0 -69.5 11t-54 30.5t-35 46.5t-12.5 60q0 36 10.5 64t28 51.5t39 43t42.5 38.5q32 28 60 57.5t36 67.5l12 58h66l-12 -60q-7 -35 -27 -65t-49 -56q-14 -14 -28.5 -27.5 t-29.5 -27.5t-29 -28.5t-25 -31t-18 -34t-7 -35.5q0 -17 5.5 -35t18.5 -32.5t34 -24t52 -9.5q34 0 61 12.5t46.5 32t31 41.5t16.5 42z"/>
<glyph glyph-name="Agrave" horiz-adv-x="580" unicode="À" d="M392 734l-174 98l38 50l160 -115zM368 616q-5 -10 -20.5 -39.5t-37 -69.5t-45.5 -85t-45.5 -85.5t-38 -71.5t-22.5 -42h268q-3 21 -7.5 53t-10 69t-11 77t-11 76.5t-10 67t-7.5 50.5h-2zM459 0q-6 42 -12 82.5t-13 82.5h-305l-89 -165h-71q96 175 191.5 348t192.5 348h62 l114 -696h-70z"/>
<glyph glyph-name="Aacute" horiz-adv-x="580" unicode="Á" d="M351 766q41 29 81.5 57.5t81.5 57.5q10 -13 19 -25.5t19 -24.5l-178 -98zM368 616l-87 -166l-122 -227h268q-3 21 -7.5 53t-10 69t-11 77t-11 76.5t-10 67t-7.5 50.5h-2zM459 0q-6 42 -12 82.5t-13 82.5h-305l-89 -165h-71q96 175 191.5 348t192.5 348h62l114 -696h-70z "/>
<glyph glyph-name="Acircumflex" horiz-adv-x="580" unicode="Â" d="M405 822l-161 -87l-17 30l165 120h45l111 -119l-30 -29zM368 616q-5 -10 -20.5 -39.5t-37 -69.5t-45.5 -85t-45.5 -85.5t-38 -71.5t-22.5 -42h268q-3 21 -7.5 53t-10 69t-11 77t-11 76.5t-10 67t-7.5 50.5h-2zM459 0q-6 42 -12 82.5t-13 82.5h-305l-89 -165h-71 q96 175 191.5 348t192.5 348h62l114 -696h-70z"/>
<glyph glyph-name="Atilde" horiz-adv-x="580" unicode="Ã" d="M333 845q18 0 35.5 -7t34.5 -15t33 -15t31 -7t29.5 9t33.5 32l36 -23q-22 -42 -49.5 -58.5t-56.5 -16.5q-18 0 -35.5 6.5t-35 14.5t-33.5 14.5t-30 6.5q-18 0 -31 -8t-34 -28l-34 23q24 38 51 55t55 17zM368 616q-5 -10 -20.5 -39.5t-37 -69.5t-45.5 -85t-45.5 -85.5 t-38 -71.5t-22.5 -42h268q-3 21 -7.5 53t-10 69t-11 77t-11 76.5t-10 67t-7.5 50.5h-2zM459 0q-6 42 -12 82.5t-13 82.5h-305l-89 -165h-71q96 175 191.5 348t192.5 348h62l114 -696h-70z"/>
<glyph glyph-name="Adieresis" horiz-adv-x="580" unicode="Ä" d="M270 751l14 71h72l-14 -71h-72zM449 751l14 71h72l-14 -71h-72zM368 616q-5 -10 -20.5 -39.5t-37 -69.5t-45.5 -85t-45.5 -85.5t-38 -71.5t-22.5 -42h268q-3 21 -7.5 53t-10 69t-11 77t-11 76.5t-10 67t-7.5 50.5h-2zM459 0q-6 42 -12 82.5t-13 82.5h-305l-89 -165h-71 q96 175 191.5 348t192.5 348h62l114 -696h-70z"/>
<glyph glyph-name="Aring" horiz-adv-x="580" unicode="Å" d="M420 866q-28 0 -49 -21t-21 -49q0 -20 13 -33.5t35 -13.5q13 0 26 5.5t23 15.5t16 22.5t6 26.5q0 20 -13.5 33.5t-35.5 13.5zM392 713q-35 0 -57 22t-22 54q0 23 9 43.5t24 36t36 24.5t45 9q35 0 57.5 -22.5t22.5 -55.5q0 -25 -10 -45.5t-26 -35t-37 -22.5t-42 -8z M368 616q-5 -10 -20.5 -39.5t-37 -69.5t-45.5 -85t-45.5 -85.5t-38 -71.5t-22.5 -42h268q-3 21 -7.5 53t-10 69t-11 77t-11 76.5t-10 67t-7.5 50.5h-2zM459 0q-6 42 -12 82.5t-13 82.5h-305l-89 -165h-71q96 175 191.5 348t192.5 348h62l114 -696h-70z"/>
<glyph glyph-name="AE" horiz-adv-x="949" unicode="Æ" d="M245 253h238l54 378zM448 0l27 195h-276l-150 -195h-72l539 696h460l-8 -62h-363l-36 -252h310l-8 -60h-310l-37 -260h364l-9 -62h-431z"/>
<glyph glyph-name="Ccedilla" horiz-adv-x="536" unicode="Ç" d="M284 -117q0 24 -21.5 33.5t-43.5 9.5h-4l-13 12q7 15 13.5 29.5t14.5 28.5q-53 6 -89.5 29t-57.5 58t-24.5 65t-3.5 47q0 30 6 60l39 198q10 50 31.5 95t56 79t81.5 54t109 20q81 0 133.5 -38t73.5 -101l-67 -29q-11 45 -47.5 74.5t-90.5 29.5q-49 0 -86 -16t-63 -42.5 t-42.5 -61.5t-23.5 -72l-37 -193q-6 -26 -6 -51q0 -11 2.5 -34t19 -50t47 -43.5t77.5 -16.5q59 0 107.5 30t79.5 81l62 -30q-40 -69 -105 -105.5t-145 -38.5q-10 -19 -17 -35q24 -2 40.5 -9t26.5 -17t14.5 -22t4.5 -23q0 -15 -7 -31t-21.5 -28.5t-36 -21t-51.5 -8.5 q-13 0 -38 2t-48 12l16 37q19 -8 38.5 -10.5t33.5 -2.5q9 0 19.5 2.5t20 7.5t16 14t6.5 22z"/>
<glyph glyph-name="Egrave" horiz-adv-x="525" unicode="È" d="M401 734l-174 98l38 50l160 -115zM35 0l136 696h410l-12 -62h-344l-48 -252h304l-12 -60h-304l-51 -260h373l-12 -62h-440z"/>
<glyph glyph-name="Eacute" horiz-adv-x="525" unicode="É" d="M35 0l136 696h423l-12 -62h-357l-48 -252h304l-12 -60h-304l-51 -260h356l-11 -62h-424zM339 767l163 115l38 -50l-178 -98z"/>
<glyph glyph-name="Ecircumflex" horiz-adv-x="525" unicode="Ê" d="M410 822l-161 -87l-17 30l165 120h45l111 -119l-30 -29zM35 0l136 696h410l-12 -62h-344l-48 -252h304l-12 -60h-304l-51 -260h373l-12 -62h-440z"/>
<glyph glyph-name="Edieresis" horiz-adv-x="525" unicode="Ë" d="M261 751l14 71h72l-14 -71h-72zM440 751l14 71h72l-14 -71h-72zM35 0l136 696h410l-12 -62h-344l-48 -252h304l-12 -60h-304l-51 -260h373l-12 -62h-440z"/>
<glyph glyph-name="Igrave" horiz-adv-x="222" unicode="Ì" d="M218 734l-174 98l38 50l160 -115zM37 0l136 696h66l-135 -696h-67z"/>
<glyph glyph-name="Iacute" horiz-adv-x="222" unicode="Í" d="M37 0l136 696h66l-135 -696h-67zM190 767l163 115l38 -50l-178 -98z"/>
<glyph glyph-name="Icircumflex" horiz-adv-x="222" unicode="Î" d="M235 822l-161 -87l-17 30l165 120h45l111 -119l-30 -29zM37 0l136 696h66l-135 -696h-67z"/>
<glyph glyph-name="Idieresis" horiz-adv-x="222" unicode="Ï" d="M95 763l14 70h70l-14 -70h-70zM271 763l15 70h70l-13 -70h-72zM37 0l136 696h66l-135 -696h-67z"/>
<glyph glyph-name="Eth" horiz-adv-x="604" unicode="Ð" d="M226 634l-48 -243h137l-11 -50h-135l-55 -279h160q53 0 91.5 15t65.5 43t44 67.5t26 88.5l24 127q9 45 9 83q0 72 -37 110t-121 38h-150zM22 341q2 13 4.5 25t5.5 25h79l60 305h222q42 0 80 -10t66.5 -32t45.5 -57t17 -84q0 -45 -8 -102.5t-20 -112.5t-26.5 -100.5 t-26.5 -66.5q-24 -40 -52 -65.5t-59.5 -40t-66 -20t-70.5 -5.5h-237l66 341h-80z"/>
<glyph glyph-name="Ntilde" horiz-adv-x="655" unicode="Ñ" d="M378 838q18 0 35.5 -7t34.5 -15t33 -15t31 -7t29.5 9t33.5 32l36 -23q-22 -42 -49.5 -58.5t-56.5 -16.5q-18 0 -35.5 6.5t-35 14.5t-33.5 14.5t-30 6.5q-18 0 -31 -8t-34 -28l-34 23q24 38 51 55t55 17zM475 0q-7 16 -21 47.5t-31 70t-36 81t-36 81t-31 69.5t-22 48 l-81 189h-2q-5 -26 -14 -72.5t-20 -103t-22.5 -118t-22.5 -118t-19.5 -102.5t-13.5 -72h-67l136 696h66q7 -16 20.5 -46.5t30 -68.5t35 -79t35 -79t30 -68.5t21.5 -46.5l85 -198h2q5 26 14 72t20 102.5t23 118t23 118t19.5 103t13.5 72.5h65l-135 -696h-65z"/>
<glyph glyph-name="Ograve" horiz-adv-x="573" unicode="Ò" d="M439 734l-174 98l38 50l160 -115zM355 640q-47 0 -81.5 -16.5t-58.5 -44t-39 -62.5t-22 -71l-38 -196q-4 -24 -4 -47q0 -13 2.5 -37t20.5 -52t52 -44.5t86 -16.5q43 0 76 15t57 41.5t40.5 63t25.5 79.5q6 27 12.5 56t12.5 58t10.5 56t6.5 51q2 12 2 23q0 21 -8 46.5 t-29 48.5t-53 36t-71 13zM361 701q62 0 107.5 -21t72.5 -56.5t33.5 -69.5t6.5 -57q0 -25 -5 -52q-9 -48 -19 -98t-20 -99q-12 -57 -33 -104t-53.5 -80.5t-78 -51.5t-107.5 -18q-54 0 -95 15.5t-68.5 42.5t-41.5 63.5t-14 78.5q0 25 4.5 56.5t11 65.5t14.5 68.5t15 65.5 q10 50 30 95.5t52 80t78 55t110 20.5z"/>
<glyph glyph-name="Oacute" horiz-adv-x="573" unicode="Ó" d="M345 766q41 29 81.5 57.5t81.5 57.5q10 -13 19 -25.5t19 -24.5l-178 -98zM355 640q-47 0 -81.5 -16.5t-58.5 -44t-39 -62.5t-22 -71l-38 -196q-4 -24 -4 -47q0 -13 2.5 -37t20.5 -52t52 -44.5t86 -16.5q43 0 76 15t57 41.5t40.5 63t25.5 79.5q6 27 12.5 56t12.5 58 t10.5 56t6.5 51q2 12 2 23q0 21 -8 46.5t-29 48.5t-53 36t-71 13zM361 701q62 0 107.5 -21t72.5 -56.5t33.5 -69.5t6.5 -57q0 -25 -5 -52q-9 -48 -19 -98t-20 -99q-12 -57 -33 -104t-53.5 -80.5t-78 -51.5t-107.5 -18q-54 0 -95 15.5t-68.5 42.5t-41.5 63.5t-14 78.5 q0 25 4.5 56.5t11 65.5t14.5 68.5t15 65.5q10 50 30 95.5t52 80t78 55t110 20.5z"/>
<glyph glyph-name="Ocircumflex" horiz-adv-x="573" unicode="Ô" d="M412 822l-161 -87l-17 30l165 120h45l111 -119l-30 -29zM355 640q-47 0 -81.5 -16.5t-58.5 -44t-39 -62.5t-22 -71l-38 -196q-4 -24 -4 -47q0 -13 2.5 -37t20.5 -52t52 -44.5t86 -16.5q43 0 76 15t57 41.5t40.5 63t25.5 79.5q6 27 12.5 56t12.5 58t10.5 56t6.5 51 q2 12 2 23q0 21 -8 46.5t-29 48.5t-53 36t-71 13zM361 701q62 0 107.5 -21t72.5 -56.5t33.5 -69.5t6.5 -57q0 -25 -5 -52q-9 -48 -19 -98t-20 -99q-12 -57 -33 -104t-53.5 -80.5t-78 -51.5t-107.5 -18q-54 0 -95 15.5t-68.5 42.5t-41.5 63.5t-14 78.5q0 25 4.5 56.5t11 65.5 t14.5 68.5t15 65.5q10 50 30 95.5t52 80t78 55t110 20.5z"/>
<glyph glyph-name="Otilde" horiz-adv-x="573" unicode="Õ" d="M349 845q18 0 35.5 -7t34.5 -15t33 -15t31 -7t29.5 9t33.5 32l36 -23q-22 -42 -49.5 -58.5t-56.5 -16.5q-18 0 -35.5 6.5t-35 14.5t-33.5 14.5t-30 6.5q-18 0 -31 -8t-34 -28l-34 23q24 38 51 55t55 17zM355 640q-47 0 -81.5 -16.5t-58.5 -44t-39 -62.5t-22 -71l-38 -196 q-4 -24 -4 -47q0 -13 2.5 -37t20.5 -52t52 -44.5t86 -16.5q43 0 76 15t57 41.5t40.5 63t25.5 79.5q6 27 12.5 56t12.5 58t10.5 56t6.5 51q2 12 2 23q0 21 -8 46.5t-29 48.5t-53 36t-71 13zM361 701q62 0 107.5 -21t72.5 -56.5t33.5 -69.5t6.5 -57q0 -25 -5 -52 q-9 -48 -19 -98t-20 -99q-12 -57 -33 -104t-53.5 -80.5t-78 -51.5t-107.5 -18q-54 0 -95 15.5t-68.5 42.5t-41.5 63.5t-14 78.5q0 25 4.5 56.5t11 65.5t14.5 68.5t15 65.5q10 50 30 95.5t52 80t78 55t110 20.5z"/>
<glyph glyph-name="Odieresis" horiz-adv-x="573" unicode="Ö" d="M272 751l14 71h72l-14 -71h-72zM451 751l14 71h72l-14 -71h-72zM355 640q-47 0 -81.5 -16.5t-58.5 -44t-39 -62.5t-22 -71l-38 -196q-4 -24 -4 -47q0 -13 2.5 -37t20.5 -52t52 -44.5t86 -16.5q43 0 76 15t57 41.5t40.5 63t25.5 79.5q6 27 12.5 56t12.5 58t10.5 56t6.5 51 q2 12 2 23q0 21 -8 46.5t-29 48.5t-53 36t-71 13zM361 701q62 0 107.5 -21t72.5 -56.5t33.5 -69.5t6.5 -57q0 -25 -5 -52q-9 -48 -19 -98t-20 -99q-12 -57 -33 -104t-53.5 -80.5t-78 -51.5t-107.5 -18q-54 0 -95 15.5t-68.5 42.5t-41.5 63.5t-14 78.5q0 25 4.5 56.5t11 65.5 t14.5 68.5t15 65.5q10 50 30 95.5t52 80t78 55t110 20.5z"/>
<glyph glyph-name="multiply" horiz-adv-x="541" unicode="×" d="M314 245l131 -167l-40 -30l-131 167l-194 -159l-30 39l194 159l-126 162l39 31l127 -162l193 158l30 -40z"/>
<glyph glyph-name="Oslash" horiz-adv-x="583" unicode="Ø" d="M365 640q-47 0 -83 -16.5t-62 -44t-42.5 -62.5t-23.5 -71l-38 -196q-5 -25 -5 -48.5t6 -45.5l369 432q-20 24 -50 38t-71 14zM514 473q2 13 2 25q0 29 -10 55l-373 -437q17 -29 49 -46t81 -17q40 0 74.5 15t61 41.5t45.5 63t28 79.5q6 27 12.5 56t12.5 58t10.5 56t6.5 51 zM372 701q54 0 93.5 -16t65.5 -44l49 58l30 -23l-56 -66q20 -34 24 -63.5t4 -45.5q0 -27 -6 -56q-9 -48 -19 -98t-20 -99q-12 -57 -36 -104t-59 -80.5t-82 -51.5t-105 -18q-57 0 -99 19t-68 51l-56 -66l-30 23l65 76q-21 43 -21 97q0 25 4.5 56.5t11 65.5t14.5 68.5t15 65.5 q10 50 31.5 95.5t55.5 80t82 55t112 20.5z"/>
<glyph glyph-name="Ugrave" horiz-adv-x="600" unicode="Ù" d="M435 734l-174 98l38 50l160 -115zM542 229q-11 -53 -34.5 -96.5t-58.5 -74t-81.5 -47.5t-101.5 -17q-50 0 -91 17.5t-68 49.5t-35 65.5t-8 59.5q0 25 5 53l89 457h66l-87 -445q-5 -27 -5 -51q0 -14 3 -38t20.5 -50.5t46.5 -41t70 -14.5q78 0 133 49.5t72 135.5l89 455h67 z"/>
<glyph glyph-name="Uacute" horiz-adv-x="600" unicode="Ú" d="M542 229q-11 -53 -34.5 -96.5t-58.5 -74t-81.5 -47.5t-101.5 -17q-50 0 -91 17.5t-68 49.5t-35 65.5t-8 59.5q0 25 5 53l89 457h66l-87 -445q-5 -27 -5 -51q0 -14 3 -38t20.5 -50.5t46.5 -41t70 -14.5q78 0 133 49.5t72 135.5l89 455h67zM339 767l163 115l38 -50 l-178 -98z"/>
<glyph glyph-name="Ucircumflex" horiz-adv-x="600" unicode="Û" d="M425 822l-161 -87l-17 30l165 120h45l111 -119l-30 -29zM542 229q-11 -53 -34.5 -96.5t-58.5 -74t-81.5 -47.5t-101.5 -17q-50 0 -91 17.5t-68 49.5t-35 65.5t-8 59.5q0 25 5 53l89 457h66l-87 -445q-5 -27 -5 -51q0 -14 3 -38t20.5 -50.5t46.5 -41t70 -14.5 q78 0 133 49.5t72 135.5l89 455h67z"/>
<glyph glyph-name="Udieresis" horiz-adv-x="600" unicode="Ü" d="M272 751l14 71h72l-14 -71h-72zM451 751l14 71h72l-14 -71h-72zM542 229q-11 -53 -34.5 -96.5t-58.5 -74t-81.5 -47.5t-101.5 -17q-50 0 -91 17.5t-68 49.5t-35 65.5t-8 59.5q0 25 5 53l89 457h66l-87 -445q-5 -27 -5 -51q0 -14 3 -38t20.5 -50.5t46.5 -41t70 -14.5 q78 0 133 49.5t72 135.5l89 455h67z"/>
<glyph glyph-name="Yacute" horiz-adv-x="482" unicode="Ý" d="M288 766q41 29 81.5 57.5t81.5 57.5q10 -13 19 -25.5t19 -24.5l-178 -98zM231 0h-63l56 287q-31 103 -62 204.5t-63 204.5h65q14 -50 30 -102t36 -120q9 -33 19 -69t15 -57l96 143q4 6 15 22t25 36.5t30 44t30 44t24.5 36.5t14.5 22h71q-71 -103 -141 -204.5t-142 -204.5 z"/>
<glyph glyph-name="Thorn" horiz-adv-x="564" unicode="Þ" d="M336 214q40 0 72 15.5t54 40t33.5 54.5t11.5 58q0 54 -32.5 84.5t-87.5 30.5h-185l-55 -283h189zM171 694h68l-26 -135h183q37 0 70.5 -10t58.5 -31t39.5 -52t14.5 -73q0 -39 -15.5 -81.5t-46 -78t-77 -58.5t-109.5 -23h-197l-29 -152h-68z"/>
<glyph glyph-name="germandbls" horiz-adv-x="503" unicode="ß" d="M341 722q39 0 68 -12.5t47.5 -33t27.5 -47.5t9 -56q0 -21 -6 -45t-19 -46.5t-33 -41t-48 -28.5q42 -15 59 -50t17 -80q0 -56 -16 -108t-46 -91.5t-72.5 -63t-95.5 -23.5q-11 0 -20.5 1.5t-19.5 3.5l9 57q11 -4 29 -4q42 0 73.5 23t53 58t32.5 75t11 75q0 44 -22 71 t-70 27h-27l11 54q34 0 59.5 11.5t43 30t26 42t8.5 46.5q0 19 -5.5 37t-17.5 32t-30.5 22.5t-44.5 8.5q-32 0 -55 -11t-39.5 -28.5t-26.5 -38.5t-15 -40l-13.5 -67.5t-18.5 -94.5t-21 -108.5t-21.5 -109.5t-19 -97.5t-13.5 -71.5h-63l103 532q16 86 69 138t143 52z"/>
<glyph glyph-name="agrave" horiz-adv-x="493" unicode="à" d="M331 559l-95 163l54 19l79 -168zM111 168q0 -21 5 -41.5t17 -36.5t31 -26t48 -10q47 0 80.5 28t55.5 69.5t32 88.5t10 85q0 51 -24 85.5t-77 34.5t-87 -30.5t-54.5 -74t-28.5 -91t-8 -81.5zM286 501q19 0 38.5 -4.5t36.5 -14t30.5 -23.5t19.5 -33l3 1l15 68h60l-97 -495 h-62l14 65l-3 2q-30 -37 -64.5 -55t-82.5 -18q-39 0 -66.5 13t-45 36.5t-25.5 55t-8 67.5q0 35 6 73.5t18 75.5t31.5 71t45.5 59.5t60 40.5t76 15z"/>
<glyph glyph-name="aacute" horiz-adv-x="493" unicode="á" d="M277 573l98 166l61 -22l-122 -160zM111 168q0 -21 5 -41.5t17 -36.5t31 -26t48 -10q47 0 80.5 28t55.5 69.5t32 88.5t10 85q0 51 -24 85.5t-77 34.5t-87 -30.5t-54.5 -74t-28.5 -91t-8 -81.5zM286 501q19 0 38.5 -4.5t36.5 -14t30.5 -23.5t19.5 -33l3 1l15 68h60 l-97 -495h-62l14 65l-3 2q-30 -37 -64.5 -55t-82.5 -18q-39 0 -66.5 13t-45 36.5t-25.5 55t-8 67.5q0 35 6 73.5t18 75.5t31.5 71t45.5 59.5t60 40.5t76 15z"/>
<glyph glyph-name="acircumflex" horiz-adv-x="493" unicode="â" d="M351 665l-157 -105l-25 30l168 139h46l108 -137l-37 -31zM111 168q0 -21 5 -41.5t17 -36.5t31 -26t48 -10q47 0 80.5 28t55.5 69.5t32 88.5t10 85q0 51 -24 85.5t-77 34.5t-87 -30.5t-54.5 -74t-28.5 -91t-8 -81.5zM286 501q19 0 38.5 -4.5t36.5 -14t30.5 -23.5t19.5 -33 l3 1l15 68h60l-97 -495h-62l14 65l-3 2q-30 -37 -64.5 -55t-82.5 -18q-39 0 -66.5 13t-45 36.5t-25.5 55t-8 67.5q0 35 6 73.5t18 75.5t31.5 71t45.5 59.5t60 40.5t76 15z"/>
<glyph glyph-name="atilde" horiz-adv-x="493" unicode="ã" d="M278 689q18 0 35.5 -7t34.5 -15t33 -15t31 -7t29.5 9t33.5 32l36 -23q-22 -42 -49.5 -58.5t-56.5 -16.5q-18 0 -35.5 6.5t-35 14.5t-33.5 14.5t-30 6.5q-18 0 -31 -8t-34 -28l-34 23q24 38 51 55t55 17zM111 168q0 -21 5 -41.5t17 -36.5t31 -26t48 -10q47 0 80.5 28 t55.5 69.5t32 88.5t10 85q0 51 -24 85.5t-77 34.5t-87 -30.5t-54.5 -74t-28.5 -91t-8 -81.5zM286 501q19 0 38.5 -4.5t36.5 -14t30.5 -23.5t19.5 -33l3 1l15 68h60l-97 -495h-62l14 65l-3 2q-30 -37 -64.5 -55t-82.5 -18q-39 0 -66.5 13t-45 36.5t-25.5 55t-8 67.5 q0 35 6 73.5t18 75.5t31.5 71t45.5 59.5t60 40.5t76 15z"/>
<glyph glyph-name="adieresis" horiz-adv-x="493" unicode="ä" d="M199 602l14 72h70l-14 -72h-70zM382 602l13 72h71l-14 -72h-70zM111 168q0 -21 5 -41.5t17 -36.5t31 -26t48 -10q47 0 80.5 28t55.5 69.5t32 88.5t10 85q0 51 -24 85.5t-77 34.5t-87 -30.5t-54.5 -74t-28.5 -91t-8 -81.5zM286 501q19 0 38.5 -4.5t36.5 -14t30.5 -23.5 t19.5 -33l3 1l15 68h60l-97 -495h-62l14 65l-3 2q-30 -37 -64.5 -55t-82.5 -18q-39 0 -66.5 13t-45 36.5t-25.5 55t-8 67.5q0 35 6 73.5t18 75.5t31.5 71t45.5 59.5t60 40.5t76 15z"/>
<glyph glyph-name="aring" horiz-adv-x="493" unicode="å" d="M350 702q-28 0 -49 -21t-21 -49q0 -20 13 -33.5t35 -13.5q13 0 26 5.5t23 15.5t16 22.5t6 26.5q0 20 -13.5 33.5t-35.5 13.5zM322 549q-35 0 -57 22t-22 54q0 23 9 43.5t24 36t36 24.5t45 9q35 0 57.5 -22.5t22.5 -55.5q0 -25 -10 -45.5t-26 -35t-37 -22.5t-42 -8z M111 168q0 -21 5 -41.5t17 -36.5t31 -26t48 -10q47 0 80.5 28t55.5 69.5t32 88.5t10 85q0 51 -24 85.5t-77 34.5t-87 -30.5t-54.5 -74t-28.5 -91t-8 -81.5zM286 501q19 0 38.5 -4.5t36.5 -14t30.5 -23.5t19.5 -33l3 1l15 68h60l-97 -495h-62l14 65l-3 2q-30 -37 -64.5 -55 t-82.5 -18q-39 0 -66.5 13t-45 36.5t-25.5 55t-8 67.5q0 35 6 73.5t18 75.5t31.5 71t45.5 59.5t60 40.5t76 15z"/>
<glyph glyph-name="ae" horiz-adv-x="804" unicode="æ" d="M614 443q-41 0 -70 -16t-49 -41.5t-31.5 -57.5t-17.5 -65q43 -3 80 -3q58 1 96 10t60.5 23.5t31.5 32.5t9 36q0 38 -28 59.5t-81 21.5zM87 133q0 -38 23.5 -60.5t82.5 -22.5q28 0 56 8t50.5 22.5t38.5 35t21 45.5l11 56q-22 3 -40 5.5t-35 4.5t-34.5 3t-38.5 1 q-56 0 -93 -26t-42 -72zM711 49q-36 -26 -82.5 -40.5t-91.5 -14.5q-65 0 -102.5 25.5t-51.5 74.5q-32 -48 -84 -74t-128 -26q-31 0 -57 9.5t-45.5 26t-30.5 39.5t-11 51q0 38 14 68t38.5 51t59 32t75.5 11q26 0 46 -1t39 -3t38 -4.5t44 -5.5q6 30 11 53.5t5 44.5 q0 38 -24 57t-82 19q-47 0 -81 -11.5t-60 -32.5l-35 43q39 32 87 46t93 14q28 0 54 -3.5t47 -12.5t36.5 -23.5t23.5 -36.5q29 34 68.5 55t92.5 21q81 0 124.5 -35.5t43.5 -95.5q0 -32 -13 -61t-43.5 -51.5t-80 -36.5t-122.5 -15q-21 0 -43 0.5t-47 1.5q-2 -13 -2.5 -22 t-0.5 -16q0 -69 28.5 -94t83.5 -25q29 0 66 10.5t71 33.5z"/>
<glyph glyph-name="ccedilla" horiz-adv-x="414" unicode="ç" d="M223 -117q0 24 -21.5 33.5t-43.5 9.5h-4l-13 12l28 59q-71 10 -104.5 60t-33.5 128q0 60 16.5 117t49.5 101t82.5 71t115.5 27q42 0 81.5 -15.5t66.5 -46.5l-50 -46q-20 21 -47 34.5t-56 13.5q-51 0 -88 -22t-61 -57.5t-35.5 -80t-11.5 -89.5q0 -65 30 -101.5t98 -36.5 q29 0 61 15.5t55 31.5l33 -45q-35 -29 -77 -45.5t-88 -16.5q-10 -19 -17 -35q24 -2 40.5 -9t26.5 -17t14.5 -22t4.5 -23q0 -15 -7 -31t-21.5 -28.5t-36 -21t-51.5 -8.5q-13 0 -38 2t-48 12l16 37q19 -8 38.5 -10.5t33.5 -2.5q9 0 19.5 2.5t20 7.5t16 14t6.5 22z"/>
<glyph glyph-name="egrave" horiz-adv-x="462" unicode="è" d="M307 559l-95 163l54 19l79 -168zM282 444q-41 0 -70 -16t-49 -41.5t-31.5 -57.5t-17.5 -65q17 -2 34 -2h29q70 0 112 10.5t64.5 25.5t29.5 32.5t7 31.5q0 38 -28 60t-80 22zM285 501q81 0 125 -36t44 -96q0 -32 -13 -61.5t-46 -52t-89 -36t-143 -13.5q-11 0 -28 0.5 t-31 1.5q-3 -26 -3 -37q0 -65 29 -92.5t83 -27.5q15 0 33 3.5t36 9.5t35.5 14t30.5 17l31 -45q-36 -26 -82.5 -41t-91.5 -15q-85 0 -124.5 45t-39.5 132q0 57 13.5 115.5t43 106.5t76 78t111.5 30z"/>
<glyph glyph-name="eacute" horiz-adv-x="462" unicode="é" d="M267 573l98 166l61 -22l-122 -160zM282 444q-41 0 -70 -16t-49 -41.5t-31.5 -57.5t-17.5 -65q17 -2 34 -2h29q70 0 112 10.5t64.5 25.5t29.5 32.5t7 31.5q0 38 -28 60t-80 22zM285 501q81 0 125 -36t44 -96q0 -32 -13 -61.5t-46 -52t-89 -36t-143 -13.5q-11 0 -28 0.5 t-31 1.5q-3 -26 -3 -37q0 -65 29 -92.5t83 -27.5q15 0 33 3.5t36 9.5t35.5 14t30.5 17l31 -45q-36 -26 -82.5 -41t-91.5 -15q-85 0 -124.5 45t-39.5 132q0 57 13.5 115.5t43 106.5t76 78t111.5 30z"/>
<glyph glyph-name="ecircumflex" horiz-adv-x="462" unicode="ê" d="M329 665l-157 -105l-25 30l168 139h46l108 -137l-37 -31zM282 444q-41 0 -70 -16t-49 -41.5t-31.5 -57.5t-17.5 -65q17 -2 34 -2h29q70 0 112 10.5t64.5 25.5t29.5 32.5t7 31.5q0 38 -28 60t-80 22zM285 501q81 0 125 -36t44 -96q0 -32 -13 -61.5t-46 -52t-89 -36 t-143 -13.5q-11 0 -28 0.5t-31 1.5q-3 -26 -3 -37q0 -65 29 -92.5t83 -27.5q15 0 33 3.5t36 9.5t35.5 14t30.5 17l31 -45q-36 -26 -82.5 -41t-91.5 -15q-85 0 -124.5 45t-39.5 132q0 57 13.5 115.5t43 106.5t76 78t111.5 30z"/>
<glyph glyph-name="edieresis" horiz-adv-x="462" unicode="ë" d="M188 602l14 72h70l-14 -72h-70zM371 602l13 72h71l-14 -72h-70zM282 444q-41 0 -70 -16t-49 -41.5t-31.5 -57.5t-17.5 -65q17 -2 34 -2h29q70 0 112 10.5t64.5 25.5t29.5 32.5t7 31.5q0 38 -28 60t-80 22zM285 501q81 0 125 -36t44 -96q0 -32 -13 -61.5t-46 -52t-89 -36 t-143 -13.5q-11 0 -28 0.5t-31 1.5q-3 -26 -3 -37q0 -65 29 -92.5t83 -27.5q15 0 33 3.5t36 9.5t35.5 14t30.5 17l31 -45q-36 -26 -82.5 -41t-91.5 -15q-85 0 -124.5 45t-39.5 132q0 57 13.5 115.5t43 106.5t76 78t111.5 30z"/>
<glyph glyph-name="igrave" horiz-adv-x="208" unicode="ì" d="M171 559l-95 163l54 19l79 -168zM53 0l96 495h62l-96 -495h-62z"/>
<glyph glyph-name="iacute" horiz-adv-x="208" unicode="í" d="M146 573l98 166l61 -22l-122 -160zM33 0l96 495h62l-96 -495h-62z"/>
<glyph glyph-name="icircumflex" horiz-adv-x="244" unicode="î" d="M217 665l-157 -105l-25 30l168 139h46l108 -137l-37 -31zM53 0l96 495h62l-96 -495h-62z"/>
<glyph glyph-name="idieresis" horiz-adv-x="208" unicode="ï" d="M51 602l14 72h70l-14 -72h-70zM234 602l13 72h71l-14 -72h-70zM33 0l96 495h62l-96 -495h-62z"/>
<glyph glyph-name="eth" horiz-adv-x="493" unicode="ð" d="M268 420q-50 0 -83.5 -24.5t-53.5 -62t-29 -82t-9 -85.5q0 -52 29 -84.5t89 -32.5q43 0 75.5 19.5t54 54t32.5 81.5t11 101t-33 84.5t-83 30.5zM270 476q24 0 47.5 -7.5t43 -21t33 -33t18.5 -42.5h4q2 15 3 29t1 29q0 40 -6.5 76t-20.5 67l-68 -44q-5 8 -9 14t-9 13 l70 44q-21 32 -54 51.5t-81 23.5q8 26 17 51q62 -6 104.5 -30t68.5 -62l88 56l17 -27l-89 -56q17 -33 24.5 -72.5t7.5 -81.5q0 -40 -3.5 -89.5t-14 -100.5t-29 -99.5t-48.5 -86t-73.5 -60.5t-103.5 -23q-81 0 -127 41.5t-48 116.5q0 70 15 129.5t44.5 102.5t74 67.5 t103.5 24.5z"/>
<glyph glyph-name="ntilde" horiz-adv-x="506" unicode="ñ" d="M268 689q18 0 35.5 -7t34.5 -15t33 -15t31 -7t29.5 9t33.5 32l36 -23q-22 -42 -49.5 -58.5t-56.5 -16.5q-18 0 -35.5 6.5t-35 14.5t-33.5 14.5t-30 6.5q-18 0 -31 -8t-34 -28l-34 23q24 38 51 55t55 17zM339 0l60 307q6 27 6 50q0 27 -11 45t-33 28t-60 10q-27 0 -53 -10 t-47.5 -28.5t-36.5 -44.5t-21 -57l-58 -300h-61l96 495h61l-13 -69h2q32 40 75.5 57.5t84.5 17.5q34 0 62.5 -11.5t47.5 -33t24.5 -45t5.5 -41.5q0 -19 -4 -39l-64 -331h-63z"/>
<glyph glyph-name="ograve" horiz-adv-x="489" unicode="ò" d="M278 445q-50 0 -84 -28t-54 -69.5t-28.5 -90t-8.5 -89.5q0 -17 4.5 -37.5t17 -38.5t35 -30t57.5 -12q49 0 83 24.5t55 63.5t30.5 87.5t9.5 97.5q0 63 -34 92.5t-83 29.5zM287 501q39 0 70.5 -12.5t54 -35t35 -54t12.5 -70.5q0 -59 -12 -119t-40 -108t-74 -78t-113 -30 q-86 0 -132.5 43t-46.5 124q0 67 14.5 128.5t44.5 108.5t76.5 75t110.5 28zM303 559l-95 163l54 19l79 -168z"/>
<glyph glyph-name="oacute" horiz-adv-x="489" unicode="ó" d="M278 445q-50 0 -84 -28t-54 -69.5t-28.5 -90t-8.5 -89.5q0 -17 4.5 -37.5t17 -38.5t35 -30t57.5 -12q49 0 83 24.5t55 63.5t30.5 87.5t9.5 97.5q0 63 -34 92.5t-83 29.5zM287 501q39 0 70.5 -12.5t54 -35t35 -54t12.5 -70.5q0 -59 -12 -119t-40 -108t-74 -78t-113 -30 q-86 0 -132.5 43t-46.5 124q0 67 14.5 128.5t44.5 108.5t76.5 75t110.5 28zM286 573l98 166l61 -22l-122 -160z"/>
<glyph glyph-name="ocircumflex" horiz-adv-x="489" unicode="ô" d="M278 445q-50 0 -84 -28t-54 -69.5t-28.5 -90t-8.5 -89.5q0 -17 4.5 -37.5t17 -38.5t35 -30t57.5 -12q49 0 83 24.5t55 63.5t30.5 87.5t9.5 97.5q0 63 -34 92.5t-83 29.5zM287 501q39 0 70.5 -12.5t54 -35t35 -54t12.5 -70.5q0 -59 -12 -119t-40 -108t-74 -78t-113 -30 q-86 0 -132.5 43t-46.5 124q0 67 14.5 128.5t44.5 108.5t76.5 75t110.5 28zM348 665l-157 -105l-25 30l168 139h46l108 -137l-37 -31z"/>
<glyph glyph-name="otilde" horiz-adv-x="489" unicode="õ" d="M278 445q-50 0 -84 -28t-54 -69.5t-28.5 -90t-8.5 -89.5q0 -17 4.5 -37.5t17 -38.5t35 -30t57.5 -12q49 0 83 24.5t55 63.5t30.5 87.5t9.5 97.5q0 63 -34 92.5t-83 29.5zM287 501q39 0 70.5 -12.5t54 -35t35 -54t12.5 -70.5q0 -59 -12 -119t-40 -108t-74 -78t-113 -30 q-86 0 -132.5 43t-46.5 124q0 67 14.5 128.5t44.5 108.5t76.5 75t110.5 28zM268 689q18 0 35.5 -7t34.5 -15t33 -15t31 -7t29.5 9t33.5 32l36 -23q-22 -42 -49.5 -58.5t-56.5 -16.5q-18 0 -35.5 6.5t-35 14.5t-33.5 14.5t-30 6.5q-18 0 -31 -8t-34 -28l-34 23q24 38 51 55 t55 17z"/>
<glyph glyph-name="odieresis" horiz-adv-x="489" unicode="ö" d="M278 445q-50 0 -84 -28t-54 -69.5t-28.5 -90t-8.5 -89.5q0 -17 4.5 -37.5t17 -38.5t35 -30t57.5 -12q49 0 83 24.5t55 63.5t30.5 87.5t9.5 97.5q0 63 -34 92.5t-83 29.5zM287 501q39 0 70.5 -12.5t54 -35t35 -54t12.5 -70.5q0 -59 -12 -119t-40 -108t-74 -78t-113 -30 q-86 0 -132.5 43t-46.5 124q0 67 14.5 128.5t44.5 108.5t76.5 75t110.5 28zM181 602l14 72h70l-14 -72h-70zM364 602l13 72h71l-14 -72h-70z"/>
<glyph glyph-name="divide" horiz-adv-x="484" unicode="÷" d="M236 160q17 0 28 -10t11 -27q0 -24 -17.5 -41t-39.5 -17q-18 0 -29 11t-11 28q0 23 18 39.5t40 16.5zM37 262l10 50h434l-11 -50h-433zM304 508q17 0 27.5 -10.5t10.5 -27.5q0 -23 -17.5 -40t-39.5 -17q-18 0 -29 11t-11 28q0 23 18.5 39.5t40.5 16.5z"/>
<glyph glyph-name="oslash" horiz-adv-x="502" unicode="ø" d="M395 323q0 27 -7 47l-258 -285q13 -15 34 -25t53 -10q49 0 83 24.5t55 63.5t30.5 87.5t9.5 97.5zM278 445q-50 0 -84 -28t-54 -69.5t-28.5 -90t-8.5 -89.5q0 -12 1.5 -25t6.5 -26l260 286q-16 21 -40 31.5t-53 10.5zM287 501q40 0 72.5 -13t55.5 -37l59 65l26 -22 l-64 -71q23 -40 23 -94q0 -59 -12 -119t-40 -108t-74 -78t-113 -30q-87 0 -133 44l-51 -56l-26 23l55 60q-24 39 -24 96q0 67 14.5 128.5t44.5 108.5t76.5 75t110.5 28z"/>
<glyph glyph-name="ugrave" horiz-adv-x="515" unicode="ù" d="M343 0l14 68h-3q-32 -40 -74 -57t-82 -17q-76 0 -108.5 40.5t-32.5 94.5q0 24 5 51l61 315h61l-59 -306q-4 -22 -4 -41q0 -36 19 -65t87 -29q27 0 52 10t46 29t36 45t21 58l58 299h62l-96 -495h-63zM318 559l-95 163l55 19l77 -168z"/>
<glyph glyph-name="uacute" horiz-adv-x="515" unicode="ú" d="M281 573l98 166l61 -22l-122 -160zM343 0l14 68h-3q-32 -40 -74 -57t-82 -17q-76 0 -108.5 40.5t-32.5 94.5q0 24 5 51l61 315h61l-59 -306q-4 -22 -4 -41q0 -36 19 -65t87 -29q27 0 52 10t46 29t36 45t21 58l58 299h62l-96 -495h-63z"/>
<glyph glyph-name="ucircumflex" horiz-adv-x="515" unicode="û" d="M347 665l-157 -105l-25 30l168 139h46l108 -137l-37 -31zM343 0l14 68h-3q-32 -40 -74 -57t-82 -17q-76 0 -108.5 40.5t-32.5 94.5q0 24 5 51l61 315h61l-59 -306q-4 -22 -4 -41q0 -36 19 -65t87 -29q27 0 52 10t46 29t36 45t21 58l58 299h62l-96 -495h-63z"/>
<glyph glyph-name="udieresis" horiz-adv-x="515" unicode="ü" d="M200 602l14 72h70l-14 -72h-70zM383 602l13 72h71l-14 -72h-70zM343 0l14 68h-3q-32 -40 -74 -57t-82 -17q-76 0 -108.5 40.5t-32.5 94.5q0 24 5 51l61 315h61l-59 -306q-4 -22 -4 -41q0 -36 19 -65t87 -29q27 0 52 10t46 29t36 45t21 58l58 299h62l-96 -495h-63z"/>
<glyph glyph-name="yacute" horiz-adv-x="409" unicode="ý" d="M225 573l98 166l61 -22l-122 -160zM453 495q-57 -155 -115 -281.5t-118 -223.5q-22 -35 -49 -67.5t-60 -58t-73.5 -42t-89.5 -19.5l-2 55q52 6 100.5 33t90.5 86l-82 518h66l34 -238q7 -50 14.5 -108t9.5 -115h3q66 112 116.5 231t89.5 230h65z"/>
<glyph glyph-name="thorn" horiz-adv-x="497" unicode="þ" d="M301 440q-33 0 -59 -13.5t-45.5 -36t-33 -50.5t-22 -56.5t-12 -56t-3.5 -47.5q0 -26 5 -48.5t16 -39.5t30 -26.5t46 -9.5q52 0 85.5 28.5t53.5 69.5t28 87.5t8 82.5q0 24 -5 45.5t-16 37t-30 24.5t-46 9zM220 696l-53 -270q1 0 1.5 -0.5t1.5 -0.5q35 42 74.5 59t81.5 17 q39 0 65.5 -13t42 -35.5t22.5 -53t7 -64.5q0 -53 -12.5 -112.5t-40.5 -110t-73.5 -84t-111.5 -33.5q-48 0 -77 20.5t-48 55.5q-1 0 -1 -0.5t-1 -0.5l-52 -270h-61q43 225 86 447.5t87 448.5h62z"/>
<glyph glyph-name="ydieresis" horiz-adv-x="409" unicode="ÿ" d="M128 602l14 72h70l-14 -72h-70zM311 602l13 72h71l-14 -72h-70zM453 495q-57 -155 -115 -281.5t-118 -223.5q-22 -35 -49 -67.5t-60 -58t-73.5 -42t-89.5 -19.5l-2 55q52 6 100.5 33t90.5 86l-82 518h66l34 -238q7 -50 14.5 -108t9.5 -115h3q66 112 116.5 231t89.5 230 h65z"/>
<glyph glyph-name="Amacron" horiz-adv-x="580" unicode="Ā" d="M266 768l12 57h261l-11 -57h-262zM368 616q-5 -10 -20.5 -39.5t-37 -69.5t-45.5 -85t-45.5 -85.5t-38 -71.5t-22.5 -42h268q-3 21 -7.5 53t-10 69t-11 77t-11 76.5t-10 67t-7.5 50.5h-2zM459 0q-6 42 -12 82.5t-13 82.5h-305l-89 -165h-71q96 175 191.5 348t192.5 348h62 l114 -696h-70z"/>
<glyph glyph-name="amacron" horiz-adv-x="493" unicode="ā" d="M193 603l11 59h262l-12 -59h-261zM111 168q0 -21 5 -41.5t17 -36.5t31 -26t48 -10q47 0 80.5 28t55.5 69.5t32 88.5t10 85q0 51 -24 85.5t-77 34.5t-87 -30.5t-54.5 -74t-28.5 -91t-8 -81.5zM286 501q19 0 38.5 -4.5t36.5 -14t30.5 -23.5t19.5 -33l3 1l15 68h60l-97 -495 h-62l14 65l-3 2q-30 -37 -64.5 -55t-82.5 -18q-39 0 -66.5 13t-45 36.5t-25.5 55t-8 67.5q0 35 6 73.5t18 75.5t31.5 71t45.5 59.5t60 40.5t76 15z"/>
<glyph glyph-name="Abreve" horiz-adv-x="580" unicode="Ă" d="M332 857q-1 -5 -1 -10q0 -22 16 -40t49 -18q38 0 62 21t31 47h59q-5 -21 -17 -42t-31.5 -38.5t-47 -28.5t-63.5 -11q-35 0 -58 11.5t-36 29.5t-16.5 35t-3.5 28q0 8 1 16h56zM368 616q-5 -10 -20.5 -39.5t-37 -69.5t-45.5 -85t-45.5 -85.5t-38 -71.5t-22.5 -42h268 q-3 21 -7.5 53t-10 69t-11 77t-11 76.5t-10 67t-7.5 50.5h-2zM459 0q-6 42 -12 82.5t-13 82.5h-305l-89 -165h-71q96 175 191.5 348t192.5 348h62l114 -696h-70z"/>
<glyph glyph-name="abreve" horiz-adv-x="493" unicode="ă" d="M264 703v-5q0 -22 16.5 -44t51.5 -22t60.5 21.5t32.5 49.5h59q-6 -22 -18 -44.5t-31 -40.5t-45 -29t-61 -11q-68 0 -94.5 33.5t-26.5 76.5q0 8 1 15h55zM111 168q0 -21 5 -41.5t17 -36.5t31 -26t48 -10q47 0 80.5 28t55.5 69.5t32 88.5t10 85q0 51 -24 85.5t-77 34.5 t-87 -30.5t-54.5 -74t-28.5 -91t-8 -81.5zM286 501q19 0 38.5 -4.5t36.5 -14t30.5 -23.5t19.5 -33l3 1l15 68h60l-97 -495h-62l14 65l-3 2q-30 -37 -64.5 -55t-82.5 -18q-39 0 -66.5 13t-45 36.5t-25.5 55t-8 67.5q0 35 6 73.5t18 75.5t31.5 71t45.5 59.5t60 40.5t76 15z "/>
<glyph glyph-name="Aogonek" horiz-adv-x="580" unicode="Ą" d="M368 616q-5 -10 -20.5 -39.5t-37 -69.5t-45.5 -85t-45.5 -85.5t-38 -71.5t-22.5 -42h268q-3 21 -7.5 53t-10 69t-11 77t-11 76.5t-10 67t-7.5 50.5h-2zM477 -177q-36 0 -56 20t-20 49q0 22 12.5 48.5t45.5 59.5q-6 42 -12 82.5t-13 82.5h-305l-89 -165h-71 q96 175 191.5 348t192.5 348h62l114 -696h-22q-26 -27 -38.5 -51t-12.5 -44q0 -35 43 -35q12 0 27 3.5t32 11.5l9 -39q-20 -11 -43.5 -17t-46.5 -6z"/>
<glyph glyph-name="aogonek" horiz-adv-x="493" unicode="ą" d="M111 168q0 -21 5 -41.5t17 -36.5t31 -26t48 -10q47 0 80.5 28t55.5 69.5t32 88.5t10 85q0 51 -24 85.5t-77 34.5t-87 -30.5t-54.5 -74t-28.5 -91t-8 -81.5zM348 -177q-36 0 -56 20t-20 49q0 22 12.5 48.5t45.5 59.5l14 65l-3 2q-30 -37 -64.5 -55t-82.5 -18 q-39 0 -66.5 13t-45 36.5t-25.5 55t-8 67.5q0 35 6 73.5t18 75.5t31.5 71t45.5 59.5t60 40.5t76 15q19 0 38.5 -4.5t36.5 -14t30.5 -23.5t19.5 -33l3 1l15 68h60l-97 -495h-14q-26 -27 -38.5 -51t-12.5 -44q0 -35 43 -35q12 0 27 3.5t32 11.5l9 -39q-20 -11 -43.5 -17 t-46.5 -6z"/>
<glyph glyph-name="Cacute" horiz-adv-x="536" unicode="Ć" d="M517 138q-40 -70 -106.5 -107t-147.5 -37q-62 0 -105 21.5t-68 57.5t-30.5 69.5t-5.5 53.5q0 29 7 59l39 198q10 50 31.5 95t56 79t81.5 54t109 20q81 0 133.5 -38t73.5 -101l-67 -29q-11 45 -47.5 74.5t-90.5 29.5q-48 0 -85 -16t-63 -42.5t-43 -61.5t-24 -72l-37 -193 q-5 -24 -5 -47q0 -13 3 -37t19.5 -51t47 -43.5t75.5 -16.5q59 0 107.5 30t79.5 81zM333 767l163 115l38 -50l-178 -98z"/>
<glyph glyph-name="cacute" horiz-adv-x="414" unicode="ć" d="M253 573l98 166l61 -22l-122 -160zM371 56q-35 -29 -77 -45.5t-88 -16.5q-90 0 -132.5 52.5t-42.5 138.5q0 60 16.5 117t49.5 101t82.5 71t115.5 27q42 0 81.5 -15.5t66.5 -46.5l-50 -46q-20 21 -47 34.5t-56 13.5q-51 0 -88 -22t-61 -57.5t-35.5 -80t-11.5 -89.5 q0 -65 30 -101.5t98 -36.5q29 0 61 15.5t55 31.5z"/>
<glyph glyph-name="Ccircumflex" horiz-adv-x="536" unicode="Ĉ" d="M414 822l-161 -87l-17 30l165 120h45l111 -119l-30 -29zM517 138q-40 -70 -106.5 -107t-147.5 -37q-62 0 -105 21.5t-68 57.5t-30.5 69.5t-5.5 53.5q0 29 7 59l39 198q10 50 31.5 95t56 79t81.5 54t109 20q81 0 133.5 -38t73.5 -101l-67 -29q-11 45 -47.5 74.5 t-90.5 29.5q-49 0 -86 -16t-63 -42.5t-42.5 -61.5t-23.5 -72l-37 -193q-6 -26 -6 -51q0 -11 2.5 -34t19 -50t47 -43.5t77.5 -16.5q59 0 107.5 30t79.5 81z"/>
<glyph glyph-name="ccircumflex" horiz-adv-x="414" unicode="ĉ" d="M330 665l-157 -105l-25 30l168 139h46l108 -137l-37 -31zM371 56q-35 -29 -77 -45.5t-88 -16.5q-90 0 -132.5 52.5t-42.5 138.5q0 60 16.5 117t49.5 101t82.5 71t115.5 27q42 0 81.5 -15.5t66.5 -46.5l-50 -46q-20 21 -47 34.5t-56 13.5q-51 0 -88 -22t-61 -57.5 t-35.5 -80t-11.5 -89.5q0 -65 30 -101.5t98 -36.5q29 0 61 15.5t55 31.5z"/>
<glyph glyph-name="Cdotaccent" horiz-adv-x="536" unicode="Ċ" d="M371 752l14 72h71l-14 -72h-71zM517 138q-40 -70 -106.5 -107t-147.5 -37q-62 0 -105 21.5t-68 57.5t-30.5 69.5t-5.5 53.5q0 29 7 59l39 198q10 50 31.5 95t56 79t81.5 54t109 20q81 0 133.5 -38t73.5 -101l-67 -29q-11 45 -47.5 74.5t-90.5 29.5q-49 0 -86 -16 t-63 -42.5t-42.5 -61.5t-23.5 -72l-37 -193q-6 -26 -6 -51q0 -11 2.5 -34t19 -50t47 -43.5t77.5 -16.5q59 0 107.5 30t79.5 81z"/>
<glyph glyph-name="cdotaccent" horiz-adv-x="414" unicode="ċ" d="M273 602l14 72h71l-14 -72h-71zM371 56q-35 -29 -77 -45.5t-88 -16.5q-90 0 -132.5 52.5t-42.5 138.5q0 60 16.5 117t49.5 101t82.5 71t115.5 27q42 0 81.5 -15.5t66.5 -46.5l-50 -46q-20 21 -47 34.5t-56 13.5q-51 0 -88 -22t-61 -57.5t-35.5 -80t-11.5 -89.5 q0 -65 30 -101.5t98 -36.5q29 0 61 15.5t55 31.5z"/>
<glyph glyph-name="Ccaron" horiz-adv-x="536" unicode="Č" d="M394 799l163 87l18 -30l-165 -120h-45l-112 119l29 27zM517 138q-40 -70 -106.5 -107t-147.5 -37q-62 0 -105 21.5t-68 57.5t-30.5 69.5t-5.5 53.5q0 29 7 59l39 198q10 50 31.5 95t56 79t81.5 54t109 20q81 0 133.5 -38t73.5 -101l-67 -29q-11 45 -47.5 74.5t-90.5 29.5 q-49 0 -86 -16t-63 -42.5t-42.5 -61.5t-23.5 -72l-37 -193q-6 -26 -6 -51q0 -11 2.5 -34t19 -50t47 -43.5t77.5 -16.5q59 0 107.5 30t79.5 81z"/>
<glyph glyph-name="ccaron" horiz-adv-x="414" unicode="č" d="M463 722l24 -29l-161 -138h-45l-114 139l36 29l108 -104zM371 56q-35 -29 -77 -45.5t-88 -16.5q-90 0 -132.5 52.5t-42.5 138.5q0 60 16.5 117t49.5 101t82.5 71t115.5 27q42 0 81.5 -15.5t66.5 -46.5l-50 -46q-20 21 -47 34.5t-56 13.5q-51 0 -88 -22t-61 -57.5 t-35.5 -80t-11.5 -89.5q0 -65 30 -101.5t98 -36.5q29 0 61 15.5t55 31.5z"/>
<glyph glyph-name="Dcaron" horiz-adv-x="604" unicode="Ď" d="M372 799l163 87l18 -30l-165 -120h-45l-112 119l29 27zM226 634l-112 -572h160q53 0 91.5 15t65.5 43t44 67.5t26 88.5l24 127q9 45 9 83q0 72 -37 110t-121 38h-150zM393 696q42 0 80 -10t66.5 -32t45.5 -57t17 -84q0 -45 -8 -102.5t-20 -112.5t-26.5 -100.5 t-26.5 -66.5q-24 -40 -52 -65.5t-59.5 -40t-66 -20t-70.5 -5.5h-237l135 696h222z"/>
<glyph glyph-name="dcaron" horiz-adv-x="548" unicode="ď" d="M579 544h-39l51 90h-27l17 89h82l-17 -87zM286 442q-36 0 -62.5 -14.5t-45.5 -38.5t-31.5 -53.5t-19.5 -59t-9.5 -56.5t-2.5 -45q0 -27 4.5 -49t15.5 -38t30.5 -25t49.5 -9q33 0 58.5 14t44.5 37t32 51.5t21.5 57.5t12 55.5t3.5 44.5q0 23 -4.5 46t-15.5 41t-31 29.5 t-50 11.5zM332 0q3 17 7 32.5t7 32.5q-1 0 -1 0.5t-1 0.5q-31 -35 -70 -53.5t-87 -18.5q-39 0 -65 12.5t-42 34t-23 51.5t-7 65q0 54 12 114.5t40 111.5t72.5 84t110.5 33q45 0 78.5 -20.5t49.5 -55.5h1l60 302h61l-142 -726h-61z"/>
<glyph glyph-name="Dcroat" horiz-adv-x="604" unicode="Đ" d="M226 634l-48 -243h137l-11 -50h-135l-55 -279h160q53 0 91.5 15t65.5 43t44 67.5t26 88.5l24 127q9 45 9 83q0 72 -37 110t-121 38h-150zM22 341q2 13 4.5 25t5.5 25h79l60 305h222q42 0 80 -10t66.5 -32t45.5 -57t17 -84q0 -45 -8 -102.5t-20 -112.5t-26.5 -100.5 t-26.5 -66.5q-24 -40 -52 -65.5t-59.5 -40t-66 -20t-70.5 -5.5h-237l66 341h-80z"/>
<glyph glyph-name="dcroat" horiz-adv-x="471" unicode="đ" d="M278 439q-54 0 -87.5 -29.5t-52 -71t-26 -86.5t-9.5 -77q0 -25 4.5 -47t15.5 -38.5t30.5 -26t49.5 -9.5q34 0 60 14t45.5 36.5t32 50.5t20.5 56.5t11 55t3 45.5q0 24 -4 47t-14.5 40.5t-29.5 28.5t-49 11zM339 617h101l22 109h61l-21 -109h61l-8 -44h-62 q-29 -144 -56.5 -286.5t-55.5 -286.5h-61l13 68q-1 0 -1 0.5t-1 0.5q-31 -35 -69.5 -55t-86.5 -20q-39 0 -65 12.5t-42 34t-23 51.5t-7 65q0 54 12.5 114.5t41 111.5t74 84t111.5 33q45 0 74.5 -19t49.5 -57h1l29 149h-100z"/>
<glyph glyph-name="Emacron" horiz-adv-x="525" unicode="Ē" d="M263 768l12 57h261l-11 -57h-262zM35 0l136 696h410l-12 -62h-344l-48 -252h304l-12 -60h-304l-51 -260h373l-12 -62h-440z"/>
<glyph glyph-name="emacron" horiz-adv-x="462" unicode="ē" d="M179 603l11 59h262l-12 -59h-261zM282 444q-41 0 -70 -16t-49 -41.5t-31.5 -57.5t-17.5 -65q17 -2 34 -2h29q70 0 112 10.5t64.5 25.5t29.5 32.5t7 31.5q0 38 -28 60t-80 22zM285 501q81 0 125 -36t44 -96q0 -32 -13 -61.5t-46 -52t-89 -36t-143 -13.5q-11 0 -28 0.5 t-31 1.5q-3 -26 -3 -37q0 -65 29 -92.5t83 -27.5q15 0 33 3.5t36 9.5t35.5 14t30.5 17l31 -45q-36 -26 -82.5 -41t-91.5 -15q-85 0 -124.5 45t-39.5 132q0 57 13.5 115.5t43 106.5t76 78t111.5 30z"/>
<glyph glyph-name="Ebreve" horiz-adv-x="525" unicode="Ĕ" d="M323 857q-1 -5 -1 -10q0 -22 16 -40t49 -18q38 0 62 21t31 47h59q-5 -21 -17 -42t-31.5 -38.5t-47 -28.5t-63.5 -11q-35 0 -58 11.5t-36 29.5t-16.5 35t-3.5 28q0 8 1 16h56zM35 0l136 696h410l-12 -62h-344l-48 -252h304l-12 -60h-304l-51 -260h373l-12 -62h-440z"/>
<glyph glyph-name="ebreve" horiz-adv-x="462" unicode="ĕ" d="M241 703v-5q0 -22 16.5 -44t51.5 -22t60.5 21.5t32.5 49.5h59q-6 -22 -18 -44.5t-31 -40.5t-45 -29t-61 -11q-68 0 -94.5 33.5t-26.5 76.5q0 8 1 15h55zM282 444q-41 0 -70 -16t-49 -41.5t-31.5 -57.5t-17.5 -65q17 -2 34 -2h29q70 0 112 10.5t64.5 25.5t29.5 32.5 t7 31.5q0 38 -28 60t-80 22zM285 501q81 0 125 -36t44 -96q0 -32 -13 -61.5t-46 -52t-89 -36t-143 -13.5q-11 0 -28 0.5t-31 1.5q-3 -26 -3 -37q0 -65 29 -92.5t83 -27.5q15 0 33 3.5t36 9.5t35.5 14t30.5 17l31 -45q-36 -26 -82.5 -41t-91.5 -15q-85 0 -124.5 45t-39.5 132 q0 57 13.5 115.5t43 106.5t76 78t111.5 30z"/>
<glyph glyph-name="Edotaccent" horiz-adv-x="525" unicode="Ė" d="M347 761l14 72h71l-14 -72h-71zM35 0l136 696h410l-12 -62h-344l-48 -252h304l-12 -60h-304l-51 -260h373l-12 -62h-440z"/>
<glyph glyph-name="edotaccent" horiz-adv-x="462" unicode="ė" d="M263 602l14 72h71l-14 -72h-71zM282 444q-41 0 -70 -16t-49 -41.5t-31.5 -57.5t-17.5 -65q17 -2 34 -2h29q70 0 112 10.5t64.5 25.5t29.5 32.5t7 31.5q0 38 -28 60t-80 22zM285 501q81 0 125 -36t44 -96q0 -32 -13 -61.5t-46 -52t-89 -36t-143 -13.5q-11 0 -28 0.5 t-31 1.5q-3 -26 -3 -37q0 -65 29 -92.5t83 -27.5q15 0 33 3.5t36 9.5t35.5 14t30.5 17l31 -45q-36 -26 -82.5 -41t-91.5 -15q-85 0 -124.5 45t-39.5 132q0 57 13.5 115.5t43 106.5t76 78t111.5 30z"/>
<glyph glyph-name="Eogonek" horiz-adv-x="525" unicode="Ę" d="M427 -177q-36 0 -56 20t-20 49q0 22 12.5 48.5t45.5 59.5h-374l136 696h410l-12 -62h-344l-48 -252h304l-12 -60h-304l-51 -260h373l-12 -62h-18q-26 -27 -38.5 -51t-12.5 -44q0 -35 43 -35q12 0 27 3.5t32 11.5l9 -39q-20 -11 -43.5 -17t-46.5 -6z"/>
<glyph glyph-name="eogonek" horiz-adv-x="462" unicode="ę" d="M282 444q-41 0 -70 -16t-49 -41.5t-31.5 -57.5t-17.5 -65q17 -2 34 -2h29q70 0 112 10.5t64.5 25.5t29.5 32.5t7 31.5q0 38 -28 60t-80 22zM307 -153q-36 0 -56 20t-20 49q0 18 8 39t29 46q-16 -3 -32 -5t-31 -2q-85 0 -124.5 45t-39.5 132q0 57 13.5 115.5t43 106.5 t76 78t111.5 30q81 0 125 -36t44 -96q0 -32 -13 -61.5t-46 -52t-89 -36t-143 -13.5q-11 0 -28 0.5t-31 1.5q-3 -26 -3 -37q0 -65 29 -92.5t83 -27.5q15 0 33 3.5t36 9.5t35.5 14t30.5 17l31 -45q-18 -14 -42 -25v-1q-26 -27 -38.5 -51t-12.5 -44q0 -35 43 -35q12 0 27 3.5 t32 11.5l9 -39q-20 -11 -43.5 -17t-46.5 -6z"/>
<glyph glyph-name="Ecaron" horiz-adv-x="525" unicode="Ě" d="M376 799l163 87l18 -30l-165 -120h-45l-112 119l29 27zM35 0l136 696h410l-12 -62h-344l-48 -252h304l-12 -60h-304l-51 -260h373l-12 -62h-440z"/>
<glyph glyph-name="ecaron" horiz-adv-x="462" unicode="ě" d="M460 722l24 -29l-161 -138h-45l-114 139l36 29l108 -104zM282 444q-41 0 -70 -16t-49 -41.5t-31.5 -57.5t-17.5 -65q17 -2 34 -2h29q70 0 112 10.5t64.5 25.5t29.5 32.5t7 31.5q0 38 -28 60t-80 22zM285 501q81 0 125 -36t44 -96q0 -32 -13 -61.5t-46 -52t-89 -36 t-143 -13.5q-11 0 -28 0.5t-31 1.5q-3 -26 -3 -37q0 -65 29 -92.5t83 -27.5q15 0 33 3.5t36 9.5t35.5 14t30.5 17l31 -45q-36 -26 -82.5 -41t-91.5 -15q-85 0 -124.5 45t-39.5 132q0 57 13.5 115.5t43 106.5t76 78t111.5 30z"/>
<glyph glyph-name="Gcircumflex" horiz-adv-x="580" unicode="Ĝ" d="M403 822l-161 -87l-17 30l165 120h45l111 -119l-30 -29zM257 55q41 0 76 14t62.5 39t46 58t26.5 72l13 63h-150l12 61h217l-26 -127q-10 -53 -34 -97.5t-61 -76.5t-85 -49.5t-106 -17.5q-62 0 -104.5 21t-67 57t-29 68t-4.5 50q0 30 7 63l39 198q10 50 31.5 95t56 79 t81.5 54t109 20q81 0 133.5 -38t73.5 -101l-67 -29q-11 45 -47.5 74.5t-90.5 29.5q-49 0 -86 -16t-63 -42.5t-42.5 -61.5t-23.5 -72l-37 -193q-6 -26 -6 -51q0 -11 2.5 -34t19 -50t47 -43.5t77.5 -16.5z"/>
<glyph glyph-name="gcircumflex" horiz-adv-x="495" unicode="ĝ" d="M340 665l-157 -105l-25 30l168 139h46l108 -137l-37 -31zM383 323q0 25 -6 47t-18.5 38.5t-32.5 26t-47 9.5q-48 0 -80.5 -27.5t-52.5 -69t-28.5 -89.5t-8.5 -88q0 -26 4 -47t15 -36t29 -23.5t47 -8.5q48 0 81.5 27.5t55.5 68t32 87.5t10 85zM484 496q-23 -125 -47 -248 t-48 -248q-9 -48 -26 -86t-44.5 -65t-66.5 -41.5t-93 -14.5q-18 0 -38.5 3.5t-40.5 11t-37.5 18t-30.5 24.5q11 11 20 22.5t20 23.5q23 -20 52 -32t59 -12q37 0 64 11t46.5 30.5t31.5 46.5t20 59q5 18 8 36.5t8 37.5h-2q-32 -42 -71 -60t-86 -18q-39 0 -65 12.5t-42 34 t-23 51.5t-7 65q0 36 5 75.5t17 77.5t30 72.5t44 61t60 42t78 15.5q43 0 76.5 -18.5t52.5 -58.5h1l14 71h61z"/>
<glyph glyph-name="Gbreve" horiz-adv-x="580" unicode="Ğ" d="M333 857q-1 -5 -1 -10q0 -22 16 -40t49 -18q38 0 62 21t31 47h59q-5 -21 -17 -42t-31.5 -38.5t-47 -28.5t-63.5 -11q-35 0 -58 11.5t-36 29.5t-16.5 35t-3.5 28q0 8 1 16h56zM257 55q41 0 76 14t62.5 39t46 58t26.5 72l13 63h-150l12 61h217l-26 -127q-10 -53 -34 -97.5 t-61 -76.5t-85 -49.5t-106 -17.5q-62 0 -104.5 21t-67 57t-29 68t-4.5 50q0 30 7 63l39 198q10 50 31.5 95t56 79t81.5 54t109 20q81 0 133.5 -38t73.5 -101l-67 -29q-11 45 -47.5 74.5t-90.5 29.5q-49 0 -86 -16t-63 -42.5t-42.5 -61.5t-23.5 -72l-37 -193q-6 -26 -6 -51 q0 -11 2.5 -34t19 -50t47 -43.5t77.5 -16.5z"/>
<glyph glyph-name="gbreve" horiz-adv-x="495" unicode="ğ" d="M254 703v-5q0 -22 16.5 -44t51.5 -22t60.5 21.5t32.5 49.5h59q-6 -22 -18 -44.5t-31 -40.5t-45 -29t-61 -11q-68 0 -94.5 33.5t-26.5 76.5q0 8 1 15h55zM383 323q0 25 -6 47t-18.5 38.5t-32.5 26t-47 9.5q-48 0 -80.5 -27.5t-52.5 -69t-28.5 -89.5t-8.5 -88q0 -26 4 -47 t15 -36t29 -23.5t47 -8.5q48 0 81.5 27.5t55.5 68t32 87.5t10 85zM484 496q-23 -125 -47 -248t-48 -248q-9 -48 -26 -86t-44.5 -65t-66.5 -41.5t-93 -14.5q-18 0 -38.5 3.5t-40.5 11t-37.5 18t-30.5 24.5q11 11 20 22.5t20 23.5q23 -20 52 -32t59 -12q37 0 64 11t46.5 30.5 t31.5 46.5t20 59q5 18 8 36.5t8 37.5h-2q-32 -42 -71 -60t-86 -18q-39 0 -65 12.5t-42 34t-23 51.5t-7 65q0 36 5 75.5t17 77.5t30 72.5t44 61t60 42t78 15.5q43 0 76.5 -18.5t52.5 -58.5h1l14 71h61z"/>
<glyph glyph-name="Gdotaccent" horiz-adv-x="580" unicode="Ġ" d="M351 752l14 72h71l-14 -72h-71zM257 55q41 0 76 14t62.5 39t46 58t26.5 72l13 63h-150l12 61h217l-26 -127q-10 -53 -34 -97.5t-61 -76.5t-85 -49.5t-106 -17.5q-62 0 -104.5 21t-67 57t-29 68t-4.5 50q0 30 7 63l39 198q10 50 31.5 95t56 79t81.5 54t109 20 q81 0 133.5 -38t73.5 -101l-67 -29q-11 45 -47.5 74.5t-90.5 29.5q-49 0 -86 -16t-63 -42.5t-42.5 -61.5t-23.5 -72l-37 -193q-6 -26 -6 -51q0 -11 2.5 -34t19 -50t47 -43.5t77.5 -16.5z"/>
<glyph glyph-name="gdotaccent" horiz-adv-x="495" unicode="ġ" d="M291 602l14 72h71l-14 -72h-71zM383 323q0 25 -6 47t-18.5 38.5t-32.5 26t-47 9.5q-48 0 -80.5 -27.5t-52.5 -69t-28.5 -89.5t-8.5 -88q0 -26 4 -47t15 -36t29 -23.5t47 -8.5q48 0 81.5 27.5t55.5 68t32 87.5t10 85zM484 496q-23 -125 -47 -248t-48 -248q-9 -48 -26 -86 t-44.5 -65t-66.5 -41.5t-93 -14.5q-18 0 -38.5 3.5t-40.5 11t-37.5 18t-30.5 24.5q11 11 20 22.5t20 23.5q23 -20 52 -32t59 -12q37 0 64 11t46.5 30.5t31.5 46.5t20 59q5 18 8 36.5t8 37.5h-2q-32 -42 -71 -60t-86 -18q-39 0 -65 12.5t-42 34t-23 51.5t-7 65q0 36 5 75.5 t17 77.5t30 72.5t44 61t60 42t78 15.5q43 0 76.5 -18.5t52.5 -58.5h1l14 71h61z"/>
<glyph glyph-name="Gcommaaccent" horiz-adv-x="580" unicode="Ģ" d="M197 -247h-39l51 90h-27l17 89h82l-17 -87zM257 55q41 0 76 14t62.5 39t46 58t26.5 72l13 63h-150l12 61h217l-26 -127q-10 -53 -34 -97.5t-61 -76.5t-85 -49.5t-106 -17.5q-62 0 -104.5 21t-67 57t-29 68t-4.5 50q0 30 7 63l39 198q10 50 31.5 95t56 79t81.5 54t109 20 q81 0 133.5 -38t73.5 -101l-67 -29q-11 45 -47.5 74.5t-90.5 29.5q-49 0 -86 -16t-63 -42.5t-42.5 -61.5t-23.5 -72l-37 -193q-6 -26 -6 -51q0 -11 2.5 -34t19 -50t47 -43.5t77.5 -16.5z"/>
<glyph glyph-name="gcommaaccent" horiz-adv-x="495" unicode="ģ" d="M400 753l-51 -89h27l-18 -89h-81l19 96q15 20 31.5 41t33.5 41h39zM383 323q0 25 -5 46.5t-16.5 37.5t-30.5 25t-46 9q-51 0 -84.5 -27t-53.5 -68t-28.5 -88.5t-8.5 -87.5q0 -51 22 -82.5t78 -31.5q48 0 81 27.5t53.5 68t29.5 87t9 84.5zM484 496q-23 -125 -47 -248 t-48 -248q-9 -48 -27 -86.5t-46 -65.5t-67.5 -41t-92.5 -14q-18 0 -38 3.5t-39.5 11t-36.5 18t-30 24.5q20 22 40 46q24 -20 50 -32t57 -12q50 0 81.5 18.5t51 49t30.5 70.5t19 83h-2q-62 -78 -157 -78q-39 0 -65 12.5t-41.5 34t-22.5 51.5t-7 65q0 54 12 114t39.5 111 t72 84.5t109.5 33.5q43 0 76.5 -18t52.5 -58h1l14 71h61z"/>
<glyph glyph-name="Hcircumflex" horiz-adv-x="618" unicode="Ĥ" d="M431 822l-161 -87l-17 30l165 120h45l111 -119l-30 -29zM436 0l62 322h-333l-63 -322h-67l136 696h66l-61 -314h334l61 314h67l-136 -696h-66z"/>
<glyph glyph-name="hcircumflex" horiz-adv-x="512" unicode="ĥ" d="M220 822l-161 -87l-17 30l165 120h45l111 -119l-30 -29zM343 0l60 307q4 20 4 37q0 34 -18 64.5t-80 30.5q-28 0 -54.5 -10t-48 -28t-37.5 -43.5t-22 -57.5l-59 -300h-61l141 727h61l-59 -303h3q32 40 75 58.5t84 18.5q34 0 63 -11t48 -33.5t24.5 -47t5.5 -41.5 q0 -21 -5 -46l-62 -322h-63z"/>
<glyph glyph-name="Hbar" horiz-adv-x="618" unicode="Ħ" d="M510 382l32 166h-334l-32 -166h334zM436 0l62 322h-333l-63 -322h-67l107 548h-61l9 47h61l20 101h66l-20 -101h334l20 101h67l-20 -101h55l-9 -47h-55l-107 -548h-66z"/>
<glyph glyph-name="hbar" horiz-adv-x="512" unicode="ħ" d="M343 0l60 307q4 20 4 37q0 34 -18 64.5t-80 30.5q-28 0 -54.5 -10t-48 -28t-37.5 -43.5t-22 -57.5l-59 -300h-61l113 583h-76l10 48h75l19 96h61l-19 -96h247l-9 -48h-247l-31 -159h3q32 40 75 58.5t84 18.5q34 0 63 -11t48 -33.5t24.5 -47t5.5 -41.5q0 -21 -5 -46 l-62 -322h-63z"/>
<glyph glyph-name="Itilde" horiz-adv-x="222" unicode="Ĩ" d="M159 845q18 0 35.5 -7t34.5 -15t33 -15t31 -7t29.5 9t33.5 32l36 -23q-22 -42 -49.5 -58.5t-56.5 -16.5q-18 0 -35.5 6.5t-35 14.5t-33.5 14.5t-30 6.5q-18 0 -31 -8t-34 -28l-34 23q24 38 51 55t55 17zM37 0l136 696h66l-135 -696h-67z"/>
<glyph glyph-name="itilde" horiz-adv-x="263" unicode="ĩ" d="M165 689q18 0 35.5 -7t34.5 -15t33 -15t31 -7t29.5 9t33.5 32l36 -23q-22 -42 -49.5 -58.5t-56.5 -16.5q-18 0 -35.5 6.5t-35 14.5t-33.5 14.5t-30 6.5q-18 0 -31 -8t-34 -28l-34 23q24 38 51 55t55 17zM81 0l96 495h62l-96 -495h-62z"/>
<glyph glyph-name="Imacron" horiz-adv-x="222" unicode="Ī" d="M86 768l12 57h261l-11 -57h-262zM37 0l136 696h66l-135 -696h-67z"/>
<glyph glyph-name="imacron" horiz-adv-x="208" unicode="ī" d="M58 603l12 59h261l-11 -59h-262zM33 0l96 495h62l-96 -495h-62z"/>
<glyph glyph-name="Ibreve" horiz-adv-x="222" unicode="Ĭ" d="M37 0l136 696h66l-135 -696h-67zM151 857q-1 -5 -1 -10q0 -22 16 -40t49 -18q38 0 62 21t31 47h59q-5 -21 -17 -42t-31.5 -38.5t-47 -28.5t-63.5 -11q-35 0 -58 11.5t-36 29.5t-16.5 35t-3.5 28q0 8 1 16h56z"/>
<glyph glyph-name="ibreve" horiz-adv-x="246" unicode="ĭ" d="M140 709v-5q0 -22 16.5 -44t51.5 -22t60.5 21.5t32.5 49.5h59q-6 -22 -18 -44.5t-31 -40.5t-45 -29t-61 -11q-68 0 -94.5 33.5t-26.5 76.5q0 8 1 15h55zM64 0l96 495h62l-96 -495h-62z"/>
<glyph glyph-name="Iogonek" horiz-adv-x="222" unicode="Į" d="M65 -177q-36 0 -56 20t-20 49q0 22 12.5 48.5t45.5 59.5h-10l136 696h66l-135 -696h-9q-26 -27 -38.5 -51t-12.5 -44q0 -35 43 -35q12 0 27 3.5t32 11.5l9 -39q-20 -11 -43.5 -17t-46.5 -6z"/>
<glyph glyph-name="iogonek" horiz-adv-x="208" unicode="į" d="M154 631l13 65h64l-13 -65h-64zM59 -177q-36 0 -56 20t-20 49q0 22 13 48.5t45 59.5h-8l96 495h62l-96 -495h-6q-26 -27 -38.5 -51t-12.5 -44q0 -35 43 -35q12 0 27 3.5t32 11.5l9 -39q-20 -11 -43.5 -17t-46.5 -6z"/>
<glyph glyph-name="Idotaccent" horiz-adv-x="222" unicode="İ" d="M181 752l14 72h71l-14 -72h-71zM37 0l136 696h66l-135 -696h-67z"/>
<glyph glyph-name="dotlessi" horiz-adv-x="208" unicode="ı" d="M33 0l96 495h62l-96 -495h-62z"/>
<glyph glyph-name="IJ" horiz-adv-x="650" unicode="Ĳ" d="M589 205q-12 -60 -33.5 -100.5t-52.5 -65t-69 -35t-83 -10.5q-46 0 -84 17.5t-60 46.5l49 45q39 -47 92 -47q30 0 58.5 7.5t51.5 27t41 51.5t27 82l92 472h66zM37 0l136 696h66l-135 -696h-67z"/>
<glyph glyph-name="ij" horiz-adv-x="392" unicode="ĳ" d="M154 631l13 65h64l-13 -65h-64zM362 631q0 3 2 12.5t4 20t3.5 20t2.5 12.5h65l-13 -65h-64zM33 0l96 495h62l-96 -495h-62zM288 -72q-11 -60 -50 -95.5t-99 -35.5h-30l10 57q2 0 12.5 -0.5t11.5 0.5q32 1 53.5 21t29.5 58l109 562h63z"/>
<glyph glyph-name="Jcircumflex" horiz-adv-x="449" unicode="Ĵ" d="M469 824l-161 -87l-17 30l165 120h45l111 -119l-30 -29zM381 206q-12 -60 -33.5 -100.5t-52.5 -65t-69 -35t-83 -10.5q-46 0 -84 17.5t-60 46.5l49 45q39 -47 92 -47q30 0 58.5 7.5t51.5 27t41 51.5t27 82l92 472h66z"/>
<glyph glyph-name="jcircumflex" horiz-adv-x="276" unicode="ĵ" d="M244 665q-40 -26 -78.5 -52.5t-77.5 -52.5l-26 30l168 138h45l108 -137l-36 -30zM-39 -146q2 0 7 -0.5t10 -0.5q35 0 58.5 20t31.5 60l109 562h63q-28 -143 -55 -284t-55 -283q-11 -60 -50 -95.5t-99 -35.5h-30z"/>
<glyph glyph-name="Kcommaaccent" horiz-adv-x="600" unicode="Ķ" d="M236 -231h-39l51 90h-27l17 89h82l-17 -87zM469 0q-35 94 -70.5 188t-70.5 188l-191 -190l-36 -186h-66l136 696h65q-20 -103 -39.5 -205t-39.5 -205h2l27 27l156 160q112 111 223 223h80l-266 -268q42 -108 82 -214t81 -214h-73z"/>
<glyph glyph-name="kcommaaccent" horiz-adv-x="483" unicode="ķ" d="M176 -247h-39l51 90h-27l17 89h82l-17 -87zM249 265q-34 -32 -67 -63t-66 -63l-27 -139h-61l141 727h61l-97 -500h2l23 22q21 21 56.5 54t74 69t74 69t56.5 54h75l-198 -190q35 -77 68.5 -153t68.5 -152h-66z"/>
<glyph glyph-name="kgreenlandic" horiz-adv-x="479" unicode="ĸ" d="M249 265l-133 -126l-27 -139h-61l96 495h61l-52 -263q1 0 2 1l20 18l261 244h78l-199 -189q35 -77 69.5 -153t69.5 -153h-69z"/>
<glyph glyph-name="Lacute" horiz-adv-x="525" unicode="Ĺ" d="M35 0l136 696h66l-124 -634h357l-11 -62h-424zM182 767l163 115l38 -50l-178 -98z"/>
<glyph glyph-name="lacute" horiz-adv-x="226" unicode="ĺ" d="M195 746q-5 8 -10.5 16.5t-11.5 16.5q41 29 81 57.5t81 57.5q10 -12 19 -24.5t19 -25.5zM142 0q-45 0 -71.5 20t-26.5 63q0 13 3 30l121 611h61q-29 -152 -58.5 -302.5t-59.5 -302.5q-1 -5 -1.5 -9t-0.5 -9q0 -20 12.5 -32t41.5 -12h15l-11 -57h-25z"/>
<glyph glyph-name="Lcommaaccent" horiz-adv-x="525" unicode="Ļ" d="M202 -247h-39l51 90h-27l17 89h82l-17 -87zM35 0l136 696h66l-124 -634h357l-11 -62h-424z"/>
<glyph glyph-name="lcommaaccent" horiz-adv-x="226" unicode="ļ" d="M49 -247h-39l51 90h-27l17 89h82l-17 -87zM143 0q-53 0 -76 23.5t-23 57.5q0 15 4 33l120 611h62l-118 -605q-2 -10 -2 -19q0 -16 9 -30t44 -14h16l-12 -57h-24z"/>
<glyph glyph-name="Lcaron" horiz-adv-x="525" unicode="Ľ" d="M356 517h-39l51 90h-27l17 89h82l-17 -87zM35 0l136 696h66l-124 -634h357l-11 -62h-424z"/>
<glyph glyph-name="lcaron" horiz-adv-x="285" unicode="ľ" d="M296 547h-39l51 90h-27l17 89h82l-17 -87zM143 0q-53 0 -76 23.5t-23 57.5q0 15 4 33l120 611h62l-118 -605q-2 -10 -2 -19q0 -16 9 -30t44 -14h16l-12 -57h-24z"/>
<glyph glyph-name="Ldot" horiz-adv-x="525" unicode="Ŀ" d="M340 329l14 72h71l-14 -72h-71zM35 0l136 696h66l-124 -634h357l-11 -62h-424z"/>
<glyph glyph-name="ldot" horiz-adv-x="278" unicode="ŀ" d="M143 0q-53 0 -76 23.5t-23 57.5q0 15 4 33l120 611h62l-118 -605q-2 -10 -2 -19q0 -16 9 -30t44 -14h16l-12 -57h-24zM228 347l14 72h71l-14 -72h-71z"/>
<glyph glyph-name="Lslash" horiz-adv-x="547" unicode="Ł" d="M58 0l50 256l-95 -49l-17 46l124 64l74 379h65l-67 -341l145 76l17 -46l-174 -91l-45 -232h357l-12 -62h-422z"/>
<glyph glyph-name="lslash" horiz-adv-x="236" unicode="ł" d="M157 0q-45 0 -71.5 20t-26.5 63q0 13 3 30l37 192l-76 -40q-5 11 -8.5 23t-7.5 23l105 54l71 359h61l-63 -324l101 52l17 -45l-129 -66q-11 -56 -22 -111t-22 -111q-1 -5 -1.5 -9t-0.5 -9q0 -20 12.5 -32t41.5 -12h15l-11 -57h-25z"/>
<glyph glyph-name="Nacute" horiz-adv-x="655" unicode="Ń" d="M382 766q41 29 81 57.5t81 57.5q10 -13 19 -25.5t19 -24.5l-178 -98zM475 0q-45 100 -88.5 198.5t-88.5 198.5l-82 189h-2l-112 -586h-66l136 696h65q9 -21 30 -68.5t47.5 -107t55.5 -125t54.5 -124t44.5 -102t26 -59.5l2 -1q28 148 56.5 293.5t56.5 293.5h64l-135 -696 h-64z"/>
<glyph glyph-name="nacute" horiz-adv-x="506" unicode="ń" d="M265 573l98 166l61 -22l-122 -160zM339 0l60 307q6 27 6 50q0 27 -11 45t-33 28t-60 10q-27 0 -53 -10t-47.5 -28.5t-36.5 -44.5t-21 -57l-58 -300h-61l96 495h61l-13 -69h2q32 40 75.5 57.5t84.5 17.5q34 0 62.5 -11.5t47.5 -33t24.5 -45t5.5 -41.5q0 -19 -4 -39 l-64 -331h-63z"/>
<glyph glyph-name="Ncommaaccent" horiz-adv-x="655" unicode="Ņ" d="M246 -221h-39l51 90h-27l17 89h82l-17 -87zM475 0q-7 16 -21 47.5t-31 70t-36 81t-36 81t-31 69.5t-22 48l-81 189h-2q-5 -26 -14 -72.5t-20 -103t-22.5 -118t-22.5 -118t-19.5 -102.5t-13.5 -72h-67l136 696h66q7 -16 20.5 -46.5t30 -68.5t35 -79t35 -79t30 -68.5 t21.5 -46.5l85 -198h2q5 26 14 72t20 102.5t23 118t23 118t19.5 103t13.5 72.5h65l-135 -696h-65z"/>
<glyph glyph-name="ncommaaccent" horiz-adv-x="506" unicode="ņ" d="M159 -247h-39l51 90h-27l17 89h82l-17 -87zM339 0l60 307q6 27 6 50q0 27 -11 45t-33 28t-60 10q-27 0 -53 -10t-47.5 -28.5t-36.5 -44.5t-21 -57l-58 -300h-61l96 495h61l-13 -69h2q32 40 75.5 57.5t84.5 17.5q34 0 62.5 -11.5t47.5 -33t24.5 -45t5.5 -41.5 q0 -19 -4 -39l-64 -331h-63z"/>
<glyph glyph-name="Ncaron" horiz-adv-x="655" unicode="Ň" d="M436 799l163 87l18 -30l-165 -120h-45l-112 119l29 27zM475 0q-7 16 -21 47.5t-31 70t-36 81t-36 81t-31 69.5t-22 48l-81 189h-2q-5 -26 -14 -72.5t-20 -103t-22.5 -118t-22.5 -118t-19.5 -102.5t-13.5 -72h-67l136 696h66q7 -16 20.5 -46.5t30 -68.5t35 -79t35 -79 t30 -68.5t21.5 -46.5l85 -198h2q5 26 14 72t20 102.5t23 118t23 118t19.5 103t13.5 72.5h65l-135 -696h-65z"/>
<glyph glyph-name="ncaron" horiz-adv-x="506" unicode="ň" d="M462 722l24 -29l-161 -138h-45l-114 139l36 29l108 -104zM339 0l60 307q6 27 6 50q0 27 -11 45t-33 28t-60 10q-27 0 -53 -10t-47.5 -28.5t-36.5 -44.5t-21 -57l-58 -300h-61l96 495h61l-13 -69h2q32 40 75.5 57.5t84.5 17.5q34 0 62.5 -11.5t47.5 -33t24.5 -45 t5.5 -41.5q0 -19 -4 -39l-64 -331h-63z"/>
<glyph glyph-name="napostrophe" horiz-adv-x="590" unicode="ŉ" d="M97 480h-39l51 90h-27l17 89h82l-17 -87zM423 0l60 307q6 27 6 50q0 27 -11 45t-33 28t-60 10q-27 0 -53 -10t-47.5 -28.5t-36.5 -44.5t-21 -57l-58 -300h-61l96 495h61l-13 -69h2q32 40 75.5 57.5t84.5 17.5q34 0 62.5 -11.5t47.5 -33t24.5 -45t5.5 -41.5q0 -19 -4 -39 l-64 -331h-63z"/>
<glyph glyph-name="Eng" horiz-adv-x="664" unicode="Ŋ" d="M479 -3q-48 106 -95.5 212t-95.5 213q-4 8 -14 31.5t-21 50.5t-21 50.5t-14 31.5h-2l-113 -586h-65l135 696h65q14 -33 33 -76t41 -91.5t45.5 -101.5t46.5 -105q29 -66 54 -123t38 -89q1 0 2 -1q29 148 57 293.5t56 293.5h64l-148 -769q-11 -54 -39 -77t-67 -23 q-20 0 -41.5 5t-39.5 15l22 47q15 -6 28 -10t24 -4q43 0 52 48z"/>
<glyph glyph-name="eng" horiz-adv-x="500" unicode="ŋ" d="M387 -73q-11 -54 -39 -77.5t-67 -23.5q-19 0 -41 5.5t-40 15.5l23 46q15 -6 27 -9.5t23 -3.5q20 0 33 12.5t18 35.5l75 379q5 22 5 41q0 6 -1.5 21.5t-12.5 33t-33.5 27.5t-58.5 10q-27 0 -52.5 -10t-46.5 -28.5t-35.5 -44.5t-20.5 -57l-58 -300h-61l96 495h61l-13 -69h2 q32 40 75.5 57.5t84.5 17.5q34 0 62.5 -11.5t47.5 -33t24.5 -45t5.5 -41.5q0 -19 -4 -39z"/>
<glyph glyph-name="Omacron" horiz-adv-x="573" unicode="Ō" d="M267 768l12 57h261l-11 -57h-262zM355 640q-47 0 -81.5 -16.5t-58.5 -44t-39 -62.5t-22 -71l-38 -196q-4 -24 -4 -47q0 -13 2.5 -37t20.5 -52t52 -44.5t86 -16.5q43 0 76 15t57 41.5t40.5 63t25.5 79.5q6 27 12.5 56t12.5 58t10.5 56t6.5 51q2 12 2 23q0 21 -8 46.5 t-29 48.5t-53 36t-71 13zM361 701q62 0 107.5 -21t72.5 -56.5t33.5 -69.5t6.5 -57q0 -25 -5 -52q-9 -48 -19 -98t-20 -99q-12 -57 -33 -104t-53.5 -80.5t-78 -51.5t-107.5 -18q-54 0 -95 15.5t-68.5 42.5t-41.5 63.5t-14 78.5q0 25 4.5 56.5t11 65.5t14.5 68.5t15 65.5 q10 50 30 95.5t52 80t78 55t110 20.5z"/>
<glyph glyph-name="omacron" horiz-adv-x="489" unicode="ō" d="M193 603l11 59h262l-12 -59h-261zM281 443q-36 0 -63 -13t-46 -34.5t-30.5 -49t-16.5 -55.5l-17 -89q-4 -20 -4 -38q0 -11 2.5 -29.5t15.5 -39t36.5 -32.5t56.5 -12q34 0 60.5 11t46 30.5t32.5 46.5t19 58l19 97q3 17 3 33q0 13 -3.5 32.5t-18 39.5t-38 32t-54.5 12z M291 500q45 0 79.5 -16t55.5 -44.5t26.5 -56t5.5 -46.5q0 -22 -5 -47l-15 -84q-37 -212 -223 -212q-50 0 -85.5 16t-56.5 45t-25.5 57t-4.5 46q0 25 5 53l15 79q8 41 25 79t45 67t67 46.5t91 17.5z"/>
<glyph glyph-name="Obreve" horiz-adv-x="573" unicode="Ŏ" d="M330 857q-1 -5 -1 -10q0 -22 16 -40t49 -18q38 0 62 21t31 47h59q-5 -21 -17 -42t-31.5 -38.5t-47 -28.5t-63.5 -11q-35 0 -58 11.5t-36 29.5t-16.5 35t-3.5 28q0 8 1 16h56zM355 640q-47 0 -81.5 -16.5t-58.5 -44t-39 -62.5t-22 -71l-38 -196q-4 -24 -4 -47 q0 -13 2.5 -37t20.5 -52t52 -44.5t86 -16.5q43 0 76 15t57 41.5t40.5 63t25.5 79.5q6 27 12.5 56t12.5 58t10.5 56t6.5 51q2 12 2 23q0 21 -8 46.5t-29 48.5t-53 36t-71 13zM361 701q62 0 107.5 -21t72.5 -56.5t33.5 -69.5t6.5 -57q0 -25 -5 -52q-9 -48 -19 -98t-20 -99 q-12 -57 -33 -104t-53.5 -80.5t-78 -51.5t-107.5 -18q-54 0 -95 15.5t-68.5 42.5t-41.5 63.5t-14 78.5q0 25 4.5 56.5t11 65.5t14.5 68.5t15 65.5q10 50 30 95.5t52 80t78 55t110 20.5z"/>
<glyph glyph-name="obreve" horiz-adv-x="489" unicode="ŏ" d="M255 703v-5q0 -22 16.5 -44t51.5 -22t60.5 21.5t32.5 49.5h59q-6 -22 -18 -44.5t-31 -40.5t-45 -29t-61 -11q-68 0 -94.5 33.5t-26.5 76.5q0 8 1 15h55zM281 443q-36 0 -63 -13t-46 -34.5t-30.5 -49t-16.5 -55.5l-17 -89q-4 -20 -4 -38q0 -11 2.5 -29.5t15.5 -39 t36.5 -32.5t56.5 -12q34 0 60.5 11t46 30.5t32.5 46.5t19 58l19 97q3 17 3 33q0 13 -3.5 32.5t-18 39.5t-38 32t-54.5 12zM291 500q45 0 79.5 -16t55.5 -44.5t26.5 -56t5.5 -46.5q0 -22 -5 -47l-15 -84q-37 -212 -223 -212q-50 0 -85.5 16t-56.5 45t-25.5 57t-4.5 46 q0 25 5 53l15 79q8 41 25 79t45 67t67 46.5t91 17.5z"/>
<glyph glyph-name="Ohungarumlaut" horiz-adv-x="573" unicode="Ő" d="M413 767l163 115l38 -50l-178 -98zM264 767l147 115l46 -50l-164 -98zM355 640q-47 0 -81.5 -16.5t-58.5 -44t-39 -62.5t-22 -71l-38 -196q-4 -24 -4 -47q0 -13 2.5 -37t20.5 -52t52 -44.5t86 -16.5q43 0 76 15t57 41.5t40.5 63t25.5 79.5q6 27 12.5 56t12.5 58t10.5 56 t6.5 51q2 12 2 23q0 21 -8 46.5t-29 48.5t-53 36t-71 13zM361 701q62 0 107.5 -21t72.5 -56.5t33.5 -69.5t6.5 -57q0 -25 -5 -52q-9 -48 -19 -98t-20 -99q-12 -57 -33 -104t-53.5 -80.5t-78 -51.5t-107.5 -18q-54 0 -95 15.5t-68.5 42.5t-41.5 63.5t-14 78.5q0 25 4.5 56.5 t11 65.5t14.5 68.5t15 65.5q10 50 30 95.5t52 80t78 55t110 20.5z"/>
<glyph glyph-name="ohungarumlaut" horiz-adv-x="489" unicode="ő" d="M215 573l98 166l62 -22l-123 -160zM330 573l100 166l61 -22l-122 -160zM281 443q-36 0 -63 -13t-46 -34.5t-30.5 -49t-16.5 -55.5l-17 -89q-4 -20 -4 -38q0 -11 2.5 -29.5t15.5 -39t36.5 -32.5t56.5 -12q34 0 60.5 11t46 30.5t32.5 46.5t19 58l19 97q3 17 3 33 q0 13 -3.5 32.5t-18 39.5t-38 32t-54.5 12zM291 500q45 0 79.5 -16t55.5 -44.5t26.5 -56t5.5 -46.5q0 -22 -5 -47l-15 -84q-37 -212 -223 -212q-50 0 -85.5 16t-56.5 45t-25.5 57t-4.5 46q0 25 5 53l15 79q8 41 25 79t45 67t67 46.5t91 17.5z"/>
<glyph glyph-name="OE" horiz-adv-x="804" unicode="Œ" d="M262 53q17 0 33 1t30 5l112 572q-29 10 -72 10q-48 0 -84.5 -17t-62 -44.5t-41.5 -62.5t-23 -71l-38 -196q-4 -24 -4 -47q0 -13 2.5 -37t20 -52t49 -44.5t78.5 -16.5zM334 0q-18 -4 -38 -5t-42 -1q-52 0 -91 15.5t-65 42.5t-39 63.5t-13 78.5q0 25 4.5 56.5t11 65.5 t14.5 68.5t15 65.5q10 50 31.5 95.5t55.5 80.5t82 55.5t112 20.5q46 0 80 -7l420 1q-2 -16 -5.5 -31.5t-6.5 -30.5h-356l-48 -253h303l-11 -59h-304l-51 -261h356l-12 -61h-403z"/>
<glyph glyph-name="oe" horiz-adv-x="809" unicode="œ" d="M627 443q-41 0 -70 -16t-49 -41.5t-31.5 -57.5t-17.5 -65q17 -2 34 -2h29q70 0 112 10.5t64.5 25.5t30 32.5t7.5 32.5q0 38 -28 59.5t-81 21.5zM276 445q-50 0 -84 -27.5t-54 -69.5t-28.5 -91t-8.5 -90q0 -17 4.5 -37.5t17 -38t34 -29.5t55.5 -12q53 0 88 24.5t55.5 64 t29 88t8.5 96.5q0 63 -34 92.5t-83 29.5zM284 501q58 0 101 -30t58 -78l2 -1q29 48 74 78.5t111 30.5q81 0 124.5 -36t43.5 -96q0 -32 -13 -61.5t-45.5 -52t-88.5 -36t-143 -13.5q-12 0 -28.5 0.5t-30.5 1.5q-2 -13 -2.5 -22t-0.5 -16q0 -65 28.5 -92t83.5 -27q15 0 33 3.5 t36.5 9.5t35.5 14t31 16l30 -45q-36 -26 -82.5 -40.5t-91.5 -14.5q-125 0 -153 99q-13 -19 -31 -36.5t-40.5 -31.5t-50 -22.5t-58.5 -8.5q-86 0 -132 42.5t-46 123.5q0 67 15 128.5t45.5 109t76.5 75.5t108 28z"/>
<glyph glyph-name="Racute" horiz-adv-x="580" unicode="Ŕ" d="M536 518v12q0 24 -7.5 44.5t-24.5 34.5t-41.5 21t-52.5 7h-183l-52 -263h192q32 0 61.5 9.5t53 27.5t38 45t16.5 62zM434 0l-95 314h-175l-61 -314h-67l136 696h263q40 0 72.5 -12t55 -35t32 -52.5t9.5 -60.5q0 -9 -1 -18q-6 -85 -59 -135t-134 -63l101 -320h-77z M319 767l163 115l38 -50l-178 -98z"/>
<glyph glyph-name="racute" horiz-adv-x="349" unicode="ŕ" d="M195 573l98 166l61 -22l-122 -160zM365 424q-14 8 -32 12t-30 4q-29 0 -54.5 -10.5t-46 -30t-35 -46.5t-20.5 -60l-57 -293h-62l96 495h62l-15 -76h3q32 48 74 65t81 17h5q44 -2 64 -15z"/>
<glyph glyph-name="Rcommaaccent" horiz-adv-x="580" unicode="Ŗ" d="M216 -227h-39l51 90h-27l17 89h82l-17 -87zM536 518v12q0 24 -7.5 44.5t-24.5 34.5t-41.5 21t-52.5 7h-183l-52 -263h192q32 0 61.5 9.5t53 27.5t38 45t16.5 62zM434 0l-95 314h-175l-61 -314h-67l136 696h263q40 0 72.5 -12t55 -35t32 -52.5t9.5 -60.5q0 -9 -1 -18 q-6 -85 -59 -135t-134 -63l101 -320h-77z"/>
<glyph glyph-name="rcommaaccent" horiz-adv-x="349" unicode="ŗ" d="M8 -247h-39l51 90h-27l17 89h82l-17 -87zM365 424q-14 8 -32 12t-30 4q-29 0 -54.5 -10.5t-46 -30t-35 -46.5t-20.5 -60l-57 -293h-62l96 495h62l-15 -76h3q32 48 74 65t81 17h5q44 -2 64 -15z"/>
<glyph glyph-name="Rcaron" horiz-adv-x="580" unicode="Ř" d="M367 799l163 87l18 -30l-165 -120h-45l-112 119l29 27zM536 518v12q0 24 -7.5 44.5t-24.5 34.5t-41.5 21t-52.5 7h-183l-52 -263h192q32 0 61.5 9.5t53 27.5t38 45t16.5 62zM434 0l-95 314h-175l-61 -314h-67l136 696h263q40 0 72.5 -12t55 -35t32 -52.5t9.5 -60.5 q0 -9 -1 -18q-6 -85 -59 -135t-134 -63l101 -320h-77z"/>
<glyph glyph-name="rcaron" horiz-adv-x="349" unicode="ř" d="M388 722l24 -29l-161 -138h-45l-114 139l36 29l108 -104zM365 424q-14 8 -32 12t-30 4q-29 0 -54.5 -10.5t-46 -30t-35 -46.5t-20.5 -60l-57 -293h-62l96 495h62l-15 -76h3q32 48 74 65t81 17h5q44 -2 64 -15z"/>
<glyph glyph-name="Sacute" horiz-adv-x="543" unicode="Ś" d="M309 767l163 115l38 -50l-178 -98zM358 702q54 0 105.5 -14.5t92.5 -40.5q-10 -14 -21 -28.5t-22 -27.5q-35 23 -79 35t-90 12q-31 0 -61.5 -9.5t-54.5 -28.5t-39 -47t-15 -64q0 -29 14 -47.5t34.5 -30t43 -17.5t40.5 -9q39 -9 76.5 -19t67 -28.5t48 -48.5t18.5 -77 q0 -53 -22 -94t-60 -68.5t-88.5 -41.5t-106.5 -14q-72 0 -129.5 19.5t-105.5 61.5l47 49q38 -32 88.5 -49t107.5 -17q40 0 74.5 10t60.5 29t41 47.5t15 64.5q0 29 -13 48t-33 31t-44.5 18.5t-47.5 11.5q-36 6 -71 16t-62.5 28t-44.5 46t-17 72q0 49 19 89.5t52.5 70t80 46 t101.5 16.5z"/>
<glyph glyph-name="sacute" horiz-adv-x="457" unicode="ś" d="M243 573l98 166l61 -22l-122 -160zM192 -6q-26 0 -52.5 4.5t-52 13t-48.5 21.5t-41 30l42 48q28 -31 69 -45t84 -14q25 0 49.5 4.5t43.5 14.5t30.5 26t11.5 40q0 40 -26 58t-68 29q-26 6 -53.5 13.5t-50.5 21t-38 36t-15 59.5q0 40 16 68t42 45.5t60.5 25.5t70.5 8 q41 0 83.5 -11.5t74.5 -40.5l-39 -49q-29 22 -58.5 32.5t-64.5 10.5q-21 0 -42.5 -4t-39 -14.5t-28.5 -27.5t-11 -42q0 -18 9.5 -30.5t25.5 -20.5t36 -14t41 -11q26 -6 51 -14.5t44.5 -23t31.5 -37t12 -56.5q0 -39 -15.5 -68t-42.5 -48t-63.5 -28.5t-78.5 -9.5z"/>
<glyph glyph-name="Scircumflex" horiz-adv-x="543" unicode="Ŝ" d="M385 822l-161 -87l-17 30l165 120h45l111 -119l-30 -29zM346 702q53 0 105 -14.5t91 -41.5l-40 -55q-33 23 -75.5 35t-87.5 12q-29 0 -58.5 -8t-53.5 -25t-39.5 -43.5t-15.5 -62.5q0 -28 13.5 -47.5t33 -32t41.5 -20t39 -11.5q36 -9 72 -21.5t65.5 -32.5t48 -51.5 t18.5 -77.5q0 -53 -21.5 -93t-58 -66t-85 -39t-102.5 -13q-67 0 -127 19t-105 61l45 50q37 -32 86 -49t103 -17q37 0 72 8.5t61.5 25.5t42.5 44t16 63q0 29 -12 49.5t-31.5 34.5t-44.5 23t-50 15q-32 7 -65.5 18t-60.5 30t-44 47.5t-17 71.5q0 49 17.5 88.5t49.5 67.5t76 43 t98 15z"/>
<glyph glyph-name="scircumflex" horiz-adv-x="457" unicode="ŝ" d="M307 665l-157 -105l-25 30l168 139h46l108 -137l-37 -31zM192 -6q-26 0 -52.5 4.5t-52 13t-48.5 21.5t-41 30l42 48q28 -31 69 -45t84 -14q25 0 49.5 4.5t43.5 14.5t30.5 26t11.5 40q0 40 -26 58t-68 29q-26 6 -53.5 13.5t-50.5 21t-38 36t-15 59.5q0 40 16 68t42 45.5 t60.5 25.5t70.5 8q41 0 83.5 -11.5t74.5 -40.5l-39 -49q-29 22 -58.5 32.5t-64.5 10.5q-21 0 -42.5 -4t-39 -14.5t-28.5 -27.5t-11 -42q0 -18 9.5 -30.5t25.5 -20.5t36 -14t41 -11q26 -6 51 -14.5t44.5 -23t31.5 -37t12 -56.5q0 -39 -15.5 -68t-42.5 -48t-63.5 -28.5 t-78.5 -9.5z"/>
<glyph glyph-name="Scedilla" horiz-adv-x="543" unicode="Ş" d="M269 -117q0 24 -21.5 33.5t-43.5 9.5h-4l-13 12l27 57q-61 2 -115 21.5t-95 57.5l45 50q37 -32 86 -49t103 -17q37 0 72 8.5t61.5 25.5t42.5 44t16 63q0 29 -12 49.5t-31.5 34.5t-44.5 23t-50 15q-32 7 -65.5 18t-60.5 30t-44 47.5t-17 71.5q0 49 17.5 88.5t49.5 67.5 t76 43t98 15q53 0 105 -14.5t91 -41.5l-40 -55q-33 23 -75.5 35t-87.5 12q-29 0 -58.5 -8t-53.5 -25t-39.5 -43.5t-15.5 -62.5q0 -28 13.5 -47.5t33 -32t41.5 -20t39 -11.5q36 -9 72 -21.5t65.5 -32.5t48 -51.5t18.5 -77.5q0 -51 -20 -89.5t-54 -65t-80 -40t-97 -15.5 l-17 -36q24 -2 40.5 -9t26.5 -17t14.5 -22t4.5 -23q0 -15 -7 -31t-21.5 -28.5t-36 -21t-51.5 -8.5q-13 0 -38 2t-48 12l16 37q19 -8 38.5 -10.5t33.5 -2.5q9 0 19.5 2.5t20 7.5t16 14t6.5 22z"/>
<glyph glyph-name="scedilla" horiz-adv-x="457" unicode="ş" d="M224 -117q0 24 -21.5 33.5t-43.5 9.5h-4l-13 12l27 57q-47 3 -93 20t-78 48l42 48q28 -31 69 -45t84 -14q25 0 49.5 4.5t43.5 14.5t30.5 26t11.5 40q0 40 -26 58t-68 29q-26 6 -53.5 13.5t-50.5 21t-38 36t-15 59.5q0 40 16 68t42 45.5t60.5 25.5t70.5 8q41 0 83.5 -11.5 t74.5 -40.5l-39 -49q-29 22 -58.5 32.5t-64.5 10.5q-21 0 -42.5 -4t-39 -14.5t-28.5 -27.5t-11 -42q0 -18 9.5 -30.5t25.5 -20.5t36 -14t41 -11q26 -6 51 -14.5t44.5 -23t31.5 -37t12 -56.5q0 -37 -14 -65t-39 -47t-59 -29.5t-73 -11.5l-17 -36q24 -2 40.5 -9t26.5 -17 t14.5 -22t4.5 -23q0 -15 -7 -31t-21.5 -28.5t-36 -21t-51.5 -8.5q-13 0 -38 2t-48 12l16 37q19 -8 38.5 -10.5t33.5 -2.5q9 0 19.5 2.5t20 7.5t16 14t6.5 22z"/>
<glyph glyph-name="Scaron" horiz-adv-x="543" unicode="Š" d="M370 799l163 87l18 -30l-165 -120h-45l-112 119l29 27zM346 702q53 0 105 -14.5t91 -41.5l-40 -55q-33 23 -75.5 35t-87.5 12q-29 0 -58.5 -8t-53.5 -25t-39.5 -43.5t-15.5 -62.5q0 -28 13.5 -47.5t33 -32t41.5 -20t39 -11.5q36 -9 72 -21.5t65.5 -32.5t48 -51.5 t18.5 -77.5q0 -53 -21.5 -93t-58 -66t-85 -39t-102.5 -13q-67 0 -127 19t-105 61l45 50q37 -32 86 -49t103 -17q37 0 72 8.5t61.5 25.5t42.5 44t16 63q0 29 -12 49.5t-31.5 34.5t-44.5 23t-50 15q-32 7 -65.5 18t-60.5 30t-44 47.5t-17 71.5q0 49 17.5 88.5t49.5 67.5t76 43 t98 15z"/>
<glyph glyph-name="scaron" horiz-adv-x="457" unicode="š" d="M449 722l24 -29l-161 -138h-45l-114 139l36 29l108 -104zM192 -6q-26 0 -52.5 4.5t-52 13t-48.5 21.5t-41 30l42 48q28 -31 69 -45t84 -14q25 0 49.5 4.5t43.5 14.5t30.5 26t11.5 40q0 40 -26 58t-68 29q-26 6 -53.5 13.5t-50.5 21t-38 36t-15 59.5q0 40 16 68t42 45.5 t60.5 25.5t70.5 8q41 0 83.5 -11.5t74.5 -40.5l-39 -49q-29 22 -58.5 32.5t-64.5 10.5q-21 0 -42.5 -4t-39 -14.5t-28.5 -27.5t-11 -42q0 -18 9.5 -30.5t25.5 -20.5t36 -14t41 -11q26 -6 51 -14.5t44.5 -23t31.5 -37t12 -56.5q0 -39 -15.5 -68t-42.5 -48t-63.5 -28.5 t-78.5 -9.5z"/>
<glyph glyph-name="Tcommaaccent" horiz-adv-x="473" unicode="Ţ" d="M141 -247h-39l51 90h-27l17 89h82l-17 -87zM354 637l-124 -637h-66l123 637h-199l11 59h465l-11 -59h-199z"/>
<glyph glyph-name="tcommaaccent" horiz-adv-x="266" unicode="ţ" d="M53 -247h-39l51 90h-27l17 89h82l-17 -87zM152 0q-41 0 -65 20t-25 59q0 14 3 31q17 83 32.5 165.5t32.5 164.5h-64l11 55h63q7 32 13 64l12 64h62q-7 -32 -13 -64l-12 -64h83l-10 -55h-84l-61 -312q-3 -15 -3 -29q0 -19 10.5 -31.5t39.5 -12.5h36l-11 -55h-50z"/>
<glyph glyph-name="Tcaron" horiz-adv-x="473" unicode="Ť" d="M344 799l163 87l18 -30l-165 -120h-45l-112 119l29 27zM354 637l-124 -637h-66l123 637h-199l11 59h465l-11 -59h-199z"/>
<glyph glyph-name="tcaron" horiz-adv-x="313" unicode="ť" d="M317 562h-39l51 90h-27l17 89h82l-17 -87zM152 0q-41 0 -65 20t-25 59q0 14 3 31q17 83 32.5 165.5t32.5 164.5h-64l11 55h63q7 32 13 64l12 64h62q-7 -32 -13 -64l-12 -64h83l-10 -55h-84l-61 -312q-3 -15 -3 -29q0 -19 10.5 -31.5t39.5 -12.5h36l-11 -55h-50z"/>
<glyph glyph-name="Tbar" horiz-adv-x="473" unicode="Ŧ" d="M354 637l-47 -240h150l-11 -54h-149l-67 -343h-66l66 343h-151l10 54h151l47 240h-199l11 59h465l-11 -59h-199z"/>
<glyph glyph-name="tbar" horiz-adv-x="266" unicode="ŧ" d="M35 304h68l27 136h-64l11 55h63q7 32 13 64l12 64h62q-7 -32 -13 -64l-12 -64h83l-10 -55h-84l-27 -136h81l-9 -51h-82l-24 -125q-3 -15 -3 -29q0 -19 10.5 -31.5t39.5 -12.5h36l-11 -55h-50q-41 0 -65 20t-25 59q0 14 3 31l28 143h-68z"/>
<glyph glyph-name="Utilde" horiz-adv-x="600" unicode="Ũ" d="M343 845q18 0 35.5 -7t34.5 -15t33 -15t31 -7t29.5 9t33.5 32l36 -23q-22 -42 -49.5 -58.5t-56.5 -16.5q-18 0 -35.5 6.5t-35 14.5t-33.5 14.5t-30 6.5q-18 0 -31 -8t-34 -28l-34 23q24 38 51 55t55 17zM542 229q-11 -53 -34.5 -96.5t-58.5 -74t-81.5 -47.5t-101.5 -17 q-50 0 -91 17.5t-68 49.5t-35 65.5t-8 59.5q0 25 5 53l89 457h66l-87 -445q-5 -27 -5 -51q0 -14 3 -38t20.5 -50.5t46.5 -41t70 -14.5q78 0 133 49.5t72 135.5l89 455h67z"/>
<glyph glyph-name="utilde" horiz-adv-x="515" unicode="ũ" d="M274 689q18 0 35.5 -7t34.5 -15t33 -15t31 -7t29.5 9t33.5 32l36 -23q-22 -42 -49.5 -58.5t-56.5 -16.5q-18 0 -35.5 6.5t-35 14.5t-33.5 14.5t-30 6.5q-18 0 -31 -8t-34 -28l-34 23q24 38 51 55t55 17zM343 0l14 68h-3q-32 -40 -74 -57t-82 -17q-76 0 -108.5 40.5 t-32.5 94.5q0 24 5 51l61 315h61l-59 -306q-4 -22 -4 -41q0 -36 19 -65t87 -29q27 0 52 10t46 29t36 45t21 58l58 299h62l-96 -495h-63z"/>
<glyph glyph-name="Umacron" horiz-adv-x="600" unicode="Ū" d="M266 768l12 57h261l-11 -57h-262zM542 229q-11 -53 -34.5 -96.5t-58.5 -74t-81.5 -47.5t-101.5 -17q-50 0 -91 17.5t-68 49.5t-35 65.5t-8 59.5q0 25 5 53l89 457h66l-87 -445q-5 -27 -5 -51q0 -14 3 -38t20.5 -50.5t46.5 -41t70 -14.5q78 0 133 49.5t72 135.5l89 455h67 z"/>
<glyph glyph-name="umacron" horiz-adv-x="515" unicode="ū" d="M188 603l11 59h262l-12 -59h-261zM343 0l14 68h-3q-32 -40 -74 -57t-82 -17q-76 0 -108.5 40.5t-32.5 94.5q0 24 5 51l61 315h61l-59 -306q-4 -22 -4 -41q0 -36 19 -65t87 -29q27 0 52 10t46 29t36 45t21 58l58 299h62l-96 -495h-63z"/>
<glyph glyph-name="Ubreve" horiz-adv-x="600" unicode="Ŭ" d="M337 848v-5q0 -22 16.5 -44t51.5 -22t60.5 21t32.5 50h60q-6 -22 -18.5 -44t-31.5 -40t-45.5 -29t-61.5 -11q-68 0 -93.5 33t-25.5 75q0 8 1 16h54zM542 229q-11 -53 -34.5 -96.5t-58.5 -74t-81.5 -47.5t-101.5 -17q-50 0 -91 17.5t-68 49.5t-35 65.5t-8 59.5q0 25 5 53 l89 457h66l-87 -445q-5 -27 -5 -51q0 -14 3 -38t20.5 -50.5t46.5 -41t70 -14.5q78 0 133 49.5t72 135.5l89 455h67z"/>
<glyph glyph-name="ubreve" horiz-adv-x="515" unicode="ŭ" d="M264 703v-5q0 -22 16.5 -44t51.5 -22t60.5 21.5t32.5 49.5h59q-6 -22 -18 -44.5t-31 -40.5t-45 -29t-61 -11q-68 0 -94.5 33.5t-26.5 76.5q0 8 1 15h55zM343 0l14 68h-3q-32 -40 -74 -57t-82 -17q-76 0 -108.5 40.5t-32.5 94.5q0 24 5 51l61 315h61l-59 -306 q-4 -22 -4 -41q0 -36 19 -65t87 -29q27 0 52 10t46 29t36 45t21 58l58 299h62l-96 -495h-63z"/>
<glyph glyph-name="Uring" horiz-adv-x="600" unicode="Ů" d="M413 864q-28 0 -49 -21t-21 -49q0 -20 13 -33.5t35 -13.5q13 0 26 5.5t23 15.5t16 22.5t6 26.5q0 20 -13.5 33.5t-35.5 13.5zM385 711q-35 0 -57 22t-22 54q0 23 9 43.5t24 36t36 24.5t45 9q35 0 57.5 -22.5t22.5 -55.5q0 -25 -10 -45.5t-26 -35t-37 -22.5t-42 -8z M542 229q-11 -53 -34.5 -96.5t-58.5 -74t-81.5 -47.5t-101.5 -17q-50 0 -91 17.5t-68 49.5t-35 65.5t-8 59.5q0 25 5 53l89 457h66l-87 -445q-5 -27 -5 -51q0 -14 3 -38t20.5 -50.5t46.5 -41t70 -14.5q78 0 133 49.5t72 135.5l89 455h67z"/>
<glyph glyph-name="uring" horiz-adv-x="515" unicode="ů" d="M347 702q-28 0 -49 -21t-21 -49q0 -20 13 -33.5t35 -13.5q13 0 26 5.5t23 15.5t16 22.5t6 26.5q0 20 -13.5 33.5t-35.5 13.5zM319 549q-35 0 -57 22t-22 54q0 23 9 43.5t24 36t36 24.5t45 9q35 0 57.5 -22.5t22.5 -55.5q0 -25 -10 -45.5t-26 -35t-37 -22.5t-42 -8zM343 0 l14 68h-3q-32 -40 -74 -57t-82 -17q-76 0 -108.5 40.5t-32.5 94.5q0 24 5 51l61 315h61l-59 -306q-4 -22 -4 -41q0 -36 19 -65t87 -29q27 0 52 10t46 29t36 45t21 58l58 299h62l-96 -495h-63z"/>
<glyph glyph-name="Uhungarumlaut" horiz-adv-x="600" unicode="Ű" d="M430 767l163 115l38 -50l-178 -98zM281 767l147 115l46 -50l-164 -98zM542 229q-11 -53 -34.5 -96.5t-58.5 -74t-81.5 -47.5t-101.5 -17q-50 0 -91 17.5t-68 49.5t-35 65.5t-8 59.5q0 25 5 53l89 457h66l-87 -445q-5 -27 -5 -51q0 -14 3 -38t20.5 -50.5t46.5 -41 t70 -14.5q78 0 133 49.5t72 135.5l89 455h67z"/>
<glyph glyph-name="uhungarumlaut" horiz-adv-x="515" unicode="ű" d="M243 573l98 166l62 -22l-123 -160zM358 573l100 166l61 -22l-122 -160zM343 0l14 68h-3q-32 -40 -74 -57t-82 -17q-76 0 -108.5 40.5t-32.5 94.5q0 24 5 51l61 315h61l-59 -306q-4 -22 -4 -41q0 -36 19 -65t87 -29q27 0 52 10t46 29t36 45t21 58l58 299h62l-96 -495h-63z "/>
<glyph glyph-name="Uogonek" horiz-adv-x="600" unicode="Ų" d="M264 -175q-36 0 -56 20t-20 49q0 20 11 45t40 57q-44 4 -80 23t-59.5 50.5t-29.5 63t-6 52.5q0 25 5 54l89 457h66l-87 -445q-5 -27 -5 -51q0 -14 3 -38t20.5 -50.5t46.5 -41t70 -14.5q78 0 133 49.5t72 135.5l89 455h67l-91 -467q-10 -51 -32 -92.5t-54.5 -72t-75 -48.5 t-93.5 -21q-23 -25 -33.5 -47.5t-10.5 -40.5q0 -35 43 -35q12 0 27 3.5t32 11.5l9 -39q-20 -11 -43.5 -17t-46.5 -6z"/>
<glyph glyph-name="uogonek" horiz-adv-x="515" unicode="ų" d="M360 -177q-36 0 -56 20t-20 49q0 22 12.5 48.5t46.5 60.5l14 67h-3q-32 -40 -74 -57t-82 -17q-76 0 -108.5 40.5t-32.5 94.5q0 24 5 51l61 315h61l-59 -306q-4 -22 -4 -41q0 -36 19 -65t87 -29q27 0 52 10t46 29t36 45t21 58l58 299h62l-96 -495h-16q-26 -27 -38.5 -51 t-12.5 -44q0 -35 43 -35q12 0 27 3.5t32 11.5l9 -39q-20 -11 -43.5 -17t-46.5 -6z"/>
<glyph glyph-name="Wcircumflex" horiz-adv-x="800" unicode="Ŵ" d="M529 822l-161 -87l-17 30l165 120h45l111 -119l-30 -29zM573 0h-60l-27 361l-15 212h-2l-87 -190q-45 -97 -88.5 -192t-88.5 -191h-60q-8 175 -16.5 348t-17.5 348h66q4 -128 7.5 -216.5t6 -152t4 -109t3.5 -88.5h3l103 227q40 85 79.5 169.5t78.5 169.5h61l26 -332 q3 -36 5.5 -71t5 -66t4 -56.5t3.5 -41.5h3l77 186q41 96 80.5 190t79.5 191h70z"/>
<glyph glyph-name="wcircumflex" horiz-adv-x="697" unicode="ŵ" d="M427 665l-157 -105l-25 30l168 139h46l108 -137l-37 -31zM368 416q-25 -59 -49 -111.5t-49 -103t-52 -100t-57 -101.5h-61l-56 496h64l26 -291q2 -29 4 -64t4 -68h3q53 94 100.5 199.5t100.5 223.5h71l31 -278q4 -32 7 -69t3 -78h2q55 100 106 210t94 215h66 q-29 -71 -58 -133.5t-59.5 -122t-63.5 -118.5t-70 -122h-60l-33 275q-2 24 -5.5 61.5t-4.5 79.5h-4z"/>
<glyph glyph-name="Ycircumflex" horiz-adv-x="482" unicode="Ŷ" d="M366 822l-161 -87l-17 30l165 120h45l111 -119l-30 -29zM231 0h-63l56 287q-31 103 -62 204.5t-63 204.5h65q14 -50 30 -102t36 -120q9 -33 19 -69t15 -57l96 143q4 6 15 22t25 36.5t30 44t30 44t24.5 36.5t14.5 22h71q-71 -103 -141 -204.5t-142 -204.5z"/>
<glyph glyph-name="ycircumflex" horiz-adv-x="409" unicode="ŷ" d="M280 665l-157 -105l-25 30l168 139h46l108 -137l-37 -31zM453 495q-57 -155 -115 -281.5t-118 -223.5q-22 -35 -49 -67.5t-60 -58t-73.5 -42t-89.5 -19.5l-2 55q52 6 100.5 33t90.5 86l-82 518h66l34 -238q7 -50 14.5 -108t9.5 -115h3q66 112 116.5 231t89.5 230h65z"/>
<glyph glyph-name="Ydieresis" horiz-adv-x="482" unicode="Ÿ" d="M403 751l14 71h72l-14 -71h-72zM224 751l14 71h72l-14 -71h-72zM231 0h-63l56 287q-31 103 -62 204.5t-63 204.5h65q14 -50 30 -102t36 -120q9 -33 19 -69t15 -57l96 143q4 6 15 22t25 36.5t30 44t30 44t24.5 36.5t14.5 22h71q-71 -103 -141 -204.5t-142 -204.5z"/>
<glyph glyph-name="Zacute" horiz-adv-x="487" unicode="Ź" d="M-8 0l12 60l459 577h-333l11 59h409l-11 -55l-460 -579h348l-12 -62h-423zM301 767l163 115l38 -50l-178 -98z"/>
<glyph glyph-name="zacute" horiz-adv-x="419" unicode="ź" d="M239 573l98 166l61 -22l-122 -160zM-14 0l11 52l353 388h-263l10 55h337l-10 -54l-349 -383h274l-11 -58h-352z"/>
<glyph glyph-name="Zdotaccent" horiz-adv-x="487" unicode="Ż" d="M315 752l14 72h71l-14 -72h-71zM-8 0l12 60l459 577h-333l11 59h409l-11 -55l-460 -579h348l-12 -62h-423z"/>
<glyph glyph-name="zdotaccent" horiz-adv-x="419" unicode="ż" d="M240 602l14 72h71l-14 -72h-71zM-14 0l11 52l353 388h-263l10 55h337l-10 -54l-349 -383h274l-11 -58h-352z"/>
<glyph glyph-name="Zcaron" horiz-adv-x="487" unicode="Ž" d="M374 799l163 87l18 -30l-165 -120h-45l-112 119l29 27zM-8 0l12 60l459 577h-333l11 59h409l-11 -55l-460 -579h348l-12 -62h-423z"/>
<glyph glyph-name="zcaron" horiz-adv-x="419" unicode="ž" d="M426 722l24 -29l-161 -138h-45l-114 139l36 29l108 -104zM-14 0l11 52l353 388h-263l10 55h337l-10 -54l-349 -383h274l-11 -58h-352z"/>
<glyph glyph-name="florin" horiz-adv-x="484" unicode="ƒ" d="M156 417h98l20 90q8 36 22.5 70.5t37 62t55 44t77.5 16.5q20 0 40 -3.5t36 -8.5q-5 -13 -10.5 -28.5t-9.5 -29.5q-15 5 -32.5 8t-31.5 3q-45 0 -73.5 -35.5t-42.5 -96.5l-21 -92h109l-6 -57h-116l-57 -249q-11 -46 -25.5 -83t-36 -63.5t-51 -41t-69.5 -14.5q-19 0 -42 4 t-42 11q5 14 11 27l12 26q30 -12 59 -12q45 0 72 36t43 108l58 251h-89z"/>
<glyph glyph-name="Ohorn" horiz-adv-x="593" unicode="Ơ" d="M355 640q-47 0 -81.5 -16.5t-58.5 -44t-39 -62.5t-22 -71l-38 -196q-4 -24 -4 -47q0 -13 2.5 -37t20.5 -52t52 -44.5t86 -16.5q43 0 76 15t57 41.5t40.5 63t25.5 79.5q6 27 12.5 56t12.5 58t10.5 56t6.5 51q2 12 2 23q0 21 -8 46.5t-29 48.5t-53 36t-71 13zM361 701 q51 0 89.5 -14t66.5 -38q20 0 34.5 5t25 17t18 31t12.5 47l5 23h58l-5 -31q-11 -58 -34.5 -95.5t-72.5 -48.5q24 -45 24 -98q0 -26 -6 -54q-9 -48 -19 -98t-20 -99q-12 -57 -33 -104t-53.5 -80.5t-78 -51.5t-107.5 -18q-54 0 -95 15.5t-68.5 42.5t-41.5 63.5t-14 78.5 q0 25 4.5 56.5t11 65.5t14.5 68.5t15 65.5q10 50 30 95.5t52 80t78 55t110 20.5z"/>
<glyph glyph-name="ohorn" horiz-adv-x="509" unicode="ơ" d="M278 445q-50 0 -84 -28t-54 -69.5t-28.5 -90t-8.5 -89.5q0 -17 4.5 -37.5t17 -38.5t35 -30t57.5 -12q49 0 83 24.5t55 63.5t30.5 87.5t9.5 97.5q0 63 -34 92.5t-83 29.5zM287 501q41 0 73.5 -13.5t55.5 -37.5q38 2 56 24t29 76l4 23h59l-6 -31q-12 -59 -35.5 -96.5 t-74.5 -48.5q11 -31 11 -68q0 -59 -12 -119t-40 -108t-74 -78t-113 -30q-86 0 -132.5 43t-46.5 124q0 67 14.5 128.5t44.5 108.5t76.5 75t110.5 28z"/>
<glyph glyph-name="Uhorn" horiz-adv-x="644" unicode="Ư" d="M542 229q-11 -53 -34.5 -96.5t-58.5 -74t-81.5 -47.5t-101.5 -17q-50 0 -91 17.5t-68 49.5t-35 65.5t-8 59.5q0 25 5 53l89 457h66l-87 -445q-5 -27 -5 -51q0 -14 3 -38t20.5 -50.5t46.5 -41t70 -14.5q78 0 133 49.5t72 135.5l89 455h67l-9 -47q35 2 53.5 24.5t28.5 75.5 l5 23h58l-6 -31q-7 -34 -17 -61.5t-27.5 -46.5t-42.5 -29.5t-62 -10.5h-1z"/>
<glyph glyph-name="uhorn" horiz-adv-x="558" unicode="ư" d="M343 0l14 68h-3q-32 -40 -74 -57t-82 -17q-76 0 -108.5 40.5t-32.5 94.5q0 24 5 51l61 315h61l-59 -306q-4 -22 -4 -41q0 -36 19 -65t87 -29q27 0 52 10t46 29t36 45t21 58l58 299h62l-9 -45q37 2 55 24.5t29 75.5l4 23h58l-6 -31q-6 -34 -16.5 -61.5t-27.5 -46.5 t-42 -29.5t-62 -10.5h-3l-76 -394h-63z"/>
<glyph glyph-name="AEacute" horiz-adv-x="949" unicode="Ǽ" d="M245 253h238l54 378zM448 0l27 195h-276l-150 -195h-72l539 696h460l-8 -62h-363l-36 -252h310l-8 -60h-310l-37 -260h364l-9 -62h-431zM647 767l163 115l38 -50l-178 -98z"/>
<glyph glyph-name="aeacute" horiz-adv-x="804" unicode="ǽ" d="M462 573l98 166l61 -22l-122 -160zM614 443q-41 0 -70 -16t-49 -41.5t-31.5 -57.5t-17.5 -65q43 -3 80 -3q58 1 96 10t60.5 23.5t31.5 32.5t9 36q0 38 -28 59.5t-81 21.5zM87 133q0 -38 23.5 -60.5t82.5 -22.5q28 0 56 8t50.5 22.5t38.5 35t21 45.5l11 56q-22 3 -40 5.5 t-35 4.5t-34.5 3t-38.5 1q-56 0 -93 -26t-42 -72zM711 49q-36 -26 -82.5 -40.5t-91.5 -14.5q-65 0 -102.5 25.5t-51.5 74.5q-32 -48 -84 -74t-128 -26q-31 0 -57 9.5t-45.5 26t-30.5 39.5t-11 51q0 38 14 68t38.5 51t59 32t75.5 11q26 0 46 -1t39 -3t38 -4.5t44 -5.5 q6 30 11 53.5t5 44.5q0 38 -24 57t-82 19q-47 0 -81 -11.5t-60 -32.5l-35 43q39 32 87 46t93 14q28 0 54 -3.5t47 -12.5t36.5 -23.5t23.5 -36.5q29 34 68.5 55t92.5 21q81 0 124.5 -35.5t43.5 -95.5q0 -32 -13 -61t-43.5 -51.5t-80 -36.5t-122.5 -15q-21 0 -43 0.5t-47 1.5 q-2 -13 -2.5 -22t-0.5 -16q0 -69 28.5 -94t83.5 -25q29 0 66 10.5t71 33.5z"/>
<glyph glyph-name="Oslashacute" horiz-adv-x="573" unicode="Ǿ" d="M345 766q41 29 81.5 57.5t81.5 57.5q10 -13 19 -25.5t19 -24.5l-178 -98zM365 640q-47 0 -83 -16.5t-62 -44t-42.5 -62.5t-23.5 -71l-38 -196q-5 -25 -5 -48.5t6 -45.5l369 432q-20 24 -50 38t-71 14zM514 473q2 13 2 25q0 29 -10 55l-373 -437q17 -29 49 -46t81 -17 q40 0 74.5 15t61 41.5t45.5 63t28 79.5q6 27 12.5 56t12.5 58t10.5 56t6.5 51zM372 701q54 0 93.5 -16t65.5 -44l49 58l30 -23l-56 -66q20 -34 24 -63.5t4 -45.5q0 -27 -6 -56q-9 -48 -19 -98t-20 -99q-12 -57 -36 -104t-59 -80.5t-82 -51.5t-105 -18q-57 0 -99 19t-68 51 l-56 -66l-30 23l65 76q-21 43 -21 97q0 25 4.5 56.5t11 65.5t14.5 68.5t15 65.5q10 50 31.5 95.5t55.5 80t82 55t112 20.5z"/>
<glyph glyph-name="oslashacute" horiz-adv-x="502" unicode="ǿ" d="M266 573l98 166l61 -22l-122 -160zM395 323q0 27 -7 47l-258 -285q13 -15 34 -25t53 -10q49 0 83 24.5t55 63.5t30.5 87.5t9.5 97.5zM278 445q-50 0 -84 -28t-54 -69.5t-28.5 -90t-8.5 -89.5q0 -12 1.5 -25t6.5 -26l260 286q-16 21 -40 31.5t-53 10.5zM287 501 q40 0 72.5 -13t55.5 -37l59 65l26 -22l-64 -71q23 -40 23 -94q0 -59 -12 -119t-40 -108t-74 -78t-113 -30q-87 0 -133 44l-51 -56l-26 23l55 60q-24 39 -24 96q0 67 14.5 128.5t44.5 108.5t76.5 75t110.5 28z"/>
<glyph glyph-name="Scommaaccent" horiz-adv-x="543" unicode="Ș" d="M208 -247h-39l51 90h-27l17 89h82l-17 -87zM346 702q53 0 105 -14.5t91 -41.5l-40 -55q-33 23 -75.5 35t-87.5 12q-29 0 -58.5 -8t-53.5 -25t-39.5 -43.5t-15.5 -62.5q0 -28 13.5 -47.5t33 -32t41.5 -20t39 -11.5q36 -9 72 -21.5t65.5 -32.5t48 -51.5t18.5 -77.5 q0 -53 -21.5 -93t-58 -66t-85 -39t-102.5 -13q-67 0 -127 19t-105 61l45 50q37 -32 86 -49t103 -17q37 0 72 8.5t61.5 25.5t42.5 44t16 63q0 29 -12 49.5t-31.5 34.5t-44.5 23t-50 15q-32 7 -65.5 18t-60.5 30t-44 47.5t-17 71.5q0 49 17.5 88.5t49.5 67.5t76 43t98 15z"/>
<glyph glyph-name="scommaaccent" horiz-adv-x="457" unicode="ș" d="M161 -247h-39l51 90h-27l17 89h82l-17 -87zM192 -6q-26 0 -52.5 4.5t-52 13t-48.5 21.5t-41 30l42 48q28 -31 69 -45t84 -14q25 0 49.5 4.5t43.5 14.5t30.5 26t11.5 40q0 40 -26 58t-68 29q-26 6 -53.5 13.5t-50.5 21t-38 36t-15 59.5q0 40 16 68t42 45.5t60.5 25.5 t70.5 8q41 0 83.5 -11.5t74.5 -40.5l-39 -49q-29 22 -58.5 32.5t-64.5 10.5q-21 0 -42.5 -4t-39 -14.5t-28.5 -27.5t-11 -42q0 -18 9.5 -30.5t25.5 -20.5t36 -14t41 -11q26 -6 51 -14.5t44.5 -23t31.5 -37t12 -56.5q0 -39 -15.5 -68t-42.5 -48t-63.5 -28.5t-78.5 -9.5z"/>
<glyph glyph-name="schwa" horiz-adv-x="466" unicode="ə" d="M214 52q41 0 70 16t49 41.5t31.5 57.5t17.5 65q-17 2 -34 2h-29q-70 0 -112 -10.5t-64.5 -25.5t-29.5 -32.5t-7 -31.5q0 -38 28 -60t80 -22zM211 -5q-81 0 -125 36t-44 96q0 32 13 61.5t46 52t89 36t143 13.5q11 0 28 -0.5t31 -1.5q3 25 3 37q0 65 -29 92.5t-83 27.5 q-15 0 -33 -3.5t-36 -9.5t-35.5 -14t-30.5 -17l-31 45q36 26 82.5 41t91.5 15q85 0 124.5 -45t39.5 -132q0 -57 -13.5 -115.5t-43 -106.5t-76 -78t-111.5 -30z"/>
<glyph glyph-name="primemod" horiz-adv-x="232" unicode="ʹ" d="M303 670l-177 -257l-42 13l143 264z"/>
<glyph glyph-name="circumflex" horiz-adv-x="487" unicode="ˆ" d="M351 665l-157 -105l-25 30l168 139h46l108 -137l-37 -31z"/>
<glyph glyph-name="caron" horiz-adv-x="487" unicode="ˇ" d="M477 722l24 -29l-161 -138h-45l-114 139l36 29l108 -104z"/>
<glyph glyph-name="breve" horiz-adv-x="505" unicode="˘" d="M264 703v-5q0 -22 16.5 -44t51.5 -22t60.5 21.5t32.5 49.5h59q-6 -22 -18 -44.5t-31 -40.5t-45 -29t-61 -11q-68 0 -94.5 33.5t-26.5 76.5q0 8 1 15h55z"/>
<glyph glyph-name="dotaccent" horiz-adv-x="469" unicode="˙" d="M268 602l14 72h71l-14 -72h-71z"/>
<glyph glyph-name="ring" horiz-adv-x="485" unicode="˚" d="M360 702q-28 0 -49 -21t-21 -49q0 -20 13 -33.5t35 -13.5q13 0 26 5.5t23 15.5t16 22.5t6 26.5q0 20 -13.5 33.5t-35.5 13.5zM332 549q-35 0 -57 22t-22 54q0 23 9 43.5t24 36t36 24.5t45 9q35 0 57.5 -22.5t22.5 -55.5q0 -25 -10 -45.5t-26 -35t-37 -22.5t-42 -8z"/>
<glyph glyph-name="ogonek" horiz-adv-x="342" unicode="˛" d="M169 -177q-36 0 -56 20t-20 49q0 22 13 49t48 62l45 -1v-2q-26 -27 -38.5 -51t-12.5 -44q0 -35 43 -35q12 0 27 3.5t32 11.5l9 -39q-20 -11 -43.5 -17t-46.5 -6z"/>
<glyph glyph-name="tilde" horiz-adv-x="487" unicode="˜" d="M274 689q18 0 35.5 -7t34.5 -15t33 -15t31 -7t29.5 9t33.5 32l36 -23q-22 -42 -49.5 -58.5t-56.5 -16.5q-18 0 -35.5 6.5t-35 14.5t-33.5 14.5t-30 6.5q-18 0 -31 -8t-34 -28l-34 23q24 38 51 55t55 17z"/>
<glyph glyph-name="hungarumlaut" horiz-adv-x="493" unicode="˝" d="M221 573l98 166l62 -22l-123 -160zM336 573l100 166l61 -22l-122 -160z"/>
<glyph glyph-name="tonos" horiz-adv-x="487" unicode="΄" d="M246 573l99 166l61 -22l-122 -160z"/>
<glyph glyph-name="dieresistonos" horiz-adv-x="414" unicode="΅" d="M189 573l99 166l61 -22l-121 -160zM94 597l14 72h70l-13 -72h-71zM337 597l14 72h69l-13 -72h-70z"/>
<glyph glyph-name="Alphatonos" horiz-adv-x="580" unicode="Ά" d="M27 560l99 166l61 -22l-122 -160zM368 616q-5 -10 -20.5 -39.5t-37 -69.5t-45.5 -85t-45.5 -85.5t-38 -71.5t-22.5 -42h268q-3 21 -7.5 53t-10 69t-11 77t-11 76.5t-10 67t-7.5 50.5h-2zM459 0q-6 42 -12 82.5t-13 82.5h-305l-89 -165h-71q96 175 191.5 348t192.5 348h62 l114 -696h-70z"/>
<glyph glyph-name="anoteleia" horiz-adv-x="206" unicode="·" d="M78 299l17 89h81l-17 -89h-81z"/>
<glyph glyph-name="Epsilontonos" horiz-adv-x="525" unicode="Έ" d="M-52 560l99 166l61 -22l-122 -160zM35 0l136 696h410l-12 -62h-344l-48 -252h304l-12 -60h-304l-51 -260h373l-12 -62h-440z"/>
<glyph glyph-name="Etatonos" horiz-adv-x="618" unicode="Ή" d="M-56 560l99 166l61 -22l-122 -160zM436 0l62 322h-333l-63 -322h-67l136 696h66l-61 -314h334l61 314h67l-136 -696h-66z"/>
<glyph glyph-name="Iotatonos" horiz-adv-x="222" unicode="Ί" d="M-55 560l99 166l61 -22l-122 -160zM37 0l136 696h66l-135 -696h-67z"/>
<glyph glyph-name="Omicrontonos" horiz-adv-x="573" unicode="Ό" d="M-53 560l99 166l61 -22l-122 -160zM355 640q-47 0 -81.5 -16.5t-58.5 -44t-39 -62.5t-22 -71l-38 -196q-4 -24 -4 -47q0 -13 2.5 -37t20.5 -52t52 -44.5t86 -16.5q43 0 76 15t57 41.5t40.5 63t25.5 79.5q6 27 12.5 56t12.5 58t10.5 56t6.5 51q2 12 2 23q0 21 -8 46.5 t-29 48.5t-53 36t-71 13zM361 701q62 0 107.5 -21t72.5 -56.5t33.5 -69.5t6.5 -57q0 -25 -5 -52q-9 -48 -19 -98t-20 -99q-12 -57 -33 -104t-53.5 -80.5t-78 -51.5t-107.5 -18q-54 0 -95 15.5t-68.5 42.5t-41.5 63.5t-14 78.5q0 25 4.5 56.5t11 65.5t14.5 68.5t15 65.5 q10 50 30 95.5t52 80t78 55t110 20.5z"/>
<glyph glyph-name="Upsilontonos" horiz-adv-x="482" unicode="Ύ" d="M-89 560l99 166l61 -22l-122 -160zM231 0h-63l56 287q-31 103 -62 204.5t-63 204.5h65q14 -50 30 -102t36 -120q9 -33 19 -69t15 -57l96 143q4 6 15 22t25 36.5t30 44t30 44t24.5 36.5t14.5 22h71q-71 -103 -141 -204.5t-142 -204.5z"/>
<glyph glyph-name="Omegatonos" horiz-adv-x="565" unicode="Ώ" d="M-58 560l99 166l61 -22l-122 -160zM109 61q-34 20 -50.5 58t-16.5 84q0 25 4.5 55.5t11 62.5t14 65t14.5 64q10 50 31.5 95.5t55.5 80t82 55t112 20.5q62 0 105.5 -21t69 -56.5t30.5 -68t5 -52.5q0 -28 -6 -58q-9 -48 -18.5 -93.5t-19.5 -94.5q-14 -69 -43.5 -120 t-79.5 -75q0 -1 1 -1h100q-2 -16 -5 -31l-6 -30h-196l13 73q59 18 97.5 68t53.5 120q12 54 24.5 109t16.5 103q2 13 2 26q0 20 -6.5 44.5t-26 47.5t-49.5 36t-69 13q-47 0 -83 -16.5t-62 -44t-42.5 -62.5t-23.5 -71l-37 -187q-4 -22 -4 -45q0 -7 1 -25.5t11 -43.5t28.5 -44 t47.5 -29l-15 -72h-197q3 15 6 30.5t5 30.5h114z"/>
<glyph glyph-name="iotadieresistonos" horiz-adv-x="222" unicode="ΐ" d="M266 597l14 72h69l-13 -72h-70zM23 597l14 72h70l-13 -72h-71zM118 573l99 166l61 -22l-121 -160zM133 -1h-16q-33 0 -53 14t-20 47q0 20 4 40q19 100 38 197t39 197h61l-77 -393q-3 -12 -3 -22q0 -14 8 -19.5t28 -6.5h2z"/>
<glyph glyph-name="Alpha" horiz-adv-x="580" unicode="Α" d="M368 616q-5 -10 -20.5 -39.5t-37 -69.5t-45.5 -85t-45.5 -85.5t-38 -71.5t-22.5 -42h268q-3 21 -7.5 53t-10 69t-11 77t-11 76.5t-10 67t-7.5 50.5h-2zM459 0q-6 42 -12 82.5t-13 82.5h-305l-89 -165h-71q96 175 191.5 348t192.5 348h62l114 -696h-70z"/>
<glyph glyph-name="Beta" horiz-adv-x="580" unicode="Β" d="M166 327l-53 -265h200q33 0 62 10.5t51 30t35 47t15 60.5v6q0 49 -31.5 80t-87.5 31h-191zM226 637l-50 -251h179q31 0 60.5 10t52 28t37 44t16.5 58v5q0 24 -8.5 43.5t-26 34t-41.5 21.5t-52 7h-167zM35 0l136 696h235q84 0 133 -39.5t49 -113.5v-9q-2 -62 -39 -110 t-106 -66l-1 -3q27 -7 46.5 -22t32 -34.5t17.5 -41t5 -42.5v-8q-2 -47 -20 -85t-48 -65t-68.5 -42t-81.5 -15h-290z"/>
<glyph glyph-name="Gamma" horiz-adv-x="506" unicode="Γ" d="M226 634l-123 -634h-68l136 696h423l-12 -62h-356z"/>
<glyph glyph-name="Delta" horiz-adv-x="580" unicode="Δ" d="M372 616q-14 -27 -36 -69.5t-49 -93.5q-28 -52 -58 -108.5t-58.5 -109.5t-53.5 -99t-41 -77h379l-54 363q-3 22 -7 49.5t-7.5 54.5t-7 50.5t-5.5 39.5h-2zM-26 0q96 175 191 348t192 348h62q28 -175 56 -348t57 -348h-558z"/>
<glyph glyph-name="Delta" horiz-adv-x="580" unicode="∆" d="M372 616q-14 -27 -36 -69.5t-49 -93.5q-28 -52 -58 -108.5t-58.5 -109.5t-53.5 -99t-41 -77h379l-54 363q-3 22 -7 49.5t-7.5 54.5t-7 50.5t-5.5 39.5h-2zM-26 0q96 175 191 348t192 348h62q28 -175 56 -348t57 -348h-558z"/>
<glyph glyph-name="Epsilon" horiz-adv-x="525" unicode="Ε" d="M35 0l136 696h410l-12 -62h-344l-48 -252h304l-12 -60h-304l-51 -260h373l-12 -62h-440z"/>
<glyph glyph-name="Zeta" horiz-adv-x="487" unicode="Ζ" d="M-8 0l12 60l459 577h-333l11 59h409l-11 -55l-460 -579h348l-12 -62h-423z"/>
<glyph glyph-name="Eta" horiz-adv-x="618" unicode="Η" d="M436 0l62 322h-333l-63 -322h-67l136 696h66l-61 -314h334l61 314h67l-136 -696h-66z"/>
<glyph glyph-name="Theta" horiz-adv-x="573" unicode="Θ" d="M184 381h271l-11 -57h-271zM355 640q-47 0 -81.5 -16.5t-58.5 -44t-39 -62.5t-22 -71l-38 -196q-4 -24 -4 -47q0 -13 2.5 -37t20.5 -52t52 -44.5t86 -16.5q43 0 76 15t57 41.5t40.5 63t25.5 79.5q6 27 12.5 56t12.5 58t10.5 56t6.5 51q2 12 2 23q0 21 -8 46.5t-29 48.5 t-53 36t-71 13zM361 701q62 0 107.5 -21t72.5 -56.5t33.5 -69.5t6.5 -57q0 -25 -5 -52q-9 -48 -19 -98t-20 -99q-12 -57 -33 -104t-53.5 -80.5t-78 -51.5t-107.5 -18q-54 0 -95 15.5t-68.5 42.5t-41.5 63.5t-14 78.5q0 25 4.5 56.5t11 65.5t14.5 68.5t15 65.5q10 50 30 95.5 t52 80t78 55t110 20.5z"/>
<glyph glyph-name="Iota" horiz-adv-x="222" unicode="Ι" d="M37 0l136 696h66l-135 -696h-67z"/>
<glyph glyph-name="Kappa" horiz-adv-x="600" unicode="Κ" d="M469 0q-35 94 -70.5 188t-70.5 188l-191 -190l-36 -186h-66l136 696h65q-20 -103 -39.5 -205t-39.5 -205h2l27 27l156 160q112 111 223 223h80l-266 -268q42 -108 82 -214t81 -214h-73z"/>
<glyph glyph-name="Lambda" horiz-adv-x="580" unicode="Λ" d="M459 0l-24 162q-3 23 -7 55.5t-11.5 84.5t-18.5 128t-27 186h-3l-230 -435l-97 -181h-71l384 696h62q5 -29 13.5 -84t19.5 -122.5t23.5 -141.5t23.5 -141.5t19.5 -122.5t13.5 -84h-70z"/>
<glyph glyph-name="Mu" horiz-adv-x="730" unicode="Μ" d="M664 542h-3l-99 -158l-183 -278h-57q-11 45 -29.5 113t-37.5 142l-47 181h-2l-105 -542h-66l136 696h65q20 -78 40 -154.5t40 -153.5l49 -200h2l118 185l208 323h66l-136 -696h-65z"/>
<glyph glyph-name="Nu" horiz-adv-x="655" unicode="Ν" d="M475 0q-7 16 -21 47.5t-31 70t-36 81t-36 81t-31 69.5t-22 48l-81 189h-2q-5 -26 -14 -72.5t-20 -103t-22.5 -118t-22.5 -118t-19.5 -102.5t-13.5 -72h-67l136 696h66q7 -16 20.5 -46.5t30 -68.5t35 -79t35 -79t30 -68.5t21.5 -46.5l85 -198h2q5 26 14 72t20 102.5 t23 118t23 118t19.5 103t13.5 72.5h65l-135 -696h-65z"/>
<glyph glyph-name="Xi" horiz-adv-x="550" unicode="Ξ" d="M16 0l13 62h433l-13 -62h-433zM134 322l11 60h324l-11 -60h-324zM139 634l12 62h434l-13 -62h-433z"/>
<glyph glyph-name="Omicron" horiz-adv-x="573" unicode="Ο" d="M355 640q-47 0 -81.5 -16.5t-58.5 -44t-39 -62.5t-22 -71l-38 -196q-4 -24 -4 -47q0 -13 2.5 -37t20.5 -52t52 -44.5t86 -16.5q43 0 76 15t57 41.5t40.5 63t25.5 79.5q6 27 12.5 56t12.5 58t10.5 56t6.5 51q2 12 2 23q0 21 -8 46.5t-29 48.5t-53 36t-71 13zM361 701 q62 0 107.5 -21t72.5 -56.5t33.5 -69.5t6.5 -57q0 -25 -5 -52q-9 -48 -19 -98t-20 -99q-12 -57 -33 -104t-53.5 -80.5t-78 -51.5t-107.5 -18q-54 0 -95 15.5t-68.5 42.5t-41.5 63.5t-14 78.5q0 25 4.5 56.5t11 65.5t14.5 68.5t15 65.5q10 50 30 95.5t52 80t78 55t110 20.5z "/>
<glyph glyph-name="Pi" horiz-adv-x="618" unicode="Π" d="M436 0l124 637h-334l-124 -637h-67l136 696h467l-136 -696h-66z"/>
<glyph glyph-name="Rho" horiz-adv-x="553" unicode="Ρ" d="M529 516q0 60 -36 89t-93 29h-174l-55 -282h185q36 0 67.5 12t55 33.5t37 52t13.5 66.5zM103 0h-67l136 696h238q41 0 75.5 -10.5t60 -31.5t39.5 -53.5t14 -75.5q0 -53 -19.5 -96t-53 -74.5t-78.5 -48.5t-96 -17h-193z"/>
<glyph glyph-name="Sigma" horiz-adv-x="485" unicode="Σ" d="M-8 0l12 60l233 300l-119 281l11 55h410l-11 -59h-334l120 -278l-234 -297h347l-12 -62h-423z"/>
<glyph glyph-name="Tau" horiz-adv-x="473" unicode="Τ" d="M354 637l-124 -637h-66l123 637h-199l11 59h465l-11 -59h-199z"/>
<glyph glyph-name="Upsilon" horiz-adv-x="482" unicode="Υ" d="M231 0h-63l56 287q-31 103 -62 204.5t-63 204.5h65q14 -50 30 -102t36 -120q9 -33 19 -69t15 -57l96 143q4 6 15 22t25 36.5t30 44t30 44t24.5 36.5t14.5 22h71q-71 -103 -141 -204.5t-142 -204.5z"/>
<glyph glyph-name="Phi" horiz-adv-x="715" unicode="Φ" d="M402 608q-67 -3 -118.5 -28.5t-86.5 -68.5t-53 -100.5t-18 -124.5q0 -79 45.5 -124.5t134.5 -51.5zM370 110q72 2 124.5 29.5t87 72.5t51 103.5t16.5 123.5q0 78 -45.5 120.5t-136.5 47.5zM359 55q-2 -14 -4 -27.5t-6 -27.5h-65l11 56q-115 9 -172.5 67t-57.5 156 q0 80 23 149t67.5 120.5t109 81.5t148.5 33l6 33h65l-6 -32q112 -3 173 -60.5t61 -165.5q0 -87 -24.5 -156.5t-70.5 -118.5t-111.5 -76.5t-146.5 -31.5z"/>
<glyph glyph-name="Chi" horiz-adv-x="502" unicode="Χ" d="M386 0l-113 305l-230 -305h-74l278 358l-129 338h70l102 -285l213 285h74l-261 -339l141 -357h-71z"/>
<glyph glyph-name="Psi" horiz-adv-x="708" unicode="Ψ" d="M683 399q-21 -107 -98.5 -171t-205.5 -70l-31 -158h-67l31 159q-54 4 -97.5 23t-72 51t-36.5 65t-8 58t5 53l56 287h66l-54 -279q-5 -26 -5 -49q0 -55 35 -98.5t123 -46.5l92 473h67l-92 -472q43 0 80.5 12.5t67.5 36t50 57.5t29 77l56 289h66z"/>
<glyph glyph-name="Omega" horiz-adv-x="565" unicode="Ω" d="M109 61q-34 20 -50.5 58t-16.5 84q0 25 4.5 55.5t11 62.5t14 65t14.5 64q10 50 31.5 95.5t55.5 80t82 55t112 20.5q62 0 105.5 -21t69 -56.5t30.5 -68t5 -52.5q0 -28 -6 -58q-9 -48 -18.5 -93.5t-19.5 -94.5q-14 -69 -43.5 -120t-79.5 -75q0 -1 1 -1h100q-2 -16 -5 -31 l-6 -30h-196l13 73q59 18 97.5 68t53.5 120q12 54 24.5 109t16.5 103q2 13 2 26q0 20 -6.5 44.5t-26 47.5t-49.5 36t-69 13q-47 0 -83 -16.5t-62 -44t-42.5 -62.5t-23.5 -71l-37 -187q-4 -22 -4 -45q0 -7 1 -25.5t11 -43.5t28.5 -44t47.5 -29l-15 -72h-197q3 15 6 30.5 t5 30.5h114z"/>
<glyph glyph-name="Iotadieresis" horiz-adv-x="222" unicode="Ϊ" d="M93 751l14 71h72l-14 -71h-72zM272 751l14 71h72l-14 -71h-72zM37 0l136 696h66l-135 -696h-67z"/>
<glyph glyph-name="Upsilondieresis" horiz-adv-x="482" unicode="Ϋ" d="M398 751l14 71h72l-14 -71h-72zM219 751l14 71h72l-14 -71h-72zM231 0h-63l56 287q-31 103 -62 204.5t-63 204.5h65q14 -50 30 -102t36 -120q9 -33 19 -69t15 -57l96 143q4 6 15 22t25 36.5t30 44t30 44t24.5 36.5t14.5 22h71q-71 -103 -141 -204.5t-142 -204.5z"/>
<glyph glyph-name="alphatonos" horiz-adv-x="493" unicode="ά" d="M269 573l99 166l61 -22l-122 -160zM115 168q0 -51 21.5 -81.5t78.5 -30.5q45 0 77.5 28t53.5 69t31 87.5t10 84.5q0 50 -21.5 83t-76.5 33q-49 0 -82.5 -30t-53.5 -72.5t-29 -89.5t-9 -81zM286 501q42 0 74.5 -18.5t50.5 -56.5l3 1l13 68h62l-97 -495h-62l15 69l-3 2 q-60 -77 -155 -77q-38 0 -64 12t-42.5 34t-24 51.5t-7.5 64.5q0 54 13 115t41 112t73 84.5t110 33.5z"/>
<glyph glyph-name="epsilontonos" horiz-adv-x="425" unicode="έ" d="M253 573l99 166l61 -22l-122 -160zM147 263q-60 20 -60 87q0 39 18 67.5t46.5 47t63.5 27.5t70 9q41 0 85 -14t72 -44l-45 -47q-18 20 -49 32.5t-60 12.5q-23 0 -46.5 -5t-42.5 -16.5t-31 -28.5t-12 -41q0 -23 11 -35.5t27 -18.5t35 -7t34 -1h46l-10 -54h-73 q-21 0 -43.5 -6.5t-40.5 -19.5t-29.5 -32.5t-11.5 -45.5q0 -23 11 -38t27.5 -23t36.5 -11t39 -3q33 0 67 14t59 32l39 -46q-38 -30 -84.5 -44.5t-95.5 -14.5q-29 0 -58.5 6.5t-52.5 21t-37.5 38t-14.5 57.5q0 51 31.5 90t78.5 53v1z"/>
<glyph glyph-name="etatonos" horiz-adv-x="506" unicode="ή" d="M243 573l99 166l61 -22l-122 -160zM313 -131l86 438q5 24 5 45q0 32 -16.5 60t-88.5 28q-27 0 -52.5 -10.5t-46.5 -29t-36 -44t-21 -56.5l-58 -300h-61l96 495h61l-13 -69h2q32 40 75.5 57.5t84.5 17.5q34 0 62.5 -11.5t47.5 -33t24.5 -45t5.5 -41.5q0 -19 -4 -39 l-90 -462h-63z"/>
<glyph glyph-name="iotatonos" horiz-adv-x="222" unicode="ί" d="M134 573l99 166l61 -22l-122 -160zM133 -1h-16q-33 0 -53 14t-20 47q0 20 4 40q19 100 38 197t39 197h61l-77 -393q-3 -12 -3 -22q0 -14 8 -19.5t28 -6.5h2z"/>
<glyph glyph-name="upsilondieresistonos" horiz-adv-x="515" unicode="ΰ" d="M269 573l99 166l61 -22l-121 -160zM174 597l14 72h70l-13 -72h-71zM417 597l14 72h69l-13 -72h-70zM442 175q-16 -85 -72 -133t-141 -48q-42 0 -76.5 13t-57 37t-30 49.5t-7.5 45.5q0 17 4 35l62 321h62l-59 -299q-4 -19 -4 -37q0 -39 23.5 -72t82.5 -33q57 0 99.5 37 t54.5 100l59 304h62z"/>
<glyph glyph-name="alpha" horiz-adv-x="493" unicode="α" d="M115 168q0 -51 21.5 -81.5t78.5 -30.5q45 0 77.5 28t53.5 69t31 87.5t10 84.5q0 50 -21.5 83t-76.5 33q-49 0 -82.5 -30t-53.5 -72.5t-29 -89.5t-9 -81zM286 501q42 0 74.5 -18.5t50.5 -56.5l3 1l13 68h62l-97 -495h-62l15 69l-3 2q-60 -77 -155 -77q-38 0 -64 12 t-42.5 34t-24 51.5t-7.5 64.5q0 54 13 115t41 112t73 84.5t110 33.5z"/>
<glyph glyph-name="beta" horiz-adv-x="503" unicode="β" d="M243 437h62q30 0 53 12t39 30.5t24.5 41.5t8.5 45q0 19 -5.5 37.5t-17.5 32.5t-30.5 23t-44.5 9q-39 0 -64.5 -15t-42 -38t-26 -51.5t-14.5 -56.5l-50 -266q-3 -16 -5 -32t-2 -33q0 -25 5 -47t17 -39t31 -27t48 -10q47 0 80 24t53.5 59t30 75.5t9.5 73.5q0 44 -21.5 71 t-71.5 27h-77zM341 722q41 0 70 -13.5t47 -34.5t26.5 -47.5t8.5 -52.5q0 -23 -6.5 -47t-19.5 -46.5t-33 -40.5t-47 -27q44 -14 60.5 -49t16.5 -80q0 -56 -16.5 -108t-46.5 -92t-73.5 -64t-97.5 -24q-17 0 -35 3t-35.5 11.5t-32 23.5t-23.5 39h-3q-9 -51 -18.5 -102 t-19.5 -102h-62q32 166 63 330.5t63 331.5q9 43 25.5 78.5t43 60.5t62.5 38.5t83 13.5z"/>
<glyph glyph-name="gamma" horiz-adv-x="395" unicode="γ" d="M195 20q-11 -55 -21.5 -109.5t-21.5 -110.5h-62q11 54 20.5 106t20.5 104q-11 103 -24.5 197.5t-31.5 191.5q-3 14 -5 22t-6 12t-9.5 5t-14.5 1h-5l4 54q24 6 38 6q27 0 39.5 -15.5t17.5 -44.5q14 -78 25.5 -161t19.5 -162q34 46 64.5 96.5t57 100t49.5 96.5t42 86h69 q-31 -67 -59.5 -122.5t-59 -109.5t-66 -112t-81.5 -131z"/>
<glyph glyph-name="delta" horiz-adv-x="480" unicode="δ" d="M218 50q46 0 79 20t55 54t32.5 78.5t10.5 93.5q0 55 -27 89t-78 51q-45 -2 -80 -25t-59 -60.5t-36.5 -85t-12.5 -97.5q0 -55 29.5 -86.5t86.5 -31.5zM339 727q43 0 82.5 -9.5t68.5 -26.5q-8 -14 -15.5 -27t-15.5 -27q-28 16 -55 23.5t-59 7.5q-54 0 -84.5 -25t-30.5 -60 q0 -19 11 -33t28 -26t39 -23.5t45 -25.5q20 -13 38.5 -29t33 -37t23.5 -48t9 -62q0 -61 -14.5 -116t-44.5 -97t-76 -67t-108 -25q-82 0 -128.5 43t-46.5 125q0 58 13.5 109t39 92t60.5 70t79 42v1q-30 19 -47.5 45.5t-17.5 56.5q0 35 13.5 63t36.5 47t55 29t68 10z"/>
<glyph glyph-name="epsilon" horiz-adv-x="425" unicode="ε" d="M147 263q-60 20 -60 87q0 39 18 67.5t46.5 47t63.5 27.5t70 9q41 0 85 -14t72 -44l-45 -47q-18 20 -49 32.5t-60 12.5q-23 0 -46.5 -5t-42.5 -16.5t-31 -28.5t-12 -41q0 -23 11 -35.5t27 -18.5t35 -7t34 -1h46l-10 -54h-73q-21 0 -43.5 -6.5t-40.5 -19.5t-29.5 -32.5 t-11.5 -45.5q0 -23 11 -38t27.5 -23t36.5 -11t39 -3q33 0 67 14t59 32l39 -46q-38 -30 -84.5 -44.5t-95.5 -14.5q-29 0 -58.5 6.5t-52.5 21t-37.5 38t-14.5 57.5q0 51 31.5 90t78.5 53v1z"/>
<glyph glyph-name="zeta" horiz-adv-x="372" unicode="ζ" d="M513 659q-31 -21 -73.5 -53t-88 -71t-90.5 -84t-80 -91t-57 -92t-22 -87q0 -36 22 -61.5t52 -41.5q27 -14 56.5 -24.5t56.5 -22.5q23 -11 39 -26.5t16 -41.5q0 -20 -8.5 -40.5t-21 -40.5t-27 -38t-26.5 -32q-12 6 -23.5 13t-22.5 14q6 9 15.5 22t18.5 27.5t15.5 28.5 t6.5 24q0 17 -15 27.5t-36 18.5l-82 32q-21 9 -40 21.5t-34 31t-23.5 43t-8.5 57.5q0 45 19.5 92t52 93.5t74 90.5t85 82.5t85 70.5t74.5 55h-260l10 56h351q-3 -14 -5 -26.5t-5 -26.5z"/>
<glyph glyph-name="eta" horiz-adv-x="506" unicode="η" d="M313 -131l86 438q5 24 5 45q0 32 -16.5 60t-88.5 28q-27 0 -52.5 -10.5t-46.5 -29t-36 -44t-21 -56.5l-58 -300h-61l96 495h61l-13 -69h2q32 40 75.5 57.5t84.5 17.5q34 0 62.5 -11.5t47.5 -33t24.5 -45t5.5 -41.5q0 -19 -4 -39l-90 -462h-63z"/>
<glyph glyph-name="theta" horiz-adv-x="480" unicode="θ" d="M325 670q-69 0 -112 -58q-8 -10 -17 -25.5t-18.5 -39.5t-20 -57.5t-20.5 -79.5h280q9 51 12 85t3 57q0 57 -25 87.5t-82 30.5zM127 353q-13 -64 -17.5 -106.5t-4.5 -70.5q0 -63 23.5 -94t84.5 -31q51 0 84.5 26t53.5 71q10 23 26 73t30 132h-280zM334 728q77 0 116 -41.5 t39 -133.5q0 -37 -5 -78.5t-13 -89.5q-8 -51 -19 -96t-22 -81t-21.5 -62.5t-17.5 -39.5q-28 -51 -72 -81.5t-108 -30.5q-86 0 -125 43t-39 132q0 35 6 89.5t18 117.5q16 83 38.5 150t53.5 109q61 93 171 93z"/>
<glyph glyph-name="iota" horiz-adv-x="217" unicode="ι" d="M133 -1h-16q-33 0 -53 14t-20 47q0 20 4 40q19 100 38 197t39 197h61l-77 -393q-3 -12 -3 -22q0 -14 8 -19.5t28 -6.5h2z"/>
<glyph glyph-name="kappa" horiz-adv-x="479" unicode="κ" d="M249 265l-133 -126l-27 -139h-61l96 495h61l-52 -263q1 0 2 1l20 18l261 244h78l-199 -189q35 -77 69.5 -153t69.5 -153h-69z"/>
<glyph glyph-name="lambda" horiz-adv-x="411" unicode="λ" d="M389 -1q-11 -2 -19 -2.5t-15 -0.5q-32 0 -44 22t-16 52q-7 48 -12.5 89t-10.5 80l-10 78t-11 83h-2l-96 -177q-10 -19 -27 -49.5t-35 -62.5t-35 -62t-28 -49h-70l278 489q-4 32 -7 63.5t-8 63.5q-3 26 -12 38t-37 12h-8.5t-9.5 -1l4 58q12 2 23 3t21 1q43 0 60 -26.5 t22 -71.5q6 -53 16 -127t20.5 -150t20 -145t15.5 -113q4 -28 10.5 -35.5t26.5 -7.5z"/>
<glyph glyph-name="nu" horiz-adv-x="424" unicode="ν" d="M470 494q-33 -72 -66 -135.5t-66.5 -123t-69 -117.5t-74.5 -118h-56l-83 494h64l38 -236q7 -44 13 -87t8 -95h3q31 52 59.5 102t55 100.5t52 103.5t51.5 112h71z"/>
<glyph glyph-name="xi" horiz-adv-x="396" unicode="ξ" d="M507 683q-8 -14 -17.5 -27t-17.5 -27q-28 17 -58.5 25t-62.5 8t-61.5 -10.5t-52 -29t-35.5 -45t-13 -58.5q0 -26 12 -43t31.5 -27t44 -14t50.5 -4h74l-10 -55h-103q-40 0 -74.5 -18.5t-59.5 -47t-39 -63t-14 -67.5q0 -42 28 -66t68 -41q27 -11 55.5 -22t52.5 -24 q20 -11 33 -26t13 -41q0 -19 -8 -39t-20.5 -39t-26.5 -37t-26 -32l-47 25q6 9 15.5 22.5t18 28t14.5 29t6 24.5q0 16 -11.5 26t-28.5 17q-14 6 -29.5 11.5t-31.5 11.5q-25 10 -50 22t-45 30.5t-32.5 45t-12.5 65.5t12 76.5t34.5 69.5t54.5 56t71 35q-45 14 -66 43.5 t-21 71.5q0 45 18.5 82t49.5 62.5t72 39.5t86 14q39 0 82.5 -7.5t77.5 -30.5z"/>
<glyph glyph-name="omicron" horiz-adv-x="489" unicode="ο" d="M278 445q-50 0 -84 -28t-54 -69.5t-28.5 -90t-8.5 -89.5q0 -17 4.5 -37.5t17 -38.5t35 -30t57.5 -12q49 0 83 24.5t55 63.5t30.5 87.5t9.5 97.5q0 63 -34 92.5t-83 29.5zM287 501q39 0 70.5 -12.5t54 -35t35 -54t12.5 -70.5q0 -59 -12 -119t-40 -108t-74 -78t-113 -30 q-86 0 -132.5 43t-46.5 124q0 67 14.5 128.5t44.5 108.5t76.5 75t110.5 28z"/>
<glyph glyph-name="pi" horiz-adv-x="515" unicode="π" d="M345 0l86 441h-256l-85 -441h-62l96 496h379l-96 -496h-62z"/>
<glyph glyph-name="rho" horiz-adv-x="499" unicode="ρ" d="M292 444q-45 0 -77.5 -27t-54.5 -68.5t-32.5 -90.5t-10.5 -94q0 -20 5.5 -40.5t18.5 -36.5t34 -26t51 -10q53 0 88 25t56 64t29.5 87.5t8.5 95.5q0 31 -9.5 54t-26 38t-37.5 22t-43 7zM72 261q10 49 27.5 92.5t45 76.5t65.5 52t89 19q39 0 70.5 -12.5t54 -35t35 -54 t12.5 -70.5q0 -69 -14.5 -129.5t-44 -106.5t-75 -72.5t-108.5 -26.5q-45 0 -79 18t-54 55l-3 -3q-13 -66 -26 -131.5t-26 -132.5h-60z"/>
<glyph glyph-name="sigma1" horiz-adv-x="397" unicode="ς" d="M408 396q-9 10 -23.5 18.5t-30.5 14.5t-32.5 9.5t-29.5 3.5q-39 0 -74 -17t-61.5 -48.5t-42 -76.5t-15.5 -100q0 -89 74 -123l105 -48q26 -11 39.5 -25.5t13.5 -37.5q0 -18 -6.5 -37.5t-17.5 -38t-25 -37t-29 -35.5q-11 7 -22 13t-22 14q26 40 37 61.5t11 36.5t-7 24 t-26 18q-21 8 -42.5 17.5t-41.5 18.5q-23 11 -42.5 25t-33.5 33.5t-21.5 46t-7.5 61.5q0 76 21 134.5t56 98.5t82 60.5t98 20.5q42 0 84.5 -14t71.5 -45q-11 -12 -20 -22.5t-20 -23.5z"/>
<glyph glyph-name="sigma" horiz-adv-x="496" unicode="σ" d="M275 438q-49 0 -82.5 -27t-53.5 -67t-29 -87t-9 -87q0 -17 4.5 -38t17 -39t34 -30.5t56.5 -12.5q50 0 84.5 24t55.5 62.5t30 85.5t9 94q0 63 -34 92.5t-83 29.5zM408 439q25 -20 37 -50t12 -65q0 -59 -13 -118t-41.5 -106t-74 -76.5t-110.5 -29.5q-87 0 -133.5 44 t-46.5 122q0 69 15.5 130t46 106t75 71.5t103.5 26.5h249l-9 -53h-109z"/>
<glyph glyph-name="tau" horiz-adv-x="311" unicode="τ" d="M182 0q-41 0 -65 20t-25 59q0 14 3 31l65 330h-106l11 55h280l-10 -55h-114l-61 -312q-3 -15 -3 -29q0 -19 10.5 -31.5t39.5 -12.5h31l-11 -55h-45z"/>
<glyph glyph-name="upsilon" horiz-adv-x="515" unicode="υ" d="M442 175q-16 -85 -72 -133t-141 -48q-42 0 -76.5 13t-57 37t-30 49.5t-7.5 45.5q0 17 4 35l62 321h62l-59 -299q-4 -19 -4 -37q0 -39 23.5 -72t82.5 -33q57 0 99.5 37t54.5 100l59 304h62z"/>
<glyph glyph-name="phi" horiz-adv-x="583" unicode="φ" d="M288 48q58 3 96.5 27t61.5 62.5t32 87.5t9 100q0 56 -33 85t-91 30zM214 -5q-47 3 -80 17.5t-53.5 37t-29.5 52.5t-9 64q0 58 10.5 111t33 96.5t58 74.5t85.5 43l10 -53q-35 -11 -60 -35.5t-42 -59.5t-25 -78.5t-8 -92.5q0 -21 5.5 -42t19 -38.5t37 -29.5t59.5 -14 l87 452h62q49 0 82.5 -14.5t54.5 -38.5t30 -55t9 -63q0 -75 -15.5 -136.5t-49 -105.5t-85 -68t-123.5 -24l-38 -194h-63z"/>
<glyph glyph-name="chi" horiz-adv-x="443" unicode="χ" d="M310 0l-84 206l-165 -206h-76l213 255q-9 19 -23.5 52t-30 68.5t-30.5 68t-24 52.5h70l79 -197q11 14 32.5 41t45 57t44.5 57.5t32 41.5h78l-205 -244l115 -252h-71z"/>
<glyph glyph-name="psi" horiz-adv-x="612" unicode="ψ" d="M544 188q-17 -88 -82.5 -138t-165.5 -55l-39 -194h-61l37 194q-45 2 -80 18t-57 42t-29 52.5t-7 46.5q0 18 4 36l58 305h62l-57 -294q-4 -20 -4 -37q0 -41 26.5 -74t95.5 -37l90 462h61l-89 -462q70 3 117 41t61 110l57 291h62z"/>
<glyph glyph-name="omega" horiz-adv-x="732" unicode="ω" d="M475 -5q-45 0 -82 20t-52 67q-32 -47 -71.5 -67t-84.5 -20q-39 0 -66.5 12.5t-45.5 34.5t-26 52.5t-8 66.5q0 70 14.5 129t42.5 103t68 71t91 33v-28t1 -28q-35 -5 -64 -28t-49 -59.5t-31 -84.5t-11 -102t22 -84.5t73 -30.5q30 0 52 11t38 29.5t26 43t15 51.5l36 187h62 q-5 -27 -12 -55.5t-13 -57t-10 -56.5t-4 -53q0 -44 25.5 -71.5t76.5 -27.5q35 0 63 20t48 56t31 85.5t11 107.5q0 51 -17.5 79.5t-59.5 37.5q4 14 8.5 28t8.5 28q66 -15 94 -54.5t28 -108.5q0 -71 -13.5 -132.5t-41.5 -107t-71 -71.5t-102 -26z"/>
<glyph glyph-name="iotadieresis" horiz-adv-x="222" unicode="ϊ" d="M53 602l14 72h70l-14 -72h-70zM236 602l13 72h71l-14 -72h-70zM133 -1h-16q-33 0 -53 14t-20 47q0 20 4 40q19 100 38 197t39 197h61l-77 -393q-3 -12 -3 -22q0 -14 8 -19.5t28 -6.5h2z"/>
<glyph glyph-name="upsilondieresis" horiz-adv-x="515" unicode="ϋ" d="M198 602l14 72h70l-14 -72h-70zM381 602l13 72h71l-14 -72h-70zM442 175q-16 -85 -72 -133t-141 -48q-42 0 -76.5 13t-57 37t-30 49.5t-7.5 45.5q0 17 4 35l62 321h62l-59 -299q-4 -19 -4 -37q0 -39 23.5 -72t82.5 -33q57 0 99.5 37t54.5 100l59 304h62z"/>
<glyph glyph-name="omicrontonos" horiz-adv-x="489" unicode="ό" d="M278 445q-50 0 -84 -28t-54 -69.5t-28.5 -90t-8.5 -89.5q0 -17 4.5 -37.5t17 -38.5t35 -30t57.5 -12q49 0 83 24.5t55 63.5t30.5 87.5t9.5 97.5q0 63 -34 92.5t-83 29.5zM287 501q39 0 70.5 -12.5t54 -35t35 -54t12.5 -70.5q0 -59 -12 -119t-40 -108t-74 -78t-113 -30 q-86 0 -132.5 43t-46.5 124q0 67 14.5 128.5t44.5 108.5t76.5 75t110.5 28zM280 573l99 166l61 -22l-122 -160z"/>
<glyph glyph-name="upsilontonos" horiz-adv-x="515" unicode="ύ" d="M269 573l99 166l61 -22l-122 -160zM442 175q-16 -85 -72 -133t-141 -48q-42 0 -76.5 13t-57 37t-30 49.5t-7.5 45.5q0 17 4 35l62 321h62l-59 -299q-4 -19 -4 -37q0 -39 23.5 -72t82.5 -33q57 0 99.5 37t54.5 100l59 304h62z"/>
<glyph glyph-name="omegatonos" horiz-adv-x="732" unicode="ώ" d="M391 573l99 166l61 -22l-122 -160zM475 -5q-45 0 -82 20t-52 67q-32 -47 -71.5 -67t-84.5 -20q-39 0 -66.5 12.5t-45.5 34.5t-26 52.5t-8 66.5q0 70 14.5 129t42.5 103t68 71t91 33v-28t1 -28q-35 -5 -64 -28t-49 -59.5t-31 -84.5t-11 -102t22 -84.5t73 -30.5q30 0 52 11 t38 29.5t26 43t15 51.5l36 187h62q-5 -27 -12 -55.5t-13 -57t-10 -56.5t-4 -53q0 -44 25.5 -71.5t76.5 -27.5q35 0 63 20t48 56t31 85.5t11 107.5q0 51 -17.5 79.5t-59.5 37.5q4 14 8.5 28t8.5 28q66 -15 94 -54.5t28 -108.5q0 -71 -13.5 -132.5t-41.5 -107t-71 -71.5 t-102 -26z"/>
<glyph glyph-name="afii10023" horiz-adv-x="525" unicode="Ё" d="M269 751l14 71h72l-14 -71h-72zM448 751l14 71h72l-14 -71h-72zM35 0l136 696h410l-12 -62h-344l-48 -252h304l-12 -60h-304l-51 -260h373l-12 -62h-440z"/>
<glyph glyph-name="afii10051" horiz-adv-x="674" unicode="Ђ" d="M466 469q36 0 66.5 -10t53 -30.5t35 -53t12.5 -77.5q0 -64 -16.5 -120t-51.5 -98t-89 -66.5t-130 -24.5h-11t-12 1l10 52q53 0 96 14.5t73.5 44.5t47 76t16.5 109q0 60 -30 93.5t-93 33.5q-75 0 -129.5 -54.5t-73.5 -152.5l-39 -206h-65l123 636h-196l11 59h515l-12 -59 h-253q-12 -66 -25 -131t-25 -131q1 0 1 -0.5t1 -0.5q38 46 89 71t101 25z"/>
<glyph glyph-name="afii10052" horiz-adv-x="506" unicode="Ѓ" d="M326 767l163 115l38 -50l-178 -98zM226 634l-123 -634h-68l136 696h423l-12 -62h-356z"/>
<glyph glyph-name="afii10053" horiz-adv-x="528" unicode="Є" d="M517 138q-40 -70 -106.5 -107t-147.5 -37q-62 0 -105 21.5t-68 57.5t-30.5 69.5t-5.5 53.5q0 29 7 59l39 198q10 50 31.5 95t56 79t81.5 54t109 20q81 0 133.5 -38t73.5 -101l-67 -29q-11 45 -47.5 74.5t-90.5 29.5q-48 0 -85 -16t-63 -42.5t-43 -61.5t-24 -72l-12 -62 h249l-12 -60h-249l-13 -71q-5 -24 -5 -47q0 -13 3 -37t19.5 -51t47 -43.5t75.5 -16.5q59 0 107.5 30t79.5 81z"/>
<glyph glyph-name="afii10054" horiz-adv-x="543" unicode="Ѕ" d="M346 702q53 0 105 -14.5t91 -41.5l-40 -55q-33 23 -75.5 35t-87.5 12q-29 0 -58.5 -8t-53.5 -25t-39.5 -43.5t-15.5 -62.5q0 -28 13.5 -47.5t33 -32t41.5 -20t39 -11.5q36 -9 72 -21.5t65.5 -32.5t48 -51.5t18.5 -77.5q0 -53 -21.5 -93t-58 -66t-85 -39t-102.5 -13 q-67 0 -127 19t-105 61l45 50q37 -32 86 -49t103 -17q37 0 72 8.5t61.5 25.5t42.5 44t16 63q0 29 -12 49.5t-31.5 34.5t-44.5 23t-50 15q-32 7 -65.5 18t-60.5 30t-44 47.5t-17 71.5q0 49 17.5 88.5t49.5 67.5t76 43t98 15z"/>
<glyph glyph-name="afii10055" horiz-adv-x="222" unicode="І" d="M37 0l136 696h66l-135 -696h-67z"/>
<glyph glyph-name="afii10056" horiz-adv-x="226" unicode="Ї" d="M92 764l14 71h71l-14 -71h-71zM276 764l14 71h72l-14 -71h-72zM37 0l136 696h66l-135 -696h-67z"/>
<glyph glyph-name="afii10057" horiz-adv-x="449" unicode="Ј" d="M381 205q-12 -60 -33.5 -100.5t-52.5 -65t-69 -35t-83 -10.5q-46 0 -84 17.5t-60 46.5l49 45q39 -47 92 -47q30 0 58.5 7.5t51.5 27t41 51.5t27 82l92 472h66z"/>
<glyph glyph-name="afii10058" horiz-adv-x="902" unicode="Љ" d="M812 213q0 54 -32.5 84t-90.5 30h-181l-52 -265h183q34 0 65.5 9t55.5 28t38 47.5t14 66.5zM235 318q-16 -81 -39 -138t-53 -96t-67 -62t-80 -35l-20 56q34 14 63 32.5t53.5 50t44 81t34.5 126.5l71 363h336l-59 -309h181q41 0 74.5 -12t57.5 -34t37 -53t13 -68 q0 -52 -19.5 -92.5t-52.5 -69t-76 -43.5t-90 -15h-268l124 637h-203z"/>
<glyph glyph-name="afii10059" horiz-adv-x="904" unicode="Њ" d="M815 213q0 54 -32.5 84t-90.5 30h-182l-51 -265h183q35 0 66.5 9t55 28t37.5 47.5t14 66.5zM885 220q0 -52 -19.5 -92.5t-52.5 -69t-76 -43.5t-90 -15h-266l63 328h-280l-63 -328h-67l135 696h67l-60 -308h280l60 308h66l-60 -309h181q41 0 74.5 -12t57.5 -34t37 -53 t13 -68z"/>
<glyph glyph-name="afii10060" horiz-adv-x="699" unicode="Ћ" d="M217 0h-65l123 637h-197l11 59h525l-12 -59h-261q-13 -65 -25.5 -128.5t-24.5 -128.5h2q19 22 43 39t49 28.5t50 17t46 5.5q83 0 124 -39.5t41 -105.5q0 -11 -1.5 -22t-3.5 -23l-54 -280h-64l49 258q6 28 6 54q0 45 -27.5 73t-93.5 28q-32 0 -63.5 -12.5t-58 -35.5 t-46 -56t-27.5 -74z"/>
<glyph glyph-name="afii10061" horiz-adv-x="559" unicode="Ќ" d="M318 767l163 115l37 -50l-177 -98zM33 0l134 694h67l-59 -305h132q18 0 37 3.5t38.5 15t38.5 32t36 53.5l104 201h69l-101 -198q-26 -51 -57 -85.5t-69 -45.5q44 -13 60.5 -49.5t21.5 -87.5l22 -228h-67l-20 220q-3 35 -13 56.5t-24 33.5t-32 16.5t-39 4.5h-149l-63 -331 h-67z"/>
<glyph glyph-name="afii10062" horiz-adv-x="534" unicode="Ў" d="M372 788q38 0 62.5 21t31.5 47h58q-5 -21 -16.5 -42t-31 -38.5t-47 -28.5t-63.5 -11q-32 0 -53.5 9.5t-35 24.5t-19.5 34t-6 37q0 4 0.5 7.5t0.5 7.5h55v-10q0 -25 17.5 -41.5t46.5 -16.5zM604 697q-82 -145 -162.5 -287.5t-163.5 -287.5q-23 -40 -45.5 -65.5t-45.5 -40 t-46 -20t-47 -5.5h-36l13 60h22q28 0 57.5 15.5t55.5 57.5l19 33q-26 135 -50.5 269t-49.5 269h69l80 -459h3l117 210l138 251h72z"/>
<glyph glyph-name="afii10145" horiz-adv-x="614" unicode="Џ" d="M301 0l-28 -147h-68l28 147h-199l133 696h66l-120 -634h332l121 634h67l-132 -696h-200z"/>
<glyph glyph-name="afii10017" horiz-adv-x="580" unicode="А" d="M368 616q-5 -10 -20.5 -39.5t-37 -69.5t-45.5 -85t-45.5 -85.5t-38 -71.5t-22.5 -42h268q-3 21 -7.5 53t-10 69t-11 77t-11 76.5t-10 67t-7.5 50.5h-2zM459 0q-6 42 -12 82.5t-13 82.5h-305l-89 -165h-71q96 175 191.5 348t192.5 348h62l114 -696h-70z"/>
<glyph glyph-name="afii10018" horiz-adv-x="565" unicode="Б" d="M459 218q0 56 -34.5 86t-88.5 30h-183l-53 -272h185q36 0 67.5 10.5t55 30.5t37.5 49t14 66zM525 634h-313l-46 -241h180q38 0 71.5 -11t58 -32.5t38.5 -52.5t14 -71q0 -50 -19 -91.5t-52 -71.5t-77 -46.5t-93 -16.5h-266l136 696h380z"/>
<glyph glyph-name="afii10019" horiz-adv-x="580" unicode="В" d="M166 327l-53 -265h200q33 0 62 10.5t51 30t35 47t15 60.5v6q0 49 -31.5 80t-87.5 31h-191zM226 637l-50 -251h179q31 0 60.5 10t52 28t37 44t16.5 58v5q0 24 -8.5 43.5t-26 34t-41.5 21.5t-52 7h-167zM35 0l136 696h235q84 0 133 -39.5t49 -113.5v-9q-2 -62 -39 -110 t-106 -66l-1 -3q27 -7 46.5 -22t32 -34.5t17.5 -41t5 -42.5v-8q-2 -47 -20 -85t-48 -65t-68.5 -42t-81.5 -15h-290z"/>
<glyph glyph-name="afii10020" horiz-adv-x="506" unicode="Г" d="M226 634l-123 -634h-68l136 696h423l-12 -62h-356z"/>
<glyph glyph-name="afii10021" horiz-adv-x="687" unicode="Д" d="M501 59q29 146 57 289t56 288h-295q-25 -104 -46 -195t-43 -165.5t-46.5 -129.5t-56.5 -87h374zM569 59h56q-11 -52 -21 -104.5t-20 -105.5h-65l30 151h-503q-8 -38 -15 -75.5t-14 -75.5h-65q9 51 18.5 101t19.5 101q11 3 23 5.5t24 4.5q31 18 54 45t41.5 67.5t35 97 t34.5 134.5l67 291h424z"/>
<glyph glyph-name="afii10022" horiz-adv-x="525" unicode="Е" d="M35 0l136 696h410l-12 -62h-344l-48 -252h304l-12 -60h-304l-51 -260h373l-12 -62h-440z"/>
<glyph glyph-name="afii10024" horiz-adv-x="862" unicode="Ж" d="M420 328h-122q-21 0 -40.5 -4.5t-38 -16.5t-36 -33.5t-33.5 -56.5q-26 -54 -51.5 -108.5t-51.5 -108.5h-70l106 225q26 51 55.5 87.5t77.5 49.5q-34 11 -51 45.5t-23 85.5l-23 201h64l26 -204q4 -34 14.5 -54.5t25.5 -32t32.5 -15t35.5 -3.5h114q14 78 28.5 155.5 t29.5 155.5h66l-59 -311h111q18 0 37 3.5t38 15t37.5 32t35.5 54.5q26 51 51.5 102t51.5 102h65l-99 -201q-25 -51 -55.5 -85.5t-67.5 -45.5q42 -13 58 -49.5t21 -87.5l24 -225h-70q-5 54 -10 108.5t-11 108.5q-4 35 -13.5 56.5t-23 33.5t-31.5 16.5t-38 4.5h-121l-62 -328 h-66z"/>
<glyph glyph-name="afii10025" horiz-adv-x="538" unicode="З" d="M400 367q24 -9 40.5 -24.5t26 -34t13.5 -38t4 -37.5q0 -50 -18.5 -93.5t-51.5 -76t-80 -51t-104 -18.5q-83 0 -146 32.5t-87 103.5l60 28q17 -50 64 -76t110 -26q38 0 71 12.5t58 36t39 55.5t14 71q0 51 -32.5 80.5t-83.5 29.5h-80l11 60h75q33 0 60.5 9.5t47.5 27t31 41 t11 51.5q0 48 -35 76.5t-101 28.5q-55 0 -103 -21t-80 -65l-50 38q45 63 106 88.5t136 25.5q50 0 87.5 -13t62.5 -35t37.5 -51t12.5 -60q0 -21 -5.5 -46t-19.5 -48.5t-38.5 -43.5t-62.5 -32v-5z"/>
<glyph glyph-name="afii10026" horiz-adv-x="645" unicode="И" d="M537 0h-66l112 573h-2l-142 -172l-340 -401h-66l136 696h65l-111 -574l2 -1q14 17 39.5 47t53 62.5t53 62.5t40.5 47q4 5 27 32t55 65t69 81.5t69 81t55 64.5t27 32h59z"/>
<glyph glyph-name="afii10027" horiz-adv-x="645" unicode="Й" d="M370 857q-1 -5 -1 -10q0 -22 16 -40t49 -18q38 0 62 21t31 47h59q-5 -21 -17 -42t-31.5 -38.5t-47 -28.5t-63.5 -11q-35 0 -58 11.5t-36 29.5t-16.5 35t-3.5 28q0 8 1 16h56zM537 0h-66l112 573h-2l-142 -172l-340 -401h-66l136 696h65l-111 -574l2 -1q14 17 39.5 47 t53 62.5t53 62.5t40.5 47q4 5 27 32t55 65t69 81.5t69 81t55 64.5t27 32h59z"/>
<glyph glyph-name="afii10028" horiz-adv-x="565" unicode="К" d="M33 0l134 694h67l-59 -305h132q18 0 37 3.5t38.5 15t38.5 32t36 53.5l104 201h69l-101 -198q-26 -51 -57 -85.5t-69 -45.5q44 -13 60.5 -49.5t21.5 -87.5l22 -228h-67l-20 220q-3 35 -13 56.5t-24 33.5t-32 16.5t-39 4.5h-149l-63 -331h-67z"/>
<glyph glyph-name="afii10029" horiz-adv-x="625" unicode="Л" d="M640 696l-135 -696h-67l123 636h-278l-65 -331q-16 -81 -37.5 -136t-50 -91t-64 -56.5t-77.5 -32.5q-5 14 -8 27.5t-8 27.5q33 14 60 30.5t49.5 45.5t40.5 76t33 123l73 377h411z"/>
<glyph glyph-name="afii10030" horiz-adv-x="730" unicode="М" d="M664 542h-3l-99 -158l-183 -278h-57q-11 45 -29.5 113t-37.5 142l-47 181h-2l-105 -542h-66l136 696h65q20 -78 40 -154.5t40 -153.5l49 -200h2l118 185l208 323h66l-136 -696h-65z"/>
<glyph glyph-name="afii10031" horiz-adv-x="618" unicode="Н" d="M436 0l62 322h-333l-63 -322h-67l136 696h66l-61 -314h334l61 314h67l-136 -696h-66z"/>
<glyph glyph-name="afii10032" horiz-adv-x="573" unicode="О" d="M355 640q-47 0 -81.5 -16.5t-58.5 -44t-39 -62.5t-22 -71l-38 -196q-4 -24 -4 -47q0 -13 2.5 -37t20.5 -52t52 -44.5t86 -16.5q43 0 76 15t57 41.5t40.5 63t25.5 79.5q6 27 12.5 56t12.5 58t10.5 56t6.5 51q2 12 2 23q0 21 -8 46.5t-29 48.5t-53 36t-71 13zM361 701 q62 0 107.5 -21t72.5 -56.5t33.5 -69.5t6.5 -57q0 -25 -5 -52q-9 -48 -19 -98t-20 -99q-12 -57 -33 -104t-53.5 -80.5t-78 -51.5t-107.5 -18q-54 0 -95 15.5t-68.5 42.5t-41.5 63.5t-14 78.5q0 25 4.5 56.5t11 65.5t14.5 68.5t15 65.5q10 50 30 95.5t52 80t78 55t110 20.5z "/>
<glyph glyph-name="afii10033" horiz-adv-x="618" unicode="П" d="M436 0l124 637h-334l-124 -637h-67l136 696h467l-136 -696h-66z"/>
<glyph glyph-name="afii10034" horiz-adv-x="553" unicode="Р" d="M529 516q0 60 -36 89t-93 29h-174l-55 -282h185q36 0 67.5 12t55 33.5t37 52t13.5 66.5zM103 0h-67l136 696h238q41 0 75.5 -10.5t60 -31.5t39.5 -53.5t14 -75.5q0 -53 -19.5 -96t-53 -74.5t-78.5 -48.5t-96 -17h-193z"/>
<glyph glyph-name="afii10035" horiz-adv-x="536" unicode="С" d="M517 138q-40 -70 -106.5 -107t-147.5 -37q-62 0 -105 21.5t-68 57.5t-30.5 69.5t-5.5 53.5q0 29 7 59l39 198q10 50 31.5 95t56 79t81.5 54t109 20q81 0 133.5 -38t73.5 -101l-67 -29q-11 45 -47.5 74.5t-90.5 29.5q-49 0 -86 -16t-63 -42.5t-42.5 -61.5t-23.5 -72 l-37 -193q-6 -26 -6 -51q0 -11 2.5 -34t19 -50t47 -43.5t77.5 -16.5q59 0 107.5 30t79.5 81z"/>
<glyph glyph-name="afii10036" horiz-adv-x="473" unicode="Т" d="M354 637l-124 -637h-66l123 637h-199l11 59h465l-11 -59h-199z"/>
<glyph glyph-name="afii10037" horiz-adv-x="525" unicode="У" d="M604 697q-82 -145 -162.5 -287.5t-163.5 -287.5q-23 -40 -45.5 -65.5t-45.5 -40t-46 -20t-47 -5.5h-36l13 60h22q28 0 57.5 15.5t55.5 57.5l19 33q-26 135 -50.5 269t-49.5 269h69l80 -459h3l255 461h72z"/>
<glyph glyph-name="afii10038" horiz-adv-x="715" unicode="Ф" d="M402 608q-67 -3 -118.5 -28.5t-86.5 -68.5t-53 -100.5t-18 -124.5q0 -79 45.5 -124.5t134.5 -51.5zM370 110q72 2 124.5 29.5t87 72.5t51 103.5t16.5 123.5q0 78 -45.5 120.5t-136.5 47.5zM359 55q-2 -14 -4 -27.5t-6 -27.5h-65l11 56q-115 9 -172.5 67t-57.5 156 q0 80 23 149t67.5 120.5t109 81.5t148.5 33l6 33h65l-6 -32q112 -3 173 -60.5t61 -165.5q0 -87 -24.5 -156.5t-70.5 -118.5t-111.5 -76.5t-146.5 -31.5z"/>
<glyph glyph-name="afii10039" horiz-adv-x="502" unicode="Х" d="M386 0l-113 305l-230 -305h-74l278 358l-129 338h70l102 -285l213 285h74l-261 -339l141 -357h-71z"/>
<glyph glyph-name="afii10040" horiz-adv-x="631" unicode="Ц" d="M499 0h-464l133 696h66l-121 -634h334l121 634h67l-121 -636h62l-40 -212h-66z"/>
<glyph glyph-name="afii10041" horiz-adv-x="556" unicode="Ч" d="M457 0h-67l62 316h-2q-46 -31 -97.5 -42t-96.5 -11q-78 0 -127 41.5t-49 119.5q0 12 1 25t4 27l43 220h65l-39 -203q-6 -30 -6 -54q0 -52 27.5 -81.5t98.5 -29.5q48 0 98 14.5t92 43.5q4 20 12.5 63.5t18 91.5t18 91.5t12.5 63.5h67z"/>
<glyph glyph-name="afii10042" horiz-adv-x="901" unicode="Ш" d="M790 0h-761l135 696h68l-124 -634h278l123 634h67l-123 -634h282l123 634h68z"/>
<glyph glyph-name="afii10043" horiz-adv-x="920" unicode="Щ" d="M787 0h-758l132 696h67l-121 -634h278l121 634h67l-121 -634h282l122 634h67l-122 -636h63l-41 -212h-65z"/>
<glyph glyph-name="afii10044" horiz-adv-x="693" unicode="Ъ" d="M603 213q0 54 -32.5 84t-90.5 30h-182l-52 -265h184q35 0 66.5 9t55 28t37.5 47.5t14 66.5zM673 220q0 -52 -19.5 -92.5t-52.5 -69t-76 -43.5t-90 -15h-266l122 633h-202l13 63h267l-60 -309h182q41 0 74.5 -12t57.5 -34t37 -53t13 -68z"/>
<glyph glyph-name="afii10045" horiz-adv-x="724" unicode="Ы" d="M459 213q0 54 -33 84t-90 30h-182l-52 -265h184q35 0 66.5 9t55 28t37.5 47.5t14 66.5zM529 220q0 -52 -19.5 -92.5t-52.5 -69t-76.5 -43.5t-90.5 -15h-266l135 696h66l-60 -309h182q42 0 75.5 -12t57 -34t36.5 -53t13 -68zM624 0h-67l135 696h67z"/>
<glyph glyph-name="afii10046" horiz-adv-x="557" unicode="Ь" d="M465 213q0 54 -32.5 84t-90.5 30h-182l-52 -265h183q35 0 66.5 9t55.5 28t38 47.5t14 66.5zM535 220q0 -52 -20 -92.5t-53 -69t-76 -43.5t-90 -15h-266l135 696h66l-60 -309h181q42 0 75.5 -12t57.5 -34t37 -53t13 -68z"/>
<glyph glyph-name="afii10047" horiz-adv-x="525" unicode="Э" d="M88 563q41 72 98.5 106t138.5 34q61 0 105.5 -21.5t71.5 -57t33.5 -70t6.5 -57.5q0 -26 -5 -53l-40 -198q-10 -51 -31.5 -96.5t-56 -79.5t-82 -54t-108.5 -20q-81 0 -134.5 39.5t-73.5 104.5l67 27q12 -53 48 -80.5t93 -27.5q47 0 83.5 16t62.5 43t42.5 61.5t23.5 72.5 l15 74h-251l12 60h251l11 58q4 22 4 42q0 16 -4 41.5t-23 52.5t-51 43t-76 16q-63 0 -103.5 -29.5t-68.5 -77.5z"/>
<glyph glyph-name="afii10048" horiz-adv-x="739" unicode="Ю" d="M531 640q-47 0 -80.5 -16.5t-57 -44t-37.5 -62.5t-21 -71q-10 -49 -19.5 -97.5t-18.5 -98.5q-5 -27 -5 -53q0 -9 1.5 -31.5t18 -50.5t48 -45t82.5 -17q40 0 71.5 15t55 41.5t39.5 63t25 79.5q12 54 24 114t16 107q2 15 2 29q0 18 -5 41.5t-23 46.5t-47 36.5t-69 13.5z M534 701q64 0 107 -22t67.5 -58t29 -69t4.5 -51q0 -29 -6 -60q-6 -32 -10.5 -57t-9 -47t-9 -43.5t-9.5 -45.5q-12 -58 -32.5 -105t-51.5 -80t-74.5 -51t-101.5 -18q-55 0 -94.5 16.5t-65.5 44.5t-38.5 65t-12.5 79q0 29 6 60t11 63h-93q-15 -81 -31 -161t-31 -161h-67 l135 696h67l-61 -315h94l15 69q10 50 29.5 95.5t51 80t76 55t105.5 20.5z"/>
<glyph glyph-name="afii10049" horiz-adv-x="601" unicode="Я" d="M479 317h-157q-21 0 -43 -5t-43 -17.5t-40.5 -35t-34.5 -58.5l-89 -201h-72l91 210q22 50 48 83t69 46q-26 11 -43.5 26.5t-28 34t-14.5 39t-4 42.5q0 50 17 90t47.5 67.5t72.5 42.5t93 15h272l-135 -696h-67zM350 637q-35 0 -65 -9.5t-52 -28.5t-34.5 -47.5t-12.5 -66.5 q0 -57 36 -83t94 -26h174l51 261h-191z"/>
<glyph glyph-name="afii10065" horiz-adv-x="493" unicode="а" d="M111 168q0 -21 5 -41.5t17 -36.5t31 -26t48 -10q47 0 80.5 28t55.5 69.5t32 88.5t10 85q0 51 -24 85.5t-77 34.5t-87 -30.5t-54.5 -74t-28.5 -91t-8 -81.5zM286 501q19 0 38.5 -4.5t36.5 -14t30.5 -23.5t19.5 -33l3 1l15 68h60l-97 -495h-62l14 65l-3 2 q-30 -37 -64.5 -55t-82.5 -18q-39 0 -66.5 13t-45 36.5t-25.5 55t-8 67.5q0 35 6 73.5t18 75.5t31.5 71t45.5 59.5t60 40.5t76 15z"/>
<glyph glyph-name="afii10066" horiz-adv-x="496" unicode="б" d="M281 417q-46 0 -79.5 -24t-55 -61t-31.5 -82t-10 -88q0 -22 6 -42.5t19.5 -36.5t34.5 -25.5t51 -9.5q48 0 81.5 23t54.5 59t30 80.5t9 87.5q0 52 -25 85.5t-85 33.5zM462 673q-42 -4 -78.5 -7.5t-68 -12t-58.5 -25t-50 -47t-42.5 -78t-35.5 -118.5l4 -2q14 23 33.5 40 t41 28.5t44.5 17t44 5.5q43 0 73.5 -12.5t49 -35t27 -53t8.5 -66.5q0 -56 -12.5 -112t-41 -100.5t-75 -72.5t-113.5 -28q-44 0 -76 12t-53 34t-31 52.5t-10 67.5q0 30 3.5 74t12 94t21.5 102.5t32 99.5q27 69 62.5 106t78.5 55.5t94 24t111 10.5z"/>
<glyph glyph-name="afii10067" horiz-adv-x="493" unicode="в" d="M283 444q-36 0 -62.5 -12t-44.5 -29.5t-28 -37.5t-14 -37l-32 -152q-3 -12 -3 -23q0 -51 31 -76.5t82 -25.5q42 0 74 11.5t54.5 30t34 41t11.5 44.5q0 31 -22 50.5t-72 19.5h-72l11 56h57q46 0 70.5 21.5t24.5 49.5q0 26 -24.5 47.5t-75.5 21.5zM290 501q43 0 74 -11 t50.5 -27.5t28.5 -37t9 -39.5q0 -32 -19.5 -63.5t-55.5 -44.5q39 -10 56.5 -37t18.5 -59q0 -39 -18 -73t-49.5 -60t-75 -41t-95.5 -15q-35 0 -67 8.5t-56 26t-38.5 44.5t-14.5 64q0 14 0.5 27t4.5 27l32 150q7 30 23 59t42.5 51.5t64 36.5t85.5 14z"/>
<glyph glyph-name="afii10068" horiz-adv-x="451" unicode="г" d="M197 -8q-32 0 -63 7t-55 22t-38.5 39t-14.5 59q0 43 18 70.5t47 45.5t65 28.5t72 19.5q30 7 57 15t47 18.5t31.5 25t11.5 35.5q0 19 -8.5 32t-22.5 20t-32 10t-37 3q-42 0 -84.5 -13t-75.5 -36l-33 49q40 28 89 43t99 17q30 0 60 -5.5t54.5 -19t40 -36.5t15.5 -59 q0 -40 -17.5 -66t-44.5 -42.5t-59 -27t-61 -18.5q-26 -7 -55.5 -13t-54.5 -16.5t-41 -27.5t-16 -45q0 -21 9.5 -35t26 -22.5t38.5 -12.5t47 -4q15 0 35 3t42 9t43.5 14.5t39.5 20.5l32 -51q-45 -29 -94 -42.5t-113 -13.5z"/>
<glyph glyph-name="afii10069" horiz-adv-x="499" unicode="д" d="M275 417q-51 0 -84.5 -27t-53.5 -65t-28 -81t-8 -74q0 -23 6 -44.5t19.5 -38.5t36.5 -27.5t56 -10.5q46 0 78.5 25t53 62.5t30 81.5t9.5 82q0 51 -30 84t-85 33zM289 710q100 0 146.5 -62t46.5 -177q0 -35 -4 -84t-14.5 -102t-29.5 -105.5t-48.5 -94t-71.5 -67t-98 -25.5 q-49 0 -82.5 15t-54 39t-29.5 54.5t-9 62.5q0 56 14 111.5t43 100t72.5 72t102.5 27.5q21 0 43 -5.5t41.5 -17t34 -29.5t21.5 -43l5 1q3 23 5 44t2 46q0 39 -6 72.5t-22 57.5t-43.5 38t-70.5 16q-23 0 -53.5 -6t-59.5 -17l-18 52q37 14 71 20t66 6z"/>
<glyph glyph-name="afii10070" horiz-adv-x="462" unicode="е" d="M282 444q-41 0 -70 -16t-49 -41.5t-31.5 -57.5t-17.5 -65q17 -2 34 -2h29q70 0 112 10.5t64.5 25.5t29.5 32.5t7 31.5q0 38 -28 60t-80 22zM285 501q81 0 125 -36t44 -96q0 -32 -13 -61.5t-46 -52t-89 -36t-143 -13.5q-11 0 -28 0.5t-31 1.5q-3 -26 -3 -37 q0 -65 29 -92.5t83 -27.5q15 0 33 3.5t36 9.5t35.5 14t30.5 17l31 -45q-36 -26 -82.5 -41t-91.5 -15q-85 0 -124.5 45t-39.5 132q0 57 13.5 115.5t43 106.5t76 78t111.5 30z"/>
<glyph glyph-name="afii10072" horiz-adv-x="878" unicode="ж" d="M551 221q-32 -53 -63.5 -111t-59.5 -110h-56l69 353q-2 0 -3 1q-19 -36 -36 -65.5t-33.5 -57t-34 -55t-38.5 -58.5q-18 -27 -37.5 -50t-43.5 -39.5t-52.5 -26t-64.5 -9.5q-30 0 -59.5 9t-57.5 29q9 12 17 24.5t17 25.5q20 -14 44 -22.5t44 -8.5q42 0 75 21.5t55.5 57.5 t34.5 84.5t12 102.5t-23.5 88.5t-74.5 34.5q-55 0 -100 -26l-19 51q29 18 62 26.5t68 8.5q29 0 56 -9t47.5 -29t32.5 -52t12 -78q0 -13 -2 -32.5t-4 -39.5q1 0 1.5 -0.5t1.5 -0.5q37 54 68.5 115t64.5 121h51l-70 -358l3 -2q47 86 85.5 154t76 115.5t78.5 72.5t94 25 q29 0 60.5 -8t59.5 -31l-34 -47q-20 14 -44.5 22.5t-45.5 8.5q-39 0 -71.5 -21t-55.5 -58t-36 -88.5t-13 -112.5q0 -51 25 -83.5t82 -32.5q24 0 54 10t53 28q6 -11 13 -22.5t14 -22.5q-59 -48 -146 -48q-31 0 -59 9.5t-49.5 29t-34 50.5t-12.5 75q0 11 1 27.5t3 34.5h-2z "/>
<glyph glyph-name="afii10073" horiz-adv-x="430" unicode="з" d="M230 443q-35 0 -69 -10t-60 -30l-34 46q36 27 80.5 40t92.5 13q81 0 119.5 -34.5t38.5 -84.5q0 -12 -4 -29.5t-14.5 -34.5t-29 -32t-47.5 -24q40 -15 55 -43t15 -59q0 -32 -13 -62.5t-38.5 -53.5t-64 -37t-89.5 -14q-58 0 -102.5 14.5t-71.5 44.5l41 43q17 -17 51 -31 t76 -14q76 0 110 31.5t34 78.5q0 36 -27 55.5t-67 19.5h-59l10 51h55q23 0 44 5t36.5 15.5t25 26.5t9.5 37q0 36 -30 54t-73 18z"/>
<glyph glyph-name="afii10074" horiz-adv-x="515" unicode="и" d="M343 0l14 68h-3q-32 -40 -74 -57t-82 -17q-76 0 -108.5 40.5t-32.5 94.5q0 24 5 51l61 315h61l-59 -306q-4 -22 -4 -41q0 -36 19 -65t87 -29q27 0 52 10t46 29t36 45t21 58l58 299h62l-96 -495h-63z"/>
<glyph glyph-name="afii10075" horiz-adv-x="514" unicode="й" d="M343 0l14 68h-3q-32 -40 -74 -57t-82 -17q-76 0 -108.5 40.5t-32.5 94.5q0 24 5 51l61 315h61l-59 -306q-4 -22 -4 -41q0 -36 19 -65t87 -29q27 0 52 10t46 29t36 45t21 58l58 299h62l-96 -495h-63zM266 705v-6q0 -26 16.5 -45t51.5 -19t62 22t35 48h55 q-6 -21 -17.5 -42.5t-30.5 -39t-46.5 -28.5t-65.5 -11q-35 0 -58 11.5t-36.5 29t-17.5 35.5t-4 33q0 6 1 12h55z"/>
<glyph glyph-name="afii10076" horiz-adv-x="466" unicode="к" d="M22 0l97 496h64l-42 -215h91q14 0 29 2.5t29.5 10t28 22t25.5 37.5l72 143h68l-71 -140q-18 -36 -40 -60.5t-51 -32.5q33 -8 43.5 -34.5t14.5 -63.5l16 -165h-62l-12 150q-6 49 -27 63.5t-55 14.5h-109l-45 -228h-64z"/>
<glyph glyph-name="afii10077" horiz-adv-x="502" unicode="л" d="M392 0h-62l85 440h-202l-33 -171q-14 -73 -32 -122t-41.5 -81t-53 -50t-66.5 -28l-15 51q29 12 51.5 26.5t40.5 40.5t32 67.5t27 107.5l41 214h324z"/>
<glyph glyph-name="afii10078" horiz-adv-x="582" unicode="м" d="M431 0l69 361q-21 -29 -40.5 -59t-42.5 -59l-121 -170h-51q-16 48 -31 94t-30 94l-34 101q-18 -91 -35.5 -181t-34.5 -181h-62l96 494h60l79 -247q11 -32 18.5 -57t13.5 -44l84 118q41 57 80.5 114.5t80.5 115.5h59l-96 -494h-62z"/>
<glyph glyph-name="afii10079" horiz-adv-x="492" unicode="н" d="M395 0h-62l43 225h-253l-44 -225h-62l96 495h62l-42 -219h253l43 219h62z"/>
<glyph glyph-name="afii10080" horiz-adv-x="489" unicode="о" d="M278 445q-50 0 -84 -28t-54 -69.5t-28.5 -90t-8.5 -89.5q0 -17 4.5 -37.5t17 -38.5t35 -30t57.5 -12q49 0 83 24.5t55 63.5t30.5 87.5t9.5 97.5q0 63 -34 92.5t-83 29.5zM287 501q39 0 70.5 -12.5t54 -35t35 -54t12.5 -70.5q0 -59 -12 -119t-40 -108t-74 -78t-113 -30 q-86 0 -132.5 43t-46.5 124q0 67 14.5 128.5t44.5 108.5t76.5 75t110.5 28z"/>
<glyph glyph-name="afii10081" horiz-adv-x="506" unicode="п" d="M339 0l60 307q6 27 6 50q0 27 -11 45t-33 28t-60 10q-27 0 -53 -10t-47.5 -28.5t-36.5 -44.5t-21 -57l-58 -300h-61l96 495h61l-13 -69h2q32 40 75.5 57.5t84.5 17.5q34 0 62.5 -11.5t47.5 -33t24.5 -45t5.5 -41.5q0 -19 -4 -39l-64 -331h-63z"/>
<glyph glyph-name="afii10082" horiz-adv-x="494" unicode="р" d="M126 179q0 -24 5 -46.5t16.5 -39.5t30.5 -27t47 -10q51 0 84.5 27t53 67.5t27 87.5t7.5 87q0 51 -22 83.5t-77 32.5q-47 0 -79.5 -26.5t-53 -66.5t-30 -85.5t-9.5 -83.5zM181 495l-13 -68l2 -1q31 35 69.5 55t86.5 20q37 0 63 -13t42.5 -35t24 -52.5t7.5 -64.5 q0 -54 -12 -114t-39 -111t-71 -84t-107 -33q-44 0 -79 19.5t-55 57.5l-1 -1l-53 -271h-61l135 696h61z"/>
<glyph glyph-name="afii10083" horiz-adv-x="414" unicode="с" d="M371 56q-35 -29 -77 -45.5t-88 -16.5q-90 0 -132.5 52.5t-42.5 138.5q0 60 16.5 117t49.5 101t82.5 71t115.5 27q42 0 81.5 -15.5t66.5 -46.5l-50 -46q-20 21 -47 34.5t-56 13.5q-51 0 -88 -22t-61 -57.5t-35.5 -80t-11.5 -89.5q0 -65 30 -101.5t98 -36.5q29 0 61 15.5 t55 31.5z"/>
<glyph glyph-name="afii10084" horiz-adv-x="838" unicode="т" d="M723 307q5 27 5 51t-9.5 42t-30.5 28.5t-57 10.5q-28 0 -55 -10t-49 -28t-37.5 -43.5t-21.5 -57.5l-58 -300h-62l59 307q5 23 5 45q0 27 -10 46t-31.5 30.5t-58.5 11.5q-28 0 -54 -10t-47 -28t-36.5 -44t-21.5 -58l-59 -300h-61l96 495h61q-3 -17 -6 -35t-7 -35h2 q32 40 74 57.5t82 17.5q55 0 89 -22t48 -62q1 0 1 -1q39 47 82.5 66t95.5 19q39 0 68 -14t47 -38t22.5 -47.5t4.5 -38.5q0 -18 -4 -38l-64 -324h-62z"/>
<glyph glyph-name="afii10085" horiz-adv-x="409" unicode="у" d="M453 495q-57 -155 -115 -281.5t-118 -223.5q-22 -35 -49 -67.5t-60 -58t-73.5 -42t-89.5 -19.5l-2 55q52 6 100.5 33t90.5 86l-82 518h66l34 -238q7 -50 14.5 -108t9.5 -115h3q66 112 116.5 231t89.5 230h65z"/>
<glyph glyph-name="afii10086" horiz-adv-x="584" unicode="ф" d="M290 52q50 1 87.5 22.5t62 57t37 82.5t12.5 100q0 57 -28.5 90t-92.5 38zM304 442q-53 -2 -91 -24.5t-62 -59.5t-35.5 -84.5t-11.5 -98.5q0 -48 28.5 -83t94.5 -40zM379 502q88 -8 131.5 -54t43.5 -124q0 -68 -16 -128t-49.5 -105t-85.5 -71t-123 -27l-37 -192h-63 l36 192q-87 7 -131 56.5t-44 124.5q0 67 17 126.5t51.5 104t86 70.5t120.5 28l43 222h63z"/>
<glyph glyph-name="afii10087" horiz-adv-x="433" unicode="х" d="M298 0l-86 206q-12 -14 -35 -42.5t-48 -60t-48 -60t-34 -43.5h-77l214 255l-109 241h71l79 -197q11 14 33 41t45.5 57t45 57.5t32.5 41.5h78l-206 -244l116 -252h-71z"/>
<glyph glyph-name="afii10088" horiz-adv-x="516" unicode="ц" d="M431 146q-2 -12 -4 -23.5t-2 -23.5q0 -20 10.5 -40.5t37.5 -36.5q-11 -39 -20 -78.5t-20 -79.5h-57l26 134q-37 23 -40 76h-2q-15 -20 -35 -35t-41.5 -25t-44 -14.5t-41.5 -4.5q-64 0 -104.5 32t-40.5 94q0 11 1.5 22.5t3.5 19.5l64 332h61q-14 -78 -29.5 -154 t-29.5 -153q-2 -11 -4 -23t-2 -24q0 -43 26.5 -66t77.5 -23q28 0 54 10.5t47 29t36 45t21 58.5q14 75 28.5 150t29.5 150h61z"/>
<glyph glyph-name="afii10089" horiz-adv-x="449" unicode="ч" d="M144 496l-28 -144q-4 -22 -4 -39q0 -28 14.5 -50t71.5 -22q26 0 69 13t86 40l40 202h62l-97 -496h-62l45 231h-1q-48 -28 -87 -38t-71 -10q-37 0 -65 8.5t-45.5 28t-21 40.5t-3.5 34q0 23 6 52l29 150h62z"/>
<glyph glyph-name="afii10090" horiz-adv-x="832" unicode="ш" d="M123 188q-5 -27 -5 -51t9.5 -42t30.5 -28.5t57 -10.5q28 0 55 10t49 28t37.5 43.5t21.5 57.5l58 300h62l-59 -307q-5 -23 -5 -45q0 -27 10 -46t31.5 -30.5t58.5 -11.5q28 0 54 10t47 28t36.5 44t21.5 58l59 300h61l-96 -495h-61q3 17 6 35t7 35h-2q-32 -40 -74 -57.5 t-82 -17.5q-55 1 -89 23t-48 61q-1 0 -1 1q-39 -47 -82.5 -66t-95.5 -19q-39 0 -68 14t-47 38t-22.5 47.5t-4.5 38.5q0 18 4 38l64 324h62z"/>
<glyph glyph-name="afii10091" horiz-adv-x="832" unicode="щ" d="M378 195q15 75 29.5 150t28.5 150h62q-14 -78 -29.5 -154t-29.5 -154q-2 -11 -3.5 -21t-1.5 -20q0 -48 25 -71t79 -23q28 0 53.5 10.5t46.5 29t36 45t21 58.5l58 300h62l-68 -349q-5 -22 -5 -40q0 -20 9 -44t37 -40l-39 -158h-57l25 134q-38 23 -39 76h-2 q-31 -41 -77 -60t-86 -19q-55 0 -89 22t-46 61q-1 0 -1 1q-38 -48 -84 -66t-98 -18q-65 0 -103.5 36t-38.5 101q1 9 1.5 18t2.5 20l65 325h61l-60 -308q-2 -13 -3.5 -24t-1.5 -22q0 -42 25.5 -65t73.5 -23q28 0 54 10t48 28t37.5 44.5t21.5 59.5z"/>
<glyph glyph-name="afii10092" horiz-adv-x="544" unicode="ъ" d="M295 50q40 0 69 10.5t48 27.5t28.5 38t9.5 43q0 30 -23 52t-79 22h-149l-13 -69q-3 -14 -3 -27q0 -36 24.5 -66.5t87.5 -30.5zM179 442h-142l11 53h202q-3 -13 -8.5 -40.5t-11.5 -58t-11.5 -58t-7.5 -39.5h149q51 0 81.5 -14t47 -33.5t22 -41.5t5.5 -38 q0 -38 -15.5 -70.5t-44 -56.5t-69 -38t-91.5 -14q-99 0 -136 45t-37 100q0 24 6 52z"/>
<glyph glyph-name="afii10093" horiz-adv-x="638" unicode="ы" d="M470 0l97 495h62l-97 -495h-62zM125 243q-3 -17 -6 -34.5t-7 -35.5q-2 -7 -2 -13.5v-12.5q0 -43 28 -70t83 -27q40 0 69 10.5t48 27t28 38t9 42.5q0 31 -23 53t-79 22h-148zM176 495q-11 -50 -20.5 -99t-19.5 -98h149q51 0 81.5 -14t47 -33.5t22 -41.5t5.5 -38 q0 -38 -15 -70.5t-43.5 -56.5t-69 -37.5t-91.5 -13.5q-85 0 -128.5 39t-43.5 108q0 12 1.5 24t3.5 26l60 305h61z"/>
<glyph glyph-name="afii10094" horiz-adv-x="473" unicode="ь" d="M222 50q40 0 68.5 10.5t47.5 27.5t28 38t9 43q0 30 -23 52t-79 22h-147l-13 -69q-3 -15 -3 -28q0 -35 24.5 -65.5t87.5 -30.5zM176 495q-3 -13 -8.5 -40.5t-11.5 -58t-11.5 -58t-7.5 -39.5h148q51 0 81.5 -14t47 -33.5t22 -41.5t5.5 -38q0 -38 -15 -70.5t-43.5 -56.5 t-69 -38t-90.5 -14q-99 0 -136.5 45t-37.5 101q0 24 6 51l60 305h61z"/>
<glyph glyph-name="afii10095" horiz-adv-x="421" unicode="э" d="M66 455q33 22 67 34t82 12q93 0 140.5 -53.5t47.5 -147.5q0 -59 -14.5 -114t-45 -98t-77 -68.5t-110.5 -25.5q-20 0 -43 4t-44.5 11.5t-41 19t-32.5 27.5l43 45q9 -11 23.5 -20t30.5 -15t32.5 -9.5t29.5 -3.5q42 0 72 14t51 38t33 55t17 66h-199l9 51h199q1 8 1.5 16 t0.5 17q0 62 -33 97t-98 35q-28 0 -58.5 -10.5t-53.5 -27.5z"/>
<glyph glyph-name="afii10096" horiz-adv-x="624" unicode="ю" d="M426 445q-50 0 -82.5 -28.5t-52 -71t-27.5 -91t-8 -88.5q0 -17 4.5 -37.5t16 -38t32 -29t52.5 -11.5q51 0 85 25.5t54.5 65.5t29 89t8.5 96q0 61 -32.5 90t-79.5 29zM435 501q77 0 121 -46.5t44 -122.5q0 -70 -14 -131.5t-43.5 -107.5t-74 -72.5t-104.5 -26.5 q-81 0 -125 42.5t-44 120.5q0 16 1 33t3 35h-69l-45 -225h-61l95 495h63l-43 -219h68q22 106 80.5 165.5t147.5 59.5z"/>
<glyph glyph-name="afii10097" horiz-adv-x="483" unicode="я" d="M373 266q8 45 17 87.5t17 86.5h-166q-21 0 -40.5 -6t-34.5 -18.5t-24.5 -32t-9.5 -46.5q0 -35 28 -53t70 -18h143zM223 215q-34 -1 -63 -15.5t-48 -60.5l-57 -139h-63q14 35 28.5 70t28.5 71q13 31 34.5 59t54.5 37q-35 14 -51 41t-16 64q0 33 12.5 61.5t34.5 48.5 t52 31.5t66 11.5h241l-94 -495h-62l42 215h-140z"/>
<glyph glyph-name="afii10071" horiz-adv-x="462" unicode="ё" d="M179 609l14 72h70l-14 -72h-70zM362 609l13 72h71l-14 -72h-70zM282 444q-41 0 -70 -16t-49 -41.5t-31.5 -57.5t-17.5 -65q17 -2 34 -2h29q70 0 112 10.5t64.5 25.5t29.5 32.5t7 31.5q0 38 -28 60t-80 22zM285 501q81 0 125 -36t44 -96q0 -32 -13 -61.5t-46 -52t-89 -36 t-143 -13.5q-11 0 -28 0.5t-31 1.5q-3 -26 -3 -37q0 -65 29 -92.5t83 -27.5q15 0 33 3.5t36 9.5t35.5 14t30.5 17l31 -45q-36 -26 -82.5 -41t-91.5 -15q-85 0 -124.5 45t-39.5 132q0 57 13.5 115.5t43 106.5t76 78t111.5 30z"/>
<glyph glyph-name="afii10099" horiz-adv-x="509" unicode="ђ" d="M172 414q34 44 75 63t89 19q66 0 108 -44t42 -135q0 -64 -14.5 -123t-47 -104t-83.5 -72.5t-123 -27.5q-7 0 -11.5 0.5t-12.5 1.5l11 55q6 -1 12.5 -1h11.5q47 0 83 21t60 56t36.5 80.5t12.5 95.5q0 30 -6 55.5t-19.5 44t-35.5 29t-55 10.5q-27 0 -53.5 -11.5t-48.5 -34 t-39 -55.5t-25 -75l-50 -262h-63l112 578h-60l10 53h61l18 94h62l-18 -94h241l-10 -53h-241l-32 -164h3z"/>
<glyph glyph-name="afii10100" horiz-adv-x="461" unicode="ѓ" d="M197 -8q-32 0 -63 7t-55 22t-38.5 39t-14.5 59q0 43 18 70.5t47 45.5t65 28.5t72 19.5q30 7 57 15t47 18.5t31.5 25t11.5 35.5q0 19 -8.5 32t-22.5 20t-32 10t-37 3q-42 0 -84.5 -13t-75.5 -36l-33 49q40 28 89 43t99 17q30 0 60 -5.5t54.5 -19t40 -36.5t15.5 -59 q0 -40 -17.5 -66t-44.5 -42.5t-59 -27t-61 -18.5q-26 -7 -55.5 -13t-54.5 -16.5t-41 -27.5t-16 -45q0 -21 9.5 -35t26 -22.5t38.5 -12.5t47 -4q15 0 35 3t42 9t43.5 14.5t39.5 20.5l32 -51q-45 -29 -94 -42.5t-113 -13.5zM257 573l98 166l61 -22l-122 -160z"/>
<glyph glyph-name="afii10101" horiz-adv-x="413" unicode="є" d="M209 -6q-89 0 -132 52t-43 138q0 60 16.5 117t49.5 101.5t81.5 71.5t112.5 27q41 0 80.5 -15.5t66.5 -46.5l-44 -45q-20 21 -47.5 34t-56.5 13q-39 0 -70 -13.5t-54 -36t-38.5 -52.5t-23.5 -63h203l-9 -50h-202q-2 -8 -2 -15v-15q0 -68 29.5 -105t97.5 -37q29 0 60.5 14 t55.5 32q8 -11 16.5 -22.5t17.5 -22.5q-36 -32 -78 -46.5t-87 -14.5z"/>
<glyph glyph-name="afii10102" horiz-adv-x="457" unicode="ѕ" d="M192 -6q-26 0 -52.5 4.5t-52 13t-48.5 21.5t-41 30l42 48q28 -31 69 -45t84 -14q25 0 49.5 4.5t43.5 14.5t30.5 26t11.5 40q0 40 -26 58t-68 29q-26 6 -53.5 13.5t-50.5 21t-38 36t-15 59.5q0 40 16 68t42 45.5t60.5 25.5t70.5 8q41 0 83.5 -11.5t74.5 -40.5l-39 -49 q-29 22 -58.5 32.5t-64.5 10.5q-21 0 -42.5 -4t-39 -14.5t-28.5 -27.5t-11 -42q0 -18 9.5 -30.5t25.5 -20.5t36 -14t41 -11q26 -6 51 -14.5t44.5 -23t31.5 -37t12 -56.5q0 -39 -15.5 -68t-42.5 -48t-63.5 -28.5t-78.5 -9.5z"/>
<glyph glyph-name="afii10103" horiz-adv-x="208" unicode="і" d="M33 0l96 495h62l-96 -495h-62zM154 631l13 65h64l-13 -65h-64z"/>
<glyph glyph-name="afii10104" horiz-adv-x="208" unicode="ї" d="M48 602l14 72h71l-14 -72h-71zM230 602l14 72h71l-13 -72h-72zM33 0l96 495h62l-96 -495h-62z"/>
<glyph glyph-name="afii10105" horiz-adv-x="226" unicode="ј" d="M166 631q0 3 2 12.5t4 20t3.5 20t2.5 12.5h65l-13 -65h-64zM92 -72q-11 -60 -50 -95.5t-99 -35.5h-30l10 57q2 0 12.5 -0.5t11.5 0.5q32 1 53.5 21t29.5 58l109 562h63z"/>
<glyph glyph-name="afii10106" horiz-adv-x="726" unicode="љ" d="M491 50q40 0 69 10.5t48 27.5t28 38t9 43q0 30 -23 52t-79 22h-148l-13 -69q-3 -14 -3 -27q0 -36 24.5 -66.5t87.5 -30.5zM373 440h-150l-31 -158q-14 -72 -33 -123t-44 -85.5t-55.5 -54.5t-68.5 -30l-16 51q30 12 53.5 28t42.5 43.5t34 71t28 111.5l39 202h274l-40 -197 h150q50 0 80.5 -14t47 -33.5t22 -41.5t5.5 -38q0 -38 -15 -70.5t-43.5 -56.5t-69 -38t-91.5 -14q-99 0 -136 45t-37 100q0 24 6 52z"/>
<glyph glyph-name="afii10107" horiz-adv-x="746" unicode="њ" d="M496 50q40 0 69 10.5t48 27.5t28 38t9 43q0 30 -23 52t-79 22h-148l-13 -69q-3 -14 -3 -27q0 -36 24.5 -66.5t87.5 -30.5zM451 495l-40 -196h150q50 0 80.5 -14t47 -33.5t22 -41.5t5.5 -38q0 -38 -15 -70.5t-43.5 -56.5t-69 -38t-91.5 -14q-99 0 -136 45t-37 100 q0 24 6 52l10 53h-211l-47 -243h-62q4 20 11.5 59t16.5 87t19.5 101t20 101t17 87t11.5 60h62q-3 -13 -8 -40.5t-11 -58t-11 -58t-8 -39.5h211l39 196h61z"/>
<glyph glyph-name="afii10108" horiz-adv-x="520" unicode="ћ" d="M166 418h3q32 40 75.5 58.5t85.5 18.5q37 0 65.5 -12.5t46.5 -35t22.5 -45.5t4.5 -39q0 -19 -4 -41l-61 -322h-63l58 301q4 23 4 41q0 36 -20.5 63.5t-80.5 27.5q-24 0 -50 -10.5t-48 -29t-38.5 -44t-22.5 -56.5l-57 -293h-60l112 583h-59l11 53h59l18 89h61l-19 -89h227 l-10 -53h-226z"/>
<glyph glyph-name="afii10109" horiz-adv-x="466" unicode="ќ" d="M22 0l97 496h64l-42 -215h91q14 0 29 2.5t29.5 10t28 22t25.5 37.5l72 143h68l-71 -140q-18 -36 -40 -60.5t-51 -32.5q33 -8 43.5 -34.5t14.5 -63.5l16 -165h-62l-12 150q-6 49 -27 63.5t-55 14.5h-109l-45 -228h-64zM259 566l98 166l61 -22l-122 -160z"/>
<glyph glyph-name="afii10110" horiz-adv-x="409" unicode="ў" d="M194 703v-5q0 -22 16.5 -44t51.5 -22t60.5 21.5t32.5 49.5h59q-6 -22 -18 -44.5t-31 -40.5t-45 -29t-61 -11q-68 0 -94.5 33.5t-26.5 76.5q0 8 1 15h55zM453 495q-57 -155 -115 -281.5t-118 -223.5q-22 -35 -49 -67.5t-60 -58t-73.5 -42t-89.5 -19.5l-2 55q52 6 100.5 33 t90.5 86l-82 518h66l34 -238q7 -50 14.5 -108t9.5 -115h3q66 112 116.5 231t89.5 230h65z"/>
<glyph glyph-name="afii10193" horiz-adv-x="515" unicode="џ" d="M343 0l14 68h-3q-32 -40 -74 -57t-82 -17q-76 0 -108.5 40.5t-32.5 94.5q0 24 5 51l61 315h61l-59 -306q-4 -22 -4 -41q0 -36 19 -65t87 -29q27 0 52 10t46 29t36 45t21 58l58 299h62l-96 -495h-63zM172 -187l32 151l66 10l-39 -161h-59z"/>
<glyph glyph-name="afii10050" horiz-adv-x="509" unicode="Ґ" d="M573 634h-352l-120 -634h-65l129 696h356l22 113h62z"/>
<glyph glyph-name="afii10098" horiz-adv-x="408" unicode="ґ" d="M440 439h-274l-84 -439h-62l93 495h279l20 100h58z"/>
<glyph glyph-name="schwacyrillic" horiz-adv-x="466" unicode="ә" d="M214 52q41 0 70 16t49 41.5t31.5 57.5t17.5 65q-17 2 -34 2h-29q-70 0 -112 -10.5t-64.5 -25.5t-29.5 -32.5t-7 -31.5q0 -38 28 -60t80 -22zM211 -5q-81 0 -125 36t-44 96q0 32 13 61.5t46 52t89 36t143 13.5q11 0 28 -0.5t31 -1.5q3 25 3 37q0 65 -29 92.5t-83 27.5 q-15 0 -33 -3.5t-36 -9.5t-35.5 -14t-30.5 -17l-31 45q36 26 82.5 41t91.5 15q85 0 124.5 -45t39.5 -132q0 -57 -13.5 -115.5t-43 -106.5t-76 -78t-111.5 -30z"/>
<glyph glyph-name="Wgrave" horiz-adv-x="800" unicode="Ẁ" d="M515 734l-174 98l38 50l160 -115zM573 0h-60l-27 361l-15 212h-2l-87 -190q-45 -97 -88.5 -192t-88.5 -191h-60q-8 175 -16.5 348t-17.5 348h66q4 -128 7.5 -216.5t6 -152t4 -109t3.5 -88.5h3l103 227q40 85 79.5 169.5t78.5 169.5h61l26 -332q3 -36 5.5 -71t5 -66 t4 -56.5t3.5 -41.5h3l77 186q41 96 80.5 190t79.5 191h70z"/>
<glyph glyph-name="wgrave" horiz-adv-x="697" unicode="ẁ" d="M383 559l-95 163l54 19l79 -168zM368 416q-25 -59 -49 -111.5t-49 -103t-52 -100t-57 -101.5h-61l-56 496h64l26 -291q2 -29 4 -64t4 -68h3q53 94 100.5 199.5t100.5 223.5h71l31 -278q4 -32 7 -69t3 -78h2q55 100 106 210t94 215h66q-29 -71 -58 -133.5t-59.5 -122 t-63.5 -118.5t-70 -122h-60l-33 275q-2 24 -5.5 61.5t-4.5 79.5h-4z"/>
<glyph glyph-name="Wacute" horiz-adv-x="800" unicode="Ẃ" d="M473 767l163 115l37 -50l-177 -98zM573 0h-60l-27 361l-15 212h-2l-87 -190q-45 -97 -88.5 -192t-88.5 -191h-60q-8 175 -16.5 348t-17.5 348h66q4 -128 7.5 -216.5t6 -152t4 -109t3.5 -88.5h3l103 227q40 85 79.5 169.5t78.5 169.5h61l26 -332q3 -36 5.5 -71t5 -66 t4 -56.5t3.5 -41.5h3l77 186q41 96 80.5 190t79.5 191h70z"/>
<glyph glyph-name="wacute" horiz-adv-x="697" unicode="ẃ" d="M375 573l98 166l61 -22l-122 -160zM368 416q-25 -59 -49 -111.5t-49 -103t-52 -100t-57 -101.5h-61l-56 496h64l26 -291q2 -29 4 -64t4 -68h3q53 94 100.5 199.5t100.5 223.5h71l31 -278q4 -32 7 -69t3 -78h2q55 100 106 210t94 215h66q-29 -71 -58 -133.5t-59.5 -122 t-63.5 -118.5t-70 -122h-60l-33 275q-2 24 -5.5 61.5t-4.5 79.5h-4z"/>
<glyph glyph-name="Wdieresis" horiz-adv-x="800" unicode="Ẅ" d="M560 751l14 71h72l-14 -71h-72zM381 751l14 71h72l-14 -71h-72zM573 0h-60l-27 361l-15 212h-2l-87 -190q-45 -97 -88.5 -192t-88.5 -191h-60q-8 175 -16.5 348t-17.5 348h66q4 -128 7.5 -216.5t6 -152t4 -109t3.5 -88.5h3l103 227q40 85 79.5 169.5t78.5 169.5h61 l26 -332q3 -36 5.5 -71t5 -66t4 -56.5t3.5 -41.5h3l77 186q41 96 80.5 190t79.5 191h70z"/>
<glyph glyph-name="wdieresis" horiz-adv-x="697" unicode="ẅ" d="M283 602l14 72h70l-14 -72h-70zM466 602l13 72h71l-14 -72h-70zM368 416q-25 -59 -49 -111.5t-49 -103t-52 -100t-57 -101.5h-61l-56 496h64l26 -291q2 -29 4 -64t4 -68h3q53 94 100.5 199.5t100.5 223.5h71l31 -278q4 -32 7 -69t3 -78h2q55 100 106 210t94 215h66 q-29 -71 -58 -133.5t-59.5 -122t-63.5 -118.5t-70 -122h-60l-33 275q-2 24 -5.5 61.5t-4.5 79.5h-4z"/>
<glyph glyph-name="Ygrave" horiz-adv-x="482" unicode="Ỳ" d="M373 734l-174 98l38 50l160 -115zM231 0h-63l56 287q-31 103 -62 204.5t-63 204.5h65q14 -50 30 -102t36 -120q9 -33 19 -69t15 -57l96 143q4 6 15 22t25 36.5t30 44t30 44t24.5 36.5t14.5 22h71q-71 -103 -141 -204.5t-142 -204.5z"/>
<glyph glyph-name="ygrave" horiz-adv-x="409" unicode="ỳ" d="M250 559l-95 163l54 19l79 -168zM453 495q-57 -155 -115 -281.5t-118 -223.5q-22 -35 -49 -67.5t-60 -58t-73.5 -42t-89.5 -19.5l-2 55q52 6 100.5 33t90.5 86l-82 518h66l34 -238q7 -50 14.5 -108t9.5 -115h3q66 112 116.5 231t89.5 230h65z"/>
<glyph glyph-name="uni1F00" horiz-adv-x="493" unicode="ἀ" d="M298 577q17 20 26.5 41.5t9.5 37.5q0 17 -11 30t-41 19l36 64q40 -9 62.5 -29.5t22.5 -52.5q0 -20 -15.5 -55.5t-58.5 -70.5zM115 168q0 -51 21.5 -81.5t78.5 -30.5q45 0 77.5 28t53.5 69t31 87.5t10 84.5q0 50 -21.5 83t-76.5 33q-49 0 -82.5 -30t-53.5 -72.5t-29 -89.5 t-9 -81zM286 501q42 0 74.5 -18.5t50.5 -56.5l3 1l13 68h62l-97 -495h-62l15 69l-3 2q-60 -77 -155 -77q-38 0 -64 12t-42.5 34t-24 51.5t-7.5 64.5q0 54 13 115t41 112t73 84.5t110 33.5z"/>
<glyph glyph-name="uni1F01" horiz-adv-x="493" unicode="ἁ" d="M350 576q-10 -4 -18.5 -8t-18.5 -8q-23 25 -32.5 51.5t-9.5 47.5q0 44 31.5 71t82.5 38l13 -64q-22 -4 -35 -11.5t-19.5 -17.5t-8.5 -21.5t-2 -24.5q2 -13 5.5 -26.5t11.5 -26.5zM115 168q0 -51 21.5 -81.5t78.5 -30.5q45 0 77.5 28t53.5 69t31 87.5t10 84.5 q0 50 -21.5 83t-76.5 33q-49 0 -82.5 -30t-53.5 -72.5t-29 -89.5t-9 -81zM286 501q42 0 74.5 -18.5t50.5 -56.5l3 1l13 68h62l-97 -495h-62l15 69l-3 2q-60 -77 -155 -77q-38 0 -64 12t-42.5 34t-24 51.5t-7.5 64.5q0 54 13 115t41 112t73 84.5t110 33.5z"/>
<glyph glyph-name="uni1F02" horiz-adv-x="493" unicode="ἂ" d="M295 755l79 14l92 -194l-35 -13zM188 577q17 20 26.5 41.5t9.5 37.5q0 17 -11 30t-41 19l35 64q41 -9 63.5 -29.5t22.5 -52.5q0 -20 -15.5 -55.5t-58.5 -70.5zM115 168q0 -51 21.5 -81.5t78.5 -30.5q45 0 77.5 28t53.5 69t31 87.5t10 84.5q0 50 -21.5 83t-76.5 33 q-49 0 -82.5 -30t-53.5 -72.5t-29 -89.5t-9 -81zM286 501q42 0 74.5 -18.5t50.5 -56.5l3 1l13 68h62l-97 -495h-62l15 69l-3 2q-60 -77 -155 -77q-38 0 -64 12t-42.5 34t-24 51.5t-7.5 64.5q0 54 13 115t41 112t73 84.5t110 33.5z"/>
<glyph glyph-name="uni1F03" horiz-adv-x="493" unicode="ἃ" d="M425 562l-135 192l78 14l93 -193zM194 556q-23 25 -32.5 51.5t-9.5 47.5q0 44 31.5 71t82.5 38l13 -64q-38 -8 -51.5 -25t-13.5 -38q0 -13 4 -31t12 -34zM115 168q0 -51 21.5 -81.5t78.5 -30.5q45 0 77.5 28t53.5 69t31 87.5t10 84.5q0 50 -21.5 83t-76.5 33 q-49 0 -82.5 -30t-53.5 -72.5t-29 -89.5t-9 -81zM286 501q42 0 74.5 -18.5t50.5 -56.5l3 1l13 68h62l-97 -495h-62l15 69l-3 2q-60 -77 -155 -77q-38 0 -64 12t-42.5 34t-24 51.5t-7.5 64.5q0 54 13 115t41 112t73 84.5t110 33.5z"/>
<glyph glyph-name="uni1F04" horiz-adv-x="493" unicode="ἄ" d="M381 561l-33 12l116 195l73 -14zM247 575q17 22 26 43t9 38q0 16 -10.5 28.5t-40.5 19.5l35 64q42 -9 64.5 -30t22.5 -53q0 -20 -16 -55t-59 -70zM115 168q0 -51 21.5 -81.5t78.5 -30.5q45 0 77.5 28t53.5 69t31 87.5t10 84.5q0 50 -21.5 83t-76.5 33q-49 0 -82.5 -30 t-53.5 -72.5t-29 -89.5t-9 -81zM286 501q42 0 74.5 -18.5t50.5 -56.5l3 1l13 68h62l-97 -495h-62l15 69l-3 2q-60 -77 -155 -77q-38 0 -64 12t-42.5 34t-24 51.5t-7.5 64.5q0 54 13 115t41 112t73 84.5t110 33.5z"/>
<glyph glyph-name="uni1F05" horiz-adv-x="493" unicode="ἅ" d="M357 562l-34 13l122 194l73 -14zM241 560q-23 25 -32.5 50.5t-9.5 47.5q0 45 31 72t81 38l15 -64q-41 -8 -54 -26.5t-13 -39.5q0 -14 5 -30.5t13 -32.5zM115 168q0 -51 21.5 -81.5t78.5 -30.5q45 0 77.5 28t53.5 69t31 87.5t10 84.5q0 50 -21.5 83t-76.5 33 q-49 0 -82.5 -30t-53.5 -72.5t-29 -89.5t-9 -81zM286 501q42 0 74.5 -18.5t50.5 -56.5l3 1l13 68h62l-97 -495h-62l15 69l-3 2q-60 -77 -155 -77q-38 0 -64 12t-42.5 34t-24 51.5t-7.5 64.5q0 54 13 115t41 112t73 84.5t110 33.5z"/>
<glyph glyph-name="uni1F06" horiz-adv-x="493" unicode="ἆ" d="M287 822q18 0 35.5 -6.5t34.5 -15t32.5 -15t30.5 -6.5q16 0 30 9t33 31l36 -22q-22 -41 -49.5 -58t-55.5 -17q-18 0 -35.5 6.5t-35 15t-33.5 15t-30 6.5q-18 0 -31 -8t-34 -28l-34 22q25 38 51.5 54.5t54.5 16.5zM289 548q38 41 38 70q0 14 -11 23.5t-40 14.5l33 54 q39 -8 60.5 -24t21.5 -42q0 -17 -14.5 -45t-58.5 -62zM115 168q0 -51 21.5 -81.5t78.5 -30.5q45 0 77.5 28t53.5 69t31 87.5t10 84.5q0 50 -21.5 83t-76.5 33q-49 0 -82.5 -30t-53.5 -72.5t-29 -89.5t-9 -81zM286 501q42 0 74.5 -18.5t50.5 -56.5l3 1l13 68h62l-97 -495h-62 l15 69l-3 2q-60 -77 -155 -77q-38 0 -64 12t-42.5 34t-24 51.5t-7.5 64.5q0 54 13 115t41 112t73 84.5t110 33.5z"/>
<glyph glyph-name="uni1F07" horiz-adv-x="493" unicode="ἇ" d="M275 824q18 0 35.5 -6.5t34 -15t32.5 -15t31 -6.5t29.5 9t33.5 31l37 -22q-22 -41 -50 -58t-57 -17q-18 0 -35.5 6.5t-34.5 15t-33 15t-30 6.5q-18 0 -31 -8t-34 -28l-33 22q23 38 50 54.5t55 16.5zM301 536q-24 26 -33.5 48.5t-9.5 39.5q0 35 26.5 56t74.5 29l14 -53 q-36 -7 -48.5 -19.5t-12.5 -30.5q0 -24 22 -59zM115 168q0 -51 21.5 -81.5t78.5 -30.5q45 0 77.5 28t53.5 69t31 87.5t10 84.5q0 50 -21.5 83t-76.5 33q-49 0 -82.5 -30t-53.5 -72.5t-29 -89.5t-9 -81zM286 501q42 0 74.5 -18.5t50.5 -56.5l3 1l13 68h62l-97 -495h-62l15 69 l-3 2q-60 -77 -155 -77q-38 0 -64 12t-42.5 34t-24 51.5t-7.5 64.5q0 54 13 115t41 112t73 84.5t110 33.5z"/>
<glyph glyph-name="uni1F08" horiz-adv-x="580" unicode="Ἀ" d="M84 521q17 20 26.5 41.5t9.5 37.5q0 17 -11 30t-41 19l36 64q40 -9 62.5 -29.5t22.5 -52.5q0 -20 -15.5 -55.5t-58.5 -70.5zM368 616q-5 -10 -20.5 -39.5t-37 -69.5t-45.5 -85t-45.5 -85.5t-38 -71.5t-22.5 -42h268q-3 21 -7.5 53t-10 69t-11 77t-11 76.5t-10 67 t-7.5 50.5h-2zM459 0q-6 42 -12 82.5t-13 82.5h-305l-89 -165h-71q96 175 191.5 348t192.5 348h62l114 -696h-70z"/>
<glyph glyph-name="uni1F09" horiz-adv-x="580" unicode="Ἁ" d="M125 521q-10 -4 -18.5 -8t-18.5 -8q-23 25 -32.5 51.5t-9.5 47.5q0 44 31.5 71t82.5 38l13 -64q-22 -4 -35 -11.5t-19.5 -17.5t-8.5 -21.5t-2 -24.5q2 -13 5.5 -26.5t11.5 -26.5zM368 616q-5 -10 -20.5 -39.5t-37 -69.5t-45.5 -85t-45.5 -85.5t-38 -71.5t-22.5 -42h268 q-3 21 -7.5 53t-10 69t-11 77t-11 76.5t-10 67t-7.5 50.5h-2zM459 0q-6 42 -12 82.5t-13 82.5h-305l-89 -165h-71q96 175 191.5 348t192.5 348h62l114 -696h-70z"/>
<glyph glyph-name="uni1F0A" horiz-adv-x="580" unicode="Ἂ" d="M20 699l79 14l92 -194l-35 -13zM-87 521q17 20 26.5 41.5t9.5 37.5q0 17 -11 30t-41 19l35 64q41 -9 63.5 -29.5t22.5 -52.5q0 -20 -15.5 -55.5t-58.5 -70.5zM368 616q-5 -10 -20.5 -39.5t-37 -69.5t-45.5 -85t-45.5 -85.5t-38 -71.5t-22.5 -42h268q-3 21 -7.5 53t-10 69 t-11 77t-11 76.5t-10 67t-7.5 50.5h-2zM459 0q-6 42 -12 82.5t-13 82.5h-305l-89 -165h-71q96 175 191.5 348t192.5 348h62l114 -696h-70z"/>
<glyph glyph-name="uni1F0B" horiz-adv-x="580" unicode="Ἃ" d="M158 507l-135 192l78 14l93 -193zM-73 501q-23 25 -32.5 51.5t-9.5 47.5q0 44 31.5 71t82.5 38l13 -64q-38 -8 -51.5 -25t-13.5 -38q0 -13 4 -31t12 -34zM368 616q-5 -10 -20.5 -39.5t-37 -69.5t-45.5 -85t-45.5 -85.5t-38 -71.5t-22.5 -42h268q-3 21 -7.5 53t-10 69 t-11 77t-11 76.5t-10 67t-7.5 50.5h-2zM459 0q-6 42 -12 82.5t-13 82.5h-305l-89 -165h-71q96 175 191.5 348t192.5 348h62l114 -696h-70z"/>
<glyph glyph-name="uni1F0C" horiz-adv-x="580" unicode="Ἄ" d="M77 504l-33 12l116 195l73 -14zM-57 518q17 22 26 43t9 38q0 16 -10.5 28.5t-40.5 19.5l35 64q42 -9 64.5 -30t22.5 -53q0 -20 -16 -55t-59 -70zM368 616q-5 -10 -20.5 -39.5t-37 -69.5t-45.5 -85t-45.5 -85.5t-38 -71.5t-22.5 -42h268q-3 21 -7.5 53t-10 69t-11 77 t-11 76.5t-10 67t-7.5 50.5h-2zM459 0q-6 42 -12 82.5t-13 82.5h-305l-89 -165h-71q96 175 191.5 348t192.5 348h62l114 -696h-70z"/>
<glyph glyph-name="uni1F0D" horiz-adv-x="580" unicode="Ἅ" d="M75 507l-34 13l122 194l73 -14zM-41 505q-23 25 -32.5 50.5t-9.5 47.5q0 45 31 72t81 38l15 -64q-41 -8 -54 -26.5t-13 -39.5q0 -14 5 -30.5t13 -32.5zM368 616q-5 -10 -20.5 -39.5t-37 -69.5t-45.5 -85t-45.5 -85.5t-38 -71.5t-22.5 -42h268q-3 21 -7.5 53t-10 69 t-11 77t-11 76.5t-10 67t-7.5 50.5h-2zM459 0q-6 42 -12 82.5t-13 82.5h-305l-89 -165h-71q96 175 191.5 348t192.5 348h62l114 -696h-70z"/>
<glyph glyph-name="uni1F0E" horiz-adv-x="580" unicode="Ἆ" d="M-12 442q38 41 38 70q0 14 -11 23.5t-40 14.5l33 54q39 -8 60.5 -24t21.5 -42q0 -17 -14.5 -45t-58.5 -62zM-14 716q18 0 35.5 -6.5t34.5 -15t32.5 -15t30.5 -6.5q16 0 30 9t33 31l36 -22q-22 -41 -49.5 -58t-55.5 -17q-18 0 -35.5 6.5t-35 15t-33.5 15t-30 6.5 q-18 0 -31 -8t-34 -28l-34 22q25 38 51.5 54.5t54.5 16.5zM368 616q-5 -10 -20.5 -39.5t-37 -69.5t-45.5 -85t-45.5 -85.5t-38 -71.5t-22.5 -42h268q-3 21 -7.5 53t-10 69t-11 77t-11 76.5t-10 67t-7.5 50.5h-2zM459 0q-6 42 -12 82.5t-13 82.5h-305l-89 -165h-71 q96 175 191.5 348t192.5 348h62l114 -696h-70z"/>
<glyph glyph-name="uni1F0F" horiz-adv-x="580" unicode="Ἇ" d="M10 431q-24 26 -33.5 48.5t-9.5 39.5q0 35 26.5 56t74.5 29l14 -53q-36 -7 -48.5 -19.5t-12.5 -30.5q0 -24 22 -59zM-16 719q18 0 35.5 -6.5t34 -15t32.5 -15t31 -6.5t29.5 9t33.5 31l37 -22q-22 -41 -50 -58t-57 -17q-18 0 -35.5 6.5t-34.5 15t-33 15t-30 6.5 q-18 0 -31 -8t-34 -28l-33 22q23 38 50 54.5t55 16.5zM368 616q-5 -10 -20.5 -39.5t-37 -69.5t-45.5 -85t-45.5 -85.5t-38 -71.5t-22.5 -42h268q-3 21 -7.5 53t-10 69t-11 77t-11 76.5t-10 67t-7.5 50.5h-2zM459 0q-6 42 -12 82.5t-13 82.5h-305l-89 -165h-71 q96 175 191.5 348t192.5 348h62l114 -696h-70z"/>
<glyph glyph-name="uni1F10" horiz-adv-x="425" unicode="ἐ" d="M288 577q17 20 26.5 41.5t9.5 37.5q0 17 -11 30t-41 19l36 64q40 -9 62.5 -29.5t22.5 -52.5q0 -20 -15.5 -55.5t-58.5 -70.5zM147 263q-60 20 -60 87q0 39 18 67.5t46.5 47t63.5 27.5t70 9q41 0 85 -14t72 -44l-45 -47q-18 20 -49 32.5t-60 12.5q-23 0 -46.5 -5 t-42.5 -16.5t-31 -28.5t-12 -41q0 -23 11 -35.5t27 -18.5t35 -7t34 -1h46l-10 -54h-73q-21 0 -43.5 -6.5t-40.5 -19.5t-29.5 -32.5t-11.5 -45.5q0 -23 11 -38t27.5 -23t36.5 -11t39 -3q33 0 67 14t59 32l39 -46q-38 -30 -84.5 -44.5t-95.5 -14.5q-29 0 -58.5 6.5t-52.5 21 t-37.5 38t-14.5 57.5q0 51 31.5 90t78.5 53v1z"/>
<glyph glyph-name="uni1F11" horiz-adv-x="425" unicode="ἑ" d="M326 576q-10 -4 -18.5 -8t-18.5 -8q-23 25 -32.5 51.5t-9.5 47.5q0 44 31.5 71t82.5 38l13 -64q-22 -4 -35 -11.5t-19.5 -17.5t-8.5 -21.5t-2 -24.5q2 -13 5.5 -26.5t11.5 -26.5zM147 263q-60 20 -60 87q0 39 18 67.5t46.5 47t63.5 27.5t70 9q41 0 85 -14t72 -44l-45 -47 q-18 20 -49 32.5t-60 12.5q-23 0 -46.5 -5t-42.5 -16.5t-31 -28.5t-12 -41q0 -23 11 -35.5t27 -18.5t35 -7t34 -1h46l-10 -54h-73q-21 0 -43.5 -6.5t-40.5 -19.5t-29.5 -32.5t-11.5 -45.5q0 -23 11 -38t27.5 -23t36.5 -11t39 -3q33 0 67 14t59 32l39 -46 q-38 -30 -84.5 -44.5t-95.5 -14.5q-29 0 -58.5 6.5t-52.5 21t-37.5 38t-14.5 57.5q0 51 31.5 90t78.5 53v1z"/>
<glyph glyph-name="uni1F12" horiz-adv-x="425" unicode="ἒ" d="M261 755l79 14l92 -194l-35 -13zM154 577q17 20 26.5 41.5t9.5 37.5q0 17 -11 30t-41 19l35 64q41 -9 63.5 -29.5t22.5 -52.5q0 -20 -15.5 -55.5t-58.5 -70.5zM147 263q-60 20 -60 87q0 39 18 67.5t46.5 47t63.5 27.5t70 9q41 0 85 -14t72 -44l-45 -47q-18 20 -49 32.5 t-60 12.5q-23 0 -46.5 -5t-42.5 -16.5t-31 -28.5t-12 -41q0 -23 11 -35.5t27 -18.5t35 -7t34 -1h46l-10 -54h-73q-21 0 -43.5 -6.5t-40.5 -19.5t-29.5 -32.5t-11.5 -45.5q0 -23 11 -38t27.5 -23t36.5 -11t39 -3q33 0 67 14t59 32l39 -46q-38 -30 -84.5 -44.5t-95.5 -14.5 q-29 0 -58.5 6.5t-52.5 21t-37.5 38t-14.5 57.5q0 51 31.5 90t78.5 53v1z"/>
<glyph glyph-name="uni1F13" horiz-adv-x="425" unicode="ἓ" d="M390 562l-135 192l78 14l93 -193zM159 556q-23 25 -32.5 51.5t-9.5 47.5q0 44 31.5 71t82.5 38l13 -64q-38 -8 -51.5 -25t-13.5 -38q0 -13 4 -31t12 -34zM147 263q-60 20 -60 87q0 39 18 67.5t46.5 47t63.5 27.5t70 9q41 0 85 -14t72 -44l-45 -47q-18 20 -49 32.5 t-60 12.5q-23 0 -46.5 -5t-42.5 -16.5t-31 -28.5t-12 -41q0 -23 11 -35.5t27 -18.5t35 -7t34 -1h46l-10 -54h-73q-21 0 -43.5 -6.5t-40.5 -19.5t-29.5 -32.5t-11.5 -45.5q0 -23 11 -38t27.5 -23t36.5 -11t39 -3q33 0 67 14t59 32l39 -46q-38 -30 -84.5 -44.5t-95.5 -14.5 q-29 0 -58.5 6.5t-52.5 21t-37.5 38t-14.5 57.5q0 51 31.5 90t78.5 53v1z"/>
<glyph glyph-name="uni1F14" horiz-adv-x="425" unicode="ἔ" d="M359 561l-33 12l116 195l73 -14zM225 575q17 22 26 43t9 38q0 16 -10.5 28.5t-40.5 19.5l35 64q42 -9 64.5 -30t22.5 -53q0 -20 -16 -55t-59 -70zM147 263q-60 20 -60 87q0 39 18 67.5t46.5 47t63.5 27.5t70 9q41 0 85 -14t72 -44l-45 -47q-18 20 -49 32.5t-60 12.5 q-23 0 -46.5 -5t-42.5 -16.5t-31 -28.5t-12 -41q0 -23 11 -35.5t27 -18.5t35 -7t34 -1h46l-10 -54h-73q-21 0 -43.5 -6.5t-40.5 -19.5t-29.5 -32.5t-11.5 -45.5q0 -23 11 -38t27.5 -23t36.5 -11t39 -3q33 0 67 14t59 32l39 -46q-38 -30 -84.5 -44.5t-95.5 -14.5 q-29 0 -58.5 6.5t-52.5 21t-37.5 38t-14.5 57.5q0 51 31.5 90t78.5 53v1z"/>
<glyph glyph-name="uni1F15" horiz-adv-x="425" unicode="ἕ" d="M354 562l-34 13l122 194l73 -14zM238 560q-23 25 -32.5 50.5t-9.5 47.5q0 45 31 72t81 38l15 -64q-41 -8 -54 -26.5t-13 -39.5q0 -14 5 -30.5t13 -32.5zM147 263q-60 20 -60 87q0 39 18 67.5t46.5 47t63.5 27.5t70 9q41 0 85 -14t72 -44l-45 -47q-18 20 -49 32.5 t-60 12.5q-23 0 -46.5 -5t-42.5 -16.5t-31 -28.5t-12 -41q0 -23 11 -35.5t27 -18.5t35 -7t34 -1h46l-10 -54h-73q-21 0 -43.5 -6.5t-40.5 -19.5t-29.5 -32.5t-11.5 -45.5q0 -23 11 -38t27.5 -23t36.5 -11t39 -3q33 0 67 14t59 32l39 -46q-38 -30 -84.5 -44.5t-95.5 -14.5 q-29 0 -58.5 6.5t-52.5 21t-37.5 38t-14.5 57.5q0 51 31.5 90t78.5 53v1z"/>
<glyph glyph-name="uni1F18" horiz-adv-x="525" unicode="Ἐ" d="M-28 527q17 20 26.5 41.5t9.5 37.5q0 17 -11 30t-41 19l36 64q40 -9 62.5 -29.5t22.5 -52.5q0 -20 -15.5 -55.5t-58.5 -70.5zM35 0l136 696h410l-12 -62h-344l-48 -252h304l-12 -60h-304l-51 -260h373l-12 -62h-440z"/>
<glyph glyph-name="uni1F19" horiz-adv-x="525" unicode="Ἑ" d="M19 526q-10 -4 -18.5 -8t-18.5 -8q-23 25 -32.5 51.5t-9.5 47.5q0 44 31.5 71t82.5 38l13 -64q-22 -4 -35 -11.5t-19.5 -17.5t-8.5 -21.5t-2 -24.5q2 -13 5.5 -26.5t11.5 -26.5zM35 0l136 696h410l-12 -62h-344l-48 -252h304l-12 -60h-304l-51 -260h373l-12 -62h-440z "/>
<glyph glyph-name="uni1F1A" horiz-adv-x="525" unicode="Ἒ" d="M-94 705l79 14l92 -194l-35 -13zM-201 527q17 20 26.5 41.5t9.5 37.5q0 17 -11 30t-41 19l35 64q41 -9 63.5 -29.5t22.5 -52.5q0 -20 -15.5 -55.5t-58.5 -70.5zM35 0l136 696h410l-12 -62h-344l-48 -252h304l-12 -60h-304l-51 -260h373l-12 -62h-440z"/>
<glyph glyph-name="uni1F1B" horiz-adv-x="525" unicode="Ἓ" d="M41 512l-135 192l78 14l93 -193zM-190 506q-23 25 -32.5 51.5t-9.5 47.5q0 44 31.5 71t82.5 38l13 -64q-38 -8 -51.5 -25t-13.5 -38q0 -13 4 -31t12 -34zM35 0l136 696h410l-12 -62h-344l-48 -252h304l-12 -60h-304l-51 -260h373l-12 -62h-440z"/>
<glyph glyph-name="uni1F1C" horiz-adv-x="525" unicode="Ἔ" d="M-14 511l-33 12l116 195l73 -14zM-148 525q17 22 26 43t9 38q0 16 -10.5 28.5t-40.5 19.5l35 64q42 -9 64.5 -30t22.5 -53q0 -20 -16 -55t-59 -70zM35 0l136 696h410l-12 -62h-344l-48 -252h304l-12 -60h-304l-51 -260h373l-12 -62h-440z"/>
<glyph glyph-name="uni1F1D" horiz-adv-x="525" unicode="Ἕ" d="M-52 512l-34 13l122 194l73 -14zM-168 510q-23 25 -32.5 50.5t-9.5 47.5q0 45 31 72t81 38l15 -64q-41 -8 -54 -26.5t-13 -39.5q0 -14 5 -30.5t13 -32.5zM35 0l136 696h410l-12 -62h-344l-48 -252h304l-12 -60h-304l-51 -260h373l-12 -62h-440z"/>
<glyph glyph-name="uni1F20" horiz-adv-x="506" unicode="ἠ" d="M286 577q17 20 26.5 41.5t9.5 37.5q0 17 -11 30t-41 19l36 64q40 -9 62.5 -29.5t22.5 -52.5q0 -20 -15.5 -55.5t-58.5 -70.5zM313 -131l86 438q5 24 5 45q0 32 -16.5 60t-88.5 28q-27 0 -52.5 -10.5t-46.5 -29t-36 -44t-21 -56.5l-58 -300h-61l96 495h61l-13 -69h2 q32 40 75.5 57.5t84.5 17.5q34 0 62.5 -11.5t47.5 -33t24.5 -45t5.5 -41.5q0 -19 -4 -39l-90 -462h-63z"/>
<glyph glyph-name="uni1F21" horiz-adv-x="506" unicode="ἡ" d="M331 576q-10 -4 -18.5 -8t-18.5 -8q-23 25 -32.5 51.5t-9.5 47.5q0 44 31.5 71t82.5 38l13 -64q-22 -4 -35 -11.5t-19.5 -17.5t-8.5 -21.5t-2 -24.5q2 -13 5.5 -26.5t11.5 -26.5zM313 -131l86 438q5 24 5 45q0 32 -16.5 60t-88.5 28q-27 0 -52.5 -10.5t-46.5 -29t-36 -44 t-21 -56.5l-58 -300h-61l96 495h61l-13 -69h2q32 40 75.5 57.5t84.5 17.5q34 0 62.5 -11.5t47.5 -33t24.5 -45t5.5 -41.5q0 -19 -4 -39l-90 -462h-63z"/>
<glyph glyph-name="uni1F22" horiz-adv-x="506" unicode="ἢ" d="M280 755l79 14l92 -194l-35 -13zM173 577q17 20 26.5 41.5t9.5 37.5q0 17 -11 30t-41 19l35 64q41 -9 63.5 -29.5t22.5 -52.5q0 -20 -15.5 -55.5t-58.5 -70.5zM313 -131l86 438q5 24 5 45q0 32 -16.5 60t-88.5 28q-27 0 -52.5 -10.5t-46.5 -29t-36 -44t-21 -56.5 l-58 -300h-61l96 495h61l-13 -69h2q32 40 75.5 57.5t84.5 17.5q34 0 62.5 -11.5t47.5 -33t24.5 -45t5.5 -41.5q0 -19 -4 -39l-90 -462h-63z"/>
<glyph glyph-name="uni1F23" horiz-adv-x="506" unicode="ἣ" d="M412 562l-135 192l78 14l93 -193zM181 556q-23 25 -32.5 51.5t-9.5 47.5q0 44 31.5 71t82.5 38l13 -64q-38 -8 -51.5 -25t-13.5 -38q0 -13 4 -31t12 -34zM313 -131l86 438q5 24 5 45q0 32 -16.5 60t-88.5 28q-27 0 -52.5 -10.5t-46.5 -29t-36 -44t-21 -56.5l-58 -300h-61 l96 495h61l-13 -69h2q32 40 75.5 57.5t84.5 17.5q34 0 62.5 -11.5t47.5 -33t24.5 -45t5.5 -41.5q0 -19 -4 -39l-90 -462h-63z"/>
<glyph glyph-name="uni1F24" horiz-adv-x="506" unicode="ἤ" d="M372 561l-33 12l116 195l73 -14zM238 575q17 22 26 43t9 38q0 16 -10.5 28.5t-40.5 19.5l35 64q42 -9 64.5 -30t22.5 -53q0 -20 -16 -55t-59 -70zM313 -131l86 438q5 24 5 45q0 32 -16.5 60t-88.5 28q-27 0 -52.5 -10.5t-46.5 -29t-36 -44t-21 -56.5l-58 -300h-61l96 495 h61l-13 -69h2q32 40 75.5 57.5t84.5 17.5q34 0 62.5 -11.5t47.5 -33t24.5 -45t5.5 -41.5q0 -19 -4 -39l-90 -462h-63z"/>
<glyph glyph-name="uni1F25" horiz-adv-x="506" unicode="ἥ" d="M371 562l-34 13l122 194l73 -14zM255 560q-23 25 -32.5 50.5t-9.5 47.5q0 45 31 72t81 38l15 -64q-41 -8 -54 -26.5t-13 -39.5q0 -14 5 -30.5t13 -32.5zM313 -131l86 438q5 24 5 45q0 32 -16.5 60t-88.5 28q-27 0 -52.5 -10.5t-46.5 -29t-36 -44t-21 -56.5l-58 -300h-61 l96 495h61l-13 -69h2q32 40 75.5 57.5t84.5 17.5q34 0 62.5 -11.5t47.5 -33t24.5 -45t5.5 -41.5q0 -19 -4 -39l-90 -462h-63z"/>
<glyph glyph-name="uni1F26" horiz-adv-x="506" unicode="ἦ" d="M262 822q18 0 35.5 -6.5t34.5 -15t32.5 -15t30.5 -6.5q16 0 30 9t33 31l36 -22q-22 -41 -49.5 -58t-55.5 -17q-18 0 -35.5 6.5t-35 15t-33.5 15t-30 6.5q-18 0 -31 -8t-34 -28l-34 22q25 38 51.5 54.5t54.5 16.5zM264 548q38 41 38 70q0 14 -11 23.5t-40 14.5l33 54 q39 -8 60.5 -24t21.5 -42q0 -17 -14.5 -45t-58.5 -62zM313 -131l86 438q5 24 5 45q0 32 -16.5 60t-88.5 28q-27 0 -52.5 -10.5t-46.5 -29t-36 -44t-21 -56.5l-58 -300h-61l96 495h61l-13 -69h2q32 40 75.5 57.5t84.5 17.5q34 0 62.5 -11.5t47.5 -33t24.5 -45t5.5 -41.5 q0 -19 -4 -39l-90 -462h-63z"/>
<glyph glyph-name="uni1F27" horiz-adv-x="506" unicode="ἧ" d="M268 823q18 0 35.5 -6.5t34 -15t32.5 -15t31 -6.5t29.5 9t33.5 31l37 -22q-22 -41 -50 -58t-57 -17q-18 0 -35.5 6.5t-34.5 15t-33 15t-30 6.5q-18 0 -31 -8t-34 -28l-33 22q23 38 50 54.5t55 16.5zM294 535q-24 26 -33.5 48.5t-9.5 39.5q0 35 26.5 56t74.5 29l14 -53 q-36 -7 -48.5 -19.5t-12.5 -30.5q0 -24 22 -59zM313 -131l86 438q5 24 5 45q0 32 -16.5 60t-88.5 28q-27 0 -52.5 -10.5t-46.5 -29t-36 -44t-21 -56.5l-58 -300h-61l96 495h61l-13 -69h2q32 40 75.5 57.5t84.5 17.5q34 0 62.5 -11.5t47.5 -33t24.5 -45t5.5 -41.5 q0 -19 -4 -39l-90 -462h-63z"/>
<glyph glyph-name="uni1F28" horiz-adv-x="618" unicode="Ἠ" d="M-19 527q17 20 26.5 41.5t9.5 37.5q0 17 -11 30t-41 19l36 64q40 -9 62.5 -29.5t22.5 -52.5q0 -20 -15.5 -55.5t-58.5 -70.5zM436 0l62 322h-333l-63 -322h-67l136 696h66l-61 -314h334l61 314h67l-136 -696h-66z"/>
<glyph glyph-name="uni1F29" horiz-adv-x="618" unicode="Ἡ" d="M22 526q-10 -4 -18.5 -8t-18.5 -8q-23 25 -32.5 51.5t-9.5 47.5q0 44 31.5 71t82.5 38l13 -64q-22 -4 -35 -11.5t-19.5 -17.5t-8.5 -21.5t-2 -24.5q2 -13 5.5 -26.5t11.5 -26.5zM436 0l62 322h-333l-63 -322h-67l136 696h66l-61 -314h334l61 314h67l-136 -696h-66z"/>
<glyph glyph-name="uni1F2A" horiz-adv-x="618" unicode="Ἢ" d="M-84 705l79 14l92 -194l-35 -13zM-191 527q17 20 26.5 41.5t9.5 37.5q0 17 -11 30t-41 19l35 64q41 -9 63.5 -29.5t22.5 -52.5q0 -20 -15.5 -55.5t-58.5 -70.5zM436 0l62 322h-333l-63 -322h-67l136 696h66l-61 -314h334l61 314h67l-136 -696h-66z"/>
<glyph glyph-name="uni1F2B" horiz-adv-x="618" unicode="Ἣ" d="M50 512l-135 192l78 14l93 -193zM-181 506q-23 25 -32.5 51.5t-9.5 47.5q0 44 31.5 71t82.5 38l13 -64q-38 -8 -51.5 -25t-13.5 -38q0 -13 4 -31t12 -34zM436 0l62 322h-333l-63 -322h-67l136 696h66l-61 -314h334l61 314h67l-136 -696h-66z"/>
<glyph glyph-name="uni1F2C" horiz-adv-x="618" unicode="Ἤ" d="M-34 511l-33 12l116 195l73 -14zM-168 525q17 22 26 43t9 38q0 16 -10.5 28.5t-40.5 19.5l35 64q42 -9 64.5 -30t22.5 -53q0 -20 -16 -55t-59 -70zM436 0l62 322h-333l-63 -322h-67l136 696h66l-61 -314h334l61 314h67l-136 -696h-66z"/>
<glyph glyph-name="uni1F2D" horiz-adv-x="618" unicode="Ἥ" d="M-46 512l-34 13l122 194l73 -14zM-162 510q-23 25 -32.5 50.5t-9.5 47.5q0 45 31 72t81 38l15 -64q-41 -8 -54 -26.5t-13 -39.5q0 -14 5 -30.5t13 -32.5zM436 0l62 322h-333l-63 -322h-67l136 696h66l-61 -314h334l61 314h67l-136 -696h-66z"/>
<glyph glyph-name="uni1F2E" horiz-adv-x="618" unicode="Ἦ" d="M-127 713q18 0 35.5 -6.5t34.5 -15t32.5 -15t30.5 -6.5q16 0 30 9t33 31l36 -22q-22 -41 -49.5 -58t-55.5 -17q-18 0 -35.5 6.5t-35 15t-33.5 15t-30 6.5q-18 0 -31 -8t-34 -28l-34 22q25 38 51.5 54.5t54.5 16.5zM-125 439q38 41 38 70q0 14 -11 23.5t-40 14.5l33 54 q39 -8 60.5 -24t21.5 -42q0 -17 -14.5 -45t-58.5 -62zM436 0l62 322h-333l-63 -322h-67l136 696h66l-61 -314h334l61 314h67l-136 -696h-66z"/>
<glyph glyph-name="uni1F2F" horiz-adv-x="618" unicode="Ἧ" d="M-133 715q18 0 35.5 -6.5t34 -15t32.5 -15t31 -6.5t29.5 9t33.5 31l37 -22q-22 -41 -50 -58t-57 -17q-18 0 -35.5 6.5t-34.5 15t-33 15t-30 6.5q-18 0 -31 -8t-34 -28l-33 22q23 38 50 54.5t55 16.5zM-107 427q-24 26 -33.5 48.5t-9.5 39.5q0 35 26.5 56t74.5 29l14 -53 q-36 -7 -48.5 -19.5t-12.5 -30.5q0 -24 22 -59zM436 0l62 322h-333l-63 -322h-67l136 696h66l-61 -314h334l61 314h67l-136 -696h-66z"/>
<glyph glyph-name="uni1F30" horiz-adv-x="222" unicode="ἰ" d="M145 577q17 20 26.5 41.5t9.5 37.5q0 17 -11 30t-41 19l36 64q40 -9 62.5 -29.5t22.5 -52.5q0 -20 -15.5 -55.5t-58.5 -70.5zM133 -1h-16q-33 0 -53 14t-20 47q0 20 4 40q19 100 38 197t39 197h61l-77 -393q-3 -12 -3 -22q0 -14 8 -19.5t28 -6.5h2z"/>
<glyph glyph-name="uni1F31" horiz-adv-x="222" unicode="ἱ" d="M186 576q-10 -4 -18.5 -8t-18.5 -8q-23 25 -32.5 51.5t-9.5 47.5q0 44 31.5 71t82.5 38l13 -64q-22 -4 -35 -11.5t-19.5 -17.5t-8.5 -21.5t-2 -24.5q2 -13 5.5 -26.5t11.5 -26.5zM133 -1h-16q-33 0 -53 14t-20 47q0 20 4 40q19 100 38 197t39 197h61l-77 -393 q-3 -12 -3 -22q0 -14 8 -19.5t28 -6.5h2z"/>
<glyph glyph-name="uni1F32" horiz-adv-x="222" unicode="ἲ" d="M140 755l79 14l92 -194l-35 -13zM33 577q17 20 26.5 41.5t9.5 37.5q0 17 -11 30t-41 19l35 64q41 -9 63.5 -29.5t22.5 -52.5q0 -20 -15.5 -55.5t-58.5 -70.5zM133 -1h-16q-33 0 -53 14t-20 47q0 20 4 40q19 100 38 197t39 197h61l-77 -393q-3 -12 -3 -22q0 -14 8 -19.5 t28 -6.5h2z"/>
</font>
</defs>
</svg>
